<svg width="1440" height="100" viewBox="0 0 1440 100" fill="none" xmlns="http://www.w3.org/2000/svg">
<g clip-path="url(#clip0_490_10750)">
<path d="M20.45 90.1786C-6.7 103.274 -33.85 103.274 -61 90.1786V0H1568V90.1786C1540.85 77.0833 1513.7 77.0833 1486.55 90.1786C1459.4 103.274 1432.25 103.274 1405.1 90.1786C1377.95 77.0833 1350.8 77.0833 1323.65 90.1786C1296.5 103.274 1269.35 103.274 1242.2 90.1786C1215.05 77.0833 1187.9 77.0833 1160.75 90.1786C1133.6 103.274 1106.45 103.274 1079.3 90.1786C1052.15 77.0833 1025 77.0833 997.85 90.1786C970.7 103.274 943.55 103.274 916.4 90.1786C889.25 77.0833 862.1 77.0833 834.95 90.1786C807.8 103.274 780.65 103.274 753.5 90.1786C726.35 77.0833 699.2 77.0833 672.05 90.1786C644.9 103.274 617.75 103.274 590.6 90.1786C563.45 77.0833 536.3 77.0833 509.15 90.1786C482 103.274 454.85 103.274 427.7 90.1786C400.55 77.0833 373.4 77.0833 346.25 90.1786C319.1 103.274 291.95 103.274 264.8 90.1786C237.65 77.0833 210.5 77.0833 183.35 90.1786C156.2 103.274 129.05 103.274 101.9 90.1786C74.75 77.0833 47.6 77.0833 20.45 90.1786Z" fill="#531384"/>
</g>
<defs>
<clipPath id="clip0_490_10750">
<rect width="1629" height="100" fill="white" transform="translate(-61)"/>
</clipPath>
</defs>
</svg>
