<svg width="408" height="382" viewBox="0 0 408 382" fill="none" xmlns="http://www.w3.org/2000/svg">
<path d="M380.247 -2.768C375.202 -2.84677 370.77 1.56431 370.902 6.60556C371.041 12.0458 375.452 15.8147 380.165 15.6658C385.333 15.8541 389.349 11.3882 389.363 6.60898C389.38 1.74411 385.667 -2.67896 380.247 -2.768Z" fill="#F5E8FF"/>
<path d="M181.637 6.58665C181.812 1.73548 177.964 -2.69273 172.54 -2.76294C167.538 -2.82801 163.176 1.45807 163.216 6.48219C163.255 11.8659 167.631 15.6879 172.496 15.7051C177.647 15.7188 181.798 11.383 181.637 6.58665Z" fill="#F5E8FF"/>
<path d="M80.0799 6.60051C80.21 12.0373 84.6197 15.8114 89.3324 15.6658C94.511 15.8542 98.5216 11.3883 98.5387 6.61763C98.561 1.75619 94.8569 -2.67544 89.4335 -2.76791C84.3885 -2.85011 79.9514 1.55584 80.0799 6.60051Z" fill="#F5E8FF"/>
<path d="M36.2607 6.55763C36.2573 1.71332 32.5258 -2.71489 27.0938 -2.76284C22.0865 -2.80736 17.7419 1.49756 17.8002 6.51311C17.8652 11.9003 22.2441 15.837 27.1161 15.6658C32.2278 15.8319 36.2693 11.3831 36.2607 6.55763Z" fill="#F5E8FF"/>
<path d="M243.917 6.58665C244.091 1.73548 240.238 -2.69273 234.815 -2.76294C229.818 -2.82801 225.451 1.45807 225.49 6.48219C225.535 11.8967 229.936 15.6879 234.775 15.7051C239.926 15.7188 244.077 11.383 243.917 6.58665Z" fill="#F5E8FF"/>
<path d="M306.189 6.53001C306.343 1.69425 302.473 -2.73738 297.036 -2.76307C292.02 -2.78876 287.689 1.52815 287.768 6.53857C287.852 11.9274 292.236 15.7135 297.111 15.7049C302.209 15.6929 306.382 11.3743 306.189 6.53001Z" fill="#F5E8FF"/>
<path d="M318 15.6654C323.073 15.8024 327.123 11.3691 327.088 6.49565C327.052 1.66845 323.297 -2.76318 317.86 -2.76318C312.832 -2.76318 308.522 1.57256 308.623 6.57442C308.732 11.9616 313.116 15.8589 318 15.6654Z" fill="#F5E8FF"/>
<path d="M151.641 15.6657C156.78 15.8421 160.808 11.4001 160.818 6.58322C160.823 1.73034 157.104 -2.69787 151.677 -2.76294C146.68 -2.82801 142.318 1.46321 142.356 6.48219C142.401 11.8693 146.776 15.8232 151.641 15.6657Z" fill="#F5E8FF"/>
<path d="M15.4061 6.49565C15.3701 1.66503 11.6146 -2.76318 6.17751 -2.76318C1.14966 -2.76318 -3.16065 1.57598 -3.05448 6.57442C-2.94488 11.9616 1.43393 15.8589 6.32307 15.6654C11.3903 15.8024 15.442 11.3691 15.4061 6.49565Z" fill="#F5E8FF"/>
<path d="M183.969 6.52997C183.815 11.2561 188.429 15.9772 193.123 15.6655C197.953 15.823 202.391 11.9753 202.433 6.53511C202.478 1.48873 198.13 -2.82818 193.179 -2.7888C188.042 -2.74941 184.132 1.35345 183.969 6.52997Z" fill="#F5E8FF"/>
<path d="M285.584 6.59713C285.607 1.57302 281.332 -2.85519 276.378 -2.77129C270.825 -2.68396 266.944 1.75624 267.138 6.61426C266.857 11.248 271.552 15.8817 276.344 15.7053C281.442 15.5169 285.564 11.6024 285.584 6.59713Z" fill="#F5E8FF"/>
<path d="M121.69 6.51323C121.532 11.2599 126.154 15.9724 130.831 15.6659C135.667 15.832 140.104 11.9843 140.16 6.54748C140.214 1.51137 135.869 -2.81923 130.918 -2.78841C125.786 -2.75759 121.857 1.34013 121.69 6.51323Z" fill="#F5E8FF"/>
<path d="M391.637 6.56602C391.577 11.2477 396.11 15.991 400.848 15.6656C405.67 15.8112 410.108 11.9395 410.125 6.49924C410.142 1.49738 405.89 -2.81952 400.983 -2.77158C395.421 -2.71849 391.703 1.72513 391.637 6.56602Z" fill="#F5E8FF"/>
<path d="M77.8825 6.53849C77.9271 1.49724 73.5808 -2.8248 68.6317 -2.78884C63.4977 -2.75459 59.5778 1.34484 59.4117 6.52136C59.2593 11.2561 63.8744 15.9771 68.5615 15.6655C73.3975 15.8281 77.8329 11.9787 77.8825 6.53849Z" fill="#F5E8FF"/>
<path d="M347.847 6.48734C347.855 1.48549 343.601 -2.82457 338.692 -2.77149C333.138 -2.70984 329.42 1.73035 329.364 6.57467C329.306 11.2478 333.83 15.9945 338.582 15.6657C343.401 15.8061 347.836 11.931 347.847 6.48734Z" fill="#F5E8FF"/>
<path d="M119.315 6.60889C119.35 1.58991 115.08 -2.84686 110.122 -2.77152C104.567 -2.69275 100.683 1.74745 100.868 6.60033C100.582 11.234 105.269 15.8763 110.064 15.7016C115.167 15.5218 119.284 11.6159 119.315 6.60889Z" fill="#F5E8FF"/>
<path d="M204.805 6.45658C204.697 11.2735 209.3 15.9517 213.912 15.6658C218.765 15.8541 223.197 12.0269 223.293 6.60556C223.385 1.58486 219.068 -2.8502 214.109 -2.77143C208.514 -2.68923 204.916 1.7698 204.805 6.45658Z" fill="#F5E8FF"/>
<path d="M38.5399 6.47688C38.4355 11.2647 43.0249 15.9549 47.6589 15.6655C52.5121 15.8453 56.9388 12.0147 57.0279 6.58647C57.1066 1.55893 52.7741 -2.85901 47.8216 -2.77168C42.2269 -2.67065 38.641 1.78667 38.5399 6.47688Z" fill="#F5E8FF"/>
<path d="M350.236 6.54389C350.09 11.2512 354.693 15.9859 359.406 15.6657C364.237 15.8198 368.67 11.9567 368.705 6.51649C368.736 1.46668 364.382 -2.84166 359.437 -2.78858C354.294 -2.73721 350.397 1.36223 350.236 6.54389Z" fill="#F5E8FF"/>
<path d="M264.712 6.56621C264.779 1.53353 260.443 -2.80735 255.494 -2.78851C250.36 -2.77653 246.3 1.32291 246.278 6.496C245.949 11.2598 250.715 15.7754 255.366 15.7189C260.21 15.6572 264.642 12.0013 264.712 6.56621Z" fill="#F5E8FF"/>
<path d="M163.754 27.0469C163.71 31.8864 167.607 35.8371 172.457 35.9244C177.278 36.0117 181.089 31.5182 181.128 27.3671C181.173 22.4215 177.081 18.3098 172.492 18.6163C167.821 18.243 163.788 22.6629 163.754 27.0469Z" fill="#F5E8FF"/>
<path d="M347.32 27.3498C347.426 22.3733 342.893 18.5545 338.74 18.5459C333.908 18.5373 329.731 22.5925 329.998 27.2436C329.653 31.8433 334.062 35.955 338.64 35.9293C343.34 35.907 347.219 32.0437 347.32 27.3498Z" fill="#F5E8FF"/>
<path d="M309.166 27.0811C309.143 31.9257 313.053 35.8592 317.903 35.9243C322.704 35.9894 326.518 31.5095 326.54 27.3277C326.571 22.4522 322.524 18.296 317.867 18.6163C313.23 18.2566 309.183 22.6766 309.166 27.0811Z" fill="#F5E8FF"/>
<path d="M201.908 27.3583C202.014 22.3733 197.481 18.5545 193.333 18.5459C188.493 18.5373 184.324 22.5925 184.587 27.2402C184.241 31.8468 188.65 35.9499 193.226 35.9293C197.922 35.907 201.803 32.0488 201.908 27.3583Z" fill="#F5E8FF"/>
<path d="M18.3439 27.1085C18.3388 31.9531 22.2537 35.8678 27.1072 35.9243C31.8819 35.9774 35.7044 31.5096 35.7181 27.3054C35.7352 22.4745 31.7226 18.2926 27.0199 18.6163C22.4062 18.2652 18.3439 22.6852 18.3439 27.1085Z" fill="#F5E8FF"/>
<path d="M118.771 27.3138C118.859 22.3596 114.343 18.5425 110.155 18.5459C105.389 18.5545 101.171 22.5617 101.449 27.2796C101.12 31.8467 105.521 35.9721 110.13 35.9293C114.829 35.8848 118.693 32.0094 118.771 27.3138Z" fill="#F5E8FF"/>
<path d="M371.439 27.1256C371.449 31.9702 375.376 35.8798 380.226 35.9243C384.987 35.9688 388.81 31.5095 388.818 27.2882C388.827 22.4882 384.838 18.2874 380.103 18.6162C375.505 18.2703 371.435 22.6885 371.439 27.1256Z" fill="#F5E8FF"/>
<path d="M222.764 27.3224C222.855 22.3647 218.334 18.5425 214.151 18.5459C209.373 18.551 205.169 22.5702 205.441 27.2744C205.104 31.8382 209.509 35.9687 214.117 35.9293C218.813 35.8882 222.68 32.018 222.764 27.3224Z" fill="#F5E8FF"/>
<path d="M267.719 27.1565C267.342 31.8556 271.779 35.9073 276.273 35.9295C281.034 35.9501 284.971 32.0491 285.042 27.2918C285.115 22.3342 280.592 18.5907 276.549 18.5513C271.565 18.4982 267.488 22.6493 267.719 27.1565Z" fill="#F5E8FF"/>
<path d="M139.63 27.3189C139.717 22.3682 135.201 18.5425 131.019 18.5459C126.241 18.5545 122.031 22.5702 122.307 27.2744C121.975 31.8467 126.379 35.9687 130.983 35.9293C135.68 35.8882 139.546 32.0129 139.63 27.3189Z" fill="#F5E8FF"/>
<path d="M142.894 27.0862C142.877 31.9308 146.789 35.8592 151.637 35.9243C156.434 35.9894 160.248 31.5095 160.268 27.3277C160.299 22.4522 156.257 18.296 151.597 18.6163C146.96 18.2566 142.913 22.6766 142.894 27.0862Z" fill="#F5E8FF"/>
<path d="M392.273 27.3104C391.952 31.8434 396.349 35.9893 400.983 35.9294C405.679 35.8711 409.532 31.9838 409.599 27.2882C409.664 22.3511 405.161 18.5288 400.949 18.546C396.227 18.5682 391.987 22.548 392.273 27.3104Z" fill="#F5E8FF"/>
<path d="M368.174 27.3395C368.275 22.3733 363.756 18.551 359.586 18.5459C354.771 18.5425 350.586 22.5839 350.853 27.2522C350.511 31.8433 354.92 35.9584 359.507 35.9293C364.206 35.9019 368.082 32.0351 368.174 27.3395Z" fill="#F5E8FF"/>
<path d="M288.306 27.1391C288.323 31.9872 292.261 35.8882 297.105 35.9242C301.863 35.9584 305.97 31.5008 305.607 27.271C305.949 22.5052 301.717 18.5425 296.956 18.5425C292.367 18.5459 288.292 22.697 288.306 27.1391Z" fill="#F5E8FF"/>
<path d="M80.6164 27.1391C80.6335 31.9872 84.5707 35.8882 89.4156 35.9242C94.1732 35.9584 97.9905 31.5043 97.9957 27.2744C97.9991 22.4829 94.0139 18.2839 89.2666 18.6161C84.6803 18.2788 80.6027 22.6935 80.6164 27.1391Z" fill="#F5E8FF"/>
<path d="M226.032 27.0862C226.011 31.9308 229.926 35.8592 234.775 35.9243C239.572 35.9894 243.386 31.5095 243.403 27.3277C243.428 22.4214 239.37 18.296 234.73 18.6163C230.096 18.2566 226.046 22.6766 226.032 27.0862Z" fill="#F5E8FF"/>
<path d="M14.8632 27.2487C14.8529 22.5273 10.9174 18.2735 6.10677 18.616C1.54616 18.2838 -2.54178 22.6969 -2.51609 27.1613C-2.48527 32.0094 1.46053 35.907 6.30543 35.9241C11.0493 35.9464 14.8666 31.4956 14.8632 27.2487Z" fill="#F5E8FF"/>
<path d="M56.4969 27.3395C56.5945 22.3682 52.0682 18.551 47.9032 18.5459C43.0942 18.5459 38.9035 22.5788 39.1707 27.2573C38.8333 31.8382 43.2295 35.9584 47.8295 35.9293C52.5289 35.8985 56.3993 32.0317 56.4969 27.3395Z" fill="#F5E8FF"/>
<path d="M264.182 27.2488C264.231 22.3203 259.724 18.5717 255.646 18.546C250.75 18.5203 246.611 22.6149 246.861 27.2009C246.501 31.852 250.925 35.9328 255.466 35.9294C260.224 35.9243 264.139 32.001 264.182 27.2488Z" fill="#F5E8FF"/>
<path d="M68.6794 18.6162C64.0023 18.3405 59.9589 22.5309 59.964 27.3361C59.964 31.8126 64.0503 35.9294 68.6229 35.9294C73.3839 35.9294 77.304 32.0129 77.3519 27.2574C77.4033 22.3477 72.9146 18.2531 68.6794 18.6162Z" fill="#F5E8FF"/>
<path d="M305.199 47.9136C305.264 43.5587 301.473 39.9077 297.131 39.8546C292.66 39.7981 288.868 43.581 288.885 48.0403C288.899 52.5818 292.559 56.2037 297.114 56.1986C300.956 56.1986 305.112 53.5202 305.199 47.9136Z" fill="#F5E8FF"/>
<path d="M180.642 47.8915C180.695 43.5246 176.884 39.8908 172.553 39.8548C168.073 39.8154 164.3 43.6 164.329 48.0627C164.353 52.6042 168.028 56.2124 172.582 56.1987C176.451 56.185 180.575 53.4724 180.642 47.8915Z" fill="#F5E8FF"/>
<path d="M35.2384 47.9788C35.3651 43.6479 31.4107 39.8154 27.0848 39.8513C22.6389 39.8821 18.9243 43.5777 18.9174 47.9736C18.9089 52.5254 22.5396 56.1678 27.0796 56.2038C30.8644 56.2295 35.0722 53.6471 35.2384 47.9788Z" fill="#F5E8FF"/>
<path d="M226.607 48.0269C226.616 52.5736 230.272 56.2074 234.822 56.1989C238.676 56.216 242.829 53.5206 242.92 47.9259C242.995 43.5728 239.212 39.9166 234.867 39.855C230.399 39.7848 226.594 43.5693 226.607 48.0269Z" fill="#F5E8FF"/>
<path d="M14.3802 47.9616C14.4932 43.617 10.5218 39.793 6.20776 39.8512C1.7499 39.9026 -1.9373 43.5896 -1.94243 47.9958C-1.94243 52.5424 1.69681 56.19 6.24372 56.1986C10.0439 56.2328 14.2346 53.6127 14.3802 47.9616Z" fill="#F5E8FF"/>
<path d="M309.739 47.9431C309.717 52.4983 313.334 56.1544 317.873 56.2041C321.652 56.2383 325.874 53.6867 326.062 48.0098C326.211 43.6875 322.274 39.843 317.938 39.8516C313.505 39.855 309.762 43.5505 309.739 47.9431Z" fill="#F5E8FF"/>
<path d="M159.787 47.948C159.875 43.6035 156.109 39.9336 151.75 39.8548C147.292 39.7726 143.47 43.5504 143.473 48.0097C143.473 52.5563 147.123 56.1988 151.668 56.1988C155.478 56.2296 159.674 53.5906 159.787 47.948Z" fill="#F5E8FF"/>
<path d="M372.018 48.0661C372.045 52.6042 375.713 56.2124 380.269 56.1987C384.141 56.185 388.267 53.4724 388.332 47.8915C388.385 43.5246 384.574 39.8908 380.238 39.8548C375.763 39.8154 371.992 43.6 372.018 48.0661Z" fill="#F5E8FF"/>
<path d="M81.1954 48.1721C81.2708 52.6999 84.982 56.2636 89.5546 56.1985C93.3616 56.142 97.3999 53.4586 97.5129 47.9307C97.6054 43.5776 93.6254 39.7758 89.3097 39.8512C84.7902 39.9248 81.1201 43.6872 81.1954 48.1721Z" fill="#F5E8FF"/>
<path d="M367.583 48.0525C367.635 44.2217 364.973 39.9525 359.512 39.9302C354.741 39.9131 351.418 43.398 351.283 48.145C351.154 52.4588 354.999 56.12 359.344 56.2159C363.79 56.3135 367.71 52.4331 367.583 48.0525Z" fill="#F5E8FF"/>
<path d="M76.7781 48.0182C76.725 44.1994 74.1201 39.925 68.657 39.9302C63.8309 39.9336 60.5633 43.4939 60.4588 48.1758C60.3578 52.5066 64.1991 56.1936 68.5525 56.1988C72.971 56.3563 76.838 52.4279 76.7781 48.0182Z" fill="#F5E8FF"/>
<path d="M139.056 47.9394C138.968 44.1908 136.434 39.9832 131.002 39.9301C126.3 39.8856 122.899 43.3003 122.733 48.1106C122.579 52.4723 126.491 56.2244 130.909 56.1987C135.271 56.322 139.157 52.4073 139.056 47.9394Z" fill="#F5E8FF"/>
<path d="M284.446 48.071C284.511 44.2522 281.872 39.9693 276.397 39.9299C271.665 39.8991 268.303 43.3446 268.145 48.1275C268.005 52.4327 271.85 56.1111 276.189 56.2156C280.649 56.3218 284.567 52.4413 284.446 48.071Z" fill="#F5E8FF"/>
<path d="M392.701 48.1929C392.613 52.529 396.455 56.1371 400.808 56.2159C405.223 56.2913 409.152 52.4194 409.003 48.0046C409.032 44.1344 406.302 39.9131 400.887 39.9302C396.025 39.9474 392.793 43.5504 392.701 48.1929Z" fill="#F5E8FF"/>
<path d="M201.311 48.0354C201.361 44.1908 198.672 39.9387 193.226 39.9302C188.428 39.925 185.134 43.4493 185.011 48.1621C184.901 52.4861 188.743 56.1285 193.093 56.2159C197.523 56.3032 201.452 52.4279 201.311 48.0354Z" fill="#F5E8FF"/>
<path d="M55.9011 47.948C55.908 44.196 53.3048 39.9867 47.8742 39.9302C43.1869 39.8822 39.7703 43.2832 39.6007 48.1056C39.4415 52.4638 43.3479 56.1628 47.768 56.2159C52.1351 56.2638 56.0792 52.4073 55.9011 47.948Z" fill="#F5E8FF"/>
<path d="M338.565 39.9027C334.146 39.8376 330.431 43.6873 330.397 48.0883C330.358 52.4466 334.163 56.2158 338.578 56.1986C342.957 56.3305 346.833 52.4072 346.74 47.9616C346.658 44.0195 343.909 39.9832 338.565 39.9027Z" fill="#F5E8FF"/>
<path d="M247.291 48.193C247.207 52.5341 251.043 56.204 255.401 56.1988C259.808 56.353 263.678 52.4194 263.608 48.0046C263.546 44.1036 260.851 39.908 255.472 39.9303C250.613 39.956 247.383 43.5419 247.291 48.193Z" fill="#F5E8FF"/>
<path d="M214.103 39.8991C209.676 39.7587 205.83 43.7128 205.84 48.1413C205.849 52.4585 209.584 56.1814 213.929 56.1985C218.374 56.3732 222.233 52.4362 222.188 48.0523C222.154 44.2266 219.572 40.0704 214.103 39.8991Z" fill="#F5E8FF"/>
<path d="M118.196 47.9653C118.117 44.0557 115.396 39.9919 110.024 39.9029C105.605 39.8293 101.892 43.6789 101.848 48.0834C101.803 52.4365 105.614 56.216 110.024 56.1989C114.413 56.3342 118.285 52.4074 118.196 47.9653Z" fill="#F5E8FF"/>
<path d="M289.464 68.6353C289.442 72.9404 292.884 76.4476 297.114 76.4288C301.301 76.4116 304.699 72.9353 304.694 68.6866C304.69 65.0836 301.555 61.1346 297.052 61.1945C292.752 61.2562 289.486 64.3729 289.464 68.6353Z" fill="#F5E8FF"/>
<path d="M372.596 68.7175C372.601 72.949 375.999 76.4031 380.186 76.4288C384.36 76.4562 387.789 73.0055 387.828 68.7483C387.862 65.1281 384.711 61.0987 380.103 61.1945C375.823 61.2836 372.596 64.4346 372.596 68.7175Z" fill="#F5E8FF"/>
<path d="M144.052 68.6867C144.049 72.9268 147.419 76.3775 151.611 76.4288C155.776 76.4819 159.222 73.0398 159.284 68.7792C159.335 65.1487 156.18 61.1124 151.584 61.1946C147.301 61.2734 144.057 64.4123 144.052 68.6867Z" fill="#F5E8FF"/>
<path d="M13.8716 68.7398C13.899 65.1316 10.7633 61.1552 6.28319 61.1946C1.96747 61.234 -1.31898 64.3336 -1.35837 68.5823C-1.4029 72.9011 1.99487 76.4083 6.23866 76.4289C10.4122 76.4511 13.8357 72.997 13.8716 68.7398Z" fill="#F5E8FF"/>
<path d="M310.322 68.6353C310.296 72.9404 313.742 76.451 317.974 76.4288C322.159 76.4082 325.554 72.9353 325.554 68.6832C325.548 65.0836 322.414 61.1346 317.907 61.1945C313.607 61.2562 310.341 64.3729 310.322 68.6353Z" fill="#F5E8FF"/>
<path d="M34.7265 68.7398C34.7573 65.1316 31.6216 61.1552 27.1363 61.1946C22.8275 61.234 19.5393 64.3336 19.4999 68.5823C19.4554 72.9011 22.8549 76.4083 27.0987 76.4289C31.2722 76.4511 34.6957 72.997 34.7265 68.7398Z" fill="#F5E8FF"/>
<path d="M227.186 68.7758C227.207 72.9919 230.658 76.4477 234.831 76.4288C239.019 76.4117 242.416 72.9405 242.416 68.6918C242.416 65.0751 239.269 61.073 234.634 61.1946C230.368 61.3042 227.164 64.4826 227.186 68.7758Z" fill="#F5E8FF"/>
<path d="M81.7743 68.7223C81.7777 72.9521 85.1841 76.4079 89.3679 76.4285C93.5415 76.4507 96.9701 73.0001 97.006 68.7446C97.0351 65.1227 93.8823 61.0932 89.2754 61.1942C84.9957 61.2867 81.7692 64.4394 81.7743 68.7223Z" fill="#F5E8FF"/>
<path d="M172.447 76.4286C176.669 76.4954 180.164 72.9523 180.137 68.6522C180.119 65.0612 176.985 61.1207 172.464 61.1944C168.173 61.2646 164.919 64.4001 164.908 68.6659C164.898 72.9095 168.253 76.3635 172.447 76.4286Z" fill="#F5E8FF"/>
<path d="M367.039 68.863C366.873 64.3917 363.908 61.2168 359.52 61.2134C355.285 61.2134 351.75 64.5835 351.809 68.7757C351.865 72.9833 355.075 76.2849 359.493 76.4339C363.115 76.5572 367.196 73.0535 367.039 68.863Z" fill="#F5E8FF"/>
<path d="M221.589 68.9196C221.61 64.4261 218.541 61.2392 214.17 61.2169C209.86 61.1946 206.273 64.6316 206.397 68.8631C206.515 73.0587 209.681 76.2456 214.025 76.434C217.672 76.5881 221.908 73.0587 221.589 68.9196Z" fill="#F5E8FF"/>
<path d="M393.228 68.7877C393.299 73.0192 396.529 76.2935 400.932 76.4339C404.538 76.5469 408.625 73.0501 408.458 68.8459C408.287 64.3815 405.319 61.2134 400.927 61.2134C396.691 61.2168 393.158 64.6007 393.228 68.7877Z" fill="#F5E8FF"/>
<path d="M68.8901 61.2166C64.8519 60.9888 61.0431 64.1723 60.9985 68.7258C60.9557 72.8786 64.1497 76.2487 68.6281 76.4337C72.305 76.5775 76.2286 73.019 76.2337 69.0546C76.2388 64.347 72.7178 61.1686 68.8901 61.2166Z" fill="#F5E8FF"/>
<path d="M346.141 68.875C346.153 64.3952 343.059 61.2219 338.68 61.2134C334.434 61.2082 330.901 64.5716 330.949 68.762C331.002 72.961 334.194 76.2764 338.626 76.4339C342.252 76.5606 346.482 73.0501 346.141 68.875Z" fill="#F5E8FF"/>
<path d="M268.675 68.8014C268.75 73.0449 271.999 76.3021 276.388 76.4339C279.995 76.5384 284.218 73.0398 283.867 68.8356C283.867 64.3695 280.753 61.2082 276.361 61.2134C272.131 61.2219 268.596 64.6144 268.675 68.8014Z" fill="#F5E8FF"/>
<path d="M123.259 68.8541C123.382 73.1593 126.696 76.3377 131.027 76.4336C134.588 76.5072 138.823 73.0497 138.455 68.7839C138.443 64.3383 135.299 61.1908 130.897 61.2165C126.674 61.2387 123.146 64.6808 123.259 68.8541Z" fill="#F5E8FF"/>
<path d="M117.597 68.8459C117.6 64.3729 114.492 61.2134 110.099 61.2134C105.869 61.2168 102.334 64.6058 102.405 68.7928C102.48 73.0312 105.715 76.2986 110.111 76.4339C113.721 76.5435 117.946 73.0449 117.597 68.8459Z" fill="#F5E8FF"/>
<path d="M55.3224 68.7703C55.3001 64.3247 52.1558 61.1857 47.7459 61.2165C43.5329 61.2439 39.9999 64.698 40.1249 68.8662C40.2568 73.1799 43.5929 76.3463 47.9086 76.4336C51.4554 76.5039 55.6957 73.0532 55.3224 68.7703Z" fill="#F5E8FF"/>
<path d="M263.007 68.8459C263.007 64.3729 259.899 61.2134 255.511 61.2134C251.276 61.2168 247.741 64.6109 247.817 68.7928C247.892 73.0312 251.127 76.2986 255.523 76.4339C259.128 76.5435 263.358 73.05 263.007 68.8459Z" fill="#F5E8FF"/>
<path d="M200.733 68.8185C200.729 64.361 197.607 61.2031 193.209 61.2168C188.983 61.2254 185.449 64.6367 185.539 68.8151C185.629 73.0672 188.878 76.3072 193.267 76.434C196.857 76.535 201.087 73.0501 200.733 68.8185Z" fill="#F5E8FF"/>
<path d="M102.952 89.5879C102.974 93.4907 106.156 96.6999 110.071 96.7084C114.3 96.7221 117.215 93.1259 117.007 89.6941C117.302 85.752 113.776 82.6404 110.19 82.601C106.359 82.5565 102.925 85.9369 102.952 89.5879Z" fill="#F5E8FF"/>
<path d="M40.6749 89.5315C40.6646 93.4291 43.8192 96.664 47.7376 96.7085C52.007 96.7565 54.915 93.1363 54.7352 89.7507C55.0469 85.752 51.5035 82.6045 47.8249 82.6011C44.0983 82.5959 40.6783 85.9147 40.6749 89.5315Z" fill="#F5E8FF"/>
<path d="M123.807 89.6067C123.85 93.5129 127.03 96.7083 130.945 96.7083C135.15 96.7083 138.078 93.1395 137.868 89.6769C138.157 85.7656 134.646 82.6352 131.033 82.6009C127.2 82.5615 123.768 85.9677 123.807 89.6067Z" fill="#F5E8FF"/>
<path d="M393.776 89.5281C393.768 93.4291 396.915 96.6606 400.834 96.7085C405.108 96.7565 408.016 93.1311 407.831 89.7558C408.147 85.7521 404.605 82.6097 400.931 82.6011C397.2 82.5925 393.78 85.9147 393.776 89.5281Z" fill="#F5E8FF"/>
<path d="M269.219 89.5005C269.193 93.4512 272.432 96.734 276.4 96.7083C280.644 96.6826 283.243 93.0659 283.332 89.7865C283.432 85.7313 280.034 82.416 276.4 82.6574C272.651 82.3851 269.241 85.9026 269.219 89.5005Z" fill="#F5E8FF"/>
<path d="M206.941 89.5756C206.962 93.4767 210.132 96.691 214.052 96.7081C218.287 96.7304 221.202 93.1256 221 89.7075C221.3 85.7431 217.76 82.6487 214.196 82.6007C210.343 82.5476 206.923 85.9503 206.941 89.5756Z" fill="#F5E8FF"/>
<path d="M61.5291 89.5365C61.5291 93.494 64.7813 96.7529 68.7459 96.7084C72.8801 96.6638 75.6237 93.1361 75.6459 89.5982C75.6682 85.793 72.392 82.404 68.674 82.6575C64.9526 82.3989 61.5325 85.9197 61.5291 89.5365Z" fill="#F5E8FF"/>
<path d="M248.36 89.5278C248.356 93.4819 251.605 96.7476 255.568 96.7082C259.741 96.6689 262.451 93.1137 262.478 89.61C262.504 85.7963 259.238 82.4073 255.52 82.6573C251.788 82.3953 248.37 85.9145 248.36 89.5278Z" fill="#F5E8FF"/>
<path d="M352.352 89.5842C352.383 93.4904 355.558 96.6945 359.473 96.7082C363.615 96.7253 366.469 93.2044 366.469 89.5483C366.469 85.8219 363.247 82.385 359.45 82.6573C355.767 82.4158 352.326 85.9418 352.352 89.5842Z" fill="#F5E8FF"/>
<path d="M186.085 89.5312C186.081 93.4853 189.33 96.7476 193.298 96.7082C197.436 96.6689 200.176 93.136 200.198 89.6066C200.22 85.8049 196.961 82.4073 193.237 82.6573C189.51 82.3953 186.09 85.9145 186.085 89.5312Z" fill="#F5E8FF"/>
<path d="M331.497 89.6493C331.567 93.5606 334.768 96.7338 338.68 96.7081C342.853 96.6859 345.782 93.1256 345.557 89.6321C345.83 85.7876 342.357 82.6178 338.68 82.6007C334.878 82.5784 331.432 85.9931 331.497 89.6493Z" fill="#F5E8FF"/>
<path d="M34.1424 89.5448C34.1339 85.6524 31.0821 82.7891 27.0729 82.6264C23.2915 82.474 19.8167 85.9503 20.0838 89.5448C19.8167 93.2849 23.3275 96.691 26.9273 96.7167C30.8731 96.7424 34.1476 93.5041 34.1424 89.5448Z" fill="#F5E8FF"/>
<path d="M165.494 89.4916C165.205 93.319 168.796 96.7474 172.434 96.7166C176.331 96.6823 179.524 93.5074 179.549 89.5978C179.577 85.7088 176.53 82.8061 172.536 82.6263C168.642 82.4516 165.241 86.0067 165.494 89.4916Z" fill="#F5E8FF"/>
<path d="M96.4168 89.4972C96.3825 85.5996 93.3221 82.7757 89.2975 82.6267C85.6155 82.4863 82.0773 85.9061 82.3616 89.5931C82.1167 93.3023 85.6275 96.717 89.253 96.717C93.204 96.7119 96.4561 93.4513 96.4168 89.4972Z" fill="#F5E8FF"/>
<path d="M13.2841 89.4784C13.2362 85.5825 10.1758 82.7672 6.1478 82.6268C2.4863 82.4949 -1.06047 85.8976 -0.776179 89.6103C-1.01765 93.2972 2.49828 96.7308 6.13753 96.7171C10.0885 96.6999 13.3321 93.4342 13.2841 89.4784Z" fill="#F5E8FF"/>
<path d="M290.051 89.6185C289.81 93.302 293.326 96.7338 296.97 96.7167C300.919 96.6944 304.16 93.4236 304.107 89.4695C304.055 85.5736 300.998 82.6572 296.962 82.6572C292.976 82.6538 290.034 85.6164 290.051 89.6185Z" fill="#F5E8FF"/>
<path d="M387.241 89.528C387.222 85.6338 384.167 82.7843 380.151 82.6267C376.411 82.4777 372.908 85.9318 373.184 89.5623C372.926 93.2886 376.433 96.6999 380.046 96.717C383.992 96.7307 387.262 93.4821 387.241 89.528Z" fill="#F5E8FF"/>
<path d="M144.636 89.5757C144.381 93.2883 147.894 96.7082 151.514 96.7167C155.46 96.7253 158.722 93.4682 158.697 89.514C158.669 85.6164 155.614 82.7806 151.593 82.6264C147.875 82.4826 144.36 85.9195 144.636 89.5757Z" fill="#F5E8FF"/>
<path d="M324.961 89.4696C324.91 85.5737 321.85 82.7669 317.82 82.6265C314.181 82.4998 310.617 85.8836 310.906 89.6186C310.665 93.3021 314.186 96.7339 317.825 96.7168C321.779 96.6945 325.015 93.4237 324.961 89.4696Z" fill="#F5E8FF"/>
<path d="M227.774 89.5705C227.515 93.2883 231.026 96.7082 234.648 96.7167C238.594 96.7253 241.855 93.4733 241.829 89.514C241.807 85.6216 238.746 82.7806 234.73 82.6264C231.004 82.4826 227.496 85.923 227.774 89.5705Z" fill="#F5E8FF"/>
<path d="M124.391 110.143C124.329 113.726 127.114 116.724 130.752 116.772C134.807 116.825 137.496 113.681 137.28 110.438C137.6 106.759 134.382 103.752 130.988 103.805C127.436 103.862 124.448 106.672 124.391 110.143Z" fill="#F5E8FF"/>
<path d="M199.558 110.359C199.858 106.821 196.722 103.783 193.338 103.805C189.716 103.831 186.683 106.684 186.669 110.222C186.65 113.844 189.488 116.702 192.961 116.772C197.081 116.856 199.794 113.695 199.558 110.359Z" fill="#F5E8FF"/>
<path d="M54.1475 110.451C54.4729 106.742 51.231 103.756 47.8743 103.805C44.3173 103.853 41.3237 106.658 41.2535 110.126C41.1884 113.703 43.9713 116.719 47.6003 116.772C51.6917 116.829 54.3582 113.664 54.1475 110.451Z" fill="#F5E8FF"/>
<path d="M207.51 110.253C207.563 113.673 210.176 116.957 213.999 116.719C217.958 116.716 220.294 114.274 220.449 110.328C220.584 106.847 217.599 103.831 214.162 103.787C210.629 103.744 207.457 107.009 207.51 110.253Z" fill="#F5E8FF"/>
<path d="M332.081 110.179C332.036 113.717 334.79 116.938 338.481 116.719C342.466 116.733 344.83 114.317 345.001 110.402C345.158 106.804 342.117 103.735 338.64 103.805C335.092 103.876 332.12 106.703 332.081 110.179Z" fill="#F5E8FF"/>
<path d="M352.922 110.28C352.987 113.655 355.566 116.966 359.437 116.719C363.382 116.707 365.711 114.251 365.86 110.301C365.987 106.891 363.054 103.817 359.546 103.786C356.03 103.756 352.857 107.013 352.922 110.28Z" fill="#F5E8FF"/>
<path d="M269.784 110.219C269.824 113.69 272.481 116.947 276.242 116.719C280.21 116.719 282.56 114.291 282.723 110.363C282.872 106.843 279.882 103.783 276.326 103.787C272.898 103.795 269.753 106.996 269.784 110.219Z" fill="#F5E8FF"/>
<path d="M116.42 110.46C116.749 106.737 113.505 103.756 110.15 103.805C106.6 103.853 103.602 106.655 103.533 110.123C103.461 113.748 106.285 116.719 109.875 116.772C113.975 116.834 116.636 113.655 116.42 110.46Z" fill="#F5E8FF"/>
<path d="M261.894 110.415C261.956 106.776 258.952 103.738 255.523 103.805C251.973 103.87 248.991 106.689 248.943 110.165C248.896 113.726 251.666 116.935 255.331 116.719C259.339 116.997 261.838 113.698 261.894 110.415Z" fill="#F5E8FF"/>
<path d="M394.356 110.21C394.333 113.852 397.186 116.699 400.642 116.772C404.777 116.86 407.481 113.686 407.25 110.367C407.548 106.807 404.4 103.786 401.036 103.805C397.414 103.826 394.376 106.675 394.356 110.21Z" fill="#F5E8FF"/>
<path d="M62.1117 110.227C62.0997 113.839 64.9272 116.702 68.4123 116.772C72.5191 116.851 75.2421 113.704 75.0006 110.35C75.3003 106.824 72.1749 103.778 68.7754 103.805C65.1601 103.831 62.1254 106.694 62.1117 110.227Z" fill="#F5E8FF"/>
<path d="M95.8464 110.354C95.8567 106.864 92.9539 103.862 89.4756 103.826C85.9305 103.792 82.9609 106.554 82.8787 110.219C82.7948 113.726 86.0744 117.075 89.306 116.719C92.5377 117.009 95.8327 114.335 95.8464 110.354Z" fill="#F5E8FF"/>
<path d="M178.981 110.289C178.958 106.799 176.03 103.831 172.543 103.826C169.102 103.822 165.849 106.501 166.078 110.283C165.705 113.655 169.15 116.851 172.504 116.789C175.626 116.733 179.006 114.356 178.981 110.289Z" fill="#F5E8FF"/>
<path d="M12.7139 110.393C12.7361 106.9 9.85213 103.876 6.37901 103.826C2.77573 103.775 -0.157927 106.58 -0.25897 110.183C-0.354874 113.76 2.97096 117.067 6.13411 116.719C9.42227 117.014 12.683 114.322 12.7139 110.393Z" fill="#F5E8FF"/>
<path d="M380.094 116.719C383.391 117.014 386.645 114.308 386.671 110.39C386.693 106.895 383.807 103.875 380.331 103.826C376.736 103.778 373.799 106.574 373.701 110.188C373.605 113.751 376.93 117.07 380.094 116.719Z" fill="#F5E8FF"/>
<path d="M296.926 116.719C300.31 117.022 303.569 114.246 303.538 110.28C303.507 106.785 300.574 103.817 297.089 103.826C293.502 103.834 290.678 106.641 290.569 110.148C290.456 113.799 293.835 117.061 296.926 116.719Z" fill="#F5E8FF"/>
<path d="M158.126 110.398C158.152 106.903 155.268 103.879 151.795 103.826C148.169 103.775 145.255 106.597 145.157 110.179C145.056 113.765 148.389 117.067 151.541 116.719C154.85 117.014 158.095 114.308 158.126 110.398Z" fill="#F5E8FF"/>
<path d="M241.258 110.328C241.255 106.835 238.338 103.848 234.858 103.826C231.372 103.805 228.137 106.514 228.356 110.249C227.974 113.69 231.456 116.834 234.749 116.789C237.931 116.746 241.264 114.339 241.258 110.328Z" fill="#F5E8FF"/>
<path d="M317.82 116.719C321.113 117.014 324.365 114.308 324.393 110.39C324.413 106.895 321.529 103.875 318.053 103.826C314.458 103.778 311.519 106.574 311.423 110.183C311.331 113.751 314.646 117.067 317.82 116.719Z" fill="#F5E8FF"/>
<path d="M33.5685 110.421C33.6028 106.925 30.7325 103.893 27.2594 103.826C23.639 103.761 20.7053 106.579 20.6009 110.157C20.4947 113.787 23.8582 117.062 26.9648 116.719C30.3112 117.017 33.5292 114.296 33.5685 110.421Z" fill="#F5E8FF"/>
<path d="M208.101 130.966C208.097 134.495 210.579 136.976 214.114 136.976C217.523 136.973 220.111 134.399 220.075 131.041C220.044 127.736 217.357 125.027 214.108 125.008C211.096 124.999 207.895 127.717 208.101 130.966Z" fill="#F5E8FF"/>
<path d="M136.943 131.075C136.934 127.775 134.264 125.053 131.016 125.013C127.986 124.974 124.864 127.709 124.944 130.931C125.027 134.464 127.411 136.963 130.94 136.973C134.36 136.985 136.951 134.439 136.943 131.075Z" fill="#F5E8FF"/>
<path d="M353.515 130.931C353.496 134.469 355.96 136.963 359.49 136.973C362.91 136.985 365.501 134.433 365.487 131.075C365.479 127.77 362.809 125.047 359.555 125.013C356.53 124.977 353.316 127.717 353.515 130.931Z" fill="#F5E8FF"/>
<path d="M68.8165 125.013C65.7544 124.926 62.6204 127.692 62.6649 130.848C62.7163 134.399 65.0676 136.924 68.5836 136.973C72.0156 137.021 74.6239 134.526 74.6633 131.159C74.7078 127.858 72.0773 125.106 68.8165 125.013Z" fill="#F5E8FF"/>
<path d="M187.22 130.926C187.304 134.464 189.69 136.959 193.214 136.973C196.635 136.985 199.226 134.442 199.221 131.08C199.212 127.779 196.542 125.053 193.293 125.013C190.264 124.974 187.142 127.709 187.22 130.926Z" fill="#F5E8FF"/>
<path d="M116.085 131.072C116.071 127.767 113.401 125.047 110.15 125.013C107.126 124.977 104.006 127.708 104.084 130.935C104.172 134.469 106.561 136.963 110.085 136.973C113.505 136.985 116.097 134.433 116.085 131.072Z" fill="#F5E8FF"/>
<path d="M249.495 130.926C249.579 134.461 251.965 136.959 255.489 136.973C258.909 136.99 261.509 134.442 261.495 131.084C261.487 127.77 258.825 125.053 255.573 125.013C252.547 124.974 249.421 127.705 249.495 130.926Z" fill="#F5E8FF"/>
<path d="M276.448 136.973C279.794 136.945 282.333 134.433 282.355 131.123C282.375 127.77 279.623 124.985 276.326 125.013C273.345 125.03 270.237 127.736 270.355 131.027C270.481 134.548 272.906 137.002 276.448 136.973Z" fill="#F5E8FF"/>
<path d="M332.655 130.988C332.66 134.512 335.153 136.985 338.688 136.973C342.098 136.963 344.677 134.377 344.632 131.019C344.584 127.708 341.887 125.013 338.643 125.008C335.64 125.008 332.444 127.726 332.655 130.988Z" fill="#F5E8FF"/>
<path d="M394.933 130.931C394.912 134.469 397.38 136.963 400.91 136.973C404.325 136.985 406.921 134.439 406.907 131.075C406.899 127.77 404.229 125.053 400.98 125.013C397.954 124.974 394.741 127.709 394.933 130.931Z" fill="#F5E8FF"/>
<path d="M41.8101 131.018C41.9334 134.539 44.3533 136.998 47.8949 136.973C51.2978 136.95 53.8753 134.342 53.8102 130.988C53.74 127.674 51.0341 124.996 47.7905 125.013C44.8054 125.026 41.6919 127.73 41.8101 131.018Z" fill="#F5E8FF"/>
<path d="M89.3421 136.976C92.6902 136.993 95.2025 134.526 95.2728 131.221C95.3601 127.357 92.608 125.131 89.4294 125.021C86.2063 124.907 83.3652 127.722 83.3001 130.909C83.2384 133.877 85.9306 137.204 89.3421 136.976Z" fill="#F5E8FF"/>
<path d="M157.542 131.154C157.64 127.275 154.762 125.083 151.64 125.017C148.405 124.957 145.6 127.792 145.578 130.979C145.556 133.916 148.222 137.078 151.685 137.024C154.452 136.985 157.739 134.582 157.542 131.154Z" fill="#F5E8FF"/>
<path d="M228.712 131.081C228.751 133.964 231.363 137.126 234.924 137.025C237.498 136.951 240.907 134.68 240.676 131.05C240.727 127.301 237.953 125.109 234.819 125.022C231.534 124.926 228.667 127.854 228.712 131.081Z" fill="#F5E8FF"/>
<path d="M12.1406 131.238C12.2313 127.385 9.51002 125.145 6.31434 125.022C3.03817 124.895 0.149034 127.809 0.16616 131.041C0.179861 133.964 2.84636 137.196 6.1859 136.976C9.54427 136.999 12.0618 134.54 12.1406 131.238Z" fill="#F5E8FF"/>
<path d="M166.432 130.988C166.424 133.921 169.068 137.082 172.557 137.024C175.297 136.981 178.599 134.601 178.402 131.142C178.493 127.253 175.591 125.069 172.483 125.016C169.251 124.965 166.446 127.815 166.432 130.988Z" fill="#F5E8FF"/>
<path d="M32.9952 131.216C33.0825 127.354 30.3201 125.126 27.1467 125.022C23.9236 124.912 21.0876 127.726 21.0259 130.914C20.9643 133.882 23.653 137.204 27.0679 136.976C30.4177 136.99 32.925 134.521 32.9952 131.216Z" fill="#F5E8FF"/>
<path d="M323.814 131.067C323.87 127.323 321.116 125.123 317.969 125.022C314.686 124.917 311.814 127.835 311.844 131.063C311.879 133.956 314.501 137.117 318.039 137.025C320.644 136.954 324.036 134.666 323.814 131.067Z" fill="#F5E8FF"/>
<path d="M386.097 131.269C386.201 127.411 383.509 125.165 380.305 125.022C377.034 124.873 374.127 127.779 374.122 131.005C374.122 133.952 376.797 137.182 380.111 136.976C383.478 137.012 386.008 134.562 386.097 131.269Z" fill="#F5E8FF"/>
<path d="M302.954 131.094C303.021 127.357 300.306 125.14 297.136 125.022C293.862 124.895 290.973 127.809 290.99 131.036C291.007 133.947 293.643 137.108 297.159 137.024C299.811 136.963 303.17 134.641 302.954 131.094Z" fill="#F5E8FF"/>
<path d="M187.791 151.951C187.676 154.73 190.392 157.492 193.06 157.247C196.34 157.268 198.664 155.002 198.647 151.797C198.633 148.808 196.213 146.414 193.22 146.426C190.118 146.445 187.923 148.798 187.791 151.951Z" fill="#F5E8FF"/>
<path d="M125.516 152.077C125.446 154.643 128.025 157.527 130.909 157.247C134.101 157.229 136.381 154.963 136.367 151.819C136.36 148.82 133.953 146.423 130.962 146.426C127.804 146.431 125.6 148.837 125.516 152.077Z" fill="#F5E8FF"/>
<path d="M115.515 151.898C115.549 148.904 113.172 146.466 110.183 146.426C107.025 146.392 104.771 148.781 104.658 151.999C104.563 154.696 107.222 157.509 109.976 157.247C113.191 157.251 115.475 155.045 115.515 151.898Z" fill="#F5E8FF"/>
<path d="M354.062 152.074C353.992 154.646 356.573 157.527 359.453 157.247C362.646 157.229 364.917 154.972 364.917 151.824C364.917 148.837 362.502 146.426 359.512 146.426C356.359 146.426 354.144 148.834 354.062 152.074Z" fill="#F5E8FF"/>
<path d="M63.2383 152.016C63.151 154.686 65.7901 157.515 68.5747 157.248C71.7824 157.248 74.0619 155.028 74.0944 151.881C74.1201 148.887 71.7345 146.457 68.746 146.427C65.588 146.397 63.3428 148.795 63.2383 152.016Z" fill="#F5E8FF"/>
<path d="M42.3788 152.069C42.3103 154.646 44.8963 157.527 47.7683 157.247C50.9657 157.229 53.2349 154.975 53.2349 151.827C53.2349 148.843 50.8235 146.426 47.8334 146.426C44.6822 146.426 42.4678 148.834 42.3788 152.069Z" fill="#F5E8FF"/>
<path d="M333.203 152.086C333.141 154.638 335.71 157.532 338.609 157.247C341.8 157.225 344.071 154.958 344.059 151.81C344.05 148.82 341.634 146.418 338.64 146.426C335.482 146.437 333.281 148.848 333.203 152.086Z" fill="#F5E8FF"/>
<path d="M281.785 151.819C281.776 148.829 279.365 146.423 276.375 146.426C273.275 146.431 271.06 148.789 270.929 151.934C270.81 154.713 273.494 157.532 276.327 157.247C279.517 157.229 281.788 154.966 281.785 151.819Z" fill="#F5E8FF"/>
<path d="M208.65 151.965C208.541 154.722 211.24 157.496 213.934 157.248C217.158 157.265 219.443 155.081 219.501 151.934C219.558 148.882 217.112 146.406 214.059 146.426C210.961 146.449 208.777 148.808 208.65 151.965Z" fill="#F5E8FF"/>
<path d="M250.07 151.977C249.964 154.713 252.653 157.501 255.362 157.248C258.589 157.26 260.873 155.073 260.925 151.92C260.974 148.927 258.611 146.48 255.616 146.432C252.459 146.375 250.194 148.764 250.07 151.977Z" fill="#F5E8FF"/>
<path d="M395.481 152.055C395.407 154.656 398.007 157.523 400.857 157.247C404.057 157.234 406.328 154.989 406.337 151.841C406.345 148.851 403.939 146.437 400.949 146.426C397.796 146.418 395.573 148.82 395.481 152.055Z" fill="#F5E8FF"/>
<path d="M302.372 151.846C302.375 148.755 300.073 146.418 297.052 146.44C294.084 146.462 291.538 149.045 291.56 152.007C291.586 154.985 293.975 157.15 297.083 157.282C299.762 157.391 302.661 154.77 302.372 151.846Z" fill="#F5E8FF"/>
<path d="M177.818 151.894C177.832 148.789 175.574 146.449 172.553 146.44C169.589 146.431 167.017 148.986 167.006 151.956C166.998 154.932 169.383 157.133 172.478 157.277C175.254 157.414 178.094 154.722 177.818 151.894Z" fill="#F5E8FF"/>
<path d="M11.5476 151.819C11.5425 148.742 9.22363 146.401 6.20263 146.44C3.23643 146.479 0.696667 149.075 0.736056 152.035C0.780583 155.019 3.16964 157.158 6.28654 157.282C8.91879 157.383 11.8422 154.792 11.5476 151.819Z" fill="#F5E8FF"/>
<path d="M385.504 151.819C385.504 148.742 383.181 146.401 380.165 146.44C377.197 146.476 374.657 149.07 374.698 152.029C374.732 155.014 377.127 157.158 380.243 157.282C382.888 157.383 385.802 154.778 385.504 151.819Z" fill="#F5E8FF"/>
<path d="M32.4079 151.819C32.4027 148.741 30.0839 146.406 27.0629 146.44C24.095 146.476 21.5569 149.07 21.5963 152.029C21.6306 155.014 24.0248 157.158 27.1417 157.282C29.7756 157.383 32.7024 154.792 32.4079 151.819Z" fill="#F5E8FF"/>
<path d="M323.23 151.81C323.221 148.733 320.894 146.397 317.876 146.44C314.905 146.485 312.376 149.084 312.418 152.043C312.463 155.028 314.857 157.164 317.977 157.282C320.599 157.378 323.528 154.795 323.23 151.81Z" fill="#F5E8FF"/>
<path d="M94.7163 152.016C94.6187 148.877 92.567 146.527 89.5392 146.44C86.5884 146.356 83.9579 148.86 83.8739 151.833C83.7917 154.795 86.1637 157.198 89.2223 157.248C92.2125 157.563 94.7951 154.629 94.7163 152.016Z" fill="#F5E8FF"/>
<path d="M240.128 151.999C240.027 148.865 237.967 146.519 234.937 146.44C231.981 146.366 229.356 148.877 229.286 151.85C229.21 154.814 231.588 157.203 234.651 157.248C237.616 157.554 240.21 154.638 240.128 151.999Z" fill="#F5E8FF"/>
<path d="M151.848 146.445C148.9 146.339 146.253 148.826 146.153 151.802C146.052 154.761 148.414 157.186 151.466 157.248C154.514 157.571 157.061 154.607 156.994 152.052C156.907 148.899 154.881 146.55 151.848 146.445Z" fill="#F5E8FF"/>
<path d="M250.523 172.576C250.548 175.268 252.797 177.486 255.503 177.495C258.305 177.503 260.356 175.409 260.346 172.549C260.343 169.932 258.094 167.648 255.52 167.648C252.867 167.648 250.495 169.989 250.523 172.576Z" fill="#F5E8FF"/>
<path d="M333.655 172.568C333.677 175.255 335.921 177.481 338.626 177.495C341.428 177.508 343.488 175.417 343.48 172.559C343.475 169.932 341.24 167.653 338.666 167.648C336.013 167.645 333.632 169.977 333.655 172.568Z" fill="#F5E8FF"/>
<path d="M114.936 172.501C114.908 169.893 112.625 167.617 110.063 167.648C107.399 167.684 105.049 170.042 105.111 172.624C105.171 175.325 107.429 177.508 110.139 177.495C112.935 177.477 114.961 175.369 114.936 172.501Z" fill="#F5E8FF"/>
<path d="M198.068 172.585C198.076 169.963 195.854 167.67 193.28 167.648C190.628 167.627 188.239 169.949 188.241 172.54C188.246 175.224 190.486 177.469 193.192 177.494C195.994 177.517 198.059 175.439 198.068 172.585Z" fill="#F5E8FF"/>
<path d="M359.445 177.495C362.247 177.525 364.326 175.448 364.338 172.593C364.352 169.972 362.134 167.679 359.56 167.648C356.912 167.617 354.518 169.937 354.513 172.532C354.504 175.21 356.745 177.464 359.445 177.495Z" fill="#F5E8FF"/>
<path d="M42.8308 172.563C42.8531 175.255 45.0932 177.478 47.7991 177.495C50.6043 177.508 52.6559 175.421 52.6559 172.563C52.6559 169.941 50.4159 167.658 47.847 167.648C45.1942 167.639 42.8103 169.977 42.8308 172.563Z" fill="#F5E8FF"/>
<path d="M395.933 172.58C395.964 175.272 398.212 177.486 400.918 177.495C403.72 177.5 405.767 175.404 405.758 172.546C405.749 169.929 403.496 167.645 400.927 167.648C398.274 167.653 395.902 169.994 395.933 172.58Z" fill="#F5E8FF"/>
<path d="M209.101 172.576C209.128 175.268 211.377 177.486 214.083 177.495C216.883 177.503 218.931 175.409 218.928 172.549C218.923 169.932 216.672 167.648 214.1 167.648C211.447 167.648 209.072 169.989 209.101 172.576Z" fill="#F5E8FF"/>
<path d="M271.375 172.545C271.381 175.229 273.626 177.469 276.33 177.494C279.132 177.517 281.197 175.434 281.206 172.58C281.211 169.959 278.991 167.675 276.409 167.648C273.766 167.627 271.372 169.954 271.375 172.545Z" fill="#F5E8FF"/>
<path d="M135.793 172.506C135.768 169.898 133.483 167.622 130.923 167.648C128.261 167.679 125.907 170.038 125.965 172.619C126.027 175.32 128.284 177.508 130.993 177.494C133.786 177.481 135.821 175.369 135.793 172.506Z" fill="#F5E8FF"/>
<path d="M63.6906 172.568C63.7026 175.25 65.9529 177.481 68.6622 177.495C71.464 177.508 73.5157 175.421 73.5157 172.559C73.5105 169.941 71.2705 167.653 68.7016 167.648C66.0488 167.645 63.6769 169.972 63.6906 172.568Z" fill="#F5E8FF"/>
<path d="M297.067 177.5C299.675 177.512 301.973 175.263 301.982 172.695C301.99 169.963 299.776 167.687 297.106 167.675C294.427 167.667 292.16 169.91 292.134 172.599C292.112 175.334 294.278 177.491 297.067 177.5Z" fill="#F5E8FF"/>
<path d="M239.702 172.65C239.685 169.915 237.453 167.658 234.789 167.675C232.1 167.698 229.86 169.95 229.856 172.642C229.856 175.373 232.04 177.508 234.831 177.5C237.431 177.495 239.721 175.221 239.702 172.65Z" fill="#F5E8FF"/>
<path d="M385.11 172.602C385.057 169.859 382.809 167.622 380.147 167.675C377.45 167.732 375.246 169.999 375.266 172.689C375.294 175.412 377.503 177.531 380.291 177.5C382.887 177.472 385.162 175.162 385.11 172.602Z" fill="#F5E8FF"/>
<path d="M11.1542 172.616C11.1097 169.87 8.86105 167.627 6.1997 167.675C3.50409 167.726 1.29485 169.985 1.31198 172.681C1.3291 175.403 3.53834 177.53 6.323 177.5C8.9227 177.477 11.1987 175.176 11.1542 172.616Z" fill="#F5E8FF"/>
<path d="M32.0121 172.611C31.9642 169.867 29.7207 167.631 27.0576 167.675C24.362 167.723 22.1476 169.989 22.1699 172.681C22.187 175.404 24.3963 177.531 27.1809 177.5C29.7806 177.478 32.0515 175.176 32.0121 172.611Z" fill="#F5E8FF"/>
<path d="M94.2896 172.655C94.2742 169.915 92.0427 167.658 89.3762 167.675C86.6892 167.698 84.4491 169.95 84.444 172.642C84.444 175.37 86.6309 177.508 89.4156 177.5C92.0204 177.495 94.3033 175.221 94.2896 172.655Z" fill="#F5E8FF"/>
<path d="M322.836 172.717C322.862 169.994 320.661 167.706 317.986 167.675C315.312 167.648 313.033 169.884 312.994 172.576C312.953 175.308 315.116 177.477 317.898 177.5C320.507 177.522 322.808 175.294 322.836 172.717Z" fill="#F5E8FF"/>
<path d="M172.548 167.679C169.866 167.667 167.602 169.915 167.582 172.602C167.56 175.334 169.733 177.495 172.512 177.5C175.126 177.503 177.419 175.263 177.424 172.689C177.433 169.96 175.218 167.684 172.548 167.679Z" fill="#F5E8FF"/>
<path d="M156.57 172.7C156.583 169.972 154.374 167.692 151.697 167.675C149.024 167.662 146.753 169.907 146.722 172.594C146.697 175.33 148.858 177.481 151.646 177.5C154.251 177.517 156.553 175.272 156.57 172.7Z" fill="#F5E8FF"/>
<path d="M43.3843 193.298C43.3877 195.464 44.7218 197.716 47.7873 197.761C50.2552 197.796 52.0654 196.021 52.0774 193.573C52.0962 190.988 50.3682 189.107 47.9209 189.054C45.5678 189.001 43.3809 190.996 43.3843 193.298Z" fill="#F5E8FF"/>
<path d="M396.467 193.413C396.481 195.946 398.406 197.797 401.002 197.766C403.453 197.735 405.201 195.934 405.179 193.464C405.153 190.892 403.36 189.037 400.909 189.049C398.549 189.063 396.458 191.12 396.467 193.413Z" fill="#F5E8FF"/>
<path d="M214.073 197.76C216.537 197.786 218.339 196.002 218.347 193.556C218.358 190.97 216.616 189.093 214.174 189.049C211.815 189.01 209.637 191.013 209.654 193.315C209.671 195.538 211.057 197.729 214.073 197.76Z" fill="#F5E8FF"/>
<path d="M334.206 193.354C334.256 195.7 335.749 197.752 338.666 197.76C341.13 197.769 342.904 195.981 342.901 193.517C342.896 190.94 341.134 189.068 338.688 189.049C336.328 189.032 334.163 191.058 334.206 193.354Z" fill="#F5E8FF"/>
<path d="M68.8062 189.054C66.3915 188.984 64.2114 191.067 64.2251 193.421C64.2422 195.903 66.0884 197.73 68.6178 197.761C71.0908 197.797 72.9096 196.043 72.937 193.601C72.9592 191.005 71.2484 189.12 68.8062 189.054Z" fill="#F5E8FF"/>
<path d="M105.65 193.424C105.667 195.906 107.513 197.73 110.043 197.76C112.514 197.796 114.335 196.043 114.357 193.596C114.379 191.001 112.665 189.116 110.223 189.054C107.801 188.992 105.628 191.066 105.65 193.424Z" fill="#F5E8FF"/>
<path d="M355.049 193.39C355.049 195.928 356.964 197.783 359.56 197.766C362.014 197.744 363.773 195.951 363.759 193.481C363.742 190.909 361.957 189.049 359.512 189.049C357.152 189.049 355.052 191.092 355.049 193.39Z" fill="#F5E8FF"/>
<path d="M188.796 193.337C188.83 195.63 190.276 197.743 193.237 197.76C195.699 197.778 197.489 195.99 197.489 193.534C197.494 190.952 195.74 189.08 193.293 189.049C190.933 189.023 188.765 191.041 188.796 193.337Z" fill="#F5E8FF"/>
<path d="M126.503 193.382C126.496 195.915 128.407 197.778 131.002 197.766C133.461 197.747 135.225 195.963 135.211 193.495C135.198 190.921 133.423 189.054 130.976 189.049C128.618 189.046 126.513 191.08 126.503 193.382Z" fill="#F5E8FF"/>
<path d="M271.915 193.438C271.946 195.923 273.797 197.738 276.327 197.766C278.794 197.786 280.605 196.024 280.622 193.579C280.644 190.991 278.918 189.107 276.476 189.054C274.059 188.998 271.889 191.089 271.915 193.438Z" fill="#F5E8FF"/>
<path d="M251.074 193.368C251.131 195.74 252.653 197.747 255.542 197.766C258.01 197.756 259.778 195.973 259.769 193.509C259.759 190.931 257.988 189.063 255.542 189.049C253.182 189.037 251.021 191.07 251.074 193.368Z" fill="#F5E8FF"/>
<path d="M301.445 193.402C301.433 191.159 299.351 189.08 297.102 189.071C294.615 189.063 292.747 190.926 292.721 193.447C292.69 195.914 294.581 197.778 297.102 197.769C299.623 197.766 301.464 195.914 301.445 193.402Z" fill="#F5E8FF"/>
<path d="M10.6232 193.394C10.6043 191.15 8.51496 189.071 6.26976 189.071C3.77966 189.076 1.9198 190.934 1.89925 193.455C1.87184 195.923 3.76596 197.783 6.28689 197.769C8.80439 197.76 10.6454 195.902 10.6232 193.394Z" fill="#F5E8FF"/>
<path d="M93.7605 193.399C93.7434 191.15 91.6557 189.076 89.4071 189.071C86.9204 189.063 85.0571 190.931 85.0315 193.452C85.0058 195.92 86.8947 197.778 89.4208 197.769C91.9366 197.76 93.7776 195.906 93.7605 193.399Z" fill="#F5E8FF"/>
<path d="M239.173 193.416C239.164 191.171 237.09 189.089 234.84 189.071C232.355 189.049 230.478 190.912 230.444 193.433C230.408 195.906 232.288 197.769 234.814 197.769C237.33 197.769 239.176 195.923 239.173 193.416Z" fill="#F5E8FF"/>
<path d="M31.481 193.407C31.469 191.162 29.3917 189.08 27.1413 189.071C24.6564 189.058 22.7845 190.921 22.752 193.442C22.7211 195.911 24.6118 197.774 27.1328 197.769C29.6485 197.766 31.4947 195.92 31.481 193.407Z" fill="#F5E8FF"/>
<path d="M384.583 193.469C384.602 191.224 382.554 189.068 380.305 189.085C378.037 189.107 375.868 190.532 375.859 193.531C375.851 195.933 377.717 197.747 380.173 197.769C382.699 197.796 384.562 195.976 384.583 193.469Z" fill="#F5E8FF"/>
<path d="M176.893 193.43C176.893 191.18 174.823 189.094 172.576 189.072C170.089 189.046 168.209 190.9 168.166 193.421C168.125 195.892 170.002 197.766 172.523 197.769C175.043 197.778 176.893 195.937 176.893 193.43Z" fill="#F5E8FF"/>
<path d="M322.305 193.351C322.261 191.106 320.147 189.046 317.907 189.072C315.417 189.097 313.581 190.979 313.576 193.5C313.571 195.963 315.484 197.8 318.013 197.769C320.521 197.744 322.35 195.858 322.305 193.351Z" fill="#F5E8FF"/>
<path d="M156.034 193.39C156.013 191.145 153.922 189.071 151.677 189.071C149.19 189.071 147.332 190.94 147.31 193.46C147.289 195.928 149.181 197.786 151.708 197.769C154.225 197.755 156.061 195.897 156.034 193.39Z" fill="#F5E8FF"/>
<path d="M51.5568 214.016C51.5123 211.866 49.9435 210.301 47.8336 210.301C45.7032 210.301 43.9187 212.103 43.9221 214.247C43.9221 216.386 45.621 218.043 47.7771 218.018C49.9966 217.987 51.5996 216.29 51.5568 214.016Z" fill="#F5E8FF"/>
<path d="M397.02 214.199C396.998 216.335 398.673 218.018 400.826 218.018C403.049 218.013 404.676 216.338 404.659 214.067C404.645 211.915 403.097 210.332 400.983 210.302C398.858 210.271 397.046 212.052 397.02 214.199Z" fill="#F5E8FF"/>
<path d="M64.7784 214.252C64.7818 216.386 66.4739 218.04 68.6352 218.018C70.793 217.99 72.3891 216.365 72.4165 214.159C72.4405 211.942 70.8547 210.298 68.6882 210.301C66.5612 210.301 64.7733 212.103 64.7784 214.252Z" fill="#F5E8FF"/>
<path d="M355.601 214.155C355.553 216.295 357.211 217.996 359.363 218.018C361.586 218.035 363.234 216.374 363.239 214.107C363.242 211.951 361.722 210.358 359.608 210.301C357.481 210.248 355.649 212.012 355.601 214.155Z" fill="#F5E8FF"/>
<path d="M272.468 214.295C272.499 216.436 274.213 218.066 276.375 218.018C278.584 217.962 280.163 216.247 280.101 213.966C280.04 211.828 278.44 210.271 276.33 210.302C274.196 210.333 272.437 212.153 272.468 214.295Z" fill="#F5E8FF"/>
<path d="M113.834 214.146C113.857 211.928 112.261 210.293 110.096 210.301C107.964 210.31 106.188 212.122 106.198 214.264C106.21 216.343 107.828 217.978 109.923 218.018C112.146 218.057 113.812 216.408 113.834 214.146Z" fill="#F5E8FF"/>
<path d="M134.694 214.072C134.677 211.863 133.042 210.248 130.875 210.307C128.801 210.358 127.082 212.108 127.056 214.194C127.031 216.329 128.7 218.013 130.858 218.018C133.079 218.018 134.706 216.343 134.694 214.072Z" fill="#F5E8FF"/>
<path d="M196.967 214.036C196.941 211.889 195.376 210.315 193.268 210.301C191.137 210.289 189.342 212.082 189.335 214.225C189.325 216.365 191.01 218.03 193.167 218.018C195.389 218.001 196.998 216.317 196.967 214.036Z" fill="#F5E8FF"/>
<path d="M251.608 214.238C251.608 216.377 253.302 218.04 255.458 218.018C257.624 217.995 259.21 216.377 259.246 214.168C259.277 211.95 257.698 210.306 255.528 210.301C253.401 210.298 251.613 212.094 251.608 214.238Z" fill="#F5E8FF"/>
<path d="M342.379 214.154C342.406 211.937 340.819 210.298 338.652 210.301C336.522 210.306 334.737 212.108 334.746 214.252C334.751 216.386 336.452 218.043 338.604 218.018C340.766 217.987 342.353 216.36 342.379 214.154Z" fill="#F5E8FF"/>
<path d="M210.189 214.264C210.202 216.346 211.824 217.978 213.915 218.018C216.138 218.057 217.805 216.405 217.827 214.142C217.844 211.928 216.248 210.289 214.083 210.301C211.951 210.31 210.177 212.122 210.189 214.264Z" fill="#F5E8FF"/>
<path d="M230.877 214.264C230.944 216.312 232.74 218.021 234.828 218.013C236.958 218.009 238.611 216.312 238.585 214.165C238.563 212.083 236.823 210.324 234.766 210.307C232.697 210.29 230.812 212.209 230.877 214.264Z" fill="#F5E8FF"/>
<path d="M321.721 214.16C321.696 212.077 319.951 210.324 317.896 210.307C315.883 210.293 314.037 212.108 314.006 214.126C313.981 216.211 315.822 218.027 317.966 218.013C320.096 218.004 321.749 216.307 321.721 214.16Z" fill="#F5E8FF"/>
<path d="M176.311 214.221C176.314 212.134 174.61 210.363 172.543 210.31C170.541 210.253 168.669 212.038 168.597 214.064C168.529 216.141 170.348 217.99 172.492 218.013C174.622 218.04 176.306 216.369 176.311 214.221Z" fill="#F5E8FF"/>
<path d="M297.044 210.307C294.975 210.29 293.09 212.204 293.157 214.264C293.217 216.312 295.015 218.021 297.102 218.013C299.233 218.009 300.889 216.318 300.863 214.165C300.841 212.086 299.101 210.329 297.044 210.307Z" fill="#F5E8FF"/>
<path d="M30.8991 214.182C30.8803 212.099 29.1506 210.337 27.0938 210.306C25.0284 210.279 23.1343 212.192 23.1874 214.252C23.2405 216.295 25.037 218.013 27.1195 218.013C29.2499 218.018 30.9128 216.329 30.8991 214.182Z" fill="#F5E8FF"/>
<path d="M93.1732 214.177C93.1544 212.094 91.4247 210.332 89.3679 210.306C87.2991 210.279 85.4084 212.192 85.4666 214.252C85.5214 216.298 87.3145 218.013 89.397 218.013C91.5326 218.018 93.1955 216.326 93.1732 214.177Z" fill="#F5E8FF"/>
<path d="M376.284 214.126C376.253 216.211 378.099 218.021 380.238 218.013C382.374 218.004 384.026 216.307 383.996 214.16C383.97 212.077 382.225 210.324 380.173 210.307C378.161 210.293 376.315 212.108 376.284 214.126Z" fill="#F5E8FF"/>
<path d="M10.0392 214.165C10.0187 212.086 8.27354 210.324 6.22186 210.307C4.20958 210.29 2.35999 212.1 2.32745 214.12C2.29319 216.208 4.13422 218.021 6.27838 218.013C8.40884 218.01 10.0666 216.318 10.0392 214.165Z" fill="#F5E8FF"/>
<path d="M151.697 210.31C149.69 210.249 147.818 212.024 147.739 214.055C147.666 216.133 149.481 217.987 151.623 218.013C153.759 218.044 155.442 216.377 155.451 214.23C155.454 212.139 153.762 210.372 151.697 210.31Z" fill="#F5E8FF"/>
<path d="M127.639 235.148C127.671 236.98 129.086 238.309 130.993 238.295C132.884 238.287 134.317 236.811 134.281 234.907C134.245 233.22 132.598 231.655 130.897 231.689C129.029 231.728 127.608 233.237 127.639 235.148Z" fill="#F5E8FF"/>
<path d="M113.422 234.925C113.396 233.237 111.752 231.655 110.057 231.689C108.188 231.725 106.759 233.228 106.786 235.136C106.806 236.968 108.219 238.304 110.122 238.301C112.016 238.295 113.453 236.823 113.422 234.925Z" fill="#F5E8FF"/>
<path d="M51.149 234.965C51.1439 233.282 49.5136 231.677 47.8166 231.686C45.9534 231.694 44.5012 233.189 44.5063 235.097C44.5115 236.932 45.9054 238.287 47.8029 238.295C49.7071 238.309 51.1525 236.867 51.149 234.965Z" fill="#F5E8FF"/>
<path d="M196.559 234.948C196.547 233.263 194.912 231.669 193.215 231.686C191.347 231.708 189.905 233.203 189.918 235.109C189.932 236.946 191.33 238.292 193.232 238.295C195.13 238.304 196.573 236.854 196.559 234.948Z" fill="#F5E8FF"/>
<path d="M252.196 235.083C252.193 236.924 253.582 238.278 255.481 238.295C257.387 238.314 258.834 236.879 258.834 234.973C258.839 233.293 257.217 231.686 255.515 231.686C253.657 231.686 252.196 233.18 252.196 235.083Z" fill="#F5E8FF"/>
<path d="M356.188 235.066C356.176 236.907 357.551 238.27 359.454 238.295C361.362 238.323 362.812 236.907 362.826 234.996C362.84 233.312 361.23 231.694 359.529 231.686C357.67 231.677 356.202 233.158 356.188 235.066Z" fill="#F5E8FF"/>
<path d="M341.971 234.977C341.971 233.293 340.358 231.689 338.657 231.689C336.794 231.686 335.333 233.175 335.33 235.078C335.325 236.92 336.71 238.278 338.613 238.295C340.521 238.318 341.963 236.889 341.971 234.977Z" fill="#F5E8FF"/>
<path d="M217.414 234.943C217.4 233.259 215.766 231.669 214.064 231.686C212.201 231.708 210.759 233.206 210.778 235.117C210.79 236.95 212.192 238.295 214.092 238.301C215.989 238.301 217.431 236.845 217.414 234.943Z" fill="#F5E8FF"/>
<path d="M72.0033 234.948C71.9896 233.263 70.3594 231.669 68.6572 231.686C66.794 231.708 65.3521 233.203 65.3658 235.109C65.3743 236.946 66.7768 238.292 68.6743 238.295C70.5734 238.304 72.0153 236.854 72.0033 234.948Z" fill="#F5E8FF"/>
<path d="M273.051 235.184C273.101 237.011 274.529 238.323 276.44 238.296C278.32 238.275 279.745 236.77 279.689 234.878C279.635 233.184 277.971 231.629 276.274 231.689C274.402 231.756 273.003 233.273 273.051 235.184Z" fill="#F5E8FF"/>
<path d="M404.246 234.938C404.232 233.254 402.593 231.664 400.896 231.686C399.029 231.711 397.591 233.215 397.608 235.117C397.625 236.955 399.024 238.296 400.927 238.301C402.824 238.301 404.268 236.845 404.246 234.938Z" fill="#F5E8FF"/>
<path d="M85.9929 234.999C85.9877 236.831 87.505 238.287 89.4024 238.284C91.2262 238.278 92.5757 236.898 92.5996 235.008C92.6202 233.088 91.204 231.669 89.2894 231.689C87.6283 231.708 85.9963 233.347 85.9929 234.999Z" fill="#F5E8FF"/>
<path d="M376.82 235.069C376.863 236.91 378.389 238.326 380.291 238.283C382.11 238.244 383.43 236.831 383.425 234.938C383.417 233.085 382.059 231.72 380.187 231.694C378.468 231.663 376.776 233.355 376.82 235.069Z" fill="#F5E8FF"/>
<path d="M9.46541 235.087C9.5185 233.15 8.16393 231.725 6.23053 231.694C4.57285 231.663 2.91174 233.259 2.85866 234.926C2.80214 236.741 4.29714 238.253 6.19115 238.284C8.0235 238.318 9.4089 236.963 9.46541 235.087Z" fill="#F5E8FF"/>
<path d="M30.3254 234.903C30.298 233.057 28.9177 231.699 27.0545 231.689C25.3266 231.686 23.657 233.4 23.7186 235.105C23.7871 236.946 25.3266 238.345 27.2292 238.283C29.041 238.23 30.3459 236.8 30.3254 234.903Z" fill="#F5E8FF"/>
<path d="M169.129 235.027C169.143 236.862 170.655 238.301 172.557 238.284C174.381 238.27 175.724 236.876 175.736 234.987C175.746 233.119 174.42 231.751 172.544 231.694C170.817 231.646 169.117 233.304 169.129 235.027Z" fill="#F5E8FF"/>
<path d="M231.403 234.937C231.36 236.758 232.859 238.261 234.749 238.283C236.585 238.304 237.962 236.95 238.01 235.069C238.063 233.141 236.691 231.711 234.761 231.689C233.105 231.672 231.448 233.273 231.403 234.937Z" fill="#F5E8FF"/>
<path d="M300.289 234.889C300.259 233.043 298.868 231.689 297.005 231.689C295.344 231.694 293.7 233.316 293.683 234.973C293.664 236.859 295.256 238.354 297.207 238.283C299.017 238.222 300.32 236.788 300.289 234.889Z" fill="#F5E8FF"/>
<path d="M321.148 235.004C321.165 233.085 319.745 231.669 317.829 231.689C316.168 231.711 314.537 233.355 314.537 235.008C314.541 236.837 316.053 238.292 317.952 238.284C319.779 238.278 321.125 236.89 321.148 235.004Z" fill="#F5E8FF"/>
<path d="M148.274 235.114C148.346 236.955 149.889 238.348 151.792 238.283C153.597 238.225 154.903 236.792 154.877 234.895C154.85 233.054 153.461 231.694 151.598 231.689C149.875 231.689 148.204 233.403 148.274 235.114Z" fill="#F5E8FF"/>
<path d="M398.192 255.65C398.182 257.291 399.314 258.514 400.843 258.514C402.448 258.519 403.614 257.378 403.641 255.779C403.667 254.222 402.466 253.048 400.862 253.056C399.182 253.065 398.201 254.017 398.192 255.65Z" fill="#F5E8FF"/>
<path d="M50.5395 255.703C50.5292 254.161 49.3031 253.017 47.6899 253.056C46.0202 253.096 45.0681 254.077 45.0938 255.721C45.1161 257.356 46.2823 258.553 47.8166 258.514C49.4178 258.479 50.5532 257.305 50.5395 255.703Z" fill="#F5E8FF"/>
<path d="M356.772 255.704C356.789 257.339 357.947 258.539 359.481 258.514C361.077 258.488 362.225 257.322 362.221 255.721C362.221 254.174 360.999 253.025 359.384 253.056C357.714 253.091 356.753 254.065 356.772 255.704Z" fill="#F5E8FF"/>
<path d="M190.5 255.642C190.487 257.282 191.615 258.505 193.148 258.514C194.744 258.522 195.919 257.383 195.955 255.787C195.989 254.239 194.78 253.051 193.184 253.056C191.501 253.06 190.514 254.012 190.5 255.642Z" fill="#F5E8FF"/>
<path d="M211.36 255.678C211.364 257.313 212.516 258.527 214.044 258.513C215.643 258.5 216.796 257.347 216.809 255.748C216.823 254.2 215.607 253.034 213.999 253.056C212.324 253.078 211.355 254.042 211.36 255.678Z" fill="#F5E8FF"/>
<path d="M273.635 255.611C273.607 257.255 274.726 258.491 276.252 258.514C277.853 258.539 279.036 257.414 279.087 255.818C279.137 254.27 277.94 253.06 276.347 253.056C274.661 253.048 273.666 253.986 273.635 255.611Z" fill="#F5E8FF"/>
<path d="M335.913 255.625C335.896 257.263 337.017 258.496 338.548 258.514C340.144 258.531 341.322 257.395 341.367 255.799C341.406 254.253 340.204 253.056 338.61 253.056C336.927 253.051 335.935 253.998 335.913 255.625Z" fill="#F5E8FF"/>
<path d="M258.229 255.7C258.215 254.152 256.984 253.017 255.371 253.056C253.71 253.099 252.754 254.082 252.78 255.729C252.806 257.361 253.977 258.553 255.515 258.514C257.111 258.474 258.243 257.299 258.229 255.7Z" fill="#F5E8FF"/>
<path d="M128.228 255.65C128.214 257.291 129.35 258.514 130.879 258.514C132.48 258.519 133.645 257.378 133.672 255.779C133.703 254.222 132.501 253.048 130.898 253.056C129.214 253.065 128.237 254.017 128.228 255.65Z" fill="#F5E8FF"/>
<path d="M112.817 255.734C112.826 254.186 111.608 253.03 109.998 253.056C108.324 253.082 107.356 254.051 107.37 255.69C107.377 257.325 108.534 258.536 110.063 258.513C111.665 258.491 112.814 257.334 112.817 255.734Z" fill="#F5E8FF"/>
<path d="M65.9482 255.65C65.9396 257.294 67.0716 258.514 68.6043 258.514C70.202 258.519 71.3716 257.37 71.3973 255.774C71.4281 254.231 70.2157 253.048 68.6145 253.056C66.9346 253.065 65.9568 254.02 65.9482 255.65Z" fill="#F5E8FF"/>
<path d="M234.832 258.513C236.304 258.491 237.431 257.277 237.423 255.729C237.411 254.042 236.445 253.059 234.801 253.064C233.21 253.07 232.001 254.166 231.97 255.624C231.931 257.207 233.249 258.536 234.832 258.513Z" fill="#F5E8FF"/>
<path d="M151.637 253.065C150.055 253.087 148.849 254.195 148.832 255.65C148.813 257.238 150.142 258.553 151.725 258.513C153.197 258.474 154.312 257.255 154.29 255.7C154.264 254.017 153.286 253.048 151.637 253.065Z" fill="#F5E8FF"/>
<path d="M175.145 255.751C175.145 254.059 174.189 253.073 172.549 253.064C170.958 253.059 169.738 254.143 169.69 255.599C169.639 257.184 170.941 258.518 172.531 258.513C174.009 258.505 175.148 257.304 175.145 255.751Z" fill="#F5E8FF"/>
<path d="M89.452 253.065C87.8029 253.043 86.5391 254.192 86.5579 255.709C86.5699 257.243 87.8252 258.496 89.3595 258.514C90.8408 258.527 91.9985 257.344 92.0105 255.791C92.0293 254.099 91.0823 253.09 89.452 253.065Z" fill="#F5E8FF"/>
<path d="M377.38 255.734C377.408 257.268 378.673 258.513 380.208 258.513C381.686 258.513 382.83 257.313 382.835 255.765C382.838 254.073 381.883 253.078 380.247 253.065C378.6 253.056 377.35 254.214 377.38 255.734Z" fill="#F5E8FF"/>
<path d="M315.102 255.661C315.085 257.246 316.418 258.553 318 258.513C319.473 258.469 320.582 257.251 320.557 255.695C320.529 254.012 319.551 253.048 317.899 253.065C316.317 253.087 315.116 254.195 315.102 255.661Z" fill="#F5E8FF"/>
<path d="M29.7328 255.804C29.755 254.104 28.8166 253.095 27.1863 253.065C25.5372 253.034 24.2751 254.178 24.2785 255.695C24.2836 257.224 25.5338 258.491 27.0681 258.513C28.5494 258.53 29.7156 257.347 29.7328 255.804Z" fill="#F5E8FF"/>
<path d="M8.87824 255.779C8.8868 254.082 7.94494 253.087 6.30609 253.065C4.65697 253.048 3.40343 254.2 3.42056 255.717C3.44282 257.251 4.69978 258.505 6.23417 258.51C7.71204 258.513 8.86968 257.322 8.87824 255.779Z" fill="#F5E8FF"/>
<path d="M294.243 255.65C294.225 257.238 295.554 258.553 297.137 258.513C298.609 258.474 299.723 257.255 299.702 255.7C299.675 254.017 298.702 253.048 297.049 253.065C295.467 253.087 294.261 254.195 294.243 255.65Z" fill="#F5E8FF"/>
<path d="M237.037 276.51C237.116 275.299 236.147 274.292 234.876 274.261C233.617 274.225 232.599 275.155 232.56 276.378C232.526 277.488 233.617 278.663 234.735 278.716C235.826 278.764 236.967 277.676 237.037 276.51Z" fill="#F5E8FF"/>
<path d="M174.768 276.383C174.771 275.177 173.74 274.225 172.475 274.261C171.216 274.295 170.251 275.287 170.282 276.504C170.316 277.628 171.474 278.745 172.582 278.716C173.684 278.685 174.768 277.53 174.768 276.383Z" fill="#F5E8FF"/>
<path d="M29.356 276.369C29.3526 275.163 28.3129 274.216 27.0437 274.26C25.7916 274.3 24.8307 275.303 24.8701 276.523C24.9095 277.645 26.0811 278.755 27.1859 278.715C28.2906 278.676 29.3646 277.513 29.356 276.369Z" fill="#F5E8FF"/>
<path d="M320.178 276.36C320.17 275.158 319.132 274.216 317.864 274.26C316.605 274.303 315.65 275.303 315.692 276.526C315.737 277.648 316.912 278.755 318.013 278.715C319.118 278.671 320.192 277.509 320.178 276.36Z" fill="#F5E8FF"/>
<path d="M91.6304 276.439C91.6646 275.228 90.666 274.256 89.3934 274.261C88.131 274.264 87.1479 275.225 87.1479 276.448C87.1479 277.566 88.2801 278.71 89.3934 278.716C90.493 278.719 91.5978 277.597 91.6304 276.439Z" fill="#F5E8FF"/>
<path d="M151.719 274.26C150.462 274.233 149.453 275.177 149.422 276.4C149.397 277.509 150.502 278.676 151.615 278.715C152.716 278.749 153.843 277.653 153.908 276.492C153.97 275.281 152.997 274.286 151.719 274.26Z" fill="#F5E8FF"/>
<path d="M382.458 276.425C382.483 275.216 381.474 274.247 380.203 274.26C378.941 274.269 377.967 275.233 377.975 276.465C377.98 277.583 379.116 278.719 380.229 278.715C381.331 278.71 382.43 277.583 382.458 276.425Z" fill="#F5E8FF"/>
<path d="M8.49628 276.422C8.52369 275.216 7.51482 274.247 6.24389 274.26C4.98496 274.269 4.00178 275.242 4.01035 276.465C4.02576 277.583 5.15966 278.719 6.27473 278.715C7.37437 278.71 8.47573 277.58 8.49628 276.422Z" fill="#F5E8FF"/>
<path d="M299.32 276.324C299.289 275.119 298.238 274.199 296.974 274.264C295.716 274.326 294.773 275.343 294.839 276.562C294.899 277.684 296.097 278.775 297.193 278.715C298.294 278.649 299.351 277.465 299.32 276.324Z" fill="#F5E8FF"/>
<path d="M357.205 276.439C357.191 277.609 358.258 278.671 359.472 278.693C360.718 278.715 361.656 277.741 361.651 276.431C361.646 275.216 360.721 274.261 359.543 274.242C358.376 274.23 357.222 275.312 357.205 276.439Z" fill="#F5E8FF"/>
<path d="M66.3825 276.456C66.379 277.628 67.4513 278.679 68.6622 278.693C69.9109 278.705 70.841 277.729 70.829 276.414C70.8153 275.208 69.8818 274.25 68.7016 274.242C67.5352 274.233 66.3859 275.329 66.3825 276.456Z" fill="#F5E8FF"/>
<path d="M45.5278 276.456C45.5227 277.628 46.5932 278.679 47.8076 278.693C49.0528 278.705 49.9829 277.729 49.9692 276.414C49.9572 275.208 49.022 274.25 47.847 274.242C46.6806 274.233 45.533 275.329 45.5278 276.456Z" fill="#F5E8FF"/>
<path d="M253.213 276.465C253.218 277.636 254.292 278.684 255.506 278.693C256.748 278.701 257.676 277.715 257.659 276.403C257.642 275.194 256.709 274.247 255.528 274.247C254.359 274.241 253.213 275.338 253.213 276.465Z" fill="#F5E8FF"/>
<path d="M274.076 276.535C274.125 277.718 275.225 278.724 276.436 278.693C277.676 278.657 278.57 277.64 278.514 276.333C278.461 275.124 277.501 274.211 276.308 274.247C275.133 274.281 274.028 275.413 274.076 276.535Z" fill="#F5E8FF"/>
<path d="M190.938 276.535C190.986 277.719 192.087 278.724 193.298 278.693C194.538 278.657 195.433 277.64 195.381 276.33C195.328 275.124 194.362 274.207 193.175 274.247C191.995 274.281 190.895 275.413 190.938 276.535Z" fill="#F5E8FF"/>
<path d="M128.66 276.461C128.66 277.636 129.734 278.685 130.948 278.693C132.195 278.702 133.124 277.715 133.106 276.408C133.089 275.197 132.151 274.247 130.976 274.242C129.808 274.238 128.66 275.338 128.66 276.461Z" fill="#F5E8FF"/>
<path d="M398.624 276.426C398.602 277.597 399.668 278.662 400.878 278.693C402.127 278.719 403.071 277.755 403.071 276.443C403.071 275.228 402.155 274.269 400.974 274.247C399.813 274.221 398.647 275.304 398.624 276.426Z" fill="#F5E8FF"/>
<path d="M211.798 276.456C211.789 277.623 212.866 278.679 214.077 278.693C215.323 278.705 216.251 277.724 216.239 276.413C216.225 275.203 215.292 274.25 214.113 274.242C212.947 274.238 211.803 275.329 211.798 276.456Z" fill="#F5E8FF"/>
<path d="M336.35 276.391C336.302 277.557 337.351 278.64 338.57 278.688C339.819 278.741 340.774 277.789 340.792 276.478C340.81 275.255 339.915 274.291 338.731 274.247C337.578 274.207 336.39 275.273 336.35 276.391Z" fill="#F5E8FF"/>
<path d="M112.249 276.369C112.213 275.155 111.26 274.23 110.077 274.247C108.907 274.261 107.78 275.377 107.806 276.501C107.831 277.679 108.921 278.705 110.13 278.693C111.37 278.679 112.286 277.676 112.249 276.369Z" fill="#F5E8FF"/>
<path d="M194.999 297.38C195.013 296.441 194.17 295.539 193.271 295.521C192.363 295.499 191.469 296.376 191.466 297.287C191.466 298.262 192.273 299.032 193.271 299.019C194.232 299.007 194.986 298.292 194.999 297.38Z" fill="#F5E8FF"/>
<path d="M361.266 297.45C361.317 296.525 360.516 295.586 359.613 295.525C358.709 295.463 357.779 296.306 357.736 297.222C357.688 298.191 358.464 298.993 359.468 299.018C360.428 299.041 361.213 298.357 361.266 297.45Z" fill="#F5E8FF"/>
<path d="M130.904 299.018C131.862 299.049 132.658 298.371 132.722 297.472C132.782 296.547 131.989 295.6 131.086 295.525C130.182 295.454 129.248 296.278 129.19 297.2C129.135 298.164 129.906 298.979 130.904 299.018Z" fill="#F5E8FF"/>
<path d="M108.332 297.335C108.357 298.305 109.178 299.055 110.183 299.015C111.142 298.979 111.87 298.252 111.862 297.335C111.853 296.393 110.99 295.511 110.096 295.522C109.178 295.53 108.315 296.424 108.332 297.335Z" fill="#F5E8FF"/>
<path d="M257.274 297.385C257.291 296.446 256.453 295.542 255.554 295.521C254.638 295.502 253.749 296.371 253.744 297.287C253.741 298.256 254.542 299.032 255.546 299.018C256.507 299.007 257.26 298.296 257.274 297.385Z" fill="#F5E8FF"/>
<path d="M46.054 297.292C46.0488 298.262 46.8555 299.032 47.8609 299.019C48.8149 299.007 49.5754 298.292 49.5874 297.38C49.6011 296.446 48.7635 295.539 47.8609 295.521C46.9532 295.499 46.0574 296.371 46.054 297.292Z" fill="#F5E8FF"/>
<path d="M278.132 297.459C278.19 296.529 277.387 295.592 276.484 295.525C275.58 295.46 274.652 296.292 274.604 297.214C274.554 298.178 275.332 298.993 276.33 299.019C277.286 299.046 278.075 298.361 278.132 297.459Z" fill="#F5E8FF"/>
<path d="M338.779 295.525C337.876 295.451 336.938 296.27 336.881 297.196C336.82 298.164 337.584 298.979 338.587 299.015C339.543 299.054 340.341 298.38 340.406 297.475C340.476 296.556 339.678 295.603 338.779 295.525Z" fill="#F5E8FF"/>
<path d="M66.9136 297.301C66.9136 298.274 67.7237 299.038 68.7274 299.019C69.6882 299.002 70.4384 298.282 70.4418 297.371C70.4521 296.433 69.6043 295.53 68.7068 295.522C67.8025 295.508 66.9084 296.393 66.9136 297.301Z" fill="#F5E8FF"/>
<path d="M399.156 297.318C399.168 298.292 399.985 299.046 400.988 299.018C401.947 298.993 402.689 298.265 402.686 297.354C402.686 296.415 401.829 295.521 400.935 295.516C400.024 295.516 399.147 296.407 399.156 297.318Z" fill="#F5E8FF"/>
<path d="M212.324 297.323C212.341 298.296 213.156 299.05 214.162 299.019C215.121 298.99 215.857 298.262 215.854 297.349C215.849 296.41 214.994 295.516 214.1 295.522C213.189 295.522 212.31 296.41 212.324 297.323Z" fill="#F5E8FF"/>
<path d="M87.5919 297.165C87.5251 298.082 88.325 298.967 89.2755 299.032C90.2055 299.094 90.9763 298.428 91.0636 297.48C91.1561 296.449 90.4864 295.621 89.5085 295.552C88.5305 295.482 87.6621 296.213 87.5919 297.165Z" fill="#F5E8FF"/>
<path d="M316.131 297.287C316.141 298.208 317.005 299.037 317.947 299.032C318.885 299.029 319.591 298.318 319.613 297.354C319.639 296.314 318.921 295.547 317.926 295.547C316.943 295.547 316.122 296.34 316.131 297.287Z" fill="#F5E8FF"/>
<path d="M298.755 297.397C298.803 296.363 298.101 295.57 297.114 295.547C296.128 295.525 295.295 296.297 295.273 297.248C295.256 298.164 296.097 299.015 297.049 299.033C297.983 299.05 298.71 298.353 298.755 297.397Z" fill="#F5E8FF"/>
<path d="M153.343 297.397C153.396 296.363 152.689 295.57 151.702 295.547C150.717 295.525 149.878 296.297 149.861 297.248C149.844 298.164 150.685 299.01 151.637 299.033C152.571 299.05 153.293 298.358 153.343 297.397Z" fill="#F5E8FF"/>
<path d="M174.206 297.275C174.189 296.239 173.434 295.508 172.434 295.552C171.452 295.595 170.668 296.429 170.724 297.371C170.777 298.292 171.677 299.08 172.619 299.032C173.545 298.984 174.218 298.234 174.206 297.275Z" fill="#F5E8FF"/>
<path d="M7.93109 297.397C7.97905 296.359 7.27854 295.57 6.28686 295.547C5.30375 295.525 4.46793 296.301 4.44909 297.248C4.43196 298.164 5.27977 299.015 6.22692 299.033C7.16378 299.05 7.88827 298.353 7.93109 297.397Z" fill="#F5E8FF"/>
<path d="M28.791 297.357C28.8167 296.32 28.1008 295.552 27.1074 295.552C26.1209 295.552 25.3056 296.337 25.309 297.287C25.3142 298.209 26.174 299.032 27.1194 299.032C28.058 299.029 28.7636 298.318 28.791 297.357Z" fill="#F5E8FF"/>
<path d="M381.891 297.332C381.901 296.292 381.173 295.533 380.182 295.547C379.195 295.561 378.389 296.367 378.411 297.314C378.433 298.234 379.305 299.049 380.247 299.032C381.185 299.015 381.883 298.292 381.891 297.332Z" fill="#F5E8FF"/>
<path d="M236.481 297.327C236.494 296.289 235.761 295.53 234.766 295.547C233.78 295.564 232.976 296.371 232.999 297.318C233.021 298.234 233.898 299.049 234.84 299.032C235.77 299.015 236.472 298.287 236.481 297.327Z" fill="#F5E8FF"/>
<path d="M358.166 318.048C358.218 318.724 358.875 319.293 359.56 319.258C360.232 319.228 360.718 318.685 360.691 318C360.665 317.286 360.06 316.676 359.394 316.693C358.706 316.715 358.108 317.37 358.166 318.048Z" fill="#F5E8FF"/>
<path d="M316.663 318.123C316.733 318.758 317.308 319.25 317.969 319.241C318.694 319.228 319.271 318.632 319.237 317.93C319.201 317.246 318.548 316.681 317.856 316.733C317.149 316.786 316.589 317.44 316.663 318.123Z" fill="#F5E8FF"/>
<path d="M194.429 318.062C194.429 317.351 193.85 316.716 193.184 316.699C192.496 316.681 191.873 317.308 191.895 317.991C191.917 318.671 192.544 319.267 193.237 319.264C193.907 319.264 194.426 318.736 194.429 318.062Z" fill="#F5E8FF"/>
<path d="M173.825 318.087C173.878 317.404 173.299 316.763 172.597 316.729C171.9 316.693 171.261 317.28 171.247 317.965C171.23 318.662 171.826 319.245 172.549 319.241C173.212 319.233 173.772 318.727 173.825 318.087Z" fill="#F5E8FF"/>
<path d="M236.099 318.008C236.112 317.32 235.498 316.721 234.797 316.729C234.151 316.738 233.574 317.268 233.525 317.895C233.468 318.592 234.033 319.205 234.758 319.241C235.477 319.272 236.085 318.715 236.099 318.008Z" fill="#F5E8FF"/>
<path d="M212.749 317.988C212.771 318.666 213.398 319.264 214.086 319.264C214.761 319.264 215.278 318.741 215.282 318.067C215.287 317.365 214.701 316.716 214.044 316.693C213.362 316.673 212.732 317.308 212.749 317.988Z" fill="#F5E8FF"/>
<path d="M151.764 316.729C151.076 316.681 150.418 317.255 150.389 317.938C150.357 318.632 150.941 319.228 151.665 319.236C152.329 319.245 152.896 318.755 152.961 318.11C153.032 317.43 152.472 316.782 151.764 316.729Z" fill="#F5E8FF"/>
<path d="M7.5596 317.974C7.5459 317.286 6.91396 316.698 6.21351 316.729C5.50621 316.76 4.92907 317.395 4.97531 318.079C5.02498 318.719 5.58157 319.228 6.24776 319.241C6.96705 319.25 7.56816 318.671 7.5596 317.974Z" fill="#F5E8FF"/>
<path d="M256.703 318.013C256.677 317.303 256.076 316.69 255.414 316.698C254.727 316.707 254.121 317.361 254.174 318.039C254.222 318.716 254.876 319.289 255.559 319.263C256.234 319.233 256.725 318.697 256.703 318.013Z" fill="#F5E8FF"/>
<path d="M132.151 318.058C132.151 317.351 131.564 316.707 130.904 316.693C130.221 316.676 129.6 317.308 129.622 317.996C129.642 318.676 130.271 319.267 130.963 319.263C131.634 319.258 132.151 318.736 132.151 318.058Z" fill="#F5E8FF"/>
<path d="M277.563 318.058C277.563 317.351 276.976 316.707 276.318 316.693C275.633 316.676 275.012 317.308 275.032 317.996C275.054 318.676 275.681 319.267 276.375 319.263C277.046 319.258 277.563 318.736 277.563 318.058Z" fill="#F5E8FF"/>
<path d="M111.292 318.008C111.266 317.299 110.661 316.681 110.004 316.693C109.315 316.707 108.711 317.361 108.759 318.039C108.81 318.719 109.459 319.289 110.148 319.258C110.822 319.227 111.314 318.693 111.292 318.008Z" fill="#F5E8FF"/>
<path d="M25.8351 317.909C25.7872 318.606 26.3523 319.211 27.0801 319.236C27.8045 319.259 28.409 318.697 28.4141 317.997C28.4175 317.312 27.7959 316.712 27.0938 316.729C26.455 316.743 25.8796 317.281 25.8351 317.909Z" fill="#F5E8FF"/>
<path d="M49.0171 318.106C49.0394 317.409 48.4708 316.732 47.8167 316.693C47.1454 316.65 46.4827 317.268 46.4827 317.948C46.4809 318.626 47.0854 319.241 47.7824 319.258C48.4571 319.28 48.9914 318.78 49.0171 318.106Z" fill="#F5E8FF"/>
<path d="M337.306 317.969C337.315 318.649 337.93 319.25 338.622 319.264C339.298 319.272 339.827 318.759 339.841 318.084C339.855 317.387 339.271 316.721 338.618 316.693C337.938 316.663 337.298 317.286 337.306 317.969Z" fill="#F5E8FF"/>
<path d="M90.6922 317.988C90.687 317.303 90.0551 316.707 89.3599 316.729C88.7143 316.751 88.1491 317.294 88.1149 317.921C88.0755 318.618 88.6492 319.224 89.3736 319.241C90.0911 319.258 90.6956 318.685 90.6922 317.988Z" fill="#F5E8FF"/>
<path d="M69.8716 318.058C69.8682 317.347 69.2843 316.707 68.6232 316.693C67.9383 316.681 67.3115 317.311 67.3389 317.996C67.3646 318.676 67.9965 319.267 68.6832 319.263C69.3596 319.258 69.8716 318.736 69.8716 318.058Z" fill="#F5E8FF"/>
<path d="M295.799 318.027C295.817 318.666 296.361 319.202 297.019 319.241C297.738 319.275 298.36 318.719 298.382 318.022C298.399 317.339 297.794 316.732 297.089 316.732C296.383 316.732 295.777 317.342 295.799 318.027Z" fill="#F5E8FF"/>
<path d="M399.581 317.969C399.595 318.649 400.208 319.25 400.901 319.264C401.576 319.272 402.107 318.759 402.119 318.084C402.133 317.387 401.55 316.721 400.896 316.693C400.216 316.663 399.578 317.286 399.581 317.969Z" fill="#F5E8FF"/>
<path d="M378.932 317.996C378.937 318.697 379.55 319.267 380.269 319.236C380.989 319.211 381.562 318.601 381.514 317.909C381.466 317.224 380.8 316.668 380.108 316.733C379.468 316.794 378.932 317.37 378.932 317.996Z" fill="#F5E8FF"/>
<path d="M297.102 338.275C296.847 338.381 296.619 338.67 296.509 338.932C296.473 339.02 296.886 339.438 297.052 339.41C297.311 339.376 297.53 339.09 297.895 338.811C297.518 338.542 297.232 338.223 297.102 338.275Z" fill="#F5E8FF"/>
<path d="M317.364 338.885C317.319 338.977 317.696 339.424 317.859 339.41C318.123 339.393 318.365 339.126 318.75 338.881C318.394 338.581 318.135 338.235 318.005 338.28C317.741 338.362 317.487 338.631 317.364 338.885Z" fill="#F5E8FF"/>
<path d="M380.089 339.407C380.356 339.348 380.643 339.1 380.766 338.853C380.817 338.752 380.476 338.283 380.314 338.283C380.055 338.283 379.791 338.538 379.392 338.761C379.721 339.078 379.949 339.437 380.089 339.407Z" fill="#F5E8FF"/>
<path d="M6.227 338.24C6.0334 338.477 5.74728 338.691 5.68731 338.96C5.65647 339.104 6.00599 339.332 6.33151 339.674C6.55082 339.27 6.80096 339.008 6.79582 338.744C6.79582 338.573 6.42746 338.406 6.227 338.24Z" fill="#F5E8FF"/>
<path d="M90.2057 338.811C89.8288 338.542 89.5426 338.223 89.4107 338.275C89.1571 338.381 88.9293 338.67 88.8179 338.932C88.7888 339.02 89.1966 339.438 89.3627 339.41C89.6215 339.376 89.8408 339.09 90.2057 338.811Z" fill="#F5E8FF"/>
<path d="M26.2919 338.761C26.6209 339.078 26.8487 339.437 26.9926 339.407C27.2565 339.348 27.5409 339.1 27.6677 338.853C27.7174 338.752 27.373 338.283 27.212 338.283C26.9532 338.283 26.6945 338.538 26.2919 338.761Z" fill="#F5E8FF"/>
<path d="M172.543 338.24C172.334 338.46 172.036 338.651 171.952 338.915C171.909 339.056 172.242 339.314 172.531 339.683C172.785 339.292 173.057 339.051 173.074 338.792C173.088 338.622 172.733 338.424 172.543 338.24Z" fill="#F5E8FF"/>
<path d="M152.211 338.735C152.203 338.564 151.834 338.406 151.629 338.24C151.44 338.482 151.159 338.701 151.103 338.968C151.072 339.112 151.432 339.337 151.755 339.674C151.97 339.266 152.216 338.999 152.211 338.735Z" fill="#F5E8FF"/>
<path d="M233.981 338.78C234.319 339.09 234.555 339.441 234.691 339.407C234.955 339.34 235.236 339.09 235.357 338.841C235.402 338.74 235.051 338.274 234.889 338.279C234.631 338.288 234.375 338.547 233.981 338.78Z" fill="#F5E8FF"/>
<path d="M193.259 338.274C193.04 338.482 192.74 338.651 192.636 338.907C192.593 339.016 192.939 339.292 193.193 339.587C193.438 339.283 193.732 339.078 193.729 338.881C193.724 338.674 193.426 338.477 193.259 338.274Z" fill="#F5E8FF"/>
<path d="M68.5304 339.385C68.7549 339.379 68.9742 339.126 69.1935 338.977C69.017 338.74 68.8817 338.411 68.6487 338.305C68.5167 338.244 68.2152 338.552 67.619 338.937C68.0439 339.16 68.2889 339.39 68.5304 339.385Z" fill="#F5E8FF"/>
<path d="M358.905 338.893C358.857 339.008 359.2 339.283 359.445 339.59C359.7 339.289 359.999 339.086 359.999 338.889C359.999 338.682 359.704 338.477 359.538 338.271C359.313 338.471 359.015 338.643 358.905 338.893Z" fill="#F5E8FF"/>
<path d="M131.444 338.901C131.449 338.696 131.165 338.485 131.002 338.274C130.777 338.471 130.471 338.634 130.358 338.881C130.308 338.994 130.642 339.28 130.884 339.59C131.139 339.297 131.444 339.104 131.444 338.901Z" fill="#F5E8FF"/>
<path d="M338.5 339.581C338.784 339.314 339.105 339.148 339.13 338.946C339.153 338.744 338.889 338.507 338.75 338.283C338.503 338.459 338.183 338.591 338.047 338.828C337.986 338.932 338.289 339.249 338.5 339.581Z" fill="#F5E8FF"/>
<path d="M276.866 338.881C276.856 338.674 276.563 338.477 276.392 338.274C276.172 338.482 275.874 338.651 275.77 338.907C275.725 339.016 276.071 339.292 276.326 339.587C276.571 339.283 276.866 339.078 276.866 338.881Z" fill="#F5E8FF"/>
<path d="M400.772 339.385C400.997 339.379 401.216 339.126 401.435 338.977C401.261 338.74 401.129 338.411 400.892 338.305C400.76 338.244 400.462 338.552 399.861 338.937C400.286 339.16 400.532 339.39 400.772 339.385Z" fill="#F5E8FF"/>
<path d="M47.0182 338.78C47.3026 339.05 47.4876 339.367 47.6898 339.379C47.8954 339.393 48.1198 339.117 48.3391 338.968C48.1592 338.735 48.0187 338.406 47.7823 338.305C47.6504 338.249 47.3557 338.56 47.0182 338.78Z" fill="#F5E8FF"/>
<path d="M213.507 338.761C213.578 339.016 213.876 339.205 214.078 339.419C214.258 339.231 214.564 339.051 214.587 338.842C214.604 338.643 214.328 338.415 214.104 338.095C213.833 338.389 213.47 338.631 213.507 338.761Z" fill="#F5E8FF"/>
<path d="M110.091 339.385C110.219 339.432 110.49 339.1 110.802 338.859C110.503 338.603 110.301 338.302 110.103 338.305C109.888 338.31 109.683 338.6 109.467 338.766C109.669 338.985 109.84 339.292 110.091 339.385Z" fill="#F5E8FF"/>
<path d="M255.494 339.385C255.624 339.432 255.897 339.104 256.212 338.862C255.914 338.608 255.717 338.302 255.523 338.305C255.304 338.31 255.095 338.595 254.884 338.761C255.081 338.98 255.248 339.289 255.494 339.385Z" fill="#F5E8FF"/>
<path d="M151.502 359.611C151.581 359.645 151.672 359.724 151.734 359.703C151.792 359.69 151.821 359.566 151.86 359.493C151.781 359.457 151.691 359.378 151.629 359.395C151.572 359.414 151.545 359.535 151.502 359.611Z" fill="#F5E8FF"/>
<path d="M276.546 359.563C276.541 359.505 276.428 359.453 276.361 359.395C276.308 359.465 276.212 359.536 276.217 359.602C276.217 359.664 276.33 359.715 276.397 359.774C276.454 359.703 276.549 359.628 276.546 359.563Z" fill="#F5E8FF"/>
<path d="M131.129 359.614C131.134 359.549 131.036 359.474 130.988 359.4C130.923 359.456 130.81 359.51 130.8 359.566C130.796 359.636 130.892 359.712 130.94 359.782C131.007 359.724 131.125 359.676 131.129 359.614Z" fill="#F5E8FF"/>
<path d="M193.201 359.768C193.271 359.72 193.395 359.684 193.408 359.623C193.422 359.563 193.33 359.474 193.285 359.4C193.215 359.448 193.093 359.484 193.079 359.544C193.066 359.611 193.158 359.693 193.201 359.768Z" fill="#F5E8FF"/>
<path d="M6.30585 359.392C6.24417 359.378 6.16022 359.465 6.08483 359.51C6.12938 359.58 6.16879 359.698 6.23047 359.712C6.29214 359.724 6.37438 359.637 6.44977 359.594C6.4018 359.523 6.36582 359.4 6.30585 359.392Z" fill="#F5E8FF"/>
<path d="M68.8547 359.597C68.8547 359.532 68.7553 359.465 68.6936 359.4C68.6319 359.462 68.5257 359.523 68.5257 359.588C68.5257 359.653 68.6319 359.72 68.6885 359.785C68.7502 359.72 68.8547 359.659 68.8547 359.597Z" fill="#F5E8FF"/>
<path d="M47.9962 359.623C48.0082 359.563 47.9174 359.474 47.8746 359.4C47.7992 359.448 47.6793 359.484 47.6673 359.544C47.6553 359.611 47.7427 359.693 47.7906 359.768C47.8609 359.72 47.9842 359.684 47.9962 359.623Z" fill="#F5E8FF"/>
<path d="M214.271 359.597C214.271 359.532 214.165 359.465 214.104 359.4C214.049 359.462 213.937 359.523 213.937 359.588C213.937 359.653 214.044 359.72 214.1 359.785C214.162 359.72 214.271 359.659 214.271 359.597Z" fill="#F5E8FF"/>
<path d="M297.092 359.392C297.027 359.392 296.962 359.493 296.895 359.549C296.962 359.611 297.022 359.673 297.083 359.729C297.15 359.673 297.215 359.614 297.28 359.558C297.215 359.496 297.154 359.392 297.092 359.392Z" fill="#F5E8FF"/>
<path d="M359.683 359.593C359.678 359.532 359.577 359.465 359.516 359.4C359.459 359.462 359.349 359.523 359.349 359.588C359.349 359.653 359.454 359.72 359.512 359.785C359.574 359.72 359.683 359.659 359.683 359.593Z" fill="#F5E8FF"/>
<path d="M27.02 359.698C27.1074 359.681 27.1948 359.667 27.277 359.65C27.2599 359.566 27.265 359.434 27.2154 359.413C27.1554 359.383 27.0492 359.434 26.9652 359.453C26.9841 359.535 27.0012 359.614 27.02 359.698Z" fill="#F5E8FF"/>
<path d="M338.824 359.597C338.824 359.532 338.719 359.465 338.661 359.4C338.599 359.462 338.49 359.523 338.49 359.588C338.49 359.653 338.596 359.72 338.652 359.785C338.714 359.72 338.824 359.659 338.824 359.597Z" fill="#F5E8FF"/>
<path d="M255.686 359.563C255.686 359.505 255.568 359.453 255.503 359.395C255.45 359.465 255.354 359.536 255.357 359.602C255.362 359.664 255.475 359.715 255.542 359.774C255.594 359.703 255.691 359.628 255.686 359.563Z" fill="#F5E8FF"/>
<path d="M317.758 359.549C317.82 359.606 317.881 359.712 317.947 359.712C318.013 359.715 318.075 359.611 318.14 359.554C318.078 359.496 318.017 359.386 317.955 359.386C317.89 359.386 317.825 359.492 317.758 359.549Z" fill="#F5E8FF"/>
<path d="M172.351 359.566C172.422 359.619 172.492 359.715 172.557 359.715C172.619 359.712 172.672 359.597 172.725 359.532C172.658 359.479 172.583 359.386 172.518 359.391C172.461 359.391 172.408 359.504 172.351 359.566Z" fill="#F5E8FF"/>
<path d="M110.283 359.659C110.248 359.575 110.214 359.496 110.178 359.417C110.103 359.453 109.976 359.474 109.959 359.532C109.937 359.593 110.017 359.689 110.051 359.768C110.125 359.732 110.204 359.693 110.283 359.659Z" fill="#F5E8FF"/>
<path d="M400.783 359.532C400.761 359.593 400.839 359.689 400.874 359.768C400.949 359.732 401.028 359.693 401.107 359.659C401.071 359.575 401.036 359.496 401.006 359.417C400.927 359.453 400.8 359.474 400.783 359.532Z" fill="#F5E8FF"/>
<path d="M234.854 359.395C234.792 359.383 234.705 359.465 234.631 359.51C234.679 359.583 234.722 359.653 234.77 359.724C234.845 359.684 234.919 359.641 234.999 359.597C234.95 359.527 234.91 359.403 234.854 359.395Z" fill="#F5E8FF"/>
<path d="M89.4213 359.391C89.3545 359.386 89.2809 359.479 89.2106 359.527C89.262 359.593 89.3151 359.659 89.3734 359.724C89.4419 359.672 89.5121 359.623 89.5841 359.575C89.531 359.51 89.4762 359.395 89.4213 359.391Z" fill="#F5E8FF"/>
<path d="M380.195 359.724C380.266 359.672 380.336 359.623 380.406 359.575C380.353 359.51 380.305 359.395 380.243 359.391C380.178 359.386 380.103 359.479 380.033 359.527C380.086 359.593 380.137 359.659 380.195 359.724Z" fill="#F5E8FF"/>
</svg>
