<svg width="568" height="558" viewBox="0 0 568 558" fill="none" xmlns="http://www.w3.org/2000/svg">
<path fill-rule="evenodd" clip-rule="evenodd" d="M367.43 93.1801C367.43 93.1801 367.36 93.1401 367.33 93.1201C367.35 93.1601 367.37 93.1901 367.39 93.2301C367.42 93.2501 367.46 93.2701 367.49 93.2801C367.46 93.2501 367.46 93.2301 367.43 93.1801Z" fill="#E9D0FD"/>
<path fill-rule="evenodd" clip-rule="evenodd" d="M367.39 93.2299C366.06 92.5499 364.72 91.8699 363.39 91.1699C356.42 87.5099 348.1 89.1099 343.3 95.0599C338.65 100.79 338.68 109.34 343.35 115.06C348.19 120.95 356.61 122.53 363.47 118.82C364.76 118.13 366.05 117.49 367.36 116.82C372.59 108.96 372.69 101.11 367.38 93.2299H367.39Z" fill="#E9D0FD"/>
<path fill-rule="evenodd" clip-rule="evenodd" d="M367.37 116.81C367.37 116.81 367.33 116.88 367.32 116.92C367.37 116.87 367.44 116.84 367.49 116.8C367.49 116.77 367.52 116.75 367.53 116.73C367.48 116.75 367.42 116.78 367.37 116.81Z" fill="#E9D0FD"/>
<path fill-rule="evenodd" clip-rule="evenodd" d="M372.42 10.8201C372.45 1.99006 365.7 -4.83996 356.88 -4.88996C348.04 -4.92996 341.2 1.83005 341.17 10.65C341.13 19.49 347.89 26.32 356.71 26.36C365.58 26.38 372.37 19.6701 372.42 10.8201Z" fill="#E9D0FD"/>
<path fill-rule="evenodd" clip-rule="evenodd" d="M478.49 237.63C485.27 235.3 489.47 228.99 488.88 221.62C488.66 219.13 487.96 216.68 487.47 214.21C489.31 214.82 491.13 215.53 493.01 216.03C503.34 218.81 513.8 210.64 513.21 200.02C513.03 196.98 511.81 194 511.06 190.98C518.06 194.25 524.88 194.73 531.33 189.64C530.58 191.44 529.73 193.2 529.15 195.04C527.14 201.39 528.24 207.18 533.03 211.86C537.81 216.56 543.7 217.73 549.91 215.38C556.16 213.02 559.99 208.13 559.97 201.49C559.97 197.58 558.02 193.68 556.93 189.79C557.65 190.07 558.42 190.25 559.08 190.63C565.78 194.46 572.25 194.04 578.24 189.26C583.79 184.8 585.15 177.97 582.45 170.05C582.19 169.27 582.19 168.42 581.99 166.96C590.09 171.17 597.14 170.62 603.11 164.54C609.05 158.51 608.54 151.31 605.42 144.36C609.76 144.89 613.7 146.17 617.36 145.63C630.41 143.68 634.57 130.79 626.6 117.99C620.39 113.71 613.89 111.68 607.16 115.54V97.5599C613.81 100.34 620.66 99.6799 626.69 94.3899C632.52 87.6099 632.67 80.2099 628.15 72.0099C638.25 76.4299 645.34 75.5199 650.5 69.6399C655 64.4899 655.74 56.8499 652.28 50.9799C648.25 44.1099 641.78 42.1099 630.72 44.3099C637.1 27.5399 624.36 14.5099 606.9 20.9899C609.95 13.8699 610.32 7.14989 605.05 1.10989C606.49 1.66989 607.95 2.1999 609.38 2.7999C616.6 5.8299 624.34 3.92991 628.81 -2.00009C633.15 -7.75009 633.07 -15.9001 628.55 -21.5601C623.93 -27.4001 616.19 -29.1001 609.01 -25.8901C607.62 -25.2701 606.14 -24.7501 604.71 -24.1801C609.97 -33.6901 609.54 -41.3801 603.4 -47.0001C597.41 -52.4901 590.15 -52.5301 581.5 -47.1501C582.1 -48.7601 582.63 -50.4201 583.34 -52.0001C586.41 -59.1301 584.5 -66.9601 578.58 -71.4301C573.04 -75.6201 565.09 -75.6801 559.48 -71.5301C553.49 -67.0801 551.51 -59.3901 554.52 -52.1601C555.2 -50.5501 555.8 -48.9201 556.44 -47.2901C550.39 -53.3701 543.29 -52.2101 536.74 -49.9101C537.13 -53.9901 538.19 -57.8901 537.72 -61.5801C536.46 -71.6301 523.46 -80.9001 510.05 -70.4501C505.46 -64.3001 503.86 -57.7301 507.41 -50.9701H489.31C492.38 -57.4401 491.3 -64.2401 486.46 -70.4501C473.18 -80.8701 459.84 -71.7601 458.59 -60.7901C458.23 -57.6601 459.08 -54.3801 459.39 -50.9401C452.53 -53.9801 446.21 -53.5901 440.38 -49.0301C440.99 -50.6301 441.64 -52.2401 442.22 -53.8601C444.3 -59.6301 443.78 -65.0801 439.88 -69.9001C435.98 -74.7101 430.82 -76.4701 424.7 -75.4901C412.78 -73.5901 406.82 -58.5501 416.45 -48.0701C415.38 -48.5301 414.3 -48.9701 413.25 -49.4601C404.08 -53.7001 397.06 -52.8401 391.89 -46.8501C386.49 -40.5901 386.72 -33.2301 392.58 -24.8601C390.63 -25.7101 388.67 -26.6001 386.7 -27.4201C380.05 -30.1901 372.5 -28.3401 368.06 -22.8701C363.46 -17.2201 363.29 -9.0501 367.65 -3.2001C371.86 2.39989 379.4 4.59989 386.12 2.10989C387.96 1.44989 389.74 0.649902 391.52 -0.100098C385.96 5.94991 386.86 12.8799 389.49 20.1799C379.59 16.7799 372.74 17.9499 367.95 23.7399C362.52 30.2699 363.09 37.3799 367.43 45.2199C357.52 40.6199 350.43 41.3899 345.2 46.9399C340.39 52.0299 339.49 59.9799 343.02 66.0299C347.04 72.9099 353.61 74.9499 365.12 72.5699C361.3 80.1599 362.25 87.0199 367.46 93.2499C373.54 98.2199 380.17 99.5799 387.22 95.9599V114.53C380.69 110.66 373.97 112.45 367.52 116.87C367.05 117.67 366.58 118.5 366.09 119.3C361.73 126.37 362.12 133.66 367.17 139.36C371.92 144.75 379.16 146.12 386.43 143.03C387.36 142.65 388.32 142.35 389.99 141.77C385.62 148.99 385.06 155.58 389.72 161.77C395.64 169.71 403.64 169.79 412.43 166.11C408.03 180.18 412.49 190.31 423.93 191.61C428.22 192.09 432.82 189.72 437.27 188.64C436.63 190.05 435.93 191.43 435.35 192.88C432.73 199.29 433.61 205.24 438.31 210.29C442.85 215.17 448.62 216.45 454.98 214.54C461 212.72 465.75 207.07 465.7 200.58C465.68 196.66 463.95 192.75 462.98 188.82C469.01 192.91 475.33 193.89 481.77 190.1C489.82 185.37 491.12 177.82 489.49 169.96H503.72C504.67 175.49 505.64 181.07 506.6 186.64C504.56 186.03 502.56 185.33 500.51 184.82C490.04 182.32 479.64 191.34 480.96 201.95C481.34 204.99 482.54 207.91 483.36 210.9C482.21 210.18 481.11 209.31 479.9 208.76C473.23 205.84 465.75 207.67 461.3 213.24C457.07 218.55 456.85 226.38 460.76 231.91C464.75 237.52 472.04 239.91 478.53 237.7L478.49 237.63ZM608.63 51.0199H623.79V67.8499C619.7 67.3499 614.17 66.6599 608.63 65.9799V51.0299V51.0199ZM600.65 43.0599C596.21 42.7999 591.1 42.4999 585.86 42.2099V28.3599C590.76 28.0499 596.02 27.7099 600.65 27.3899V43.0599ZM599.29 75.3599V90.4099C595.01 90.1399 589.83 89.8099 584.88 89.5199V75.3599H599.29ZM603.77 -22.3101C598.59 -15.2601 599.83 -8.0301 603.17 -0.760101C597.65 -5.4501 591.46 -5.45008 585.29 -3.33008C584.98 -9.32008 584.66 -15.2901 584.34 -21.2701C590.36 -17.1401 597.06 -19.6901 603.77 -22.3101ZM583.87 122.69C589.11 122.44 594.71 122.18 599.71 121.96V138.05H583.87V122.69ZM576.02 161.68H560.06C560.27 157.04 560.51 151.57 560.76 145.88H576.02V161.68ZM561.89 112.85V100.29C566.32 100.07 570.66 99.8699 575.16 99.6599V113.59C570.87 113.34 566.32 113.1 561.89 112.85ZM576.11 66.2999C572.3 65.7299 568.04 65.0699 563.74 64.4199V53.0399C567.96 52.7799 572 52.5299 576.11 52.2699V66.2999ZM576.54 18.5599H562.52V4.34991H576.54V18.5599ZM580.2 -45.8701C575.75 -39.6001 575.2 -33.0301 578.58 -26.9401C572.99 -27.3101 567.2 -27.7001 560.82 -28.1401C562.37 -33.6901 563.07 -40.3201 557.91 -45.9001C565.35 -41.9701 572.77 -42.4901 580.2 -45.8701ZM552.93 -19.3201V-5.24008H539.07C538.83 -9.99008 538.6 -14.7201 538.38 -19.3201H552.93ZM540.9 40.2099V29.7899C544.75 29.5299 548.2 29.2899 551.76 29.0399V40.7899C548.14 40.5999 544.7 40.4099 540.9 40.1999V40.2099ZM550.15 77.6799V88.2799H540.06V77.6799H550.15ZM538.59 123.96H550.8C551.03 128.05 551.3 132.61 551.55 137.1H537.84C538.1 132.74 538.33 128.56 538.59 123.96ZM535.73 169.24H553.32C549.82 175.34 551.68 181.68 554.87 187.89C547.81 183.35 540.64 183.89 533.46 187.54C537.72 181.95 538.02 175.78 535.73 169.25V169.24ZM518.77 62.4999V54.6299C521.2 54.5199 523.62 54.4199 526.41 54.2999V63.5699C523.87 63.2199 521.45 62.8699 518.77 62.4999ZM526.13 102.1V111.89H516.11V102.1H526.13ZM516.6 16.3599C516.43 12.7599 516.23 9.15991 516.05 5.37991H528.18C527.96 8.78992 527.74 12.4199 527.48 16.3599H516.6ZM529.94 -43.4701C529.65 -39.0601 529.28 -33.6401 528.92 -28.4001H514.74C514.49 -33.3501 514.23 -38.6501 514 -43.4701H529.95H529.94ZM514.22 147.14H527.41C527.66 151.69 527.91 156.46 528.14 160.98H513.43C513.68 156.7 513.94 152.15 514.22 147.14ZM388.17 66.5499C383.4 66.1499 377.49 65.6599 371.43 65.1699V49.1299C376 49.5099 382.06 49.9899 388.17 50.4999V66.5499ZM410.21 136.2C404.59 136.59 398.62 137.02 393.94 137.35V120.53C398.89 120.84 404.53 121.18 410.21 121.54V136.2ZM394.57 89.3099V73.0099C398.99 73.6799 404.21 74.4899 409.19 75.2399V88.3299C404.19 88.6599 399.25 88.9899 394.57 89.3099ZM410.57 41.0999C405.85 41.3399 400.74 41.5799 395.77 41.8199V26.1799C400.13 26.4799 405.51 26.8299 410.57 27.1799V41.0899V41.0999ZM411.04 -4.81009C405.39 -6.41009 398.92 -6.8401 393.29 -2.1001C397.41 -9.44009 396.51 -16.7901 393.29 -24.1201C399.61 -19.8501 406.17 -18.9901 412.19 -22.6101C411.83 -16.8401 411.45 -11.0101 411.04 -4.80008V-4.81009ZM458.22 -20.7901C457.95 -16.1301 457.67 -11.3801 457.38 -6.4101H444.01C443.74 -11.0701 443.46 -16.1901 443.21 -20.7901H458.22ZM444.64 39.6699V27.8499C448.03 28.0199 451.78 28.2199 455.75 28.4299V38.9199C451.98 39.1899 448.56 39.4099 444.64 39.6699ZM453.87 76.9899V86.8599C450.9 87.0299 447.52 87.2099 443.75 87.4299V75.5699C447.37 76.0699 450.4 76.4999 453.87 76.9899ZM443.19 122.59H455.47C455.71 126.95 455.93 131.12 456.2 135.87H442.54C442.73 131.92 442.96 127.4 443.19 122.59ZM433.98 160.51H417.99V144.66H433.98V160.51ZM419.85 17.3399V3.13992H433.94V17.3399H419.85ZM432.71 51.8499V64.1699H420.4V51.0999C424.4 51.3399 428.56 51.5999 432.71 51.8399V51.8499ZM432.29 98.5399V111.69C427.88 111.9 423.31 112.13 418.87 112.33V98.5399H432.29ZM436.46 -28.2901H417.82C422.04 -34.2601 419.33 -40.9601 416.85 -47.7001C423.94 -42.5501 431.21 -43.8501 438.53 -47.1101C433.6 -41.2201 433.51 -34.7601 436.46 -28.2901ZM439.22 186.57C442.32 180.45 444.34 174.22 440.65 168.06H458.34C456.04 174.37 456.31 180.57 460.45 186.2C453.32 182.7 446.22 182.26 439.22 186.57ZM480.42 159.78H465.93C466.15 155.54 466.39 150.8 466.63 145.87H480.42V159.78ZM477.93 101.18V110.65H467.82V100.73C471.31 100.89 474.56 101.03 477.93 101.18ZM469.63 53.3199H478.05C477.9 56.1399 477.77 58.7399 477.62 61.5499H470.06C469.93 58.9799 469.79 56.3699 469.63 53.3199ZM479.48 15.5099H468.87C468.61 11.6599 468.35 7.87991 468.09 4.12991H480.91C480.49 7.52991 480.03 11.2399 479.48 15.5099ZM481.24 -30.0001C476.49 -29.7801 471.57 -29.5701 466.98 -29.3601V-43.4401H482.74C482.26 -39.2101 481.74 -34.4701 481.24 -30.0001ZM490.37 136.39C490.77 132.97 491.2 129.22 491.64 125.22H502.59C502.81 129.07 503.05 132.69 503.26 136.39H490.37ZM500.48 79.6099C500.74 82.1499 500.97 84.3999 501.22 86.9499H492.54C492.88 84.3899 493.19 82.1099 493.58 79.1999C495.79 79.3299 498.02 79.4799 500.49 79.6099H500.48ZM493.74 38.5599V30.1899H502.68V38.5599H493.74ZM504.34 -6.12009H491.6V-19.0601H505.18C504.93 -15.1901 504.65 -10.8701 504.34 -6.12009Z" fill="#E9D0FD"/>
<path fill-rule="evenodd" clip-rule="evenodd" d="M536.1 224.15C536.15 215.31 529.39 208.53 520.56 208.56C511.75 208.57 505.04 215.4 505.12 224.25C505.19 232.81 511.81 239.44 520.36 239.54C529.22 239.65 536.05 232.95 536.09 224.15H536.1Z" fill="#E9D0FD"/>
<path fill-rule="evenodd" clip-rule="evenodd" d="M379.22 160.26C370.6 160.26 363.86 166.84 363.73 175.4C363.58 184.27 370.33 191.17 379.16 191.18C387.77 191.2 394.51 184.59 394.63 176.04C394.78 167.18 388.06 160.27 379.22 160.26Z" fill="#E9D0FD"/>
<path fill-rule="evenodd" clip-rule="evenodd" d="M402.75 214.72C411.53 214.72 418.31 207.84 418.18 199.01C418.05 190.5 411.33 183.89 402.76 183.87C393.97 183.87 387.21 190.76 387.34 199.58C387.46 208.1 394.2 214.72 402.75 214.72Z" fill="#E9D0FD"/>
<path fill-rule="evenodd" clip-rule="evenodd" d="M347.42 81.49C347.42 72.96 340.76 66.15 332.24 66.08C323.71 65.98 316.85 72.61 316.67 81.11C316.51 89.87 323.4 96.87 332.14 96.82C340.65 96.76 347.4 90.01 347.42 81.49Z" fill="#E9D0FD"/>
<path fill-rule="evenodd" clip-rule="evenodd" d="M583.04 224.25C583.17 215.84 576.37 208.85 567.95 208.74C559.56 208.63 552.56 215.43 552.45 223.83C552.34 232.23 559.12 239.24 567.54 239.34C575.95 239.45 582.93 232.66 583.03 224.26L583.04 224.25Z" fill="#E9D0FD"/>
<path fill-rule="evenodd" clip-rule="evenodd" d="M348.55 35.08C348.95 26.34 342.23 19.14 333.55 18.96C325.06 18.79 318.12 25.39 317.87 33.83C317.64 42.32 324.16 49.33 332.6 49.64C341.09 49.95 348.18 43.48 348.55 35.08Z" fill="#E9D0FD"/>
<path fill-rule="evenodd" clip-rule="evenodd" d="M355.81 136.78C347.05 136.69 340.13 143.62 340.25 152.4C340.35 160.9 347.19 167.57 355.72 167.52C364.23 167.47 370.97 160.71 370.99 152.2C371.01 143.67 364.32 136.87 355.81 136.78Z" fill="#E9D0FD"/>
<path fill-rule="evenodd" clip-rule="evenodd" d="M441.65 223C441.71 214.5 434.95 207.61 426.48 207.55C417.98 207.48 411.09 214.24 411.02 222.73C410.96 231.22 417.73 238.11 426.2 238.17C434.7 238.24 441.59 231.47 441.65 223Z" fill="#E9D0FD"/>
<path fill-rule="evenodd" clip-rule="evenodd" d="M332.73 113.35C324.67 112.96 317.5 119.32 316.84 127.47C316.17 135.71 322.7 143.21 331.06 143.8C339.34 144.38 346.77 137.78 347.27 129.42C347.76 121.13 341.1 113.76 332.74 113.35H332.73Z" fill="#E9D0FD"/>
<path fill-rule="evenodd" clip-rule="evenodd" d="M449.77 261.53C457.78 261.61 464.81 254.76 464.98 246.7C465.17 238.48 457.96 231.21 449.71 231.34C441.66 231.44 434.78 238.42 434.8 246.45C434.82 254.48 441.72 261.43 449.77 261.53Z" fill="#E9D0FD"/>
<path fill-rule="evenodd" clip-rule="evenodd" d="M497.34 262.78C505.4 262.6 512.22 255.66 512.22 247.61C512.22 239.33 505.01 232.25 496.76 232.45C488.67 232.62 481.88 239.56 481.88 247.61C481.88 255.66 489.09 262.97 497.34 262.78Z" fill="#E9D0FD"/>
<path fill-rule="evenodd" clip-rule="evenodd" d="M333.2 2.29013C341.26 2.32013 348.25 -4.5799 348.36 -12.6699C348.46 -20.7099 341.64 -27.7599 333.55 -27.9799C325.3 -28.1899 318.01 -20.9899 318.09 -12.7199C318.18 -4.63988 325.14 2.27013 333.21 2.29013H333.2Z" fill="#E9D0FD"/>
<path fill-rule="evenodd" clip-rule="evenodd" d="M293.6 105.02C293.6 113.13 300.52 119.99 308.61 119.87C316.76 119.78 323.52 112.81 323.34 104.72C323.15 96.79 316.54 90.24 308.61 90.14C300.52 90.05 293.6 96.89 293.6 105.01V105.02Z" fill="#E9D0FD"/>
<path fill-rule="evenodd" clip-rule="evenodd" d="M294.65 57.4099C294.36 65.3999 301.08 72.5399 309.18 72.8599C317.18 73.1599 324.33 66.4399 324.64 58.3199C324.94 50.3399 318.22 43.1899 310.1 42.8799C302.12 42.5699 294.96 49.2899 294.65 57.4099Z" fill="#E9D0FD"/>
<path fill-rule="evenodd" clip-rule="evenodd" d="M544.46 262.66C552.55 262.47 559.42 255.36 559.22 247.33C559.03 239.25 551.92 232.39 543.9 232.57C535.8 232.76 528.95 239.88 529.14 247.91C529.34 256 536.43 262.84 544.46 262.67V262.66Z" fill="#E9D0FD"/>
<path fill-rule="evenodd" clip-rule="evenodd" d="M294.96 10.4399C294.79 18.7399 301.5 25.5199 309.8 25.4399C317.89 25.3499 324.35 18.8099 324.35 10.7299C324.35 2.64988 317.88 -3.88013 309.8 -3.97013C301.72 -4.04013 295.12 2.35987 294.96 10.4399Z" fill="#E9D0FD"/>
<path fill-rule="evenodd" clip-rule="evenodd" d="M355.59 214.08C363.8 214.09 370.57 207.19 370.41 199.02C370.22 191.02 363.62 184.52 355.63 184.51C347.42 184.5 340.64 191.39 340.83 199.57C340.99 207.57 347.62 214.08 355.59 214.09V214.08Z" fill="#E9D0FD"/>
<path fill-rule="evenodd" clip-rule="evenodd" d="M378.98 237.56C387.29 237.69 394.03 230.94 393.88 222.62C393.74 214.54 387.18 208.11 379.09 208.16C371.01 208.21 364.53 214.71 364.49 222.81C364.47 230.88 370.91 237.44 378.98 237.55V237.56Z" fill="#E9D0FD"/>
<path fill-rule="evenodd" clip-rule="evenodd" d="M332.05 190.33C340.19 190.33 346.58 184 346.67 175.86C346.74 167.75 340.46 161.26 332.35 161.11C323.98 160.95 317.35 167.52 317.44 175.86C317.51 184 323.91 190.33 332.05 190.33Z" fill="#E9D0FD"/>
<path fill-rule="evenodd" clip-rule="evenodd" d="M535.04 271.27C535.08 263.24 529.09 257 521.13 256.77C512.85 256.53 506.35 262.61 506.19 270.82C506.02 279.1 512.15 285.52 520.39 285.62C528.66 285.73 535 279.52 535.04 271.28V271.27Z" fill="#E9D0FD"/>
<path fill-rule="evenodd" clip-rule="evenodd" d="M402.5 260.91C410.73 261.04 417.11 254.89 417.24 246.71C417.37 238.48 411.21 232.1 403.03 231.96C394.79 231.84 388.41 237.99 388.29 246.17C388.15 254.4 394.31 260.79 402.5 260.91Z" fill="#E9D0FD"/>
<path fill-rule="evenodd" clip-rule="evenodd" d="M487.9 269.87C487.82 261.85 481.77 255.71 473.77 255.58C465.49 255.43 459.12 261.59 459.03 269.84C458.97 278.11 465.19 284.43 473.46 284.43C481.73 284.43 487.95 278.13 487.9 269.87Z" fill="#E9D0FD"/>
<path fill-rule="evenodd" clip-rule="evenodd" d="M308.59 166.53C316.81 166.48 322.97 160.14 322.84 151.88C322.72 143.7 316.33 137.58 308.06 137.77C300.11 137.97 294.11 144.13 294.1 152.13C294.1 160.37 300.35 166.6 308.59 166.54V166.53Z" fill="#E9D0FD"/>
<path fill-rule="evenodd" clip-rule="evenodd" d="M271.85 34.5401C271.96 42.4401 278.24 48.5601 286.17 48.5301C294.09 48.4901 300.28 42.3001 300.31 34.3701C300.33 26.4301 294.2 20.1701 286.3 20.0901C278.11 20.0001 271.75 26.37 271.85 34.55V34.5401Z" fill="#E9D0FD"/>
<path fill-rule="evenodd" clip-rule="evenodd" d="M285.9 95.7C293.91 95.78 300.18 89.74 300.34 81.78C300.5 73.75 294.49 67.4 286.57 67.18C278.31 66.96 271.84 73.18 271.83 81.4C271.81 89.4 277.93 95.62 285.9 95.7Z" fill="#E9D0FD"/>
<path fill-rule="evenodd" clip-rule="evenodd" d="M581.97 271.62C582.18 263.66 576.18 257.23 568.33 256.97C560.14 256.69 553.58 262.91 553.53 271.04C553.46 278.99 559.56 285.28 567.47 285.42C575.41 285.56 581.77 279.49 581.97 271.63V271.62Z" fill="#E9D0FD"/>
<path fill-rule="evenodd" clip-rule="evenodd" d="M426.54 284.22C434.44 284.13 440.59 277.87 440.55 269.93C440.53 262.02 434.33 255.81 426.41 255.77C418.24 255.75 411.94 262.17 412.1 270.36C412.26 278.25 418.57 284.31 426.54 284.22Z" fill="#E9D0FD"/>
<path fill-rule="evenodd" clip-rule="evenodd" d="M270.77 128.51C270.73 136.36 277.14 142.76 284.99 142.71C292.84 142.67 299.17 136.21 299.05 128.35C298.92 120.52 292.38 114.24 284.53 114.44C276.94 114.63 270.81 120.9 270.77 128.51Z" fill="#E9D0FD"/>
<path fill-rule="evenodd" clip-rule="evenodd" d="M497.21 308.81C504.7 308.7 511.02 302.38 511.08 294.88C511.16 287.16 504.57 280.6 496.85 280.7C489.36 280.81 483.04 287.15 482.98 294.65C482.91 302.35 489.51 308.92 497.21 308.81Z" fill="#E9D0FD"/>
<path fill-rule="evenodd" clip-rule="evenodd" d="M272.04 -12.8899C272.01 -5.16991 278.64 1.3701 286.33 1.2201C293.81 1.0701 300.11 -5.2999 300.15 -12.7799C300.17 -20.4999 293.54 -27.0399 285.85 -26.8999C278.36 -26.7599 272.06 -20.3799 272.04 -12.8899Z" fill="#E9D0FD"/>
<path fill-rule="evenodd" clip-rule="evenodd" d="M355.84 260.46C363.36 260.32 369.69 253.86 369.64 246.36C369.6 238.87 363.2 232.47 355.69 232.42C348.21 232.38 341.73 238.71 341.6 246.22C341.46 253.92 348.12 260.6 355.84 260.47V260.46Z" fill="#E9D0FD"/>
<path fill-rule="evenodd" clip-rule="evenodd" d="M332.15 236.93C339.64 236.86 345.99 230.54 346.1 223.05C346.21 215.35 339.64 208.75 331.94 208.82C324.45 208.88 318.1 215.19 318 222.68C317.88 230.39 324.45 236.98 332.16 236.93H332.15Z" fill="#E9D0FD"/>
<path fill-rule="evenodd" clip-rule="evenodd" d="M308.69 213.28C316.17 213.13 322.5 206.67 322.46 199.23C322.42 191.76 316.02 185.36 308.56 185.32C301.12 185.28 294.65 191.6 294.5 199.07C294.35 206.73 301.03 213.42 308.7 213.28H308.69Z" fill="#E9D0FD"/>
<path fill-rule="evenodd" clip-rule="evenodd" d="M544.14 308.69C551.61 308.72 558.1 302.25 558.12 294.79C558.15 287.33 551.68 280.85 544.22 280.81C536.75 280.79 530.27 287.24 530.25 294.71C530.22 302.18 536.68 308.67 544.14 308.69Z" fill="#E9D0FD"/>
<path fill-rule="evenodd" clip-rule="evenodd" d="M449.92 307.56C457.39 307.55 463.8 301.18 463.88 293.71C463.95 286.29 457.66 279.79 450.18 279.6C442.77 279.42 436.2 285.67 435.93 293.15C435.64 300.79 442.23 307.58 449.92 307.56Z" fill="#E9D0FD"/>
<path fill-rule="evenodd" clip-rule="evenodd" d="M260.76 118.77C268.16 119.16 274.81 112.98 275.1 105.44C275.38 98.02 269.12 91.42 261.61 91.24C254.19 91.05 247.65 97.4 247.55 104.88C247.48 112.13 253.42 118.39 260.76 118.76V118.77Z" fill="#E9D0FD"/>
<path fill-rule="evenodd" clip-rule="evenodd" d="M379 283.9C386.4 284.02 392.94 277.65 393.08 270.19C393.21 262.8 386.84 256.25 379.39 256.11C371.99 255.98 365.43 262.36 365.31 269.8C365.17 277.2 371.54 283.76 379 283.9Z" fill="#E9D0FD"/>
<path fill-rule="evenodd" clip-rule="evenodd" d="M284.84 189.49C292.3 189.53 298.73 183.12 298.68 175.65C298.63 168.17 292.12 161.81 284.69 161.96C277.41 162.1 271.27 168.25 271.14 175.51C270.99 182.94 277.36 189.44 284.84 189.49Z" fill="#E9D0FD"/>
<path fill-rule="evenodd" clip-rule="evenodd" d="M248.62 57.7399C248.55 65.1699 254.93 71.6799 262.4 71.7499C269.82 71.8499 276.33 65.4699 276.42 57.9899C276.49 50.5699 270.11 44.0599 262.65 43.9799C255.23 43.8799 248.72 50.2599 248.62 57.7299V57.7399Z" fill="#E9D0FD"/>
<path fill-rule="evenodd" clip-rule="evenodd" d="M262.08 24.3499C269.61 24.6199 276.04 18.4599 276.14 10.8799C276.21 3.52987 270.32 -2.62014 262.94 -2.88014C255.41 -3.15014 248.98 3.01988 248.88 10.5999C248.81 17.9499 254.7 24.0999 262.08 24.3599V24.3499Z" fill="#E9D0FD"/>
<path fill-rule="evenodd" clip-rule="evenodd" d="M403 307.09C410.44 306.95 416.33 300.93 416.29 293.49C416.23 286.04 410.24 280.08 402.81 280.05C395.14 280.01 388.99 286.29 389.23 293.95C389.45 301.39 395.56 307.21 403 307.08V307.09Z" fill="#E9D0FD"/>
<path fill-rule="evenodd" clip-rule="evenodd" d="M261.06 165.45C268.66 165.58 274.56 159.86 274.62 152.27C274.68 144.69 268.88 138.84 261.31 138.86C253.97 138.86 248.23 144.42 248.05 151.74C247.82 159.33 253.52 165.32 261.06 165.46V165.45Z" fill="#E9D0FD"/>
<path fill-rule="evenodd" clip-rule="evenodd" d="M473.67 330.44C481.22 330.35 486.94 324.4 486.76 316.8C486.62 309.48 480.91 303.9 473.58 303.85C465.99 303.81 460.16 309.61 460.19 317.21C460.21 324.78 466.07 330.54 473.68 330.45L473.67 330.44Z" fill="#E9D0FD"/>
<path fill-rule="evenodd" clip-rule="evenodd" d="M520.36 331.55C527.95 331.67 533.78 325.99 533.84 318.42C533.88 310.83 528.15 305.08 520.56 305.1C513.23 305.11 507.55 310.64 507.39 317.93C507.19 325.52 512.83 331.45 520.36 331.55Z" fill="#E9D0FD"/>
<path fill-rule="evenodd" clip-rule="evenodd" d="M425.69 330.2C433.01 330.5 439.01 325.11 439.37 317.92C439.75 310.35 434.13 304.24 426.65 304.09C419.35 303.93 413.49 309.44 413.26 316.67C413.04 323.98 418.47 329.91 425.68 330.2H425.69Z" fill="#E9D0FD"/>
<path fill-rule="evenodd" clip-rule="evenodd" d="M332.22 283.03C339.5 282.93 345.15 277.12 345.07 269.83C345 262.56 339.17 256.9 331.88 256.98C324.61 257.05 318.95 262.88 319.03 270.18C319.13 277.45 324.94 283.11 332.23 283.03H332.22Z" fill="#E9D0FD"/>
<path fill-rule="evenodd" clip-rule="evenodd" d="M567.77 331.37C575.07 331.37 580.75 325.71 580.8 318.44C580.85 311.16 575.26 305.39 568 305.26C560.7 305.13 554.87 310.69 554.68 317.92C554.5 325.47 560.26 331.39 567.77 331.37Z" fill="#E9D0FD"/>
<path fill-rule="evenodd" clip-rule="evenodd" d="M308.64 259.49C315.92 259.41 321.55 253.71 321.55 246.42C321.53 239.12 315.89 233.44 308.62 233.38C301.1 233.31 295.28 239.21 295.43 246.74C295.56 253.98 301.36 259.56 308.65 259.49H308.64Z" fill="#E9D0FD"/>
<path fill-rule="evenodd" clip-rule="evenodd" d="M239.27 21.26C231.96 21.1 226.11 26.62 225.89 33.84C225.66 41.39 231.42 47.36 238.92 47.36C246.22 47.37 251.92 41.75 252 34.47C252.08 27.19 246.49 21.4 239.26 21.26H239.27Z" fill="#E9D0FD"/>
<path fill-rule="evenodd" clip-rule="evenodd" d="M285.16 235.89C292.42 235.75 298.06 229.9 297.93 222.61C297.8 215.36 291.94 209.72 284.65 209.85C277.4 209.97 271.76 215.82 271.88 223.13C272 230.38 277.87 236.01 285.16 235.89Z" fill="#E9D0FD"/>
<path fill-rule="evenodd" clip-rule="evenodd" d="M238.89 94.53C246.45 94.56 252.21 88.66 252.04 81.06C251.87 73.78 246.07 68.24 238.71 68.35C231.4 68.46 225.8 74.19 225.85 81.54C225.89 88.86 231.56 94.51 238.89 94.53Z" fill="#E9D0FD"/>
<path fill-rule="evenodd" clip-rule="evenodd" d="M237.67 141.54C244.9 141.58 250.76 135.76 250.72 128.52C250.7 121.29 244.79 115.51 237.56 115.61C230.58 115.72 224.92 121.36 224.81 128.33C224.68 135.56 230.45 141.48 237.67 141.53V141.54Z" fill="#E9D0FD"/>
<path fill-rule="evenodd" clip-rule="evenodd" d="M355.6 306.54C362.83 306.54 368.64 300.67 368.58 293.43C368.5 286.44 362.9 280.77 355.92 280.61C348.7 280.45 342.73 286.18 342.65 293.41C342.57 300.64 348.39 306.51 355.6 306.54Z" fill="#E9D0FD"/>
<path fill-rule="evenodd" clip-rule="evenodd" d="M261.25 212.19C268.39 212.24 274.36 206.23 274.22 199.09C274.12 192.17 268.35 186.45 261.42 186.4C254.28 186.34 248.32 192.36 248.43 199.5C248.55 206.43 254.31 212.13 261.25 212.19Z" fill="#E9D0FD"/>
<path fill-rule="evenodd" clip-rule="evenodd" d="M497.37 353.58C504.28 353.39 510.02 347.42 509.92 340.53C509.81 333.61 503.93 327.82 497.02 327.85C490.09 327.86 484.26 333.68 484.18 340.6C484.1 347.72 490.27 353.79 497.37 353.58Z" fill="#E9D0FD"/>
<path fill-rule="evenodd" clip-rule="evenodd" d="M449.77 353.5C456.59 353.57 462.61 347.67 462.67 340.83C462.76 334.02 456.86 328.01 450.02 327.93C443.2 327.86 437.18 333.76 437.12 340.6C437.04 347.42 442.93 353.42 449.77 353.5Z" fill="#E9D0FD"/>
<path fill-rule="evenodd" clip-rule="evenodd" d="M378.93 329.93C385.75 330.09 391.81 324.25 391.97 317.39C392.12 310.58 386.28 304.52 379.42 304.37C372.6 304.21 366.54 310.05 366.39 316.91C366.25 323.73 372.07 329.79 378.93 329.94V329.93Z" fill="#E9D0FD"/>
<path fill-rule="evenodd" clip-rule="evenodd" d="M238.38 0.0499382C245.49 0.389938 251.69 -5.42006 251.86 -12.5701C252.01 -19.4701 246.45 -25.42 239.52 -25.75C232.4 -26.06 226.22 -20.2801 226.06 -13.1301C225.9 -6.22005 231.46 -0.270041 238.39 0.039959L238.38 0.0499382Z" fill="#E9D0FD"/>
<path fill-rule="evenodd" clip-rule="evenodd" d="M237.65 188.4C244.46 188.46 250.48 182.49 250.44 175.68C250.41 168.86 244.38 162.92 237.58 163.04C230.75 163.16 224.86 169.28 225.08 176.05C225.31 182.68 231.05 188.33 237.65 188.39V188.4Z" fill="#E9D0FD"/>
<path fill-rule="evenodd" clip-rule="evenodd" d="M543.89 354.63C550.64 354.81 556.74 348.99 556.91 342.17C557.1 335.42 551.27 329.34 544.46 329.15C537.71 328.97 531.62 334.8 531.45 341.62C531.26 348.36 537.09 354.46 543.89 354.63Z" fill="#E9D0FD"/>
<path fill-rule="evenodd" clip-rule="evenodd" d="M215.13 70.48C221.99 70.64 228.01 64.71 227.97 57.83C227.95 51.17 222.3 45.43 215.62 45.27C208.77 45.11 202.73 51.04 202.77 57.92C202.79 64.58 208.45 70.32 215.13 70.48Z" fill="#E9D0FD"/>
<path fill-rule="evenodd" clip-rule="evenodd" d="M402.89 353.07C409.71 352.98 415.19 347.39 415.1 340.56C415.02 333.75 409.42 328.29 402.61 328.36C395.79 328.44 390.33 334.03 390.41 340.86C390.49 347.67 396.09 353.15 402.89 353.07Z" fill="#E9D0FD"/>
<path fill-rule="evenodd" clip-rule="evenodd" d="M215.22 -1.61998C208.41 -1.51998 202.93 4.07002 203.02 10.88C203.11 17.7 208.72 23.16 215.52 23.08C222.33 22.98 227.81 17.39 227.72 10.56C227.63 3.75001 222.02 -1.70999 215.22 -1.62999V-1.61998Z" fill="#E9D0FD"/>
<path fill-rule="evenodd" clip-rule="evenodd" d="M214.11 117.46C220.83 117.51 226.49 111.98 226.65 105.25C226.78 98.5499 221.31 92.79 214.58 92.57C207.89 92.35 202.09 97.7599 201.78 104.49C201.46 111.4 207.17 117.41 214.12 117.46H214.11Z" fill="#E9D0FD"/>
<path fill-rule="evenodd" clip-rule="evenodd" d="M308.33 305.67C315.12 305.74 320.35 300.75 320.57 294.02C320.8 287.01 315.61 281.55 308.64 281.47C301.85 281.4 296.59 286.39 296.38 293.12C296.17 300.14 301.35 305.58 308.33 305.67Z" fill="#E9D0FD"/>
<path fill-rule="evenodd" clip-rule="evenodd" d="M213.77 164.18C220.78 164.39 226.16 159.24 226.23 152.28C226.29 145.51 221.34 140.3 214.63 140.11C207.62 139.91 202.23 145.05 202.17 152.01C202.09 158.79 207.05 163.99 213.77 164.18Z" fill="#E9D0FD"/>
<path fill-rule="evenodd" clip-rule="evenodd" d="M238.06 234.75C244.76 234.61 249.78 229.33 249.66 222.58C249.52 215.89 244.24 210.83 237.49 210.97C230.77 211.11 225.75 216.39 225.88 223.15C226.01 229.84 231.29 234.88 238.06 234.75Z" fill="#E9D0FD"/>
<path fill-rule="evenodd" clip-rule="evenodd" d="M284.64 282.09C291.43 282.23 296.74 277.27 297 270.56C297.27 263.54 292.13 258.03 285.18 257.9C278.4 257.78 273.09 262.74 272.82 269.45C272.54 276.47 277.69 281.97 284.64 282.09Z" fill="#E9D0FD"/>
<path fill-rule="evenodd" clip-rule="evenodd" d="M520.36 353.48C513.6 353.59 508.58 358.75 508.64 365.55C508.68 372.31 513.79 377.4 520.56 377.44C527.57 377.46 532.78 372.12 532.6 365.07C532.41 358.34 527.18 353.38 520.36 353.48Z" fill="#E9D0FD"/>
<path fill-rule="evenodd" clip-rule="evenodd" d="M473.27 352.3C466.52 352.4 461.47 357.54 461.49 364.31C461.51 371.09 466.61 376.21 473.37 376.25C480.18 376.3 485.33 371.28 485.44 364.53C485.57 357.48 480.31 352.21 473.27 352.3Z" fill="#E9D0FD"/>
<path fill-rule="evenodd" clip-rule="evenodd" d="M426.36 352.42C419.69 352.42 414.5 357.59 414.47 364.25C414.45 370.92 419.62 376.12 426.28 376.13C432.95 376.14 438.16 370.98 438.17 364.31C438.17 357.63 433.02 352.45 426.36 352.41V352.42Z" fill="#E9D0FD"/>
<path fill-rule="evenodd" clip-rule="evenodd" d="M331.42 329.07C338.2 329.36 343.6 324.56 343.96 317.93C344.34 310.9 339.31 305.37 332.4 305.23C325.62 305.07 320.35 310 320.12 316.68C319.89 323.45 324.76 328.8 331.42 329.08V329.07Z" fill="#E9D0FD"/>
<path fill-rule="evenodd" clip-rule="evenodd" d="M261.3 258.47C268.06 258.47 273.23 253.48 273.36 246.75C273.52 239.73 268.34 234.41 261.35 234.4C254.59 234.39 249.44 239.39 249.29 246.12C249.14 253.12 254.33 258.44 261.3 258.47Z" fill="#E9D0FD"/>
<path fill-rule="evenodd" clip-rule="evenodd" d="M214.06 211.01C220.34 211.1 225.75 205.87 225.91 199.58C226.07 193.31 220.91 187.82 214.63 187.58C208.39 187.34 202.82 192.46 202.48 198.73C202.15 205.2 207.55 210.94 214.06 211.02V211.01Z" fill="#E9D0FD"/>
<path fill-rule="evenodd" clip-rule="evenodd" d="M191.24 46.1201C197.91 46.4001 203.41 41.3301 203.61 34.7101C203.83 28.0401 198.69 22.6201 192.07 22.4901C185.4 22.3501 180.05 27.5401 179.98 34.1801C179.93 40.6201 184.86 45.8501 191.24 46.1301V46.1201Z" fill="#E9D0FD"/>
<path fill-rule="evenodd" clip-rule="evenodd" d="M355.66 328.93C349.27 328.9 344.01 333.98 343.84 340.37C343.65 346.99 348.95 352.46 355.57 352.49C361.97 352.53 367.22 347.45 367.39 341.05C367.59 334.43 362.28 328.95 355.66 328.93Z" fill="#E9D0FD"/>
<path fill-rule="evenodd" clip-rule="evenodd" d="M191.79 93.2499C198.46 93.2499 203.69 87.9499 203.61 81.2899C203.55 74.8799 198.5 69.7799 192.09 69.6199C185.43 69.4699 180.07 74.6499 179.98 81.2899C179.92 87.9499 185.14 93.2499 191.79 93.2499Z" fill="#E9D0FD"/>
<path fill-rule="evenodd" clip-rule="evenodd" d="M567.63 353.65C561.2 353.7 556.09 358.74 555.93 365.14C555.77 371.81 560.93 377.19 567.57 377.28C574.24 377.37 579.54 372.15 579.55 365.49C579.57 358.82 574.29 353.58 567.62 353.65H567.63Z" fill="#E9D0FD"/>
<path fill-rule="evenodd" clip-rule="evenodd" d="M189.87 140.28C196.34 140.73 202.15 135.41 202.33 128.9C202.52 122.62 197.37 117.12 191.09 116.85C184.84 116.6 179.27 121.69 178.91 127.96C178.58 134.2 183.56 139.84 189.87 140.27V140.28Z" fill="#E9D0FD"/>
<path fill-rule="evenodd" clip-rule="evenodd" d="M190.67 164.35C184.35 164.32 179.01 169.85 179.25 176.11C179.5 182.19 184.84 187.25 190.88 187.09C196.96 186.95 202.07 181.69 202 175.62C201.93 169.53 196.76 164.37 190.67 164.35Z" fill="#E9D0FD"/>
<path fill-rule="evenodd" clip-rule="evenodd" d="M378.75 352.7C372.74 352.98 367.61 358.3 367.6 364.27C367.6 370.49 373.12 375.96 379.32 375.87C385.56 375.8 390.94 370.21 390.76 364C390.59 357.76 384.92 352.43 378.75 352.7Z" fill="#E9D0FD"/>
<path fill-rule="evenodd" clip-rule="evenodd" d="M450.12 376.48C444.09 376.36 438.75 381.41 438.54 387.5C438.29 393.78 443.69 399.29 449.98 399.23C456.07 399.19 461.23 394.01 461.26 387.93C461.3 381.86 456.21 376.62 450.12 376.48Z" fill="#E9D0FD"/>
<path fill-rule="evenodd" clip-rule="evenodd" d="M497.14 376.33C490.98 376.26 485.49 381.7 485.51 387.88C485.53 394.07 491.05 399.49 497.22 399.38C503.41 399.26 508.76 393.66 508.57 387.52C508.36 381.53 503.12 376.39 497.14 376.32V376.33Z" fill="#E9D0FD"/>
<path fill-rule="evenodd" clip-rule="evenodd" d="M544.55 377.67C538.51 377.45 533.14 382.4 532.83 388.53C532.48 394.77 537.8 400.36 544.11 400.41C550.18 400.45 555.41 395.34 555.56 389.26C555.68 383.23 550.63 377.89 544.55 377.67Z" fill="#E9D0FD"/>
<path fill-rule="evenodd" clip-rule="evenodd" d="M284.77 305.97C278.55 306.05 273.65 311.08 273.73 317.29C273.8 323.51 278.83 328.4 285.04 328.33C291.26 328.25 296.16 323.22 296.08 317.02C296.01 310.8 290.97 305.9 284.77 305.98V305.97Z" fill="#E9D0FD"/>
<path fill-rule="evenodd" clip-rule="evenodd" d="M168.07 69.0399C174.29 69.1399 179.31 64.2499 179.4 58.0299C179.49 51.8199 174.6 46.7899 168.38 46.6999C162.17 46.6199 157.15 51.4999 157.05 57.7099C156.97 63.9199 161.86 68.9599 168.07 69.0399Z" fill="#E9D0FD"/>
<path fill-rule="evenodd" clip-rule="evenodd" d="M238.2 258.83C232.01 258.59 226.84 263.37 226.59 269.57C226.34 275.75 231.12 280.93 237.32 281.18C243.5 281.44 248.69 276.66 248.93 270.45C249.19 264.25 244.42 259.08 238.2 258.83Z" fill="#E9D0FD"/>
<path fill-rule="evenodd" clip-rule="evenodd" d="M261.19 282.3C255.01 282.39 249.97 287.58 250.07 293.73C250.17 299.89 255.33 304.95 261.5 304.85C267.66 304.76 272.72 299.57 272.62 293.41C272.53 287.25 267.34 282.19 261.19 282.3Z" fill="#E9D0FD"/>
<path fill-rule="evenodd" clip-rule="evenodd" d="M167.16 94.0401C160.79 93.9801 155.98 98.8301 156.08 105.19C156.16 111.54 161.15 116.23 167.52 115.99C173.61 115.76 178.11 110.99 178.01 104.84C177.92 98.7101 173.28 94.1001 167.15 94.0401H167.16Z" fill="#E9D0FD"/>
<path fill-rule="evenodd" clip-rule="evenodd" d="M308.45 329.75C302.33 329.75 297.64 334.32 297.51 340.43C297.36 346.82 302.12 351.7 308.49 351.7C314.62 351.69 319.29 347.1 319.45 340.99C319.59 334.61 314.82 329.73 308.45 329.75Z" fill="#E9D0FD"/>
<path fill-rule="evenodd" clip-rule="evenodd" d="M214.29 235.53C207.96 235.49 203.19 240.28 203.29 246.63C203.4 252.93 208.31 257.58 214.68 257.33C220.74 257.1 225.19 252.37 225.1 246.24C225 240.14 220.4 235.58 214.29 235.52V235.53Z" fill="#E9D0FD"/>
<path fill-rule="evenodd" clip-rule="evenodd" d="M402.87 376.96C396.53 376.9 391.76 381.69 391.86 388.04C391.95 394.35 396.87 399 403.24 398.77C409.29 398.54 413.74 393.8 413.67 387.68C413.57 381.58 408.97 377.02 402.87 376.97V376.96Z" fill="#E9D0FD"/>
<path fill-rule="evenodd" clip-rule="evenodd" d="M168.28 21.63C174.39 21.63 179.03 17.07 179.14 10.99C179.27 4.62998 174.52 -0.190017 168.19 -0.160017C162.08 -0.150017 157.44 4.40998 157.33 10.49C157.21 16.84 161.93 21.67 168.28 21.63Z" fill="#E9D0FD"/>
<path fill-rule="evenodd" clip-rule="evenodd" d="M331.99 353.55C325.92 353.57 321.29 358.25 321.31 364.33C321.34 370.41 326.02 375.03 332.1 375C338.17 374.98 342.8 370.3 342.78 364.22C342.75 358.15 338.08 353.51 332 353.54L331.99 353.55Z" fill="#E9D0FD"/>
<path fill-rule="evenodd" clip-rule="evenodd" d="M167.26 141.42C161.17 141.33 156.42 145.9 156.32 151.95C156.22 158.03 160.8 162.79 166.85 162.88C172.93 162.97 177.69 158.4 177.77 152.36C177.87 146.28 173.29 141.53 167.26 141.43V141.42Z" fill="#E9D0FD"/>
<path fill-rule="evenodd" clip-rule="evenodd" d="M473.95 400.79C467.9 400.53 462.93 405.22 462.83 411.25C462.73 417.06 467.22 421.83 472.99 422.07C479.04 422.32 484.02 417.63 484.11 411.61C484.21 405.81 479.72 401.02 473.95 400.79Z" fill="#E9D0FD"/>
<path fill-rule="evenodd" clip-rule="evenodd" d="M426.6 400.89C420.74 400.71 415.69 405.72 415.79 411.59C415.89 417.23 420.69 421.98 426.33 421.96C431.99 421.95 436.78 417.21 436.85 411.56C436.94 405.92 432.25 401.07 426.6 400.9V400.89Z" fill="#E9D0FD"/>
<path fill-rule="evenodd" clip-rule="evenodd" d="M567.5 402.12C561.87 402.27 557.11 407.24 557.26 412.85C557.41 418.49 562.39 423.24 568 423.1C573.64 422.95 578.39 417.96 578.24 412.35C578.09 406.72 573.12 401.96 567.5 402.12Z" fill="#E9D0FD"/>
<path fill-rule="evenodd" clip-rule="evenodd" d="M520.67 402C514.72 401.97 509.87 406.89 510 412.84C510.13 418.56 514.83 423.18 520.55 423.22C526.5 423.26 531.34 418.33 531.22 412.38C531.1 406.66 526.4 402.03 520.67 402Z" fill="#E9D0FD"/>
<path fill-rule="evenodd" clip-rule="evenodd" d="M355.49 377.32C349.83 377.41 345.09 382.19 345.08 387.84C345.06 393.7 350.17 398.64 356.02 398.39C361.67 398.16 366.31 393.22 366.15 387.59C366 381.94 361.13 377.26 355.49 377.33V377.32Z" fill="#E9D0FD"/>
<path fill-rule="evenodd" clip-rule="evenodd" d="M144.68 70.95C139.05 70.95 134.19 75.78 134.18 81.42C134.16 87.05 139.01 91.9099 144.65 91.9299C150.27 91.9299 155.14 87.0899 155.16 81.4599C155.16 75.8299 150.32 70.97 144.69 70.95H144.68Z" fill="#E9D0FD"/>
<path fill-rule="evenodd" clip-rule="evenodd" d="M191.04 212.22C185.02 212 180.06 216.72 179.98 222.74C179.92 228.56 184.42 233.3 190.2 233.5C196.25 233.72 201.19 229 201.26 222.99C201.33 217.18 196.82 212.43 191.04 212.22Z" fill="#E9D0FD"/>
<path fill-rule="evenodd" clip-rule="evenodd" d="M167.32 188.91C161.73 188.75 156.65 193.71 156.68 199.33C156.7 204.72 161.38 209.5 166.8 209.67C172.39 209.83 177.46 204.89 177.43 199.27C177.4 193.86 172.74 189.08 167.31 188.91H167.32Z" fill="#E9D0FD"/>
<path fill-rule="evenodd" clip-rule="evenodd" d="M144.29 44.7299C149.89 44.9699 154.98 40.1599 155.11 34.5299C155.23 28.9099 150.37 23.9199 144.73 23.8799C139.33 23.8399 134.54 28.3699 134.23 33.7899C133.93 39.3699 138.67 44.5299 144.29 44.7299Z" fill="#E9D0FD"/>
<path fill-rule="evenodd" clip-rule="evenodd" d="M238.02 306.93C232.65 306.77 227.8 311.31 227.54 316.74C227.3 322.09 231.79 327.01 237.21 327.34C242.79 327.69 247.91 322.9 247.98 317.25C248.05 311.85 243.44 307.08 238.02 306.93Z" fill="#E9D0FD"/>
<path fill-rule="evenodd" clip-rule="evenodd" d="M261.71 330.5C256.12 330.26 251.08 335.16 251.12 340.78C251.16 346.19 255.85 350.87 261.25 350.93C266.66 350.97 271.41 346.35 271.54 340.93C271.68 335.55 267.14 330.72 261.71 330.49V330.5Z" fill="#E9D0FD"/>
<path fill-rule="evenodd" clip-rule="evenodd" d="M143.8 118.28C138.26 118.06 133.2 122.98 133.18 128.55C133.15 133.9 137.78 138.7 143.16 138.88C148.71 139.09 153.77 134.19 153.78 128.61C153.79 123.27 149.18 118.47 143.8 118.28Z" fill="#E9D0FD"/>
<path fill-rule="evenodd" clip-rule="evenodd" d="M378.89 401.42C373.55 401.59 369.27 405.93 369.19 411.28C369.11 416.86 373.61 421.43 379.2 421.43C384.78 421.41 389.29 416.85 389.19 411.27C389.1 405.69 384.46 401.26 378.9 401.42H378.89Z" fill="#E9D0FD"/>
<path fill-rule="evenodd" clip-rule="evenodd" d="M284.47 354.29C279.14 354.52 274.92 358.92 274.92 364.27C274.9 369.86 279.47 374.36 285.05 374.29C290.61 374.22 295.07 369.57 294.91 364C294.75 358.45 290.04 354.05 284.48 354.29H284.47Z" fill="#E9D0FD"/>
<path fill-rule="evenodd" clip-rule="evenodd" d="M214.34 283.45C208.85 283.37 204.16 287.93 204.08 293.43C204 298.9 208.56 303.6 214.06 303.68C219.53 303.78 224.23 299.22 224.32 293.72C224.39 288.25 219.84 283.55 214.34 283.45Z" fill="#E9D0FD"/>
<path fill-rule="evenodd" clip-rule="evenodd" d="M191.07 260.23C185.55 260.02 181.15 263.98 180.87 269.43C180.57 275.17 184.77 279.7 190.48 279.78C196 279.85 200.26 275.78 200.4 270.29C200.54 264.79 196.51 260.44 191.07 260.23Z" fill="#E9D0FD"/>
<path fill-rule="evenodd" clip-rule="evenodd" d="M143.32 166.02C137.85 166.1 133.78 170.27 133.78 175.74C133.8 181.44 138.22 185.66 143.94 185.42C149.37 185.21 153.33 180.9 153.18 175.4C153.03 169.95 148.8 165.93 143.32 166.02Z" fill="#E9D0FD"/>
<path fill-rule="evenodd" clip-rule="evenodd" d="M497.12 425.13C491.69 425.09 487.36 429.23 487.16 434.64C486.97 440.3 491.31 444.84 496.97 444.88C502.39 444.92 506.73 440.78 506.91 435.37C507.11 429.71 502.78 425.17 497.12 425.13Z" fill="#E9D0FD"/>
<path fill-rule="evenodd" clip-rule="evenodd" d="M308.59 378.23C303.06 378.16 298.91 382.23 298.84 387.74C298.79 393.26 302.85 397.44 308.36 397.48C313.89 397.54 318.04 393.48 318.11 387.97C318.16 382.44 314.08 378.29 308.58 378.23H308.59Z" fill="#E9D0FD"/>
<path fill-rule="evenodd" clip-rule="evenodd" d="M450.23 425.3C444.73 425.14 440.44 429.1 440.21 434.53C439.97 440.01 443.87 444.38 449.28 444.68C454.79 444.99 459.2 441.17 459.57 435.77C459.97 430.01 455.92 425.46 450.23 425.3Z" fill="#E9D0FD"/>
<path fill-rule="evenodd" clip-rule="evenodd" d="M544.16 426.46C538.67 426.48 534.55 430.58 534.47 436.05C534.41 441.54 538.45 445.75 543.91 445.87C549.66 446 553.96 441.73 553.89 436C553.81 430.54 549.63 426.46 544.16 426.46Z" fill="#E9D0FD"/>
<path fill-rule="evenodd" clip-rule="evenodd" d="M121.46 20.16C126.62 19.96 130.65 15.68 130.52 10.51C130.4 5.32996 126.19 1.25996 121.02 1.28996C115.83 1.32996 111.7 5.47995 111.66 10.6499C111.62 16.0599 116.05 20.3599 121.46 20.1499V20.16Z" fill="#E9D0FD"/>
<path fill-rule="evenodd" clip-rule="evenodd" d="M121.35 48.3599C115.89 48.2199 111.62 52.31 111.58 57.76C111.51 62.99 115.35 67.12 120.53 67.39C126 67.67 130.4 63.69 130.61 58.29C130.83 52.83 126.78 48.4899 121.36 48.3599H121.35Z" fill="#E9D0FD"/>
<path fill-rule="evenodd" clip-rule="evenodd" d="M167.55 236.93C162.09 236.67 157.7 240.66 157.53 246.08C157.36 251.54 161.42 255.85 166.83 255.94C172.31 256.06 176.53 251.94 176.57 246.49C176.59 241.26 172.74 237.16 167.54 236.93H167.55Z" fill="#E9D0FD"/>
<path fill-rule="evenodd" clip-rule="evenodd" d="M120.48 95.55C115.03 95.25 110.59 99.32 110.44 104.74C110.3 109.96 114.18 114.2 119.36 114.49C124.79 114.79 129.25 110.71 129.39 105.29C129.52 100.06 125.64 95.84 120.48 95.55Z" fill="#E9D0FD"/>
<path fill-rule="evenodd" clip-rule="evenodd" d="M332.04 402C326.86 402 322.69 406.11 322.61 411.29C322.53 416.69 326.94 421.03 332.35 420.87C337.52 420.7 341.57 416.46 341.49 411.28C341.41 406.1 337.23 402 332.04 402Z" fill="#E9D0FD"/>
<path fill-rule="evenodd" clip-rule="evenodd" d="M402.84 425.52C397.4 425.48 393.18 429.76 393.29 435.21C393.4 440.42 397.47 444.42 402.68 444.46C408.13 444.51 412.35 440.22 412.23 434.77C412.11 429.57 408.05 425.55 402.84 425.52Z" fill="#E9D0FD"/>
<path fill-rule="evenodd" clip-rule="evenodd" d="M119.51 142.87C114.74 143.1 110.63 147.36 110.61 152.11C110.59 157.11 115.03 161.52 120.02 161.46C125.02 161.38 129.36 156.86 129.2 151.9C129.05 146.9 124.46 142.62 119.5 142.87H119.51Z" fill="#E9D0FD"/>
<path fill-rule="evenodd" clip-rule="evenodd" d="M143.44 213.56C138.69 213.59 134.43 217.67 134.19 222.46C133.94 227.4 138.22 232.01 143.22 232.16C148.2 232.32 152.72 227.98 152.78 222.98C152.84 217.99 148.43 213.55 143.44 213.56Z" fill="#E9D0FD"/>
<path fill-rule="evenodd" clip-rule="evenodd" d="M214.14 331.64C209.38 331.67 205.17 335.87 205.13 340.62C205.07 345.35 209.2 349.63 213.96 349.79C218.91 349.92 223.4 345.46 223.27 340.5C223.15 335.75 218.88 331.6 214.14 331.64Z" fill="#E9D0FD"/>
<path fill-rule="evenodd" clip-rule="evenodd" d="M473.43 449.42C468.68 449.42 464.38 453.69 464.33 458.45C464.25 463.43 468.83 467.93 473.79 467.7C478.59 467.52 482.73 463.13 482.64 458.37C482.52 453.6 478.2 449.38 473.44 449.41L473.43 449.42Z" fill="#E9D0FD"/>
<path fill-rule="evenodd" clip-rule="evenodd" d="M520.49 450.67C515.74 450.75 511.55 454.98 511.54 459.73C511.54 464.7 516.1 469.09 521.02 468.82C525.78 468.56 529.85 464.19 529.68 459.48C529.51 454.72 525.22 450.61 520.49 450.67Z" fill="#E9D0FD"/>
<path fill-rule="evenodd" clip-rule="evenodd" d="M355.78 426.05C350.95 425.96 346.76 430.02 346.67 434.85C346.58 439.67 350.65 443.87 355.48 443.95C360.28 444.05 364.49 439.99 364.58 435.15C364.65 430.33 360.6 426.13 355.78 426.05Z" fill="#E9D0FD"/>
<path fill-rule="evenodd" clip-rule="evenodd" d="M190.78 308.19C185.96 308.1 181.76 312.16 181.66 316.99C181.58 321.82 185.65 326 190.46 326.09C195.29 326.18 199.48 322.12 199.57 317.29C199.66 312.49 195.59 308.28 190.77 308.19H190.78Z" fill="#E9D0FD"/>
<path fill-rule="evenodd" clip-rule="evenodd" d="M237.92 355.33C233.1 355.24 228.9 359.3 228.8 364.13C228.73 368.95 232.79 373.15 237.62 373.24C242.43 373.32 246.64 369.26 246.71 364.43C246.8 359.61 242.73 355.41 237.91 355.33H237.92Z" fill="#E9D0FD"/>
<path fill-rule="evenodd" clip-rule="evenodd" d="M426.19 449.75C421.49 449.82 417.67 453.56 417.51 458.26C417.33 463.19 421.24 467.31 426.17 467.39C431.1 467.49 435.13 463.52 435.15 458.58C435.15 453.65 431.12 449.67 426.19 449.75Z" fill="#E9D0FD"/>
<path fill-rule="evenodd" clip-rule="evenodd" d="M119.93 190.72C114.84 190.72 111.12 194.59 111.33 199.71C111.53 204.55 115.28 208.01 120.17 207.87C125.03 207.73 128.55 204.05 128.48 199.16C128.44 194.29 124.82 190.73 119.93 190.72Z" fill="#E9D0FD"/>
<path fill-rule="evenodd" clip-rule="evenodd" d="M567.99 451.06C563.16 450.94 559.34 454.44 559.07 459.21C558.8 464.27 562.48 468.3 567.5 468.42C572.34 468.54 576.16 465.05 576.43 460.27C576.7 455.22 573.01 451.19 567.99 451.06Z" fill="#E9D0FD"/>
<path fill-rule="evenodd" clip-rule="evenodd" d="M97.54 72.8699C92.44 72.8599 88.73 76.7299 88.95 81.8499C89.14 86.6999 92.89 90.1599 97.79 90.0299C102.64 89.8999 106.14 86.2199 106.1 81.3199C106.02 76.4599 102.41 72.8899 97.53 72.8699H97.54Z" fill="#E9D0FD"/>
<path fill-rule="evenodd" clip-rule="evenodd" d="M97.65 25.7301C92.77 25.6501 89.09 29.1601 88.95 34.0101C88.8 39.1401 92.56 42.9701 97.68 42.8801C102.54 42.8001 106.1 39.1801 106.1 34.2801C106.09 29.4101 102.52 25.7901 97.64 25.7301H97.65Z" fill="#E9D0FD"/>
<path fill-rule="evenodd" clip-rule="evenodd" d="M166.84 285C161.97 285.11 158.44 288.75 158.48 293.64C158.52 298.73 162.45 302.4 167.56 302.15C172.39 301.89 175.82 298.11 175.64 293.21C175.45 288.35 171.75 284.89 166.85 285H166.84Z" fill="#E9D0FD"/>
<path fill-rule="evenodd" clip-rule="evenodd" d="M261.53 379.18C256.71 379.07 252.89 382.59 252.65 387.37C252.4 392.2 255.79 396.1 260.55 396.5C265.61 396.92 269.74 393.35 270 388.35C270.26 383.3 266.56 379.28 261.53 379.18Z" fill="#E9D0FD"/>
<path fill-rule="evenodd" clip-rule="evenodd" d="M143.6 261.71C138.84 261.65 135.09 265.4 135.19 270.18C135.28 274.95 139.18 278.55 143.95 278.31C148.46 278.08 151.89 274.37 151.8 269.84C151.71 265.3 148.16 261.77 143.61 261.71H143.6Z" fill="#E9D0FD"/>
<path fill-rule="evenodd" clip-rule="evenodd" d="M285.38 403C280.47 402.77 276.65 406.24 276.48 411.11C276.32 416.01 279.86 419.76 284.73 419.84C289.4 419.93 293.01 416.65 293.31 412.04C293.62 407.12 290.21 403.24 285.37 403H285.38Z" fill="#E9D0FD"/>
<path fill-rule="evenodd" clip-rule="evenodd" d="M96.64 120.22C91.78 120.06 87.99 123.71 87.99 128.57C87.99 133.43 91.43 136.79 96.04 136.93C100.91 137.09 104.7 133.43 104.7 128.58C104.7 123.73 101.26 120.36 96.64 120.21V120.22Z" fill="#E9D0FD"/>
<path fill-rule="evenodd" clip-rule="evenodd" d="M379.29 450.27C374.52 450.21 370.79 453.98 370.88 458.76C370.99 463.52 374.89 467.12 379.67 466.87C384.18 466.63 387.58 462.92 387.49 458.38C387.39 453.83 383.84 450.31 379.3 450.27H379.29Z" fill="#E9D0FD"/>
<path fill-rule="evenodd" clip-rule="evenodd" d="M308.35 426.79C303.92 426.86 300.21 430.69 300.27 435.11C300.34 439.55 304.18 443.27 308.61 443.19C313.03 443.12 316.76 439.27 316.69 434.87C316.62 430.43 312.77 426.7 308.35 426.79Z" fill="#E9D0FD"/>
<path fill-rule="evenodd" clip-rule="evenodd" d="M96.76 167.57C92.41 167.32 88.35 171.04 88.19 175.45C88.04 179.84 91.81 183.97 96.21 183.84C101 183.7 103.86 180.97 104.44 176.29C104.99 171.96 101.18 167.82 96.76 167.57Z" fill="#E9D0FD"/>
<path fill-rule="evenodd" clip-rule="evenodd" d="M544.33 475.3C540.16 475.22 536.34 478.83 536.17 483.03C535.99 487.41 539.94 491.41 544.33 491.32C548.52 491.24 552.19 487.49 552.19 483.32C552.19 479.15 548.5 475.4 544.33 475.31V475.3Z" fill="#E9D0FD"/>
<path fill-rule="evenodd" clip-rule="evenodd" d="M120.22 238.43C115.85 238.24 111.82 242.18 111.91 246.57C111.98 250.76 115.72 254.44 119.91 254.44C124.1 254.44 127.84 250.78 127.92 246.59C128.02 242.44 124.4 238.6 120.22 238.43Z" fill="#E9D0FD"/>
<path fill-rule="evenodd" clip-rule="evenodd" d="M450.23 474.04C445.88 473.84 441.83 477.72 441.81 482.1C441.79 486.25 445.41 490.04 449.57 490.23C453.92 490.44 457.97 486.55 457.99 482.18C458.01 478.03 454.39 474.23 450.23 474.04Z" fill="#E9D0FD"/>
<path fill-rule="evenodd" clip-rule="evenodd" d="M497.16 474.03C492.39 474.18 489.53 476.9 488.94 481.58C488.39 485.91 492.2 490.04 496.63 490.3C500.99 490.53 505.04 486.81 505.18 482.41C505.34 478.02 501.57 473.89 497.16 474.03Z" fill="#E9D0FD"/>
<path fill-rule="evenodd" clip-rule="evenodd" d="M332.3 450.97C327.74 451 324.95 453.46 324.45 458.03C323.97 462.36 327.44 466.07 331.78 466.2C335.92 466.34 339.37 463.21 339.67 459.1C339.98 454.77 336.65 450.93 332.29 450.97H332.3Z" fill="#E9D0FD"/>
<path fill-rule="evenodd" clip-rule="evenodd" d="M402.69 474.53C398.11 474.74 395.47 477.35 395.15 481.92C394.85 486.25 398.49 489.83 403.04 489.78C407.37 489.37 410.05 486.93 410.36 482.35C410.67 478.02 407.01 474.32 402.68 474.53H402.69Z" fill="#E9D0FD"/>
<path fill-rule="evenodd" clip-rule="evenodd" d="M73.58 50.1099C69.09 50.5699 66.45 53.2699 66.19 57.8099C65.94 62.0499 69.77 65.7099 74.03 65.6699C78.29 65.6299 81.89 61.8799 81.75 57.6499C81.62 53.3999 77.77 49.6899 73.58 50.1099Z" fill="#E9D0FD"/>
<path fill-rule="evenodd" clip-rule="evenodd" d="M72.72 112.54C77.26 112.19 80.09 109.85 80.19 105.22C80.3 100.63 77.72 97.93 73.13 97.56C68.71 97.21 65.13 100.68 65.31 105.09C65.51 109.72 68.15 112.11 72.71 112.53L72.72 112.54Z" fill="#E9D0FD"/>
<path fill-rule="evenodd" clip-rule="evenodd" d="M73.91 18.18C78.31 18.36 81.77 14.75 81.39 10.34C81.01 5.72997 78.24 3.46996 73.71 3.20996C69.14 3.74996 66.44 6.22997 66.53 10.84C66.6 15.45 69.31 18.01 73.91 18.19V18.18Z" fill="#E9D0FD"/>
<path fill-rule="evenodd" clip-rule="evenodd" d="M166.97 333.42C162.34 333.46 159.7 336.17 159.75 340.79C159.78 345.47 162.58 347.79 167.13 348.15C171.71 347.7 174.44 345.31 174.36 340.65C174.31 336.02 171.6 333.37 166.97 333.42Z" fill="#E9D0FD"/>
<path fill-rule="evenodd" clip-rule="evenodd" d="M190.76 356.83C186.35 356.61 182.87 360.19 183.17 364.58C183.49 369.21 186.24 371.51 190.77 371.81C195.34 371.33 198.08 368.9 198.05 364.27C198.05 359.66 195.36 357.08 190.76 356.83Z" fill="#E9D0FD"/>
<path fill-rule="evenodd" clip-rule="evenodd" d="M214.49 380.43C209.92 380.29 207.17 382.81 206.74 387.41C206.35 391.81 209.79 395.44 214.19 395.31C218.82 395.18 221.25 392.55 221.72 388C221.42 383.46 219.14 380.6 214.5 380.43H214.49Z" fill="#E9D0FD"/>
<path fill-rule="evenodd" clip-rule="evenodd" d="M143.1 324.31C147.31 324.65 150.64 321.45 150.69 316.48C150.42 312.95 148.28 310.3 143.88 309.97C139.65 309.65 136.26 312.84 136.31 317.05C136.37 321.42 138.73 323.96 143.1 324.31Z" fill="#E9D0FD"/>
<path fill-rule="evenodd" clip-rule="evenodd" d="M261.37 427.98C256.99 427.97 254.38 430.56 254.32 434.95C254.28 439.39 257.01 441.61 261.27 442.15C265.58 441.66 268.34 439.47 268.34 435.04C268.35 430.65 265.75 428.01 261.37 427.98Z" fill="#E9D0FD"/>
<path fill-rule="evenodd" clip-rule="evenodd" d="M96.23 230.08C100.91 230.17 103.27 227.4 103.69 222.84C103.24 218.26 100.86 215.55 96.17 215.64C91.81 215.73 89.24 218.24 89.14 222.6C89.01 227.25 91.57 230 96.23 230.08Z" fill="#E9D0FD"/>
<path fill-rule="evenodd" clip-rule="evenodd" d="M72.01 159.3C76.21 159.84 79.71 156.8 80 152.05C79.9 148.33 77.92 145.56 73.53 145C69.33 144.48 65.72 147.51 65.6 151.68C65.46 156.04 67.64 158.73 72.01 159.3Z" fill="#E9D0FD"/>
<path fill-rule="evenodd" clip-rule="evenodd" d="M238.06 404.09C233.45 404.37 230.63 406.61 230.54 411.32C230.46 415.67 232.87 418.38 237.23 418.63C241.83 418.92 244.74 416.48 244.98 411.82C245.23 407.16 242.59 404.67 238.06 404.1V404.09Z" fill="#E9D0FD"/>
<path fill-rule="evenodd" clip-rule="evenodd" d="M473.82 498.77C469.45 498.58 466.69 501.13 466.53 505.51C466.37 509.92 469.14 512.2 473.68 512.86C477.62 512.21 480.46 510.06 480.42 505.62C480.39 501.52 477.89 498.93 473.82 498.78V498.77Z" fill="#E9D0FD"/>
<path fill-rule="evenodd" clip-rule="evenodd" d="M427.85 498C426.94 498 426.04 497.96 425.12 497.95C423.27 500.48 420.32 502.83 419.82 505.61C419.13 509.5 422.13 512.29 426.17 512.38C430.24 512.47 433.34 509.79 432.83 505.89C432.45 503.1 429.61 500.62 427.85 498Z" fill="#E9D0FD"/>
<path fill-rule="evenodd" clip-rule="evenodd" d="M519.97 499.76C516.2 500.64 513.36 502.83 513.66 507.31C513.93 511.35 516.49 513.87 520.59 513.83C524.97 513.79 527.61 511.12 527.56 506.75C527.5 502.33 524.63 500.17 519.98 499.75L519.97 499.76Z" fill="#E9D0FD"/>
<path fill-rule="evenodd" clip-rule="evenodd" d="M567.56 500.39C563.67 499.88 560.99 502.97 561.09 507.03C561.18 511.07 563.97 514.1 567.86 513.4C570.65 512.9 572.99 509.94 575.54 508.09C575.51 507.18 575.5 506.27 575.46 505.36C572.86 503.61 570.39 500.75 567.57 500.39H567.56Z" fill="#E9D0FD"/>
<path fill-rule="evenodd" clip-rule="evenodd" d="M355.68 475.18C351.57 475.12 348.94 477.6 348.68 481.65C348.39 486.02 350.9 488.82 355.27 489.07C359.69 489.33 362.02 486.6 362.71 482.35C362.28 478.05 360.11 475.26 355.68 475.18Z" fill="#E9D0FD"/>
<path fill-rule="evenodd" clip-rule="evenodd" d="M278.24 458.43C278.14 462.48 280.82 465.58 284.7 465.07C287.5 464.7 289.98 461.85 292.59 460.1C292.62 459.19 292.63 458.28 292.67 457.38C290.13 455.53 287.78 452.57 284.99 452.06C281.1 451.37 278.31 454.39 278.23 458.43H278.24Z" fill="#E9D0FD"/>
<path fill-rule="evenodd" clip-rule="evenodd" d="M72.59 192.79C68.69 192.28 66 195.37 66.1 199.44C66.21 203.49 68.98 206.49 72.88 205.8C75.65 205.31 78.01 202.36 80.55 200.5C80.53 199.58 80.52 198.68 80.49 197.78C77.88 196.02 75.39 193.17 72.6 192.79H72.59Z" fill="#E9D0FD"/>
<path fill-rule="evenodd" clip-rule="evenodd" d="M119.91 286.71C115.82 286.67 113.19 289.24 113.05 293.29C112.91 297.71 115.66 299.99 121.74 300.85C123.13 298.95 126.13 296.59 126.62 293.8C127.33 289.59 124.27 286.74 119.91 286.71Z" fill="#E9D0FD"/>
<path fill-rule="evenodd" clip-rule="evenodd" d="M50.09 40.36C52.53 40.55 55.24 37.45 57.81 35.8V33.1C55.44 31.34 53.27 28.53 50.67 28.07C46.72 27.35 43.49 30.32 44.2 34.23C44.65 36.68 47.9 40.21 50.09 40.37V40.36Z" fill="#E9D0FD"/>
<path fill-rule="evenodd" clip-rule="evenodd" d="M90.16 269.81C90.57 272.28 93.75 275.86 95.96 276.06C98.39 276.28 101.13 273.24 103.74 271.61C103.74 270.71 103.76 269.81 103.76 268.92C101.43 267.12 99.31 264.28 96.72 263.76C92.79 262.99 89.5 265.9 90.15 269.82L90.16 269.81Z" fill="#E9D0FD"/>
<path fill-rule="evenodd" clip-rule="evenodd" d="M44.04 81.1401C43.12 84.9601 46.21 88.2601 50.12 87.8201C52.89 87.5001 55.36 84.6601 57.96 82.9301C57.98 82.0001 57.99 81.0701 58 80.1401C55.45 78.3501 52.85 75.1301 50.34 75.2201C48.08 75.3001 44.64 78.6601 44.04 81.1401Z" fill="#E9D0FD"/>
<path fill-rule="evenodd" clip-rule="evenodd" d="M308.62 476.14C304.63 476.06 302 478.39 302.64 482.26C303.05 484.72 305.43 486.85 306.95 489.13C307.86 489.13 308.77 489.17 309.69 489.18C311.3 486.98 313.81 484.95 314.33 482.52C315.09 478.73 312.64 476.2 308.62 476.13V476.14Z" fill="#E9D0FD"/>
<path fill-rule="evenodd" clip-rule="evenodd" d="M373.18 505.47C373.06 509.45 375.33 512.14 379.21 511.56C381.68 511.19 383.85 508.83 386.14 507.36C386.18 506.45 386.21 505.53 386.24 504.63C384.07 502.97 382.08 500.41 379.66 499.88C375.9 499.03 373.31 501.45 373.18 505.47Z" fill="#E9D0FD"/>
<path fill-rule="evenodd" clip-rule="evenodd" d="M50.77 135.68C52.31 133.22 55.13 130.7 54.96 128.37C54.81 126.26 51.65 123.24 49.33 122.7C45.6 121.82 42.64 124.66 43.27 128.5C43.69 131.08 46.24 133.32 47.85 135.71C48.82 135.71 49.8 135.68 50.76 135.68H50.77Z" fill="#E9D0FD"/>
<path fill-rule="evenodd" clip-rule="evenodd" d="M189.57 404.65C187.97 406.88 185.14 409.1 185.16 411.32C185.17 413.32 188.5 417.01 190.04 416.84C192.32 416.61 195.65 413.9 196.08 411.75C196.47 409.76 193.65 407.12 192.24 404.77C191.35 404.73 190.47 404.69 189.57 404.65Z" fill="#E9D0FD"/>
<path fill-rule="evenodd" clip-rule="evenodd" d="M72.57 240.97C70.58 241.09 67.1 244.62 67.35 246.17C67.69 248.43 70.61 251.58 72.78 251.88C74.79 252.17 77.26 249.22 79.53 247.69C79.53 246.79 79.51 245.89 79.49 244.99C77.17 243.52 74.78 240.82 72.57 240.98V240.97Z" fill="#E9D0FD"/>
<path fill-rule="evenodd" clip-rule="evenodd" d="M49.25 181.16C51.28 181.42 53.71 178.44 55.97 176.89C55.94 175.99 55.93 175.11 55.89 174.21C53.57 172.75 51.14 170.08 48.93 170.24C46.96 170.39 43.53 173.94 43.77 175.49C44.15 177.74 47.1 180.87 49.26 181.14L49.25 181.16Z" fill="#E9D0FD"/>
<path fill-rule="evenodd" clip-rule="evenodd" d="M165.55 381.17C164.11 383.49 161.44 385.9 161.6 388.12C161.74 390.11 165.29 393.53 166.86 393.3C169.1 392.92 172.23 389.97 172.5 387.81C172.76 385.79 169.79 383.36 168.24 381.1C167.34 381.11 166.44 381.14 165.55 381.17Z" fill="#E9D0FD"/>
<path fill-rule="evenodd" clip-rule="evenodd" d="M491.62 528.89C491.92 531.16 494.75 534.38 496.91 534.72C498.92 535.05 501.47 532.15 503.75 530.67C503.77 529.78 503.78 528.88 503.79 527.99C501.51 526.48 499.17 523.73 496.95 523.82C494.96 523.9 491.4 527.34 491.62 528.89Z" fill="#E9D0FD"/>
<path fill-rule="evenodd" clip-rule="evenodd" d="M137.73 363.95C139.67 365.96 141.39 369.18 143.66 369.66C145.41 370.04 147.89 367 151.65 364.37C147.96 361.66 145.72 358.77 143.7 358.91C141.6 359.06 139.71 362.15 137.73 363.96V363.95Z" fill="#E9D0FD"/>
<path fill-rule="evenodd" clip-rule="evenodd" d="M444.61 529.38C444.9 531.45 448.16 534.57 450.03 534.51C451.92 534.46 455 531.17 455.18 529.1C455.34 527.13 452.44 524.89 449.67 521.14C447.12 525.03 444.34 527.43 444.61 529.38Z" fill="#E9D0FD"/>
<path fill-rule="evenodd" clip-rule="evenodd" d="M538.89 530.55C539.19 532.62 542.44 535.74 544.33 535.7C546.2 535.64 549.27 532.36 549.46 530.27C549.63 528.31 546.72 526.06 543.95 522.32C541.41 526.2 538.62 528.59 538.89 530.55Z" fill="#E9D0FD"/>
<path fill-rule="evenodd" clip-rule="evenodd" d="M208.92 434.81C209.11 436.89 212.22 438.72 214.05 440.65C215.98 438.81 219.18 437.16 219.48 435.09C219.75 433.15 216.97 430.77 214.43 426.86C211.66 430.6 208.75 432.83 208.92 434.81Z" fill="#E9D0FD"/>
<path fill-rule="evenodd" clip-rule="evenodd" d="M232.81 458.56C233.36 460.66 236.34 462.12 238.28 463.85C239.87 461.96 242.65 460.13 242.72 458.18C242.79 456.32 240.03 454.38 237.44 451.1C235.13 454.6 232.41 456.99 232.81 458.56Z" fill="#E9D0FD"/>
<path fill-rule="evenodd" clip-rule="evenodd" d="M326.74 505.41C328.56 507.27 330.14 510.21 332.26 510.67C333.84 511 336.13 508.17 339.54 505.71C336.14 503.25 334.07 500.59 332.22 500.74C330.3 500.91 328.56 503.75 326.74 505.41Z" fill="#E9D0FD"/>
<path fill-rule="evenodd" clip-rule="evenodd" d="M118.72 334.41C117.28 336.56 114.69 338.74 114.77 340.83C114.84 342.68 118.12 346.05 119.55 345.84C121.69 345.52 124.74 342.86 125.05 340.82C125.33 338.93 122.57 336.57 121.15 334.41H118.72Z" fill="#E9D0FD"/>
<path fill-rule="evenodd" clip-rule="evenodd" d="M27.02 62.5901C28.32 62.8301 31.45 59.8401 31.56 58.1501C31.69 56.2101 29.38 54.1 27.02 50.3C24.46 53.97 21.85 56.0801 22.08 57.8401C22.32 59.7001 25.04 62.2201 27.02 62.5901Z" fill="#E9D0FD"/>
<path fill-rule="evenodd" clip-rule="evenodd" d="M91.74 317.25C91.79 318.89 94.59 320.45 96.17 322.05C97.86 320.39 100.53 318.92 100.96 316.96C101.28 315.47 98.78 313.35 96.43 309.87C94.06 313.37 91.68 315.35 91.74 317.26V317.25Z" fill="#E9D0FD"/>
<path fill-rule="evenodd" clip-rule="evenodd" d="M398.03 528.85C398.34 530.87 400.72 533.69 402.58 534.02C404.33 534.32 406.57 531.79 410.34 529.4C406.64 526.89 404.64 524.5 402.7 524.54C400.98 524.56 397.83 527.56 398.03 528.85Z" fill="#E9D0FD"/>
<path fill-rule="evenodd" clip-rule="evenodd" d="M20.71 104.84C22.39 106.54 23.86 109.18 25.82 109.62C27.31 109.96 29.41 107.46 32.91 105.11C29.41 102.73 27.44 100.36 25.54 100.41C23.9 100.45 22.32 103.25 20.71 104.84Z" fill="#E9D0FD"/>
<path fill-rule="evenodd" clip-rule="evenodd" d="M26.84 5.90991C25.22 7.49991 22.54 8.9799 22.32 10.7399C22.1 12.4099 24.47 14.4299 26.77 17.8499C29.11 14.4499 31.52 12.4599 31.33 10.7899C31.11 9.01992 28.45 7.53991 26.85 5.90991H26.84Z" fill="#E9D0FD"/>
<path fill-rule="evenodd" clip-rule="evenodd" d="M256.91 482.01C256.87 483.59 259.53 486.66 260.73 486.52C262.64 486.3 265.37 484.22 265.75 482.49C266.09 480.87 263.83 478.7 261.72 475.06C259.25 478.43 256.96 480.19 256.91 482.01Z" fill="#E9D0FD"/>
<path fill-rule="evenodd" clip-rule="evenodd" d="M68.58 293.72C68.63 295.23 71.29 297.67 72.95 297.8C74.52 297.93 76.31 295.61 79.32 293.36C76.17 291.33 74.25 289.11 72.67 289.35C71.01 289.58 68.53 292.21 68.58 293.72Z" fill="#E9D0FD"/>
<path fill-rule="evenodd" clip-rule="evenodd" d="M25.44 147.51C23.96 149.03 21.31 150.52 21.3 152.06C21.28 153.87 23.52 155.7 25.75 158.92C27.94 155.71 30.3 153.72 29.97 152.32C29.56 150.47 27.06 149.1 25.44 147.51Z" fill="#E9D0FD"/>
<path fill-rule="evenodd" clip-rule="evenodd" d="M44.39 222.68C45.93 224.35 47.3 227.08 49.05 227.36C50.74 227.64 52.81 225.32 56.33 223.14C52.99 220.69 51.09 218.22 49.4 218.37C47.63 218.5 46.05 221.14 44.39 222.68Z" fill="#E9D0FD"/>
<path fill-rule="evenodd" clip-rule="evenodd" d="M351.54 528.91C351.84 530.67 353.88 533.11 355.49 533.35C356.99 533.6 358.89 531.38 362.01 529.32C358.92 527.22 357.19 525.17 355.49 525.19C354.06 525.2 351.36 527.84 351.54 528.91Z" fill="#E9D0FD"/>
<path fill-rule="evenodd" clip-rule="evenodd" d="M469.61 552.71C469.74 554.24 471.99 556.65 473.37 556.69C474.74 556.72 477.13 554.44 477.36 552.92C477.56 551.49 475.52 549.75 473.64 546.87C471.62 549.64 469.48 551.28 469.62 552.72L469.61 552.71Z" fill="#E9D0FD"/>
<path fill-rule="evenodd" clip-rule="evenodd" d="M25.54 195.62C24.34 196.87 22.32 198.05 22.2 199.41C22.07 200.66 23.96 202.13 25.75 204.6C27.42 202.05 29.25 200.5 29.06 199.24C28.86 197.89 26.78 196.8 25.53 195.62H25.54Z" fill="#E9D0FD"/>
<path fill-rule="evenodd" clip-rule="evenodd" d="M163.84 434.64C163.84 435.91 165.59 437.15 166.58 438.42C167.87 437.3 169.81 436.38 170.26 434.99C170.57 434.06 168.8 432.43 167.36 430.24C165.66 432.24 163.86 433.45 163.85 434.65L163.84 434.64Z" fill="#E9D0FD"/>
<path fill-rule="evenodd" clip-rule="evenodd" d="M3.63 78C2.36 79.17 0.459999 80.14 0.0299993 81.56C-0.250001 82.48 1.58 84.06 3.11 86.22C4.74 84.14 6.51 82.88 6.46 81.68C6.42 80.44 4.65 79.23 3.63 78Z" fill="#E9D0FD"/>
<path fill-rule="evenodd" clip-rule="evenodd" d="M285.43 502.12C283.85 502.35 281.89 504.06 281.32 505.59C281.01 506.41 283.19 509.17 284.43 509.3C285.94 509.46 287.66 507.79 290.48 506.28C288.01 504.13 286.57 501.96 285.44 502.11L285.43 502.12Z" fill="#E9D0FD"/>
<path fill-rule="evenodd" clip-rule="evenodd" d="M45.87 269.99C45.82 271.12 47.89 273.43 48.7 273.32C50.18 273.08 52.23 271.57 52.51 270.28C52.77 269.07 51.02 267.43 49.45 264.81C47.65 267.26 45.94 268.58 45.87 269.99Z" fill="#E9D0FD"/>
<path fill-rule="evenodd" clip-rule="evenodd" d="M140.05 411.42C141.32 412.56 142.51 414.35 143.95 414.62C144.9 414.8 146.26 412.77 148.23 411.01C146.02 409.65 144.58 408.04 143.37 408.21C142.15 408.37 141.15 410.28 140.05 411.42Z" fill="#E9D0FD"/>
<path fill-rule="evenodd" clip-rule="evenodd" d="M423 552.75C422.91 553.88 424.93 556.24 425.75 556.14C427.23 555.93 429.33 554.5 429.64 553.21C429.92 552 428.22 550.33 426.7 547.67C424.85 550.08 423.12 551.34 423 552.75Z" fill="#E9D0FD"/>
<path fill-rule="evenodd" clip-rule="evenodd" d="M521.14 550.43C519.56 550.66 517.59 552.37 517.02 553.91C516.72 554.72 518.9 557.48 520.14 557.61C521.65 557.78 523.36 556.1 526.19 554.59C523.72 552.45 522.28 550.28 521.15 550.42L521.14 550.43Z" fill="#E9D0FD"/>
<path fill-rule="evenodd" clip-rule="evenodd" d="M564.44 553.66C564.72 555.12 566.32 557.11 567.62 557.33C568.84 557.53 570.39 555.72 572.94 554.07C570.42 552.36 569.04 550.72 567.63 550.7C566.5 550.69 564.27 552.85 564.43 553.66H564.44Z" fill="#E9D0FD"/>
</svg>
