<svg width="40" height="40" viewBox="0 0 40 40" fill="none" xmlns="http://www.w3.org/2000/svg">
<g clip-path="url(#clip0_701_8705)">
<path fill-rule="evenodd" clip-rule="evenodd" d="M19.9937 0.0131836C14.5637 0.0131836 13.8828 0.0361994 11.7503 0.133501C9.62222 0.230564 8.16882 0.568581 6.89707 1.06287C5.5823 1.57374 4.4673 2.2574 3.35572 3.3689C2.2442 4.48048 1.56055 5.59548 1.04968 6.91025C0.555397 8.182 0.217382 9.63541 0.120317 11.7635C0.0230158 13.896 0 14.5769 0 20.007C0 25.4368 0.0230158 26.1177 0.120317 28.2503C0.217382 30.3783 0.555397 31.8318 1.04968 33.1035C1.56055 34.4183 2.2442 35.5333 3.35572 36.6448C4.4673 37.7563 5.5823 38.44 6.89707 38.951C8.16882 39.4452 9.62222 39.7832 11.7503 39.8803C13.8828 39.9775 14.5637 40.0005 19.9937 40.0005C25.4237 40.0005 26.1045 39.9775 28.237 39.8803C30.3652 39.7832 31.8185 39.4452 33.0903 38.951C34.405 38.44 35.52 37.7563 36.6317 36.6448C37.7432 35.5333 38.4268 34.4183 38.9378 33.1035C39.432 31.8318 39.77 30.3783 39.867 28.2503C39.9643 26.1177 39.9873 25.4368 39.9873 20.007C39.9873 14.5769 39.9643 13.896 39.867 11.7635C39.77 9.63541 39.432 8.182 38.9378 6.91025C38.4268 5.59548 37.7432 4.48048 36.6317 3.3689C35.52 2.2574 34.405 1.57374 33.0903 1.06287C31.8185 0.568581 30.3652 0.230564 28.237 0.133501C26.1045 0.0361994 25.4237 0.0131836 19.9937 0.0131836ZM13.3291 20.007C13.3291 23.6877 16.3129 26.6715 19.9937 26.6715C23.6745 26.6715 26.6583 23.6877 26.6583 20.007C26.6583 16.3261 23.6745 13.3423 19.9937 13.3423C16.3129 13.3423 13.3291 16.3261 13.3291 20.007ZM9.72667 20.007C9.72667 14.3365 14.3233 9.73985 19.9937 9.73985C25.664 9.73985 30.2607 14.3365 30.2607 20.007C30.2607 25.6772 25.664 30.2738 19.9937 30.2738C14.3233 30.2738 9.72667 25.6772 9.72667 20.007ZM30.6663 11.7334C31.9915 11.7334 33.0657 10.6593 33.0657 9.33421C33.0657 8.00913 31.9915 6.93493 30.6663 6.93493C29.3413 6.93493 28.2672 8.00913 28.2672 9.33421C28.2672 10.6593 29.3413 11.7334 30.6663 11.7334Z" fill="white"/>
</g>
<defs>
<clipPath id="clip0_701_8705">
<rect width="40" height="40" fill="white"/>
</clipPath>
</defs>
</svg>
