<svg width="64" height="64" viewBox="0 0 64 64" fill="none" xmlns="http://www.w3.org/2000/svg">
<path d="M22.5906 37.9464C22.2724 37.9072 21.6573 37.8876 20.7483 37.8876H19.9514V24.6771C20.3771 24.7042 20.8453 24.7162 21.3558 24.7162C21.8664 24.7162 22.2285 24.6891 22.4421 24.6364L25.7887 30.2905L29.0066 24.6364C29.2187 24.6891 29.6247 24.7162 30.2216 24.7162C30.8185 24.7162 31.3306 24.7027 31.7548 24.6771V37.8876H30.9579C30.0474 37.8876 29.4338 37.9072 29.1157 37.9464V29.0736L25.8584 34.8663L22.5921 29.539V37.9464H22.5906ZM43.3688 36.7188C42.2735 37.6632 40.9479 38.1346 39.395 38.1346C37.8421 38.1346 36.6059 37.6828 35.6105 36.7776C34.6348 35.8995 34.147 34.8105 34.147 33.5092C34.147 32.3344 34.6576 31.3569 35.6802 30.5782C35.9862 30.3402 36.315 30.1429 36.6665 29.9848C36.2877 29.3507 36.0983 28.7302 36.0983 28.1232C36.0983 27.5162 36.1983 26.9981 36.3968 26.5688C36.5953 26.1396 36.871 25.7706 37.224 25.4603C37.9739 24.8006 38.9375 24.4707 40.1131 24.4707C40.9494 24.4707 41.7175 24.6681 42.4144 25.0642C42.3811 25.626 42.3644 26.0582 42.3644 26.361C42.3644 26.7767 42.3674 27.0372 42.375 27.1427C42.3886 27.2481 42.3917 27.3249 42.3856 27.3701C42.3856 27.4093 42.3826 27.4424 42.375 27.4695C42.3477 27.5087 42.3417 27.5554 42.3553 27.6081L42.3053 27.6774C42.0402 27.2812 41.5251 26.9981 40.7615 26.8264C40.5297 26.7737 40.2298 26.7466 39.8646 26.7466C39.4995 26.7466 39.198 26.855 38.9587 27.0734C38.7269 27.2918 38.6102 27.5659 38.6102 27.8958C38.6102 28.4636 39.0147 29.1865 39.8252 30.0646C40.0783 30.3418 40.3828 30.655 40.7418 31.006L43.0825 33.1357C43.2946 32.5618 43.4007 31.9579 43.4007 31.3238C43.4007 30.9337 43.3007 30.6114 43.1022 30.3538C43.0552 30.2951 43.0189 30.2544 42.9931 30.2348V30.1158L44.4369 30.6897C44.7157 30.8026 44.9414 30.8885 45.1141 30.9472C45.2868 31.006 45.4156 31.0557 45.502 31.0963C45.655 31.1626 45.7307 31.2349 45.7307 31.3147C45.7307 32.5031 45.4611 33.6312 44.9232 34.7021C45.6004 35.2564 46.0353 35.5696 46.2277 35.6434C46.4201 35.7157 46.5655 35.7594 46.6655 35.7715C46.9836 35.8106 47.17 35.7986 47.223 35.7323L47.273 35.791L46.2474 38.0186C46.1352 38.0985 45.9428 38.1376 45.6701 38.1376C45.252 38.1376 44.4854 37.6662 43.3688 36.7218V36.7188ZM37.4724 35.0455C38.0239 35.5214 38.6845 35.7579 39.4541 35.7579C40.2237 35.7579 40.9282 35.547 41.5463 35.1238L40.4706 34.1433C39.3223 33.1071 38.4087 32.2019 37.7315 31.4307C37.0073 31.9518 36.6453 32.5664 36.6453 33.2727C36.6453 33.9791 36.921 34.5695 37.4724 35.0455ZM56.2585 37.9464C55.701 38.0714 55.0571 38.1346 54.3254 38.1346C53.5936 38.1346 52.821 37.9765 52.0044 37.6587C51.1938 37.3424 50.4879 36.8966 49.8834 36.3212C48.582 35.0862 47.9305 33.5062 47.9305 31.5783C47.9305 29.6504 48.5623 27.9665 49.8228 26.608C51.1499 25.1817 52.8437 24.4692 54.9026 24.4692C56.7751 24.4692 58.3295 25.0566 59.5642 26.2314C60.8732 27.4861 61.5262 29.1293 61.5262 31.1626C61.5262 32.7938 61.0611 34.2186 60.1309 35.4401C59.8385 35.8227 59.5127 36.1661 59.1552 36.4703C59.3946 36.5366 59.6839 36.645 60.0218 36.7972C60.7459 37.1345 61.4292 37.3092 62.0731 37.3213H62.2716C62.617 37.3213 62.8457 37.2746 62.9594 37.1827L62.9988 37.2128L62.2413 39.1046C62.1488 39.3877 61.9716 39.5308 61.714 39.5308C61.3353 39.5308 60.9505 39.451 60.5581 39.2929C60.1657 39.1347 59.8142 38.9856 59.5021 38.847C59.1961 38.7085 58.9037 38.5865 58.6249 38.481C58.3462 38.3756 58.0811 38.2867 57.8281 38.2129C57.3963 38.094 56.8721 38.0051 56.254 37.9448L56.2585 37.9464ZM50.6015 31.4699C50.6015 32.0844 50.7075 32.6552 50.9196 33.1824C51.1378 33.7035 51.4378 34.1569 51.8165 34.5394C52.627 35.3512 53.6421 35.7579 54.8647 35.7579C56.0873 35.7579 56.9857 35.3648 57.7235 34.5801C58.4871 33.7743 58.8689 32.7079 58.8689 31.381C58.8689 30.1264 58.5098 29.0796 57.7932 28.2422C57.016 27.3445 55.9873 26.8957 54.7056 26.8957C53.4239 26.8957 52.4483 27.3505 51.6771 28.2617C50.959 29.1203 50.6015 30.1896 50.6015 31.4699Z" fill="white"/>
<path d="M45.9095 21.9252V10.7631H3.18636V53.2368H45.9095V42.0581H48.6365V55.9479H0.459351V8.052H48.6365V21.9252H45.9095Z" fill="white"/>
</svg>
