<svg width="24" height="24" viewBox="0 0 24 24" fill="none" xmlns="http://www.w3.org/2000/svg">
<path d="M7.47158 12.8458C7.65669 12.7731 7.8673 12.8171 8.00793 12.9577L9.27295 14.2227C11.3921 13.1273 13.1273 11.3921 14.2227 9.27296L12.9577 8.00794C12.817 7.86731 12.7731 7.6567 12.8458 7.47159C13.1577 6.67757 13.3658 5.83125 13.4532 4.9491C13.53 4.17498 14.1604 3.5 15 3.5H16C18.4388 3.5 20.6386 5.5385 19.9908 8.08288C18.506 13.9155 13.9155 18.506 8.08288 19.9908C5.5385 20.6386 3.5 18.4388 3.5 16V15C3.5 14.1604 4.17498 13.53 4.9491 13.4532C5.83124 13.3658 6.67756 13.1577 7.47158 12.8458Z" fill="white" stroke="#531384" stroke-linecap="round" stroke-linejoin="round"/>
</svg>
