<svg width="196" height="107" viewBox="0 0 196 107" fill="none" xmlns="http://www.w3.org/2000/svg">
<g filter="url(#filter0_d_327_13304)">
<path d="M49.4173 36.1289C49.7566 29.9372 51.877 24.2969 55.7786 19.2078C59.7651 14.0339 65.5327 9.87786 73.0814 6.73961C80.715 3.60135 90.045 2.03223 101.071 2.03223C110.316 2.03223 118.374 3.17726 125.244 5.46733C132.115 7.75741 137.458 10.9381 141.275 15.0093C145.092 19.0806 147 23.8304 147 29.2587C147 33.4996 145.685 37.4012 143.056 40.9635C140.511 44.5259 136.355 47.3673 130.588 49.4877C127.5 50.5002 127.5 50.5002 127.5 50.5002C127.5 50.5002 127.5 50.5002 129.824 51.1416C136.016 52.5835 140.766 55.0008 144.074 58.3935C147.382 61.7863 149.036 66.2392 149.036 71.7523C149.036 77.6047 147.085 82.821 143.183 87.4012C139.282 91.8965 133.599 95.4589 126.135 98.0882C118.671 100.718 109.595 102.032 98.9084 102.032C88.5606 102.032 79.5276 100.633 71.8092 97.8338C64.0908 95.0348 58.0687 91.0483 53.743 85.8745C49.5021 80.7006 47.2545 74.5937 47 67.5539H79.57C80.0789 70.6921 81.8176 73.1094 84.7863 74.8058C87.8397 76.5021 92.5471 77.3503 98.9084 77.3503C104.167 77.3503 108.281 76.6718 111.249 75.3147C114.218 73.8728 115.702 71.8372 115.702 69.2078C115.702 67.6811 115.236 66.4088 114.303 65.391C113.455 64.3732 111.801 63.6522 109.341 63.2282C106.966 62.7192 103.531 62.4648 99.0356 62.4648H83.2595V41.218H99.0356C104.973 41.218 108.959 40.5818 110.995 39.3096C113.115 38.0373 114.176 36.2986 114.176 34.0933C114.176 31.6336 112.861 29.81 110.232 28.6226C107.687 27.3503 104.04 26.7142 99.2901 26.7142C93.7769 26.7142 89.6209 27.5623 86.8219 29.2587C84.1077 30.8702 82.4962 33.1603 81.9873 36.1289H49.4173Z" fill="#FFF61C"/>
</g>
<mask id="mask0_327_13304" style="mask-type:alpha" maskUnits="userSpaceOnUse" x="47" y="2" width="103" height="100">
<path d="M49.4173 36.0967C49.7566 29.905 51.877 24.2646 55.7786 19.1756C59.7651 14.0017 65.5327 9.84563 73.0814 6.70738C80.715 3.56913 90.045 2 101.071 2C110.316 2 118.374 3.14504 125.244 5.43511C132.115 7.72519 137.458 10.9058 141.275 14.9771C145.092 19.0483 147 23.7981 147 29.2265C147 33.4673 145.685 37.369 143.056 40.9313C140.511 44.4936 136.355 47.335 130.588 49.4555C127.5 50.468 127.5 50.468 127.5 50.468C127.5 50.468 127.5 50.468 129.824 51.1094C136.016 52.5513 140.766 54.9686 144.074 58.3613C147.382 61.754 149.036 66.207 149.036 71.7201C149.036 77.5725 147.085 82.7888 143.183 87.369C139.282 91.8643 133.599 95.4266 126.135 98.056C118.671 100.685 109.595 102 98.9084 102C88.5606 102 79.5276 100.601 71.8092 97.8015C64.0908 95.0025 58.0687 91.0161 53.743 85.8422C49.5021 80.6684 47.2545 74.5615 47 67.5216H79.57C80.0789 70.6599 81.8176 73.0772 84.7863 74.7735C87.8397 76.4699 92.5471 77.3181 98.9084 77.3181C104.167 77.3181 108.281 76.6395 111.249 75.2824C114.218 73.8405 115.702 71.8049 115.702 69.1756C115.702 67.6489 115.236 66.3766 114.303 65.3588C113.455 64.341 111.801 63.62 109.341 63.1959C106.966 62.687 103.531 62.4326 99.0356 62.4326H83.2595V41.1857H99.0356C104.973 41.1857 108.959 40.5496 110.995 39.2774C113.115 38.0051 114.176 36.2663 114.176 34.0611C114.176 31.6014 112.861 29.7778 110.232 28.5903C107.687 27.3181 104.04 26.6819 99.2901 26.6819C93.7769 26.6819 89.6209 27.5301 86.8219 29.2265C84.1077 30.838 82.4962 33.1281 81.9873 36.0967H49.4173Z" fill="black"/>
</mask>
<g mask="url(#mask0_327_13304)">
<path d="M136.173 97.717C136.165 96.2908 134.97 95.118 133.499 95.1149C131.911 95.1099 130.816 96.4241 130.894 97.6782C130.783 99.1188 132.108 100.256 133.455 100.27C134.894 100.287 136.183 99.0513 136.173 97.717Z" fill="#FFA04A"/>
<path d="M128.338 97.7102C128.322 96.2827 127.127 95.1149 125.657 95.1149C124.077 95.1149 122.978 96.4191 123.057 97.6845C122.948 99.1139 124.267 100.258 125.624 100.27C127.063 100.285 128.352 99.04 128.338 97.7102Z" fill="#FFA04A"/>
<path d="M73.7114 97.7487C73.7211 96.3049 72.5047 95.1052 71.0143 95.1146C69.4203 95.124 68.4439 96.4457 68.4105 97.6442C68.3731 99.1261 69.6493 100.338 71.0143 100.249C72.4224 100.349 73.7031 99.0635 73.7114 97.7487Z" fill="#FFA04A"/>
<path d="M97.1064 97.7213C97.0987 96.2957 95.908 95.1211 94.4357 95.1148C92.8449 95.1067 91.7501 96.424 91.826 97.6731C91.7134 99.1219 93.043 100.253 94.3816 100.27C95.8289 100.29 97.1135 99.0462 97.1064 97.7213Z" fill="#FFA04A"/>
<path d="M151.734 97.7361C151.734 96.2898 150.513 95.0989 149.023 95.1151C147.471 95.1314 146.44 96.4206 146.432 97.7135C146.423 99.1041 147.654 100.343 149.05 100.25C150.448 100.344 151.733 99.0578 151.734 97.7361Z" fill="#FFA04A"/>
<path d="M81.5464 97.7391C81.5477 96.2941 80.3274 95.1006 78.839 95.115C77.2714 95.1294 76.2538 96.4286 76.2435 97.709C76.2338 99.1027 77.4605 100.341 78.857 100.25C80.2586 100.346 81.5425 99.0595 81.5464 97.7391Z" fill="#FFA04A"/>
<path d="M104.942 97.7378C104.943 96.2928 103.723 95.1006 102.232 95.115C100.678 95.1294 99.6491 96.4205 99.6407 97.7103C99.6324 99.0996 100.856 100.341 102.255 100.25C103.655 100.346 104.94 99.0595 104.942 97.7378Z" fill="#FFA04A"/>
<path d="M50.3149 97.6946C50.2886 96.2652 49.0863 95.1056 47.6172 95.115C46.0496 95.1231 44.9496 96.4242 45.0339 97.7009C44.9316 99.1058 46.2361 100.264 47.6172 100.27C49.0452 100.279 50.3394 99.0307 50.3149 97.6946Z" fill="#FFA04A"/>
<path d="M112.678 97.7515C112.786 96.3528 111.438 95.0999 110.071 95.1112C108.607 95.1237 107.408 96.284 107.399 97.7127C107.388 99.134 108.533 100.195 110.033 100.26C111.496 100.324 112.773 99.0251 112.678 97.7515Z" fill="#FFA04A"/>
<path d="M138.629 97.7499C138.641 99.1743 139.791 100.206 141.303 100.261C142.686 100.312 144.015 99.0622 143.908 97.7149C144 96.3593 142.681 95.1115 141.319 95.1115C139.835 95.1133 138.614 96.3049 138.629 97.7499Z" fill="#FFA04A"/>
<path d="M65.8846 97.7056C65.9753 96.3594 64.6548 95.1053 63.2859 95.1116C61.8026 95.1197 60.5856 96.315 60.6055 97.76C60.6248 99.1837 61.773 100.25 63.2892 100.25C64.786 100.251 65.8911 99.1681 65.8846 97.7056Z" fill="#FFA04A"/>
<path d="M120.513 97.721C120.609 96.3643 119.29 95.1145 117.93 95.1114C116.448 95.1083 115.223 96.2986 115.232 97.7436C115.243 99.1679 116.39 100.204 117.901 100.261C119.297 100.313 120.617 99.0572 120.513 97.721Z" fill="#FFA04A"/>
<path d="M52.7706 97.7592C52.7899 99.1829 53.9394 100.209 55.4529 100.26C56.8198 100.306 58.1584 99.0697 58.0497 97.7048C58.1404 96.3586 56.8179 95.1045 55.451 95.1107C53.9658 95.1189 52.7507 96.3142 52.7706 97.7592Z" fill="#FFA04A"/>
<path d="M89.2805 97.7229C89.3777 96.3643 88.059 95.1145 86.6986 95.1114C85.2165 95.1083 83.9918 96.2967 84.0014 97.7436C84.0098 99.1661 85.1593 100.204 86.6677 100.261C88.0674 100.313 89.3847 99.0559 89.2805 97.7229Z" fill="#FFA04A"/>
<path d="M128.118 90.2036C128.141 88.8944 127.095 87.7986 125.729 87.7811C124.206 87.7617 123.196 88.9107 123.277 90.096C123.157 91.4402 124.365 92.5392 125.64 92.5198C126.974 92.4991 128.097 91.4721 128.118 90.2036Z" fill="#FFA04A"/>
<path d="M99.8813 90.125C99.7687 91.4179 100.947 92.5281 102.218 92.52C103.578 92.5106 104.717 91.468 104.722 90.175C104.729 88.8514 103.664 87.8069 102.359 87.7813C100.811 87.7506 99.7925 88.9059 99.8813 90.125Z" fill="#FFA04A"/>
<path d="M96.8935 90.1636C96.8735 88.9139 95.892 87.7135 94.4562 87.8005C92.9691 87.8018 92.0917 88.6942 92.0338 90.1361C91.983 91.4084 93.1041 92.5104 94.3951 92.5267C95.7221 92.5423 96.9134 91.3489 96.8935 90.1636Z" fill="#FFA04A"/>
<path d="M50.0959 90.1913C50.1126 88.8983 49.0783 87.7212 47.6921 87.8013C46.1953 87.7963 45.3076 88.6793 45.2433 90.1099C45.1841 91.4248 46.3265 92.5462 47.6323 92.5206C48.9651 92.4949 50.0811 91.4617 50.0959 90.1913Z" fill="#FFA04A"/>
<path d="M73.4989 90.1763C73.4841 88.9078 72.4858 87.7174 71.0732 87.8007C69.5828 87.8007 68.7003 88.6881 68.6392 90.1237C68.5832 91.4098 69.7063 92.5281 71.0417 92.5269C72.3295 92.5237 73.5104 91.3541 73.4989 90.1763Z" fill="#FFA04A"/>
<path d="M131.115 90.0879C130.991 91.4484 132.209 92.5379 133.47 92.5198C134.803 92.5023 135.929 91.4784 135.955 90.2112C135.982 88.8863 134.921 87.8005 133.573 87.7811C132.033 87.7586 131.034 88.9201 131.115 90.0879Z" fill="#FFA04A"/>
<path d="M76.4634 90.1049C76.4402 91.4348 77.5685 92.545 78.8562 92.5206C80.1897 92.4968 81.3096 91.4667 81.3276 90.1963C81.3456 88.8952 80.3048 87.7225 78.9283 87.8013C77.4231 87.6999 76.4846 88.9053 76.4634 90.1049Z" fill="#FFA04A"/>
<path d="M151.515 90.1731C151.519 88.8533 150.457 87.8069 149.148 87.7813C147.606 87.7525 146.583 88.9027 146.674 90.1281C146.561 91.4166 147.735 92.53 149.012 92.52C150.37 92.5106 151.509 91.4642 151.515 90.1731Z" fill="#FFA04A"/>
<path d="M138.844 90.1279C138.84 91.4034 139.93 92.5004 141.236 92.5136C142.568 92.5261 143.683 91.5166 143.714 90.1774C143.746 88.8957 142.514 87.6716 141.3 87.8018C140.086 87.696 138.849 88.6729 138.844 90.1279Z" fill="#FFA04A"/>
<path d="M107.613 90.1518C107.621 91.4273 108.721 92.5118 110.031 92.5137C111.323 92.5149 112.545 91.5361 112.459 90.1537C112.599 88.9215 111.305 87.7537 110.045 87.7762C108.873 87.7969 107.603 88.6655 107.613 90.1518Z" fill="#FFA04A"/>
<path d="M63.3029 87.8019C62.0318 87.6911 60.8077 88.7056 60.8193 90.155C60.8309 91.4323 61.9327 92.5168 63.2418 92.5137C64.5887 92.5105 65.6494 91.4848 65.6906 90.2031C65.733 88.8689 64.4639 87.6767 63.3029 87.8019Z" fill="#FFA04A"/>
<path d="M115.446 90.1115C115.437 91.3888 116.52 92.494 117.824 92.5134C119.186 92.5322 120.281 91.5008 120.318 90.1916C120.356 88.8812 119.104 87.6746 117.92 87.8016C116.677 87.694 115.458 88.6828 115.446 90.1115Z" fill="#FFA04A"/>
<path d="M84.2164 90.1374C84.2177 91.4141 85.3132 92.5055 86.6202 92.5136C87.9299 92.5211 89.145 91.5311 89.0626 90.1662C89.2061 88.9089 87.8984 87.7599 86.6614 87.7762C85.4663 87.7918 84.2145 88.6717 84.2164 90.1374Z" fill="#FFA04A"/>
<path d="M55.4531 87.8017C54.2162 87.694 52.9946 88.6828 52.9843 90.1147C52.9766 91.392 54.0598 92.4953 55.3656 92.5134C56.7158 92.531 57.8196 91.509 57.8556 90.1904C57.8904 88.8862 56.645 87.6746 55.4531 87.8017Z" fill="#FFA04A"/>
<path d="M96.6713 82.5943C96.6726 81.3045 95.7405 80.3976 94.4129 80.3976C93.1322 80.3989 92.1602 81.3395 92.1738 82.5667C92.1853 83.7746 93.1946 84.7646 94.4148 84.7715C95.5463 84.7746 96.7485 83.7814 96.6713 82.5943Z" fill="#FFA04A"/>
<path d="M123.405 82.5545C123.408 83.7604 124.411 84.7555 125.631 84.7699C126.769 84.7843 127.941 83.7848 127.911 82.607C127.88 81.316 126.985 80.4029 125.659 80.3992C124.375 80.3948 123.401 81.3254 123.405 82.5545Z" fill="#FFA04A"/>
<path d="M148.997 84.7693C150.147 84.8012 151.324 83.7905 151.307 82.6371C151.288 81.3392 150.405 80.4167 149.084 80.3986C147.795 80.3811 146.816 81.2929 146.801 82.5232C146.784 83.7298 147.772 84.7355 148.997 84.7693Z" fill="#FFA04A"/>
<path d="M104.516 82.6089C104.484 81.316 103.588 80.4042 102.264 80.3992C100.98 80.3948 100.007 81.3241 100.009 82.5526C100.012 83.7592 101.015 84.7555 102.235 84.7699C103.373 84.7843 104.545 83.7848 104.516 82.6089Z" fill="#FFA04A"/>
<path d="M131.241 82.5558C131.246 83.7636 132.249 84.7574 133.47 84.7699C134.605 84.783 135.777 83.7849 135.748 82.6058C135.715 81.3141 134.818 80.4029 133.494 80.3992C132.209 80.3948 131.236 81.3273 131.241 82.5558Z" fill="#FFA04A"/>
<path d="M81.1208 82.6089C81.0893 81.3172 80.1932 80.4042 78.8694 80.3992C77.5849 80.3929 76.6084 81.3241 76.6136 82.5513C76.6168 83.7623 77.6164 84.7555 78.8379 84.7699C79.9745 84.7843 81.1485 83.7861 81.1208 82.6089Z" fill="#FFA04A"/>
<path d="M70.995 80.3988C69.7381 80.4088 68.7848 81.3268 68.7764 82.5365C68.7687 83.7619 69.8024 84.7795 71.0406 84.7695C72.1605 84.7632 73.328 83.7744 73.2836 82.5716C73.236 81.2849 72.3252 80.3881 70.995 80.3988Z" fill="#FFA04A"/>
<path d="M49.8805 82.5861C49.8785 81.2982 48.942 80.3945 47.6143 80.3989C46.3336 80.4027 45.3649 81.3476 45.3816 82.5749C45.3996 83.7846 46.4127 84.7696 47.631 84.7715C48.7593 84.7715 49.9596 83.7783 49.8805 82.5861Z" fill="#FFA04A"/>
<path d="M141.286 80.398C140.028 80.3917 139.085 81.2935 139.058 82.5014C139.025 83.9132 140.059 84.7268 141.253 84.7668C142.464 84.8088 143.531 83.7799 143.555 82.6153C143.578 81.5307 142.567 80.3148 141.286 80.398Z" fill="#FFA04A"/>
<path d="M115.666 82.5253C115.629 83.9428 116.71 84.7438 117.882 84.7682C119.097 84.7901 120.151 83.7538 120.159 82.5891C120.168 81.5158 119.166 80.3606 117.866 80.38C116.826 80.3944 115.592 81.2724 115.666 82.5253Z" fill="#FFA04A"/>
<path d="M88.9283 82.5521C88.9135 81.4982 87.9325 80.343 86.5952 80.3799C85.6284 80.4068 84.3477 81.2366 84.4346 82.5634C84.4153 83.9333 85.4573 84.7343 86.6345 84.7663C87.8682 84.8013 88.945 83.7312 88.9283 82.5521Z" fill="#FFA04A"/>
<path d="M112.325 82.5861C112.328 81.5141 111.335 80.3588 110.025 80.3801C108.996 80.3957 107.756 81.2656 107.83 82.5298C107.796 83.951 108.885 84.7489 110.053 84.7683C111.266 84.7871 112.32 83.7457 112.325 82.5861Z" fill="#FFA04A"/>
<path d="M53.2021 82.5579C53.1809 83.926 54.2152 84.7301 55.3975 84.7671C56.6306 84.8052 57.7093 83.7389 57.6978 82.5592C57.6849 81.5022 56.7001 80.3469 55.3712 80.3807C54.3928 80.4064 53.1185 81.2425 53.2021 82.5579Z" fill="#FFA04A"/>
<path d="M61.0391 82.5475C61.014 83.913 62.0336 84.7234 63.2242 84.7666C64.4541 84.8129 65.5393 83.7478 65.5328 82.5687C65.5264 81.5049 64.5364 80.3496 63.2159 80.3803C62.2195 80.4028 60.9581 81.2514 61.0391 82.5475Z" fill="#FFA04A"/>
<path d="M104.301 74.9249C104.344 73.9092 103.324 72.8998 102.322 72.9893C101.09 72.9818 100.217 73.8097 100.224 74.9813C100.229 76.0733 101.138 76.9482 102.262 76.9438C103.427 76.9369 104.252 76.0771 104.301 74.9249Z" fill="#FFA04A"/>
<path d="M127.696 74.8786C127.723 73.9412 126.754 72.8873 125.671 72.9893C124.472 72.9962 123.616 73.8241 123.621 74.9731C123.623 76.069 124.528 76.9451 125.651 76.9438C126.837 76.942 127.665 76.0627 127.696 74.8786Z" fill="#FFA04A"/>
<path d="M131.454 74.9442C131.441 76.0382 132.334 76.9293 133.456 76.9437C134.642 76.9562 135.489 76.0832 135.531 74.9073C135.567 73.9216 134.568 72.8934 133.534 72.9892C132.326 72.9879 131.468 73.794 131.454 74.9442Z" fill="#FFA04A"/>
<path d="M151.092 74.9011C151.125 73.9254 150.134 72.8916 149.088 72.9892C147.883 72.9892 147.027 73.8003 147.015 74.9505C147.005 76.0445 147.901 76.9325 149.024 76.9438C150.21 76.9544 151.053 76.0782 151.092 74.9011Z" fill="#FFA04A"/>
<path d="M49.674 74.8755C49.6972 73.943 48.7323 72.8854 47.6433 72.9893C46.4449 72.9974 45.592 73.826 45.5965 74.9763C45.5997 76.0689 46.5073 76.947 47.6317 76.9438C48.8178 76.9401 49.6444 76.0589 49.674 74.8755Z" fill="#FFA04A"/>
<path d="M68.9914 74.9731C68.9947 76.0658 69.9003 76.9451 71.0234 76.9438C72.1877 76.942 73.0194 76.0802 73.069 74.9312C73.1133 73.9155 72.1054 72.8854 71.0415 72.9893C69.8431 72.9962 68.9902 73.8229 68.9914 74.9731Z" fill="#FFA04A"/>
<path d="M96.4646 74.9199C96.5058 73.9123 95.492 72.8985 94.4802 72.9893C93.269 72.983 92.4109 73.7809 92.389 74.9312C92.3678 76.0464 93.2864 76.9513 94.4333 76.9438C95.5969 76.9357 96.417 76.0733 96.4646 74.9199Z" fill="#FFA04A"/>
<path d="M80.9047 74.9151C80.9445 73.9151 79.9347 72.8963 78.917 72.9889C77.7052 72.9845 76.8471 73.7837 76.8278 74.9358C76.8091 76.0297 77.6968 76.924 78.8218 76.9415C80.0073 76.9622 80.8584 76.0892 80.9047 74.9151Z" fill="#FFA04A"/>
<path d="M61.2569 74.9627C61.2556 76.0923 62.1201 76.9466 63.2548 76.9384C64.3695 76.9303 65.326 75.9866 65.3177 74.9039C65.308 73.8156 64.4107 73.0246 63.2432 72.9764C62.2372 72.9363 61.1482 73.8944 61.2569 74.9627Z" fill="#FFA04A"/>
<path d="M108.049 74.9452C108.043 76.0798 108.891 76.9353 110.026 76.9385C111.139 76.9416 112.105 76.0079 112.109 74.9227C112.113 73.835 111.216 73.0309 110.054 72.9783C109.011 72.9282 107.945 73.912 108.049 74.9452Z" fill="#FFA04A"/>
<path d="M53.4212 74.9757C53.4244 76.1003 54.2986 76.9539 55.432 76.9383C56.548 76.922 57.498 75.972 57.482 74.8906C57.4652 73.7998 56.566 73.0194 55.394 72.9762C54.4092 72.9412 53.3092 73.8849 53.4212 74.9757Z" fill="#FFA04A"/>
<path d="M139.266 74.9006C139.303 76.0477 140.074 76.9063 141.211 76.9382C142.319 76.9689 143.307 76.0539 143.339 74.9675C143.37 73.8849 142.479 73.0068 141.33 72.9887C140.207 72.8735 139.237 73.9456 139.266 74.9006Z" fill="#FFA04A"/>
<path d="M84.6405 74.907C84.6784 76.0522 85.4523 76.9096 86.5902 76.9384C87.7004 76.9653 88.6865 76.0478 88.7129 74.9614C88.7412 73.8781 87.8483 73.0051 86.6976 72.9889C85.5841 72.8768 84.6096 73.9426 84.6405 74.907Z" fill="#FFA04A"/>
<path d="M117.805 76.9363C118.912 76.9751 119.907 76.0664 119.944 74.9787C119.982 73.8973 119.095 73.0112 117.949 72.9886C116.804 72.8704 115.847 73.9537 115.872 74.8874C115.905 76.0395 116.666 76.8981 117.805 76.9363Z" fill="#FFA04A"/>
<path d="M80.7345 67.3869C80.7248 66.4031 79.8802 65.5927 78.8639 65.5895C77.8116 65.5864 77.041 66.3518 77.0448 67.3969C77.0461 68.3531 77.8907 69.188 78.8575 69.188C79.8539 69.188 80.7448 68.3325 80.7345 67.3869Z" fill="#FFA04A"/>
<path d="M49.5052 67.39C49.4969 66.4081 48.6542 65.5945 47.6379 65.5895C46.5856 65.5845 45.8117 66.3487 45.815 67.3931C45.8169 68.3531 46.6563 69.1861 47.6231 69.188C48.6195 69.1892 49.5136 68.3369 49.5052 67.39Z" fill="#FFA04A"/>
<path d="M131.672 67.4148C131.682 68.3679 132.54 69.1996 133.502 69.1884C134.503 69.1752 135.385 68.3135 135.362 67.3697C135.34 66.3828 134.491 65.5849 133.474 65.5899C132.423 65.5962 131.662 66.3666 131.672 67.4148Z" fill="#FFA04A"/>
<path d="M100.441 67.3837C100.438 68.3418 101.273 69.1798 102.239 69.1879C103.235 69.1954 104.133 68.3468 104.132 67.4C104.13 66.4193 103.289 65.5989 102.272 65.5895C101.22 65.5814 100.444 66.3405 100.441 67.3837Z" fill="#FFA04A"/>
<path d="M96.2947 67.3869C96.2844 66.4031 95.4398 65.5927 94.4235 65.5895C93.3718 65.5864 92.6024 66.3518 92.6037 67.3969C92.6057 68.3531 93.4509 69.188 94.417 69.188C95.4134 69.188 96.3056 68.3325 96.2947 67.3869Z" fill="#FFA04A"/>
<path d="M72.901 67.3981C72.8991 66.4174 72.0558 65.5989 71.0401 65.5895C69.9877 65.5814 69.212 66.3423 69.2088 67.3856C69.2068 68.3431 70.0405 69.1779 71.0105 69.1879C72.003 69.1954 72.9023 68.345 72.901 67.3981Z" fill="#FFA04A"/>
<path d="M123.836 67.413C123.846 68.3661 124.704 69.1978 125.665 69.1884C126.665 69.1771 127.549 68.3148 127.528 67.3717C127.504 66.3847 126.657 65.5849 125.639 65.5899C124.59 65.595 123.826 66.3666 123.836 67.413Z" fill="#FFA04A"/>
<path d="M150.922 67.39C150.918 66.41 150.073 65.5945 149.055 65.5895C148.003 65.5845 147.232 66.3474 147.232 67.3931C147.234 68.35 148.075 69.1861 149.04 69.188C150.037 69.1892 150.927 68.3388 150.922 67.39Z" fill="#FFA04A"/>
<path d="M63.2494 65.5874C62.2697 65.583 61.4065 66.4047 61.4033 67.3435C61.4001 68.3416 62.2318 69.1733 63.2346 69.1777C64.2406 69.1809 65.0923 68.361 65.1019 67.3785C65.1103 66.3791 64.2966 65.5905 63.2494 65.5874Z" fill="#FFA04A"/>
<path d="M84.8005 67.3597C84.807 68.3591 85.6451 69.184 86.646 69.1777C87.6559 69.1696 88.4973 68.3466 88.4986 67.3628C88.4986 66.3647 87.6784 65.5843 86.6299 65.5874C85.6535 65.5893 84.7935 66.4203 84.8005 67.3597Z" fill="#FFA04A"/>
<path d="M139.427 67.3578C139.432 68.3591 140.27 69.184 141.272 69.1777C142.281 69.1696 143.123 68.3466 143.125 67.3628C143.125 66.3659 142.303 65.5843 141.257 65.5874C140.279 65.5893 139.421 66.4203 139.427 67.3578Z" fill="#FFA04A"/>
<path d="M53.5696 67.3362C53.5599 68.3313 54.3865 69.1674 55.3912 69.1786C56.3953 69.1886 57.2515 68.3713 57.2663 67.3875C57.2817 66.3894 56.4693 65.5964 55.424 65.5883C54.4444 65.5802 53.5799 66.3944 53.5696 67.3362Z" fill="#FFA04A"/>
<path d="M110.028 69.1763C111.035 69.1806 111.886 68.3589 111.893 67.377C111.902 66.3788 111.085 65.5891 110.041 65.5872C109.06 65.5859 108.199 66.4045 108.197 67.3451C108.193 68.3427 109.025 69.1744 110.028 69.1763Z" fill="#FFA04A"/>
<path d="M116.032 67.3416C116.026 68.3385 116.856 69.1715 117.862 69.1777C118.866 69.1827 119.719 68.3623 119.73 67.3804C119.74 66.3803 118.928 65.5943 117.881 65.5874C116.903 65.5811 116.038 66.4016 116.032 67.3416Z" fill="#FFA04A"/>
<path d="M94.4277 58.183C93.5021 58.1736 92.8254 58.8257 92.8222 59.7193C92.8183 60.6643 93.4725 61.3502 94.3898 61.3665C95.2755 61.3809 96.0937 60.6487 96.0873 59.8076C96.0809 58.9953 95.5605 58.1942 94.4277 58.183Z" fill="#FFA04A"/>
<path d="M49.298 59.7934C49.2794 58.936 48.7184 58.1863 47.623 58.1831C46.6974 58.18 46.031 58.8334 46.0323 59.7339C46.0342 60.6758 46.6961 61.3598 47.6146 61.3667C48.501 61.3729 49.3141 60.6326 49.298 59.7934Z" fill="#FFA04A"/>
<path d="M149.002 61.3651C149.909 61.3908 150.728 60.6298 150.723 59.7693C150.716 58.8624 150.023 58.1947 149.073 58.1834C148.144 58.1703 147.461 58.8111 147.451 59.7035C147.442 60.6523 148.085 61.3413 149.002 61.3651Z" fill="#FFA04A"/>
<path d="M135.158 59.7681C135.152 58.8613 134.459 58.1948 133.509 58.1836C132.58 58.1704 131.897 58.8113 131.888 59.7056C131.88 60.6537 132.524 61.3427 133.441 61.3652C134.351 61.3878 135.167 60.6299 135.158 59.7681Z" fill="#FFA04A"/>
<path d="M103.924 59.7996C103.912 58.9616 103.369 58.1893 102.257 58.1831C101.332 58.1768 100.659 58.8302 100.659 59.7276C100.657 60.6713 101.316 61.3553 102.235 61.3666C103.122 61.376 103.936 60.6388 103.924 59.7996Z" fill="#FFA04A"/>
<path d="M127.325 59.7834C127.328 58.8578 126.61 58.1769 125.635 58.1813C124.712 58.1882 124.049 58.8403 124.054 59.7421C124.06 60.6827 124.726 61.3648 125.645 61.3667C126.531 61.3679 127.321 60.6245 127.325 59.7834Z" fill="#FFA04A"/>
<path d="M72.6987 59.7632C72.6871 58.8552 71.9917 58.1918 71.0417 58.1818C70.1148 58.1743 69.4349 58.8182 69.4284 59.7119C69.4201 60.6575 70.0685 61.3459 70.9857 61.3653C71.8933 61.386 72.7083 60.6218 72.6987 59.7632Z" fill="#FFA04A"/>
<path d="M80.5279 59.7884C80.5067 58.9216 79.9348 58.1882 78.8497 58.1813C77.9228 58.185 77.2589 58.8365 77.2622 59.7371C77.266 60.6789 77.9311 61.3617 78.8497 61.3667C79.7361 61.3711 80.5478 60.6282 80.5279 59.7884Z" fill="#FFA04A"/>
<path d="M61.6048 59.7757C61.6093 60.5955 62.3915 61.3553 63.2361 61.3584C64.1701 61.3615 64.8718 60.6806 64.8815 59.7594C64.8931 58.8576 64.1829 58.1767 63.2361 58.1799C62.2892 58.1811 61.5977 58.8576 61.6048 59.7757Z" fill="#FFA04A"/>
<path d="M139.627 59.7769C139.633 60.5986 140.417 61.3565 141.262 61.3584C142.196 61.3615 142.896 60.6788 142.905 59.7575C142.915 58.8557 142.206 58.1767 141.257 58.1799C140.312 58.183 139.62 58.8608 139.627 59.7769Z" fill="#FFA04A"/>
<path d="M84.9997 59.7706C85.0029 60.5911 85.7819 61.3521 86.6271 61.3583C87.5605 61.3665 88.2655 60.6856 88.2783 59.7644C88.2918 58.8607 87.5856 58.1798 86.6368 58.1798C85.6918 58.1798 84.9984 58.8544 84.9997 59.7706Z" fill="#FFA04A"/>
<path d="M108.396 59.7656C108.396 60.5879 109.173 61.3502 110.017 61.3583C110.951 61.3677 111.658 60.6899 111.674 59.7687C111.689 58.8657 110.984 58.181 110.037 58.1798C109.091 58.1766 108.396 58.8494 108.396 59.7656Z" fill="#FFA04A"/>
<path d="M53.769 59.7944C53.7857 60.6148 54.5795 61.3677 55.4209 61.3583C56.3561 61.3489 57.0457 60.6612 57.0476 59.7399C57.0495 58.84 56.331 58.1685 55.381 58.1798C54.4393 58.1892 53.7523 58.8782 53.769 59.7944Z" fill="#FFA04A"/>
<path d="M116.232 59.7801C116.24 60.6005 117.025 61.3584 117.868 61.3584C118.802 61.3584 119.5 60.6756 119.509 59.7544C119.516 58.8526 118.806 58.1736 117.857 58.1799C116.911 58.1849 116.222 58.8639 116.232 59.7801Z" fill="#FFA04A"/>
<path d="M150.513 52.1558C150.512 51.3761 149.876 50.7715 149.064 50.7797C148.254 50.7897 147.654 51.3836 147.644 52.1896C147.635 53.0001 148.231 53.6009 149.044 53.5996C149.843 53.5996 150.515 52.9412 150.513 52.1558Z" fill="#FFA04A"/>
<path d="M72.4895 52.14C72.4779 51.3578 71.834 50.762 71.0223 50.7795C70.1925 50.8002 69.5994 51.4266 69.6226 52.2602C69.6457 53.0418 70.2465 53.6107 71.039 53.5994C71.8405 53.5882 72.5011 52.9229 72.4895 52.14Z" fill="#FFA04A"/>
<path d="M132.086 52.1946C132.078 53.0051 132.677 53.6027 133.49 53.5996C134.291 53.5965 134.958 52.9344 134.955 52.1515C134.95 51.3917 134.342 50.7941 133.555 50.7797C132.721 50.7653 132.095 51.3679 132.086 52.1946Z" fill="#FFA04A"/>
<path d="M124.249 52.2219C124.255 53.0292 124.87 53.6194 125.683 53.5981C126.462 53.5793 127.108 52.9397 127.118 52.1775C127.128 51.3971 126.5 50.7819 125.69 50.78C124.856 50.78 124.245 51.3921 124.249 52.2219Z" fill="#FFA04A"/>
<path d="M100.854 52.2347C100.864 53.0195 101.452 53.5946 102.244 53.5996C103.044 53.604 103.718 52.9487 103.721 52.1658C103.724 51.3836 103.091 50.7753 102.282 50.7797C101.447 50.7859 100.843 51.4011 100.854 52.2347Z" fill="#FFA04A"/>
<path d="M80.327 52.1609C80.327 51.3792 79.6908 50.7715 78.881 50.7797C78.0673 50.7878 77.4716 51.3792 77.4581 52.1865C77.4466 52.9969 78.0396 53.5977 78.8546 53.5996C79.6535 53.6009 80.3251 52.9444 80.327 52.1609Z" fill="#FFA04A"/>
<path d="M46.2271 52.1915C46.2168 53.002 46.8131 53.6009 47.6268 53.5996C48.427 53.5977 49.0972 52.9394 49.094 52.1558C49.0921 51.3761 48.4533 50.7703 47.6448 50.7797C46.833 50.7909 46.2367 51.3855 46.2271 52.1915Z" fill="#FFA04A"/>
<path d="M95.8869 52.1514C95.8818 51.3905 95.2726 50.794 94.4872 50.7797C93.6523 50.7653 93.0264 51.3692 93.0181 52.1959C93.0116 53.0051 93.6111 53.604 94.4242 53.5996C95.225 53.5965 95.8914 52.9343 95.8869 52.1514Z" fill="#FFA04A"/>
<path d="M88.1146 52.1514C88.0896 51.4029 87.4148 50.7783 86.6307 50.7814C85.8305 50.7827 85.2098 51.4029 85.2194 52.1876C85.2278 52.9486 85.8813 53.5914 86.6538 53.5976C87.4309 53.6039 88.1391 52.9023 88.1146 52.1514Z" fill="#FFA04A"/>
<path d="M53.9884 52.1895C53.9981 52.9505 54.6535 53.5914 55.4254 53.5976C56.1812 53.6026 56.8746 52.9393 56.8862 52.2021C56.8959 51.4398 56.2044 50.7764 55.399 50.7815C54.5988 50.7846 53.9781 51.4048 53.9884 52.1895Z" fill="#FFA04A"/>
<path d="M108.615 52.1673C108.614 52.9302 109.254 53.5773 110.031 53.5967C110.782 53.6173 111.486 52.9652 111.513 52.2249C111.538 51.4658 110.855 50.7899 110.05 50.7818C109.25 50.7718 108.617 51.3825 108.615 52.1673Z" fill="#FFA04A"/>
<path d="M63.2589 53.5976C64.0359 53.6039 64.7441 52.9042 64.719 52.1514C64.6965 51.4029 64.0211 50.7783 63.237 50.7814C62.4368 50.7827 61.8148 51.401 61.8245 52.1876C61.8328 52.9474 62.4863 53.5895 63.2589 53.5976Z" fill="#FFA04A"/>
<path d="M139.849 52.1842C139.856 52.9452 140.506 53.5891 141.278 53.5985C142.055 53.6085 142.765 52.9095 142.743 52.1566C142.723 51.4088 142.049 50.7823 141.267 50.7823C140.465 50.7805 139.84 51.3988 139.849 52.1842Z" fill="#FFA04A"/>
<path d="M117.86 53.5966C118.614 53.6191 119.317 52.9702 119.347 52.2279C119.375 51.4688 118.693 50.7911 117.888 50.7817C117.086 50.7704 116.454 51.3793 116.45 52.1641C116.449 52.9282 117.085 53.5741 117.86 53.5966Z" fill="#FFA04A"/>
<path d="M126.899 44.5189C126.887 43.8492 126.356 43.3636 125.639 43.3686C124.929 43.3717 124.391 43.9112 124.404 44.6071C124.418 45.2235 125.037 45.7955 125.675 45.783C126.377 45.7686 126.911 45.2173 126.899 44.5189Z" fill="#FFA04A"/>
<path d="M132.241 44.6002C132.251 45.2173 132.869 45.7955 133.505 45.783C134.207 45.7699 134.744 45.2204 134.734 44.5232C134.726 43.8536 134.196 43.3655 133.481 43.3667C132.77 43.3686 132.23 43.9068 132.241 44.6002Z" fill="#FFA04A"/>
<path d="M101.007 44.5919C101.011 45.2078 101.626 45.7904 102.263 45.7841C102.965 45.776 103.507 45.2297 103.501 44.5331C103.496 43.8616 102.971 43.3697 102.257 43.3685C101.544 43.3653 101.002 43.8954 101.007 44.5919Z" fill="#FFA04A"/>
<path d="M80.1062 44.5426C80.1075 43.8698 79.5859 43.3748 78.8725 43.3685C78.1566 43.3616 77.613 43.8861 77.613 44.5826C77.6111 45.1965 78.2202 45.7842 78.8596 45.7842C79.5576 45.7842 80.1062 45.2378 80.1062 44.5426Z" fill="#FFA04A"/>
<path d="M46.3809 44.5816C46.3809 45.1968 46.9868 45.7832 47.6256 45.7832C48.3254 45.7845 48.8741 45.24 48.8754 44.5447C48.8773 43.8713 48.3569 43.3751 47.6423 43.3688C46.9257 43.3607 46.3841 43.8826 46.3809 44.5816Z" fill="#FFA04A"/>
<path d="M93.1731 44.5938C93.1783 45.209 93.7919 45.7904 94.4313 45.7841C95.1312 45.776 95.6728 45.2284 95.6657 44.53C95.6612 43.8604 95.1344 43.3685 94.421 43.3666C93.7083 43.3666 93.1667 43.8985 93.1731 44.5938Z" fill="#FFA04A"/>
<path d="M147.8 44.5919C147.805 45.2078 148.418 45.7904 149.057 45.7841C149.757 45.776 150.299 45.2297 150.293 44.5331C150.29 43.8616 149.763 43.3697 149.051 43.3685C148.337 43.3653 147.796 43.8954 147.8 44.5919Z" fill="#FFA04A"/>
<path d="M72.2719 44.5063C72.2533 43.8385 71.7168 43.3592 70.9989 43.3692C70.2927 43.3767 69.7575 43.9268 69.7787 44.6183C69.7987 45.2372 70.4239 45.8055 71.0613 45.7836C71.7644 45.7592 72.2899 45.2047 72.2719 44.5063Z" fill="#FFA04A"/>
<path d="M142.544 44.5734C142.546 43.9038 141.976 43.3718 141.264 43.3731C140.579 43.375 140.072 43.8794 140.063 44.5703C140.055 45.2718 140.587 45.7906 141.306 45.7831C141.93 45.7762 142.543 45.1773 142.544 44.5734Z" fill="#FFA04A"/>
<path d="M111.313 44.5635C111.308 43.8927 110.74 43.367 110.025 43.3732C109.34 43.3782 108.836 43.8876 108.832 44.5779C108.828 45.2607 109.326 45.7607 110.031 45.7814C110.679 45.7989 111.318 45.1931 111.313 44.5635Z" fill="#FFA04A"/>
<path d="M87.9177 44.596C87.9338 43.9307 87.3709 43.3813 86.6608 43.3731C85.9712 43.3656 85.4541 43.8606 85.4361 44.5478C85.4161 45.2525 85.9314 45.775 86.6563 45.7832C87.2783 45.7894 87.901 45.2043 87.9177 44.596Z" fill="#FFA04A"/>
<path d="M62.0407 44.6136C62.0523 45.2882 62.5746 45.7832 63.2745 45.7832C63.8984 45.7813 64.5159 45.1887 64.5224 44.5829C64.5294 43.8939 63.9312 43.3475 63.1986 43.3732C62.5187 43.3957 62.0291 43.9195 62.0407 44.6136Z" fill="#FFA04A"/>
<path d="M54.2034 44.5715C54.197 45.2731 54.7302 45.7906 55.45 45.7831C56.074 45.775 56.6863 45.1742 56.6863 44.5703C56.685 43.9019 56.1171 43.37 55.4037 43.3731C54.7174 43.375 54.2118 43.8825 54.2034 44.5715Z" fill="#FFA04A"/>
<path d="M119.147 44.5316C119.12 43.8588 118.54 43.3494 117.826 43.3732C117.148 43.3945 116.657 43.9183 116.667 44.6117C116.677 45.2844 117.199 45.7813 117.898 45.7832C118.546 45.7832 119.173 45.1568 119.147 44.5316Z" fill="#FFA04A"/>
<path d="M103.283 37.0296C103.289 36.4301 102.865 35.9833 102.289 35.9801C101.689 35.977 101.248 36.3932 101.235 36.9764C101.222 37.5422 101.676 37.9765 102.275 37.9746C102.908 37.9734 103.278 37.6254 103.283 37.0296Z" fill="#FFA04A"/>
<path d="M95.4474 37.0164C95.4461 36.4187 95.0132 35.975 94.4395 35.98C93.8387 35.985 93.4058 36.4062 93.4006 36.9907C93.3955 37.5564 93.8522 37.9826 94.4562 37.9745C95.0853 37.9664 95.4493 37.614 95.4474 37.0164Z" fill="#FFA04A"/>
<path d="M72.0531 37.0409C72.0634 36.4401 71.6434 35.9882 71.0703 35.9801C70.4688 35.9707 70.0243 36.3819 70.005 36.9651C69.9864 37.5309 70.436 37.9733 71.0342 37.9746C71.6678 37.9777 72.0416 37.6348 72.0531 37.0409Z" fill="#FFA04A"/>
<path d="M48.6564 37.0359C48.6628 36.437 48.2415 35.9864 47.6664 35.9801C47.0669 35.9739 46.6243 36.3888 46.6076 36.972C46.5928 37.5372 47.0444 37.9746 47.6432 37.9746C48.2756 37.9765 48.648 37.6304 48.6564 37.0359Z" fill="#FFA04A"/>
<path d="M77.8406 37.0085C77.8457 37.5742 78.3082 37.9891 78.9141 37.9747C79.5381 37.9591 79.897 37.5999 79.8874 36.9978C79.8777 36.4014 79.4378 35.9659 78.8601 35.9803C78.2606 35.9946 77.8354 36.424 77.8406 37.0085Z" fill="#FFA04A"/>
<path d="M126.679 37.0265C126.684 36.4269 126.258 35.9801 125.683 35.9801C125.082 35.9782 124.644 36.395 124.634 36.9795C124.622 37.5484 125.074 37.9777 125.676 37.9746C126.308 37.9715 126.676 37.6235 126.679 37.0265Z" fill="#FFA04A"/>
<path d="M132.467 36.9962C132.463 37.5619 132.921 37.9843 133.525 37.9749C134.154 37.9656 134.518 37.6113 134.513 37.0124C134.51 36.4148 134.075 35.9723 133.501 35.9805C132.899 35.9886 132.468 36.4117 132.467 36.9962Z" fill="#FFA04A"/>
<path d="M150.075 37.0265C150.078 36.4257 149.653 35.9801 149.077 35.9801C148.477 35.9782 148.038 36.3982 148.028 36.9814C148.016 37.5453 148.472 37.9777 149.073 37.9746C149.704 37.9715 150.071 37.6223 150.075 37.0265Z" fill="#FFA04A"/>
<path d="M86.6295 35.9803C86.0763 35.9885 85.653 36.4322 85.6562 36.9979C85.6607 37.6143 86.0235 37.9735 86.641 37.9717C87.2386 37.9698 87.6927 37.5693 87.7043 37.0361C87.7191 36.4578 87.2238 35.9722 86.6295 35.9803Z" fill="#FFA04A"/>
<path d="M117.884 37.9716C118.478 37.9635 118.931 37.5586 118.937 37.0266C118.944 36.4465 118.445 35.9659 117.851 35.9802C117.298 35.9946 116.879 36.4402 116.887 37.0085C116.897 37.6236 117.264 37.9779 117.884 37.9716Z" fill="#FFA04A"/>
<path d="M109.053 36.9898C109.053 37.6081 109.412 37.9685 110.029 37.9717C110.626 37.9736 111.084 37.5774 111.102 37.0455C111.121 36.466 110.633 35.9784 110.035 35.9803C109.48 35.9835 109.052 36.4222 109.053 36.9898Z" fill="#FFA04A"/>
<path d="M141.244 37.9716C141.864 37.9797 142.339 37.5598 142.332 37.0053C142.327 36.4446 141.856 35.9865 141.279 35.9802C140.723 35.9752 140.288 36.4076 140.283 36.9753C140.276 37.5936 140.632 37.9622 141.244 37.9716Z" fill="#FFA04A"/>
<path d="M56.4741 37.0229C56.4805 36.4434 55.9801 35.9659 55.3857 35.9802C54.8325 35.9965 54.4157 36.4415 54.4254 37.0103C54.4357 37.6255 54.8029 37.9779 55.4237 37.9716C56.018 37.9635 56.4689 37.5586 56.4741 37.0229Z" fill="#FFA04A"/>
<path d="M64.3109 37.0266C64.3173 36.4465 63.8182 35.9659 63.2238 35.9802C62.6706 35.9946 62.2525 36.4402 62.2602 37.0085C62.2705 37.6236 62.6359 37.9779 63.2566 37.9716C63.851 37.9635 64.3038 37.5586 64.3109 37.0266Z" fill="#FFA04A"/>
<path d="M85.8016 29.403C85.7721 29.8455 86.136 30.2135 86.6132 30.2247C87.0858 30.2379 87.4678 29.8981 87.4826 29.4512C87.4954 29.0457 87.0858 28.6164 86.6659 28.597C86.2563 28.5795 85.828 28.9768 85.8016 29.403Z" fill="#FFA04A"/>
<path d="M109.195 29.4493C109.194 29.8899 109.581 30.2379 110.056 30.2247C110.529 30.2122 110.891 29.8499 110.879 29.4049C110.866 28.9944 110.432 28.5863 110.015 28.597C109.602 28.6083 109.195 29.0301 109.195 29.4493Z" fill="#FFA04A"/>
<path d="M54.5667 29.4573C54.5699 29.8966 54.9596 30.2408 55.4355 30.2245C55.9081 30.2089 56.2669 29.8434 56.2509 29.3966C56.2341 28.9867 55.793 28.5824 55.3795 28.5968C54.9648 28.6131 54.5616 29.0374 54.5667 29.4573Z" fill="#FFA04A"/>
<path d="M140.427 29.4291C140.415 29.8715 140.789 30.227 141.267 30.2251C141.741 30.2238 142.11 29.8728 142.11 29.4259C142.11 29.0173 141.685 28.5992 141.267 28.5973C140.854 28.5961 140.44 29.006 140.427 29.4291Z" fill="#FFA04A"/>
<path d="M117.852 30.2249C118.324 30.2349 118.702 29.8901 118.714 29.4432C118.724 29.0377 118.309 28.6115 117.891 28.5971C117.477 28.5846 117.054 28.9851 117.03 29.4094C117.007 29.8519 117.372 30.2155 117.852 30.2249Z" fill="#FFA04A"/>
<path d="M62.4041 29.4701C62.4157 29.9107 62.8105 30.2467 63.2851 30.2229C63.7571 30.2004 64.1114 29.8287 64.0863 29.3831C64.0638 28.9732 63.6143 28.5745 63.2028 28.5964C62.7893 28.6208 62.3925 29.0533 62.4041 29.4701Z" fill="#FFA04A"/>
<path d="M149.911 29.4227C149.912 28.9947 149.51 28.6104 149.055 28.6054C148.586 28.601 148.237 28.9578 148.242 29.4384C148.247 29.879 148.597 30.2288 149.04 30.2319C149.478 30.235 149.91 29.8345 149.911 29.4227Z" fill="#FFA04A"/>
<path d="M79.7239 29.4191C79.722 28.991 79.3188 28.608 78.8629 28.6049C78.3966 28.6017 78.0481 28.9622 78.0545 29.4416C78.061 29.8834 78.4114 30.2295 78.8545 30.2295C79.2937 30.2314 79.7239 29.8308 79.7239 29.4191Z" fill="#FFA04A"/>
<path d="M71.8855 29.393C71.8669 28.9606 71.454 28.5932 70.9994 28.6045C70.5338 28.6176 70.1981 28.9894 70.2194 29.4669C70.2393 29.9087 70.5994 30.2423 71.0476 30.2291C71.4887 30.2166 71.9035 29.8029 71.8855 29.393Z" fill="#FFA04A"/>
<path d="M103.118 29.393C103.1 28.9605 102.687 28.5932 102.232 28.6044C101.767 28.6176 101.431 28.9893 101.45 29.4681C101.47 29.9086 101.833 30.2434 102.278 30.229C102.722 30.2165 103.134 29.8029 103.118 29.393Z" fill="#FFA04A"/>
<path d="M126.514 29.4209C126.514 28.9916 126.111 28.6086 125.655 28.6054C125.187 28.6023 124.838 28.9628 124.844 29.4403C124.851 29.8827 125.203 30.2301 125.644 30.2319C126.083 30.2332 126.514 29.8314 126.514 29.4209Z" fill="#FFA04A"/>
<path d="M95.2831 29.4227C95.2863 28.9966 94.8818 28.6104 94.4272 28.6054C93.9597 28.6011 93.6112 28.9596 93.6157 29.4384C93.6208 29.8808 93.9713 30.2288 94.4137 30.2319C94.8516 30.2332 95.2812 29.8345 95.2831 29.4227Z" fill="#FFA04A"/>
<path d="M48.4921 29.4456C48.5101 29.0194 48.1166 28.6239 47.6587 28.6064C47.1899 28.587 46.8311 28.9349 46.8247 29.4137C46.8176 29.8605 47.1539 30.2128 47.5983 30.2291C48.031 30.2435 48.4773 29.8542 48.4921 29.4456Z" fill="#FFA04A"/>
<path d="M132.682 29.454C132.695 29.8977 133.053 30.2357 133.497 30.2294C133.937 30.2244 134.36 29.8164 134.35 29.4058C134.34 28.9753 133.931 28.6004 133.477 28.6048C133.012 28.6098 132.668 28.9765 132.682 29.454Z" fill="#FFA04A"/>
<path d="M101.593 21.7759C101.588 22.1189 101.904 22.4487 102.242 22.4549C102.583 22.4631 102.919 22.1426 102.92 21.8097C102.92 21.4536 102.617 21.172 102.242 21.177C101.881 21.1814 101.598 21.4424 101.593 21.7759Z" fill="#FFA04A"/>
<path d="M125.672 21.1769C125.312 21.1656 125.013 21.4134 124.989 21.742C124.967 22.0799 125.265 22.426 125.603 22.4535C125.943 22.4792 126.293 22.1782 126.315 21.8415C126.336 21.4892 126.047 21.1913 125.672 21.1769Z" fill="#FFA04A"/>
<path d="M134.152 21.7923C134.142 21.4381 133.834 21.164 133.457 21.1784C133.097 21.1915 132.823 21.4575 132.826 21.7923C132.83 22.1365 133.154 22.4588 133.489 22.455C133.834 22.4519 134.158 22.1252 134.152 21.7923Z" fill="#FFA04A"/>
<path d="M78.1994 21.7741C78.193 22.117 78.5075 22.4475 78.8451 22.455C79.1891 22.4619 79.5228 22.1446 79.5248 21.8098C79.526 21.4555 79.2251 21.172 78.8483 21.177C78.4875 21.1814 78.2046 21.4411 78.1994 21.7741Z" fill="#FFA04A"/>
<path d="M70.3644 21.7472C70.3426 22.087 70.6441 22.4294 70.983 22.4538C71.3226 22.4776 71.6711 22.1734 71.6891 21.8367C71.7077 21.4844 71.4158 21.1865 71.0409 21.1771C70.6821 21.1671 70.3856 21.4174 70.3644 21.7472Z" fill="#FFA04A"/>
<path d="M47.5797 22.4534C47.9186 22.4803 48.271 22.1812 48.2922 21.8426C48.3154 21.489 48.0286 21.1911 47.6517 21.178C47.2929 21.1636 46.9932 21.4102 46.9688 21.7406C46.9424 22.0766 47.2421 22.4246 47.5797 22.4534Z" fill="#FFA04A"/>
<path d="M149.712 21.8048C149.712 21.4493 149.408 21.1702 149.031 21.1771C148.671 21.1834 148.389 21.4462 148.388 21.7791C148.384 22.1221 148.702 22.4519 149.039 22.455C149.379 22.46 149.714 22.1365 149.712 21.8048Z" fill="#FFA04A"/>
<path d="M95.0858 21.7967C95.0794 21.4412 94.7733 21.1659 94.3958 21.1772C94.0357 21.1878 93.7592 21.4538 93.7605 21.7873C93.7624 22.1303 94.0833 22.4569 94.419 22.4551C94.7611 22.4551 95.091 22.1303 95.0858 21.7967Z" fill="#FFA04A"/>
<path d="M141.944 21.8541C141.969 21.5193 141.669 21.1957 141.312 21.1719C140.963 21.1494 140.674 21.3929 140.641 21.7389C140.606 22.1157 140.858 22.4186 141.225 22.4436C141.592 22.4693 141.918 22.202 141.944 21.8541Z" fill="#FFA04A"/>
<path d="M56.0882 21.809C56.0843 21.4723 55.7602 21.1694 55.4065 21.1713C55.0542 21.1725 54.7892 21.4323 54.7809 21.7846C54.7712 22.1645 55.0407 22.4448 55.4143 22.4448C55.7834 22.4448 56.0914 22.1551 56.0882 21.809Z" fill="#FFA04A"/>
<path d="M62.6164 21.7697C62.5984 22.1477 62.862 22.4375 63.2324 22.4456C63.6028 22.4538 63.9153 22.1715 63.9237 21.8242C63.9301 21.4894 63.6144 21.1783 63.2569 21.1721C62.9064 21.1658 62.6331 21.4205 62.6164 21.7697Z" fill="#FFA04A"/>
<path d="M117.244 21.7697C117.224 22.1477 117.489 22.4375 117.86 22.4456C118.229 22.4538 118.545 22.1715 118.551 21.8242C118.557 21.4894 118.242 21.1802 117.884 21.1721C117.534 21.1658 117.262 21.4187 117.244 21.7697Z" fill="#FFA04A"/>
<path d="M109.406 21.8141C109.412 22.1927 109.696 22.4599 110.071 22.4436C110.44 22.428 110.734 22.1232 110.713 21.779C110.693 21.4423 110.355 21.1544 110.002 21.172C109.654 21.1895 109.401 21.4636 109.406 21.8141Z" fill="#FFA04A"/>
<path d="M86.0106 21.795C86.0054 22.1742 86.2806 22.4515 86.6543 22.4452C87.0247 22.439 87.3262 22.1442 87.3179 21.7981C87.3095 21.4633 86.9803 21.1654 86.6266 21.1717C86.2774 21.1779 86.0138 21.4439 86.0106 21.795Z" fill="#FFA04A"/>
<path d="M55.888 14.1948C55.8616 13.9626 55.6456 13.783 55.3974 13.7861C55.1253 13.7911 54.9086 14.0089 54.9215 14.2655C54.935 14.5152 55.18 14.7217 55.4398 14.7029C55.7054 14.6835 55.9157 14.4445 55.888 14.1948Z" fill="#FFA04A"/>
<path d="M101.808 14.2171C101.808 14.4768 102.026 14.7089 102.276 14.7152C102.534 14.7215 102.768 14.4924 102.76 14.2427C102.752 13.9943 102.516 13.7765 102.256 13.7777C102.004 13.7777 101.81 13.9705 101.808 14.2171Z" fill="#FFA04A"/>
<path d="M109.549 14.2077C109.529 14.4574 109.747 14.6915 110.01 14.704C110.272 14.7172 110.512 14.5025 110.517 14.2522C110.524 13.9975 110.3 13.7847 110.028 13.7859C109.78 13.7891 109.569 13.9737 109.549 14.2077Z" fill="#FFA04A"/>
<path d="M86.1543 14.2366C86.1492 14.4882 86.38 14.7072 86.643 14.7041C86.8855 14.7009 87.1022 14.5069 87.1208 14.2779C87.142 14.0232 86.9298 13.7991 86.6578 13.786C86.3877 13.7747 86.1595 13.9781 86.1543 14.2366Z" fill="#FFA04A"/>
<path d="M94.9267 14.244C94.9183 13.9962 94.6829 13.7778 94.4244 13.7778C94.1711 13.7778 93.9769 13.9686 93.9756 14.2152C93.9737 14.4718 94.1936 14.709 94.4405 14.7171C94.6965 14.7246 94.9331 14.4924 94.9267 14.244Z" fill="#FFA04A"/>
<path d="M117.836 14.7036C118.094 14.7211 118.341 14.5114 118.352 14.2617C118.364 14.0083 118.145 13.7905 117.873 13.7874C117.624 13.7842 117.411 13.9632 117.386 14.1992C117.36 14.4476 117.57 14.6842 117.836 14.7036Z" fill="#FFA04A"/>
<path d="M78.4135 14.2347C78.4232 14.4944 78.6489 14.7184 78.8978 14.7153C79.1556 14.7122 79.3833 14.4731 79.3633 14.2253C79.3453 13.9781 79.0997 13.7684 78.8431 13.7778C78.5897 13.7891 78.4052 13.985 78.4135 14.2347Z" fill="#FFA04A"/>
<path d="M125.204 14.2184C125.204 14.4768 125.425 14.7122 125.672 14.7172C125.929 14.7234 126.162 14.4925 126.154 14.2409C126.146 13.9925 125.91 13.7766 125.651 13.7778C125.399 13.7797 125.204 13.9706 125.204 14.2184Z" fill="#FFA04A"/>
<path d="M70.5772 14.2184C70.5772 14.4768 70.7978 14.7122 71.0447 14.7172C71.3019 14.7234 71.5354 14.4925 71.5276 14.2409C71.5193 13.9925 71.2839 13.7766 71.0235 13.7778C70.7714 13.7797 70.5772 13.9706 70.5772 14.2184Z" fill="#FFA04A"/>
<path d="M133.041 14.2366C133.05 14.4957 133.277 14.7216 133.524 14.7172C133.783 14.7122 134.01 14.4732 133.992 14.2253C133.972 13.9769 133.729 13.7685 133.47 13.7797C133.217 13.791 133.032 13.9863 133.041 14.2366Z" fill="#FFA04A"/>
<path d="M48.1329 14.2507C48.1297 14.0022 47.8989 13.7825 47.6391 13.7775C47.3851 13.7744 47.1864 13.9621 47.1812 14.2087C47.1761 14.4634 47.3953 14.7069 47.6403 14.7169C47.8956 14.7281 48.1361 14.5004 48.1329 14.2507Z" fill="#FFA04A"/>
<path d="M140.779 14.2439C140.781 14.4942 141.018 14.712 141.279 14.7039C141.522 14.6957 141.734 14.4974 141.747 14.2683C141.762 14.0136 141.546 13.7921 141.274 13.7858C141.005 13.7795 140.778 13.9892 140.779 14.2439Z" fill="#FFA04A"/>
<path d="M148.602 14.2184C148.603 14.4782 148.822 14.7122 149.07 14.7172C149.328 14.7216 149.563 14.4913 149.553 14.241C149.543 13.9925 149.306 13.7766 149.048 13.7779C148.794 13.7797 148.602 13.9706 148.602 14.2184Z" fill="#FFA04A"/>
<path d="M63.7257 14.2295C63.7193 13.9961 63.5148 13.8002 63.2679 13.7858C62.9978 13.7733 62.7644 13.9767 62.756 14.2314C62.7496 14.4811 62.9766 14.7026 63.2415 14.7026C63.5065 14.7026 63.7341 14.4798 63.7257 14.2295Z" fill="#FFA04A"/>
<path d="M63.2358 6.82953C63.3317 6.79073 63.4172 6.68497 63.4583 6.58922C63.4718 6.5573 63.3169 6.4046 63.2545 6.41462C63.1574 6.42713 63.0751 6.53164 62.9381 6.63365C63.0796 6.73191 63.187 6.84831 63.2358 6.82953Z" fill="#FFA04A"/>
<path d="M55.6245 6.60725C55.6413 6.57346 55.4998 6.41012 55.4387 6.41513C55.3397 6.42139 55.249 6.51901 55.1043 6.60851C55.2381 6.71802 55.3352 6.84444 55.384 6.82817C55.4831 6.79813 55.5782 6.69987 55.6245 6.60725Z" fill="#FFA04A"/>
<path d="M140.962 6.63365C141.104 6.73191 141.211 6.84831 141.261 6.82953C141.356 6.79073 141.442 6.68497 141.483 6.58922C141.494 6.5573 141.341 6.4046 141.279 6.41462C141.182 6.42713 141.099 6.53164 140.962 6.63365Z" fill="#FFA04A"/>
<path d="M110.031 6.84229C110.109 6.76218 110.221 6.69209 110.252 6.59571C110.268 6.5444 110.144 6.4499 110.035 6.31535C109.94 6.45803 109.838 6.54627 109.831 6.64077C109.826 6.70273 109.959 6.77532 110.031 6.84229Z" fill="#FFA04A"/>
<path d="M117.668 6.66142C117.671 6.72401 117.81 6.78158 117.887 6.84229C117.958 6.75404 118.063 6.67394 118.084 6.57631C118.096 6.52374 117.961 6.44176 117.839 6.31848C117.759 6.46742 117.666 6.56505 117.668 6.66142Z" fill="#FFA04A"/>
<path d="M86.9494 6.64537C86.8227 6.5321 86.7339 6.40381 86.6831 6.41632C86.5841 6.44073 86.4787 6.5321 86.433 6.62284C86.4163 6.65976 86.5481 6.82999 86.6086 6.82811C86.7057 6.82498 86.8015 6.73048 86.9494 6.64537Z" fill="#FFA04A"/>
<path d="M102.248 6.83008C102.33 6.75435 102.443 6.6924 102.482 6.59915C102.498 6.5591 102.368 6.45834 102.273 6.3507C102.181 6.46147 102.071 6.53657 102.072 6.60854C102.074 6.68426 102.186 6.75623 102.248 6.83008Z" fill="#FFA04A"/>
<path d="M149.105 6.42414C149.021 6.42602 148.939 6.51864 148.856 6.57309C148.922 6.65945 148.973 6.77961 149.061 6.81841C149.11 6.84094 149.223 6.72829 149.447 6.58748C149.288 6.50612 149.196 6.42227 149.105 6.42414Z" fill="#FFA04A"/>
<path d="M125.469 6.60103C125.467 6.67613 125.574 6.7531 125.635 6.83008C125.719 6.75811 125.834 6.69866 125.877 6.60854C125.896 6.56724 125.77 6.46272 125.679 6.34945C125.584 6.45647 125.469 6.52718 125.469 6.60103Z" fill="#FFA04A"/>
<path d="M47.6854 6.35229C47.5786 6.44992 47.4584 6.51062 47.4487 6.58447C47.4404 6.65832 47.5394 6.74468 47.5915 6.82666C47.6841 6.7622 47.8043 6.71401 47.8551 6.62765C47.8783 6.58948 47.7645 6.4737 47.6854 6.35229Z" fill="#FFA04A"/>
<path d="M70.8387 6.60854C70.8425 6.68426 70.9525 6.75623 71.0168 6.83008C71.0991 6.75435 71.211 6.6924 71.2502 6.59915C71.267 6.5591 71.1371 6.45834 71.0412 6.3507C70.9493 6.46147 70.8387 6.53657 70.8387 6.60854Z" fill="#FFA04A"/>
<path d="M94.6402 6.65255C94.6138 6.55931 94.5019 6.49047 94.4261 6.41224C94.3585 6.48108 94.2434 6.54679 94.2351 6.62314C94.2286 6.69573 94.3322 6.77897 94.4164 6.896C94.518 6.78836 94.6543 6.70012 94.6402 6.65255Z" fill="#FFA04A"/>
<path d="M133.492 6.42457C133.444 6.40705 133.342 6.52846 133.225 6.6167C133.337 6.70995 133.413 6.82009 133.487 6.81884C133.568 6.81696 133.645 6.7112 133.726 6.65049C133.65 6.57039 133.586 6.45837 133.492 6.42457Z" fill="#FFA04A"/>
<path d="M78.8683 6.42457C78.8195 6.40705 78.7172 6.52721 78.5989 6.61545C78.7108 6.70807 78.7847 6.82009 78.8574 6.81884C78.9397 6.81696 79.0182 6.71307 79.0973 6.65237C79.0233 6.57227 78.9609 6.45962 78.8683 6.42457Z" fill="#FFA04A"/>
</g>
<path d="M48.4188 36.042L48.361 37.0967H49.4173H81.9873H82.8304L82.9729 36.2657C83.4296 33.6013 84.8564 31.5565 87.3324 30.0863L87.3324 30.0864L87.3402 30.0817C89.9095 28.5245 93.8488 27.6819 99.2901 27.6819C103.976 27.6819 107.442 28.3136 109.784 29.4848L109.802 29.4936L109.82 29.5017C111.019 30.0434 111.848 30.6983 112.378 31.4334C112.901 32.1588 113.176 33.0203 113.176 34.0611C113.176 35.8669 112.343 37.3021 110.48 38.4199L110.473 38.4245L110.465 38.4294C109.613 38.9621 108.26 39.4117 106.321 39.7211C104.398 40.028 101.974 40.1857 99.0356 40.1857H83.2595H82.2595V41.1857V62.4326V63.4326H83.2595H99.0356C103.509 63.4326 106.861 63.6871 109.131 64.1737L109.151 64.178L109.171 64.1814C111.578 64.5963 112.925 65.2673 113.535 65.999L113.55 66.0171L113.566 66.0345C114.311 66.8478 114.702 67.8704 114.702 69.1756C114.702 71.3144 113.545 73.0525 110.823 74.3778C108.041 75.6466 104.095 76.3181 98.9084 76.3181C92.6021 76.3181 88.1046 75.4712 85.2769 73.9021C82.5512 72.3429 81.0133 70.175 80.5571 67.3616L80.4209 66.5216H79.57H47H45.9632L46.0007 67.5577C46.2626 74.8038 48.5824 81.1237 52.9696 86.4762L52.9758 86.4837C57.437 91.8196 63.6199 95.8955 71.4682 98.7416C79.3202 101.589 88.4734 103 98.9084 103C109.672 103 118.866 101.677 126.467 98.9992C134.043 96.3306 139.892 92.6869 143.938 88.0245L143.944 88.0174C147.995 83.2619 150.036 77.8174 150.036 71.7201C150.036 65.992 148.309 61.2732 144.79 57.6632C141.487 54.2759 136.866 51.8621 131.004 50.3678C136.848 48.2087 141.176 45.2801 143.865 41.5188C146.612 37.7942 148 33.6884 148 29.2265C148 23.5363 145.99 18.544 142.004 14.2932C138.045 10.0699 132.543 6.81386 125.561 4.48642C118.565 2.15445 110.396 1 101.071 1C89.9559 1 80.4885 2.58102 72.7012 5.78248L72.6975 5.784C65.0277 8.97258 59.103 13.2225 54.9865 18.5652L54.985 18.5671C50.9654 23.8102 48.7695 29.6421 48.4188 36.042Z" stroke="#222222" stroke-width="2"/>
<defs>
<filter id="filter0_d_327_13304" x="47" y="2.03223" width="106.036" height="104" filterUnits="userSpaceOnUse" color-interpolation-filters="sRGB">
<feFlood flood-opacity="0" result="BackgroundImageFix"/>
<feColorMatrix in="SourceAlpha" type="matrix" values="0 0 0 0 0 0 0 0 0 0 0 0 0 0 0 0 0 0 127 0" result="hardAlpha"/>
<feOffset dx="4" dy="4"/>
<feComposite in2="hardAlpha" operator="out"/>
<feColorMatrix type="matrix" values="0 0 0 0 0.133333 0 0 0 0 0.133333 0 0 0 0 0.133333 0 0 0 1 0"/>
<feBlend mode="normal" in2="BackgroundImageFix" result="effect1_dropShadow_327_13304"/>
<feBlend mode="normal" in="SourceGraphic" in2="effect1_dropShadow_327_13304" result="shape"/>
</filter>
</defs>
</svg>
