<svg width="196" height="106" viewBox="0 0 196 106" fill="none" xmlns="http://www.w3.org/2000/svg">
<g filter="url(#filter0_d_327_13696)">
<path d="M139.333 2V102H105.467L105.467 27.4648L75.6806 60.2667H153.733V84.9333H42V60.9333L96 2H139.333Z" fill="#531384"/>
</g>
<mask id="mask0_327_13696" style="mask-type:alpha" maskUnits="userSpaceOnUse" x="42" y="2" width="112" height="100">
<path d="M139.333 2V102H105.467L105.467 27.4648L75.6806 60.2667H153.733V84.9333H42V60.9333L96 2H139.333Z" fill="black"/>
</mask>
<g mask="url(#mask0_327_13696)">
<path d="M138.118 99.2354C138.141 97.9261 137.095 96.8303 135.729 96.8128C134.206 96.7934 133.196 97.9424 133.277 99.1277C133.157 100.472 134.365 101.571 135.64 101.552C136.974 101.531 138.097 100.504 138.118 99.2354Z" fill="#E9D0FD"/>
<path d="M109.881 99.1567C109.769 100.45 110.947 101.56 112.218 101.552C113.578 101.542 114.717 100.5 114.722 99.2068C114.729 97.8832 113.664 96.8387 112.359 96.813C110.811 96.7824 109.793 97.9376 109.881 99.1567Z" fill="#E9D0FD"/>
<path d="M106.894 99.1954C106.874 97.9456 105.892 96.7453 104.456 96.8323C102.969 96.8335 102.092 97.7259 102.034 99.1678C101.983 100.44 103.104 101.542 104.395 101.558C105.722 101.574 106.913 100.381 106.894 99.1954Z" fill="#E9D0FD"/>
<path d="M60.0959 99.223C60.1126 97.9301 59.0783 96.7529 57.6921 96.833C56.1953 96.828 55.3076 97.711 55.2433 99.1417C55.1841 100.456 56.3265 101.578 57.6323 101.552C58.9651 101.527 60.0811 100.493 60.0959 99.223Z" fill="#E9D0FD"/>
<path d="M52.2662 99.1854C52.2418 97.9519 51.273 96.7422 49.8193 96.8323C48.3373 96.8367 47.4625 97.7341 47.4065 99.1779C47.3589 100.424 48.4608 101.547 49.7781 101.559C51.0987 101.57 52.2907 100.379 52.2662 99.1854Z" fill="#E9D0FD"/>
<path d="M83.4989 99.208C83.4841 97.9395 82.4858 96.7492 81.0732 96.8324C79.5828 96.8324 78.7003 97.7198 78.6392 99.1555C78.5832 100.442 79.7063 101.56 81.0417 101.559C82.3295 101.555 83.5105 100.386 83.4989 99.208Z" fill="#E9D0FD"/>
<path d="M141.115 99.1196C140.991 100.48 142.209 101.57 143.47 101.552C144.803 101.534 145.929 100.51 145.955 99.2429C145.982 97.918 144.921 96.8322 143.573 96.8128C142.033 96.7903 141.034 97.9518 141.115 99.1196Z" fill="#E9D0FD"/>
<path d="M86.4634 99.1367C86.4402 100.467 87.5685 101.577 88.8562 101.552C90.1897 101.529 91.3096 100.498 91.3276 99.2281C91.3456 97.927 90.3048 96.7542 88.9283 96.8331C87.4231 96.7317 86.4846 97.937 86.4634 99.1367Z" fill="#E9D0FD"/>
<path d="M148.844 99.1597C148.84 100.435 149.93 101.532 151.236 101.545C152.568 101.558 153.683 100.548 153.714 99.2091C153.746 97.9274 152.514 96.7033 151.3 96.8335C150.086 96.7278 148.849 97.7047 148.844 99.1597Z" fill="#E9D0FD"/>
<path d="M117.613 99.1836C117.621 100.459 118.721 101.544 120.031 101.545C121.323 101.547 122.545 100.568 122.459 99.1855C122.599 97.9532 121.305 96.7854 120.045 96.808C118.873 96.8286 117.603 97.6973 117.613 99.1836Z" fill="#E9D0FD"/>
<path d="M42.0583 96.8334C40.8201 96.7258 39.5979 97.7146 39.5883 99.1464C39.5799 100.424 40.6638 101.527 41.9695 101.545C43.3197 101.563 44.4229 100.541 44.4595 99.2203C44.4956 97.918 43.247 96.7051 42.0583 96.8334Z" fill="#E9D0FD"/>
<path d="M73.3029 96.8336C72.0318 96.7229 70.8077 97.7373 70.8193 99.1867C70.8309 100.464 71.9328 101.549 73.2418 101.545C74.5887 101.542 75.6494 100.517 75.6906 99.2349C75.733 97.9006 74.4639 96.7085 73.3029 96.8336Z" fill="#E9D0FD"/>
<path d="M125.446 99.1433C125.437 100.421 126.52 101.526 127.824 101.545C129.186 101.564 130.281 100.533 130.318 99.2234C130.356 97.9129 129.104 96.7063 127.92 96.8334C126.677 96.7257 125.458 97.7145 125.446 99.1433Z" fill="#E9D0FD"/>
<path d="M94.2165 99.1691C94.2177 100.446 95.3132 101.537 96.6203 101.545C97.9299 101.553 99.145 100.563 99.0626 99.1979C99.2061 97.9407 97.8984 96.7917 96.6614 96.8079C95.4663 96.8236 94.2145 97.7035 94.2165 99.1691Z" fill="#E9D0FD"/>
<path d="M65.4531 96.8334C64.2162 96.7258 62.9946 97.7146 62.9843 99.1464C62.9766 100.424 64.0598 101.527 65.3656 101.545C66.7158 101.563 67.8196 100.541 67.8556 99.2222C67.8904 97.918 66.645 96.7064 65.4531 96.8334Z" fill="#E9D0FD"/>
<path d="M106.671 91.626C106.673 90.3362 105.741 89.4294 104.413 89.4294C103.132 89.4306 102.16 90.3712 102.174 91.5985C102.185 92.8063 103.195 93.7963 104.415 93.8032C105.546 93.8063 106.749 92.8132 106.671 91.626Z" fill="#E9D0FD"/>
<path d="M133.405 91.5862C133.408 92.7922 134.411 93.7872 135.631 93.8016C136.769 93.816 137.941 92.8166 137.911 91.6388C137.88 90.3477 136.985 89.4347 135.659 89.4309C134.375 89.4265 133.401 90.3571 133.405 91.5862Z" fill="#E9D0FD"/>
<path d="M52.0434 91.6388C52.0505 90.3459 51.1249 89.4347 49.7992 89.4309C48.5146 89.4265 47.5414 90.359 47.5465 91.5862C47.5497 92.7941 48.5526 93.7891 49.7747 93.8016C50.9107 93.8148 52.1181 92.8135 52.0434 91.6388Z" fill="#E9D0FD"/>
<path d="M114.516 91.6407C114.484 90.3477 113.588 89.4359 112.264 89.4309C110.98 89.4265 110.007 90.3559 110.009 91.5843C110.012 92.7909 111.015 93.7872 112.235 93.8016C113.373 93.816 114.545 92.8166 114.516 91.6407Z" fill="#E9D0FD"/>
<path d="M141.241 91.5875C141.246 92.7953 142.249 93.7891 143.47 93.8016C144.605 93.8148 145.777 92.8166 145.748 91.6376C145.715 90.3459 144.818 89.4347 143.494 89.4309C142.209 89.4265 141.236 90.359 141.241 91.5875Z" fill="#E9D0FD"/>
<path d="M91.1208 91.6407C91.0893 90.349 90.1932 89.4359 88.8694 89.4309C87.5849 89.4246 86.6084 90.3559 86.6136 91.5831C86.6168 92.794 87.6164 93.7872 88.8379 93.8016C89.9745 93.816 91.1485 92.8178 91.1208 91.6407Z" fill="#E9D0FD"/>
<path d="M80.995 89.4305C79.7381 89.4405 78.7848 90.3586 78.7764 91.5683C78.7687 92.7936 79.8024 93.8112 81.0406 93.8012C82.1605 93.7949 83.328 92.8061 83.2836 91.6033C83.236 90.3166 82.3252 89.4199 80.995 89.4305Z" fill="#E9D0FD"/>
<path d="M59.8805 91.6179C59.8785 90.3299 58.942 89.4263 57.6143 89.4306C56.3336 89.4344 55.3649 90.3794 55.3816 91.6066C55.3996 92.8163 56.4128 93.8013 57.6311 93.8032C58.7593 93.8032 59.9596 92.8101 59.8805 91.6179Z" fill="#E9D0FD"/>
<path d="M151.286 89.4297C150.028 89.4235 149.085 90.3253 149.058 91.5331C149.025 92.945 150.059 93.7585 151.253 93.7986C152.464 93.8405 153.531 92.8117 153.555 91.647C153.578 90.5625 152.567 89.3465 151.286 89.4297Z" fill="#E9D0FD"/>
<path d="M125.666 91.557C125.629 92.9745 126.71 93.7755 127.882 93.8C129.097 93.8219 130.151 92.7855 130.159 91.6209C130.168 90.5476 129.166 89.3923 127.866 89.4117C126.826 89.4261 125.592 90.3041 125.666 91.557Z" fill="#E9D0FD"/>
<path d="M98.9283 91.5838C98.9135 90.53 97.9325 89.3747 96.5952 89.4116C95.6284 89.4385 94.3477 90.2684 94.4346 91.5951C94.4153 92.965 95.4573 93.7661 96.6345 93.798C97.8682 93.833 98.945 92.7629 98.9283 91.5838Z" fill="#E9D0FD"/>
<path d="M122.325 91.6178C122.328 90.5458 121.335 89.3905 120.025 89.4118C118.996 89.4275 117.756 90.2973 117.83 91.5615C117.796 92.9827 118.885 93.7806 120.053 93.8C121.266 93.8188 122.32 92.7775 122.325 91.6178Z" fill="#E9D0FD"/>
<path d="M63.2021 91.5897C63.1809 92.9577 64.2153 93.7619 65.3975 93.7988C66.6306 93.837 67.7094 92.7706 67.6978 91.5909C67.6849 90.5339 66.7001 89.3787 65.3712 89.4125C64.3928 89.4381 63.1185 90.2742 63.2021 91.5897Z" fill="#E9D0FD"/>
<path d="M39.8044 91.5153C39.7651 92.9253 40.7763 93.7457 41.9798 93.7983C43.2084 93.8527 44.3 92.7907 44.3019 91.6117C44.3019 90.5347 43.2972 89.3544 42.0525 89.4295C40.7879 89.4163 39.8378 90.3119 39.8044 91.5153Z" fill="#E9D0FD"/>
<path d="M71.0391 91.5792C71.014 92.9447 72.0336 93.7552 73.2242 93.7983C74.4541 93.8447 75.5393 92.7795 75.5328 91.6005C75.5264 90.5366 74.5364 89.3813 73.2159 89.412C72.2195 89.4345 70.9581 90.2831 71.0391 91.5792Z" fill="#E9D0FD"/>
<path d="M114.301 83.9567C114.344 82.941 113.324 81.9315 112.322 82.021C111.09 82.0135 110.217 82.8415 110.224 84.013C110.229 85.1051 111.138 85.98 112.262 85.9756C113.427 85.9687 114.252 85.1088 114.301 83.9567Z" fill="#E9D0FD"/>
<path d="M137.696 83.9104C137.723 82.9729 136.754 81.919 135.671 82.021C134.472 82.0279 133.616 82.8559 133.621 84.0049C133.623 85.1007 134.528 85.9768 135.651 85.9756C136.837 85.9737 137.665 85.0944 137.696 83.9104Z" fill="#E9D0FD"/>
<path d="M141.454 83.976C141.441 85.0699 142.334 85.9611 143.456 85.9755C144.642 85.988 145.489 85.115 145.531 83.939C145.567 82.9534 144.568 81.9252 143.534 82.0209C142.326 82.0197 141.468 82.8257 141.454 83.976Z" fill="#E9D0FD"/>
<path d="M51.8373 83.9116C51.8637 82.9717 50.8943 81.919 49.8124 82.021C48.6134 82.0279 47.7604 82.8528 47.7604 84.003C47.7604 85.0944 48.6674 85.9756 49.7905 85.9756C50.9747 85.9756 51.8064 85.0957 51.8373 83.9116Z" fill="#E9D0FD"/>
<path d="M59.674 83.9073C59.6972 82.9748 58.7323 81.9172 57.6433 82.021C56.4449 82.0292 55.592 82.8578 55.5965 84.008C55.5997 85.1007 56.5073 85.9787 57.6317 85.9756C58.8179 85.9718 59.6444 85.0907 59.674 83.9073Z" fill="#E9D0FD"/>
<path d="M78.9914 84.0049C78.9947 85.0976 79.9003 85.9768 81.0235 85.9756C82.1877 85.9737 83.0194 85.112 83.069 83.963C83.1133 82.9473 82.1054 81.9172 81.0415 82.021C79.8431 82.0279 78.9902 82.8546 78.9914 84.0049Z" fill="#E9D0FD"/>
<path d="M106.465 83.9516C106.506 82.9441 105.492 81.9303 104.48 82.021C103.269 82.0147 102.411 82.8127 102.389 83.9629C102.368 85.0781 103.286 85.983 104.433 85.9755C105.597 85.9674 106.417 85.105 106.465 83.9516Z" fill="#E9D0FD"/>
<path d="M90.9047 83.9469C90.9445 82.9468 89.9347 81.928 88.917 82.0206C87.7052 82.0162 86.8471 82.8154 86.8278 83.9675C86.8091 85.0615 87.6968 85.9558 88.8218 85.9733C90.0073 85.9939 90.8583 85.1209 90.9047 83.9469Z" fill="#E9D0FD"/>
<path d="M71.2569 83.9945C71.2556 85.1241 72.1201 85.9783 73.2548 85.9702C74.3695 85.962 75.326 85.0183 75.3177 83.9356C75.308 82.8473 74.4107 82.0563 73.2432 82.0081C72.2372 81.9681 71.1482 82.9262 71.2569 83.9945Z" fill="#E9D0FD"/>
<path d="M118.049 83.977C118.043 85.1116 118.891 85.9671 120.026 85.9702C121.139 85.9733 122.105 85.0396 122.109 83.9545C122.113 82.8668 121.216 82.0626 120.054 82.01C119.011 81.96 117.945 82.9438 118.049 83.977Z" fill="#E9D0FD"/>
<path d="M40.0262 84.0043C40.0262 85.1289 40.8991 85.9844 42.0319 85.97C43.1466 85.9569 44.1006 85.0088 44.0851 83.9274C44.0722 82.8366 43.173 82.053 42.0023 82.008C41.0091 81.9711 39.9143 82.9229 40.0262 84.0043Z" fill="#E9D0FD"/>
<path d="M63.4212 84.0074C63.4244 85.132 64.2986 85.9856 65.432 85.97C66.548 85.9537 67.4981 85.0037 67.482 83.9223C67.4652 82.8315 66.566 82.0511 65.394 82.008C64.4092 81.9729 63.3093 82.9166 63.4212 84.0074Z" fill="#E9D0FD"/>
<path d="M149.266 83.9323C149.303 85.0794 150.074 85.938 151.211 85.97C152.319 86.0006 153.307 85.0857 153.339 83.9993C153.37 82.9166 152.479 82.0386 151.33 82.0204C150.207 81.9053 149.237 82.9773 149.266 83.9323Z" fill="#E9D0FD"/>
<path d="M94.6405 83.9387C94.6784 85.084 95.4523 85.9413 96.5902 85.9701C97.7004 85.997 98.6865 85.0796 98.7129 83.9932C98.7412 82.9099 97.8484 82.0369 96.6976 82.0206C95.5841 81.9086 94.6096 82.9743 94.6405 83.9387Z" fill="#E9D0FD"/>
<path d="M127.805 85.968C128.912 86.0068 129.907 85.0982 129.944 84.0105C129.982 82.9291 129.095 82.0429 127.949 82.0204C126.804 81.9021 125.847 82.9854 125.872 83.9191C125.905 85.0712 126.666 85.9299 127.805 85.968Z" fill="#E9D0FD"/>
<path d="M90.7345 76.4186C90.7248 75.4348 89.8803 74.6244 88.8639 74.6213C87.8116 74.6181 87.041 75.3835 87.0448 76.4286C87.0461 77.3849 87.8907 78.2197 88.8575 78.2197C89.8539 78.2197 90.7448 77.3642 90.7345 76.4186Z" fill="#E9D0FD"/>
<path d="M59.5052 76.4218C59.4969 75.4398 58.6542 74.6263 57.6379 74.6213C56.5856 74.6163 55.8117 75.3804 55.8149 76.4249C55.8169 77.3849 56.6563 78.2178 57.6231 78.2197C58.6195 78.221 59.5136 77.3686 59.5052 76.4218Z" fill="#E9D0FD"/>
<path d="M141.672 76.4465C141.682 77.3997 142.54 78.2314 143.502 78.2201C144.503 78.207 145.385 77.3452 145.362 76.4015C145.34 75.4146 144.491 74.6166 143.474 74.6217C142.423 74.6279 141.662 75.3983 141.672 76.4465Z" fill="#E9D0FD"/>
<path d="M110.441 76.4154C110.438 77.3736 111.273 78.2115 112.239 78.2197C113.235 78.2272 114.132 77.3786 114.132 76.4317C114.13 75.4511 113.289 74.6306 112.272 74.6212C111.22 74.6131 110.444 75.3722 110.441 76.4154Z" fill="#E9D0FD"/>
<path d="M49.8167 74.6217C48.7643 74.6104 47.9834 75.3695 47.9789 76.4127C47.9738 77.3709 48.8068 78.2088 49.7736 78.2201C50.768 78.2314 51.6673 77.3834 51.6692 76.4353C51.6724 75.4565 50.8311 74.6329 49.8167 74.6217Z" fill="#E9D0FD"/>
<path d="M106.295 76.4186C106.284 75.4348 105.44 74.6244 104.423 74.6213C103.372 74.6181 102.602 75.3835 102.604 76.4286C102.606 77.3849 103.451 78.2197 104.417 78.2197C105.413 78.2197 106.306 77.3642 106.295 76.4186Z" fill="#E9D0FD"/>
<path d="M82.901 76.4298C82.8991 75.4492 82.0558 74.6306 81.0401 74.6212C79.9877 74.6131 79.212 75.3741 79.2088 76.4173C79.2068 77.3748 80.0405 78.2097 81.0105 78.2197C82.003 78.2272 82.9023 77.3767 82.901 76.4298Z" fill="#E9D0FD"/>
<path d="M133.836 76.4447C133.846 77.3978 134.704 78.2295 135.665 78.2201C136.665 78.2089 137.549 77.3465 137.528 76.4034C137.504 75.4165 136.657 74.6167 135.639 74.6217C134.59 74.6267 133.826 75.3983 133.836 76.4447Z" fill="#E9D0FD"/>
<path d="M73.2494 74.6192C72.2697 74.6148 71.4065 75.4365 71.4033 76.3752C71.4001 77.3734 72.2318 78.2051 73.2346 78.2095C74.2406 78.2126 75.0923 77.3928 75.1019 76.4102C75.1103 75.4108 74.2966 74.6223 73.2494 74.6192Z" fill="#E9D0FD"/>
<path d="M94.8006 76.3914C94.807 77.3909 95.6451 78.2157 96.646 78.2094C97.6559 78.2013 98.4973 77.3784 98.4986 76.3946C98.4986 75.3964 97.6784 74.616 96.6299 74.6191C95.6535 74.621 94.7935 75.4521 94.8006 76.3914Z" fill="#E9D0FD"/>
<path d="M40.1748 76.4096C40.1948 77.4122 41.0394 78.2295 42.039 78.2101C43.0521 78.1895 43.8799 77.3609 43.8722 76.3777C43.8619 75.3827 43.0321 74.6085 41.9849 74.6198C41.0098 74.6298 40.1555 75.474 40.1748 76.4096Z" fill="#E9D0FD"/>
<path d="M149.427 76.3896C149.432 77.3909 150.27 78.2157 151.272 78.2094C152.281 78.2013 153.123 77.3784 153.125 76.3946C153.125 75.3976 152.303 74.616 151.257 74.6191C150.279 74.621 149.421 75.4521 149.427 76.3896Z" fill="#E9D0FD"/>
<path d="M63.5696 76.368C63.5599 77.363 64.3865 78.1991 65.3912 78.2104C66.3953 78.2204 67.2515 77.4031 67.2663 76.4193C67.2817 75.4211 66.4693 74.6282 65.424 74.62C64.4444 74.6119 63.5799 75.4261 63.5696 76.368Z" fill="#E9D0FD"/>
<path d="M120.028 78.208C121.035 78.2124 121.886 77.3907 121.893 76.4088C121.902 75.4106 121.085 74.6208 120.041 74.6189C119.06 74.6177 118.199 75.4362 118.197 76.3768C118.193 77.3744 119.025 78.2061 120.028 78.208Z" fill="#E9D0FD"/>
<path d="M126.032 76.3733C126.026 77.3702 126.856 78.2032 127.862 78.2094C128.866 78.2145 129.719 77.394 129.73 76.4121C129.74 75.412 128.928 74.626 127.881 74.6191C126.902 74.6129 126.038 75.4333 126.032 76.3733Z" fill="#E9D0FD"/>
<path d="M104.428 67.2147C103.502 67.2053 102.825 67.8574 102.822 68.7511C102.818 69.6961 103.473 70.382 104.39 70.3982C105.276 70.4126 106.094 69.6804 106.087 68.8393C106.081 68.027 105.56 67.226 104.428 67.2147Z" fill="#E9D0FD"/>
<path d="M59.298 68.8251C59.2794 67.9677 58.7184 67.218 57.623 67.2149C56.6974 67.2117 56.031 67.8651 56.0323 68.7656C56.0342 69.7075 56.6961 70.3915 57.6146 70.3984C58.501 70.4047 59.3141 69.6643 59.298 68.8251Z" fill="#E9D0FD"/>
<path d="M145.158 68.7999C145.152 67.8931 144.459 67.2266 143.509 67.2153C142.58 67.2022 141.897 67.843 141.888 68.7373C141.88 69.6854 142.524 70.3744 143.441 70.397C144.351 70.4195 145.167 69.6616 145.158 68.7999Z" fill="#E9D0FD"/>
<path d="M51.4678 68.812C51.4678 67.8845 50.7486 67.2068 49.7735 67.213C48.8517 67.2212 48.1911 67.8764 48.1962 68.7788C48.2027 69.7188 48.8729 70.3984 49.7915 70.3984C50.6779 70.3984 51.4665 69.6518 51.4678 68.812Z" fill="#E9D0FD"/>
<path d="M113.924 68.8313C113.912 67.9933 113.369 67.2211 112.257 67.2148C111.332 67.2086 110.659 67.8619 110.659 68.7593C110.657 69.7031 111.316 70.3871 112.235 70.3983C113.122 70.4077 113.936 69.6705 113.924 68.8313Z" fill="#E9D0FD"/>
<path d="M137.325 68.8151C137.328 67.8895 136.61 67.2086 135.635 67.213C134.712 67.2199 134.049 67.872 134.054 68.7738C134.06 69.7144 134.726 70.3966 135.645 70.3984C136.531 70.3997 137.321 69.6562 137.325 68.8151Z" fill="#E9D0FD"/>
<path d="M82.6987 68.795C82.6871 67.8869 81.9918 67.2235 81.0417 67.2135C80.1148 67.206 79.4349 67.85 79.4284 68.7436C79.4201 69.6893 80.0685 70.3777 80.9857 70.3971C81.8933 70.4177 82.7083 69.6536 82.6987 68.795Z" fill="#E9D0FD"/>
<path d="M90.5279 68.8201C90.5067 67.9534 89.9348 67.2199 88.8497 67.213C87.9228 67.2168 87.2589 67.8682 87.2622 68.7688C87.266 69.7106 87.9311 70.3934 88.8497 70.3984C89.7361 70.4028 90.5478 69.66 90.5279 68.8201Z" fill="#E9D0FD"/>
<path d="M71.6048 68.8074C71.6093 69.6273 72.3915 70.387 73.2361 70.3901C74.1701 70.3933 74.8718 69.7124 74.8815 68.7912C74.8931 67.8894 74.1829 67.2085 73.2361 67.2116C72.2892 67.2129 71.5977 67.8894 71.6048 68.8074Z" fill="#E9D0FD"/>
<path d="M149.627 68.8087C149.633 69.6304 150.417 70.3882 151.262 70.3901C152.196 70.3933 152.896 69.7105 152.905 68.7893C152.915 67.8875 152.206 67.2085 151.257 67.2116C150.312 67.2147 149.62 67.8925 149.627 68.8087Z" fill="#E9D0FD"/>
<path d="M94.9997 68.8024C95.0029 69.6228 95.7819 70.3838 96.6271 70.3901C97.5605 70.3982 98.2655 69.7173 98.2783 68.7961C98.2918 67.8924 97.5856 67.2115 96.6368 67.2115C95.6919 67.2115 94.9984 67.8862 94.9997 68.8024Z" fill="#E9D0FD"/>
<path d="M40.3738 68.7831C40.3667 69.6036 41.136 70.3915 41.9806 70.3852C42.8323 70.3771 43.6473 69.8564 43.6505 68.7606C43.6537 67.8826 42.9526 67.2198 42.0301 67.2117C41.0814 67.2017 40.3815 67.8669 40.3738 68.7831Z" fill="#E9D0FD"/>
<path d="M118.396 68.7973C118.396 69.6197 119.173 70.3819 120.017 70.39C120.951 70.3994 121.658 69.7217 121.674 68.8005C121.689 67.8974 120.984 67.2128 120.037 67.2115C119.091 67.2084 118.396 67.8811 118.396 68.7973Z" fill="#E9D0FD"/>
<path d="M63.769 68.8261C63.7857 69.6466 64.5795 70.3994 65.4209 70.39C66.3561 70.3807 67.0457 69.6929 67.0476 68.7717C67.0495 67.8718 66.331 67.2003 65.381 67.2115C64.4393 67.2209 63.7523 67.9099 63.769 68.8261Z" fill="#E9D0FD"/>
<path d="M126.232 68.8118C126.24 69.6323 127.025 70.3901 127.868 70.3901C128.802 70.3901 129.5 69.7074 129.509 68.7862C129.516 67.8844 128.806 67.2054 127.857 67.2116C126.911 67.2166 126.222 67.8956 126.232 68.8118Z" fill="#E9D0FD"/>
<path d="M51.2598 61.2228C51.2778 60.4406 50.6551 59.8191 49.8466 59.811C49.0116 59.8047 48.3928 60.4118 48.3909 61.2404C48.3896 62.0283 48.9608 62.6103 49.7546 62.6309C50.5535 62.6503 51.2418 62.0057 51.2598 61.2228Z" fill="#E9D0FD"/>
<path d="M82.4895 61.1718C82.4779 60.3895 81.834 59.7937 81.0223 59.8113C80.1925 59.8319 79.5994 60.4583 79.6226 61.2919C79.6457 62.0736 80.2465 62.6424 81.039 62.6312C81.8405 62.6199 82.5011 61.9547 82.4895 61.1718Z" fill="#E9D0FD"/>
<path d="M142.086 61.2264C142.078 62.0368 142.677 62.6345 143.49 62.6313C144.291 62.6282 144.958 61.9661 144.955 61.1832C144.95 60.4235 144.342 59.8258 143.555 59.8114C142.721 59.797 142.095 60.3997 142.086 61.2264Z" fill="#E9D0FD"/>
<path d="M134.249 61.2536C134.255 62.0609 134.87 62.6511 135.683 62.6298C136.462 62.611 137.108 61.9715 137.118 61.2092C137.128 60.4288 136.5 59.8136 135.69 59.8118C134.856 59.8118 134.245 60.4238 134.249 61.2536Z" fill="#E9D0FD"/>
<path d="M110.854 61.2664C110.864 62.0512 111.452 62.6263 112.244 62.6313C113.044 62.6357 113.718 61.9805 113.721 61.1976C113.724 60.4153 113.091 59.807 112.282 59.8114C111.447 59.8177 110.843 60.4328 110.854 61.2664Z" fill="#E9D0FD"/>
<path d="M90.327 61.1926C90.327 60.4109 89.6908 59.8033 88.881 59.8114C88.0673 59.8195 87.4716 60.4109 87.4581 61.2183C87.4465 62.0287 88.0396 62.6295 88.8546 62.6313C89.6535 62.6326 90.3251 61.9761 90.327 61.1926Z" fill="#E9D0FD"/>
<path d="M56.2271 61.2233C56.2168 62.0337 56.8131 62.6326 57.6268 62.6313C58.427 62.6295 59.0972 61.9711 59.094 61.1876C59.0921 60.4078 58.4533 59.802 57.6448 59.8114C56.833 59.8227 56.2367 60.4172 56.2271 61.2233Z" fill="#E9D0FD"/>
<path d="M105.887 61.1832C105.882 60.4222 105.273 59.8258 104.487 59.8114C103.652 59.797 103.026 60.4009 103.018 61.2276C103.012 62.0368 103.611 62.6357 104.424 62.6313C105.225 62.6282 105.891 61.9661 105.887 61.1832Z" fill="#E9D0FD"/>
<path d="M98.1147 61.1831C98.0896 60.4346 97.4148 59.81 96.6307 59.8132C95.8305 59.8144 95.2098 60.4346 95.2194 61.2194C95.2278 61.9804 95.8813 62.6231 96.6538 62.6294C97.4309 62.6356 98.1391 61.9341 98.1147 61.1831Z" fill="#E9D0FD"/>
<path d="M63.9884 61.2213C63.9981 61.9823 64.6535 62.6231 65.4254 62.6294C66.1812 62.6344 66.8747 61.971 66.8862 61.2338C66.8959 60.4715 66.2044 59.8082 65.3991 59.8132C64.5989 59.8163 63.9781 60.4365 63.9884 61.2213Z" fill="#E9D0FD"/>
<path d="M118.615 61.1991C118.614 61.9619 119.254 62.609 120.031 62.6284C120.782 62.6491 121.486 61.997 121.513 61.2566C121.538 60.4975 120.855 59.8216 120.05 59.8135C119.25 59.8035 118.617 60.4143 118.615 61.1991Z" fill="#E9D0FD"/>
<path d="M73.2589 62.6294C74.0359 62.6356 74.7441 61.9359 74.719 61.1831C74.6965 60.4346 74.0211 59.81 73.237 59.8132C72.4368 59.8144 71.8148 60.4327 71.8244 61.2194C71.8328 61.9791 72.4863 62.6212 73.2589 62.6294Z" fill="#E9D0FD"/>
<path d="M149.849 61.2159C149.856 61.9769 150.506 62.6209 151.278 62.6303C152.055 62.6403 152.765 61.9412 152.743 61.1884C152.723 60.4405 152.049 59.8141 151.267 59.8141C150.465 59.8122 149.84 60.4305 149.849 61.2159Z" fill="#E9D0FD"/>
<path d="M43.49 61.2338C43.5016 60.4715 42.8082 59.8101 42.0048 59.8132C41.2026 59.8163 40.5819 60.4365 40.5935 61.2213C40.6031 61.9823 41.2586 62.6231 42.0292 62.6294C42.785 62.6344 43.4784 61.971 43.49 61.2338Z" fill="#E9D0FD"/>
<path d="M127.86 62.6283C128.614 62.6509 129.317 62.0019 129.347 61.2597C129.375 60.5006 128.693 59.8228 127.888 59.8134C127.086 59.8021 126.454 60.4111 126.45 61.1958C126.449 61.96 127.085 62.6058 127.86 62.6283Z" fill="#E9D0FD"/>
<path d="M136.899 53.5506C136.887 52.881 136.356 52.3953 135.639 52.4003C134.929 52.4035 134.391 52.9429 134.404 53.6388C134.418 54.2553 135.037 54.8273 135.675 54.8147C136.377 54.8003 136.911 54.249 136.899 53.5506Z" fill="#E9D0FD"/>
<path d="M142.241 53.6319C142.251 54.249 142.869 54.8273 143.505 54.8147C144.207 54.8016 144.744 54.2521 144.734 53.555C144.726 52.8853 144.196 52.3972 143.481 52.3985C142.77 52.4003 142.23 52.9385 142.241 53.6319Z" fill="#E9D0FD"/>
<path d="M111.007 53.6237C111.011 54.2395 111.626 54.8221 112.263 54.8159C112.965 54.8077 113.507 54.2614 113.501 53.5649C113.496 52.8934 112.971 52.4015 112.257 52.4002C111.544 52.3971 111.002 52.9272 111.007 53.6237Z" fill="#E9D0FD"/>
<path d="M90.1062 53.5743C90.1075 52.9015 89.5859 52.4065 88.8725 52.4003C88.1566 52.3934 87.613 52.9178 87.613 53.6143C87.6111 54.2283 88.2203 54.8159 88.8596 54.8159C89.5576 54.8159 90.1062 54.2696 90.1062 53.5743Z" fill="#E9D0FD"/>
<path d="M51.0392 53.5805C51.0437 52.9078 50.5272 52.4096 49.8125 52.4003C49.096 52.3902 48.5511 52.9078 48.546 53.6062C48.5408 54.2214 49.1455 54.8128 49.7842 54.8159C50.4828 54.819 51.0341 54.2777 51.0392 53.5805Z" fill="#E9D0FD"/>
<path d="M56.3809 53.6134C56.3809 54.2285 56.9868 54.8149 57.6256 54.8149C58.3254 54.8162 58.8741 54.2717 58.8754 53.5764C58.8773 52.9031 58.3569 52.4068 57.6423 52.4005C56.9257 52.3924 56.3841 52.9143 56.3809 53.6134Z" fill="#E9D0FD"/>
<path d="M103.173 53.6256C103.178 54.2407 103.792 54.8221 104.431 54.8159C105.131 54.8077 105.673 54.2601 105.666 53.5617C105.661 52.8921 105.134 52.4002 104.421 52.3983C103.708 52.3983 103.167 52.9303 103.173 53.6256Z" fill="#E9D0FD"/>
<path d="M82.2719 53.538C82.2533 52.8703 81.7168 52.3909 80.999 52.4009C80.2927 52.4084 79.7575 52.9585 79.7787 53.65C79.7987 54.269 80.4239 54.8372 81.0613 54.8153C81.7644 54.7909 82.2899 54.2364 82.2719 53.538Z" fill="#E9D0FD"/>
<path d="M152.544 53.6052C152.546 52.9355 151.976 52.4036 151.264 52.4048C150.579 52.4067 150.072 52.9111 150.063 53.602C150.055 54.3036 150.587 54.8224 151.306 54.8149C151.93 54.808 152.543 54.2091 152.544 53.6052Z" fill="#E9D0FD"/>
<path d="M43.2894 53.5798C43.2733 52.9071 42.7002 52.3895 41.9855 52.4052C41.3024 52.4196 40.8065 52.9359 40.8084 53.628C40.8116 54.3052 41.3217 54.8039 42.0248 54.8133C42.6706 54.8246 43.3061 54.2063 43.2894 53.5798Z" fill="#E9D0FD"/>
<path d="M121.313 53.5953C121.308 52.9244 120.74 52.3987 120.025 52.405C119.34 52.41 118.836 52.9194 118.832 53.6097C118.828 54.2924 119.326 54.7925 120.031 54.8131C120.679 54.8306 121.318 54.2248 121.313 53.5953Z" fill="#E9D0FD"/>
<path d="M97.9177 53.6277C97.9338 52.9625 97.3709 52.413 96.6608 52.4049C95.9712 52.3974 95.4541 52.8924 95.4361 53.5795C95.4161 54.2842 95.9314 54.8068 96.6563 54.8149C97.2783 54.8211 97.901 54.236 97.9177 53.6277Z" fill="#E9D0FD"/>
<path d="M72.0407 53.6453C72.0523 54.3199 72.5746 54.8149 73.2745 54.8149C73.8984 54.8131 74.5159 54.2204 74.5224 53.6146C74.5294 52.9256 73.9312 52.3793 73.1986 52.4049C72.5187 52.4274 72.0292 52.9513 72.0407 53.6453Z" fill="#E9D0FD"/>
<path d="M64.2034 53.6033C64.197 54.3048 64.7302 54.8224 65.45 54.8149C66.074 54.8067 66.6863 54.2059 66.6863 53.602C66.685 52.9337 66.1171 52.4017 65.4037 52.4048C64.7174 52.4067 64.2118 52.9143 64.2034 53.6033Z" fill="#E9D0FD"/>
<path d="M129.147 53.5633C129.12 52.8906 128.54 52.3811 127.826 52.4049C127.148 52.4262 126.657 52.95 126.667 53.6434C126.677 54.3162 127.199 54.8131 127.898 54.8149C128.546 54.8149 129.173 54.1885 129.147 53.5633Z" fill="#E9D0FD"/>
<path d="M50.8203 46.0391C50.8138 45.4414 50.379 45.0027 49.8027 45.0121C49.2032 45.0215 48.7722 45.4477 48.7735 46.0328C48.7735 46.598 49.2328 47.0179 49.8393 47.0066C50.4665 46.9941 50.8274 46.638 50.8203 46.0391Z" fill="#E9D0FD"/>
<path d="M113.283 46.0614C113.289 45.4618 112.865 45.015 112.289 45.0119C111.689 45.0087 111.248 45.4249 111.235 46.0082C111.222 46.5739 111.676 47.0082 112.275 47.0063C112.908 47.0051 113.278 46.6571 113.283 46.0614Z" fill="#E9D0FD"/>
<path d="M105.447 46.0481C105.446 45.4505 105.013 45.0067 104.439 45.0118C103.839 45.0168 103.406 45.4379 103.401 46.0224C103.395 46.5882 103.852 47.0144 104.456 47.0062C105.085 46.9981 105.449 46.6458 105.447 46.0481Z" fill="#E9D0FD"/>
<path d="M82.0531 46.0726C82.0634 45.4718 81.6434 45.02 81.0703 45.0118C80.4688 45.0025 80.0243 45.4136 80.005 45.9969C79.9864 46.5626 80.436 47.0051 81.0342 47.0063C81.6678 47.0095 82.0416 46.6665 82.0531 46.0726Z" fill="#E9D0FD"/>
<path d="M58.6563 46.0676C58.6628 45.4687 58.2414 45.0181 57.6664 45.0119C57.0669 45.0056 56.6243 45.4205 56.6076 46.0038C56.5928 46.5689 57.0444 47.0063 57.6432 47.0063C58.2755 47.0082 58.648 46.6621 58.6563 46.0676Z" fill="#E9D0FD"/>
<path d="M87.8406 46.0402C87.8457 46.6059 88.3082 47.0209 88.9142 47.0065C89.5381 46.9908 89.897 46.6316 89.8874 46.0296C89.8777 45.4332 89.4378 44.9976 88.8601 45.012C88.2606 45.0264 87.8354 45.4557 87.8406 46.0402Z" fill="#E9D0FD"/>
<path d="M136.679 46.0582C136.684 45.4587 136.258 45.0119 135.683 45.0119C135.082 45.01 134.644 45.4268 134.634 46.0113C134.623 46.5801 135.074 47.0095 135.676 47.0063C136.308 47.0032 136.676 46.6552 136.679 46.0582Z" fill="#E9D0FD"/>
<path d="M142.467 46.0279C142.463 46.5936 142.921 47.0161 143.525 47.0067C144.154 46.9973 144.518 46.6431 144.513 46.0442C144.51 45.4465 144.075 45.0041 143.501 45.0122C142.899 45.0203 142.468 45.4434 142.467 46.0279Z" fill="#E9D0FD"/>
<path d="M96.6295 45.0121C96.0763 45.0202 95.653 45.4639 95.6562 46.0296C95.6607 46.6461 96.0235 47.0053 96.641 47.0034C97.2386 47.0015 97.6927 46.601 97.7043 46.0678C97.7191 45.4896 97.2238 45.0039 96.6295 45.0121Z" fill="#E9D0FD"/>
<path d="M127.884 47.0033C128.478 46.9952 128.931 46.5903 128.937 46.0584C128.944 45.4782 128.445 44.9976 127.851 45.012C127.298 45.0264 126.879 45.472 126.887 46.0402C126.897 46.6554 127.264 47.0096 127.884 47.0033Z" fill="#E9D0FD"/>
<path d="M119.053 46.0215C119.053 46.6398 119.412 47.0003 120.029 47.0034C120.626 47.0053 121.084 46.6091 121.102 46.0772C121.121 45.4977 120.633 45.0102 120.035 45.0121C119.48 45.0152 119.052 45.4539 119.053 46.0215Z" fill="#E9D0FD"/>
<path d="M151.244 47.0033C151.864 47.0114 152.339 46.5915 152.332 46.037C152.327 45.4763 151.856 45.0182 151.279 45.012C150.723 45.0069 150.288 45.4394 150.283 46.007C150.276 46.6253 150.632 46.9939 151.244 47.0033Z" fill="#E9D0FD"/>
<path d="M43.079 46.0278C43.0687 45.467 42.5933 45.0121 42.017 45.0121C41.4619 45.0121 41.0322 45.4507 41.0302 46.0165C41.029 46.6348 41.3879 46.9984 42.0022 47.0034C42.621 47.0065 43.0905 46.5835 43.079 46.0278Z" fill="#E9D0FD"/>
<path d="M66.4741 46.0546C66.4805 45.4751 65.9801 44.9976 65.3857 45.012C64.8325 45.0283 64.4157 45.4732 64.4254 46.0421C64.4357 46.6573 64.8029 47.0096 65.4237 47.0033C66.018 46.9952 66.4689 46.5903 66.4741 46.0546Z" fill="#E9D0FD"/>
<path d="M74.3109 46.0584C74.3173 45.4782 73.8182 44.9976 73.2238 45.012C72.6706 45.0264 72.2525 45.472 72.2602 46.0402C72.2705 46.6554 72.6359 47.0096 73.2566 47.0033C73.851 46.9952 74.3038 46.5903 74.3109 46.0584Z" fill="#E9D0FD"/>
<path d="M95.8016 38.4348C95.7721 38.8772 96.136 39.2452 96.6132 39.2565C97.0858 39.2696 97.4678 38.9298 97.4826 38.483C97.4954 38.0774 97.0858 37.6481 96.6659 37.6287C96.2563 37.6112 95.828 38.0086 95.8016 38.4348Z" fill="#E9D0FD"/>
<path d="M119.195 38.4811C119.194 38.9217 119.581 39.2696 120.056 39.2565C120.529 39.244 120.891 38.8816 120.879 38.4367C120.866 38.0261 120.432 37.6181 120.015 37.6287C119.602 37.64 119.195 38.0618 119.195 38.4811Z" fill="#E9D0FD"/>
<path d="M64.5667 38.489C64.5699 38.9284 64.9596 39.2726 65.4355 39.2563C65.9081 39.2406 66.2669 38.8752 66.2509 38.4283C66.2342 38.0184 65.793 37.6141 65.3795 37.6285C64.9648 37.6448 64.5616 38.0691 64.5667 38.489Z" fill="#E9D0FD"/>
<path d="M150.427 38.4608C150.415 38.9032 150.789 39.2587 151.267 39.2568C151.741 39.2556 152.11 38.9045 152.11 38.4577C152.11 38.049 151.685 37.631 151.267 37.6291C150.854 37.6278 150.44 38.0377 150.427 38.4608Z" fill="#E9D0FD"/>
<path d="M127.852 39.2566C128.324 39.2666 128.702 38.9218 128.714 38.475C128.724 38.0694 128.309 37.6433 127.891 37.6289C127.477 37.6164 127.054 38.0169 127.03 38.4412C127.007 38.8836 127.372 39.2472 127.852 39.2566Z" fill="#E9D0FD"/>
<path d="M41.1708 38.4658C41.1611 38.9076 41.5399 39.2618 42.017 39.2568C42.4909 39.2537 42.8568 38.9013 42.8536 38.4514C42.8517 38.0427 42.4254 37.6278 42.0074 37.629C41.5939 37.6309 41.1811 38.0427 41.1708 38.4658Z" fill="#E9D0FD"/>
<path d="M72.4041 38.5018C72.4157 38.9424 72.8105 39.2785 73.2851 39.2547C73.7571 39.2321 74.1114 38.8604 74.0863 38.4148C74.0638 38.0049 73.6143 37.6063 73.2028 37.6282C72.7893 37.6526 72.3925 38.085 72.4041 38.5018Z" fill="#E9D0FD"/>
<path d="M50.6579 38.4607C50.663 38.0333 50.2624 37.6453 49.8065 37.6371C49.339 37.629 48.9866 37.9851 48.9885 38.4638C48.9905 38.9075 49.3377 39.2568 49.7801 39.2636C50.218 39.268 50.6515 38.8725 50.6579 38.4607Z" fill="#E9D0FD"/>
<path d="M89.7239 38.4508C89.722 38.0227 89.3188 37.6397 88.8629 37.6366C88.3966 37.6335 88.0481 37.9939 88.0545 38.4733C88.061 38.9151 88.4114 39.2612 88.8545 39.2612C89.2937 39.2631 89.7239 38.8626 89.7239 38.4508Z" fill="#E9D0FD"/>
<path d="M81.8855 38.4248C81.8668 37.9923 81.454 37.625 80.9994 37.6362C80.5338 37.6494 80.1981 38.0211 80.2194 38.4986C80.2393 38.9404 80.5994 39.274 81.0476 39.2609C81.4887 39.2483 81.9035 38.8347 81.8855 38.4248Z" fill="#E9D0FD"/>
<path d="M113.118 38.4247C113.1 37.9923 112.687 37.6249 112.232 37.6362C111.767 37.6493 111.431 38.021 111.45 38.4998C111.47 38.9404 111.833 39.2752 112.278 39.2608C112.722 39.2483 113.134 38.8346 113.118 38.4247Z" fill="#E9D0FD"/>
<path d="M136.514 38.4526C136.514 38.0233 136.111 37.6403 135.655 37.6372C135.187 37.634 134.838 37.9945 134.844 38.472C134.851 38.9145 135.203 39.2618 135.644 39.2637C136.083 39.2649 136.514 38.8631 136.514 38.4526Z" fill="#E9D0FD"/>
<path d="M105.283 38.4545C105.286 38.0283 104.882 37.6422 104.427 37.6372C103.96 37.6328 103.611 37.9914 103.616 38.4701C103.621 38.9126 103.971 39.2605 104.414 39.2637C104.852 39.2649 105.281 38.8663 105.283 38.4545Z" fill="#E9D0FD"/>
<path d="M58.4921 38.4773C58.5101 38.0511 58.1166 37.6556 57.6587 37.6381C57.1899 37.6187 56.8311 37.9667 56.8247 38.4454C56.8176 38.8922 57.1539 39.2446 57.5983 39.2608C58.031 39.2752 58.4773 38.886 58.4921 38.4773Z" fill="#E9D0FD"/>
<path d="M142.682 38.4858C142.696 38.9295 143.053 39.2674 143.497 39.2611C143.937 39.2561 144.36 38.8481 144.35 38.4376C144.34 38.007 143.931 37.6321 143.477 37.6365C143.012 37.6415 142.668 38.0083 142.682 38.4858Z" fill="#E9D0FD"/>
<path d="M111.593 30.8077C111.588 31.1506 111.904 31.4804 112.242 31.4867C112.583 31.4948 112.919 31.1744 112.92 30.8414C112.92 30.4854 112.617 30.2037 112.242 30.2087C111.881 30.2131 111.598 30.4741 111.593 30.8077Z" fill="#E9D0FD"/>
<path d="M49.132 30.7822C49.1127 31.1202 49.4137 31.4631 49.7526 31.4857C50.0921 31.5082 50.4413 31.2003 50.4573 30.8655C50.4753 30.5113 50.184 30.2184 49.8072 30.209C49.4465 30.2008 49.152 30.4506 49.132 30.7822Z" fill="#E9D0FD"/>
<path d="M135.672 30.2086C135.312 30.1974 135.013 30.4452 134.989 30.7737C134.967 31.1117 135.265 31.4578 135.603 31.4853C135.943 31.5109 136.293 31.2099 136.315 30.8732C136.336 30.5209 136.047 30.223 135.672 30.2086Z" fill="#E9D0FD"/>
<path d="M144.152 30.824C144.142 30.4698 143.834 30.1957 143.457 30.2101C143.097 30.2233 142.823 30.4892 142.826 30.824C142.83 31.1682 143.154 31.4905 143.489 31.4868C143.834 31.4837 144.158 31.157 144.152 30.824Z" fill="#E9D0FD"/>
<path d="M88.1994 30.8058C88.193 31.1488 88.5075 31.4792 88.8451 31.4867C89.1891 31.4936 89.5228 31.1763 89.5248 30.8415C89.526 30.4873 89.2251 30.2038 88.8483 30.2088C88.4875 30.2132 88.2046 30.4729 88.1994 30.8058Z" fill="#E9D0FD"/>
<path d="M80.3644 30.779C80.3425 31.1188 80.6441 31.4611 80.983 31.4855C81.3226 31.5093 81.6711 31.2051 81.6891 30.8685C81.7077 30.5161 81.4158 30.2182 81.0409 30.2088C80.6821 30.1988 80.3856 30.4492 80.3644 30.779Z" fill="#E9D0FD"/>
<path d="M57.5797 31.4851C57.9186 31.512 58.271 31.2129 58.2922 30.8743C58.3154 30.5207 58.0286 30.2229 57.6517 30.2097C57.2929 30.1953 56.9933 30.4419 56.9688 30.7723C56.9425 31.1084 57.2421 31.4563 57.5797 31.4851Z" fill="#E9D0FD"/>
<path d="M105.086 30.8284C105.079 30.473 104.773 30.1976 104.396 30.2089C104.036 30.2195 103.759 30.4855 103.761 30.8191C103.762 31.162 104.083 31.4887 104.419 31.4868C104.761 31.4868 105.091 31.162 105.086 30.8284Z" fill="#E9D0FD"/>
<path d="M151.944 30.8858C151.969 30.551 151.669 30.2275 151.312 30.2037C150.963 30.1812 150.674 30.4246 150.641 30.7707C150.606 31.1474 150.858 31.4503 151.225 31.4753C151.592 31.501 151.918 31.2338 151.944 30.8858Z" fill="#E9D0FD"/>
<path d="M66.0882 30.8407C66.0843 30.504 65.7602 30.2011 65.4065 30.203C65.0542 30.2043 64.7892 30.464 64.7809 30.8163C64.7712 31.1962 65.0407 31.4766 65.4143 31.4766C65.7834 31.4766 66.0914 31.1868 66.0882 30.8407Z" fill="#E9D0FD"/>
<path d="M72.6164 30.8015C72.5984 31.1795 72.862 31.4692 73.2324 31.4774C73.6028 31.4855 73.9153 31.2033 73.9237 30.8559C73.9301 30.5211 73.6144 30.2101 73.2569 30.2038C72.9064 30.1976 72.6331 30.4523 72.6164 30.8015Z" fill="#E9D0FD"/>
<path d="M127.244 30.8015C127.224 31.1795 127.489 31.4692 127.86 31.4774C128.229 31.4855 128.545 31.2033 128.551 30.8559C128.557 30.5211 128.242 30.212 127.884 30.2038C127.534 30.1976 127.262 30.4504 127.244 30.8015Z" fill="#E9D0FD"/>
<path d="M119.406 30.8458C119.412 31.2244 119.696 31.4916 120.071 31.4754C120.44 31.4597 120.734 31.155 120.713 30.8108C120.693 30.4741 120.355 30.1862 120.002 30.2037C119.654 30.2212 119.401 30.4953 119.406 30.8458Z" fill="#E9D0FD"/>
<path d="M41.3834 30.8244C41.3796 31.2043 41.6529 31.4815 42.0252 31.4765C42.3956 31.4715 42.6985 31.1767 42.6901 30.8307C42.6817 30.4946 42.3544 30.1967 42.0007 30.203C41.6484 30.2092 41.3866 30.4733 41.3834 30.8244Z" fill="#E9D0FD"/>
<path d="M96.0106 30.8267C96.0054 31.206 96.2806 31.4832 96.6543 31.4769C97.0246 31.4707 97.3262 31.1759 97.3179 30.8299C97.3095 30.495 96.9803 30.1972 96.6266 30.2034C96.2774 30.2097 96.0138 30.4756 96.0106 30.8267Z" fill="#E9D0FD"/>
<path d="M50.2956 23.2539C50.2763 23.0067 50.0294 22.7989 49.7722 22.8114C49.5201 22.8227 49.3375 23.0211 49.3477 23.2714C49.3574 23.5324 49.5844 23.7552 49.8345 23.7489C50.093 23.7408 50.3175 23.5017 50.2956 23.2539Z" fill="#E9D0FD"/>
<path d="M65.888 23.2265C65.8616 22.9943 65.6456 22.8147 65.3974 22.8178C65.1254 22.8228 64.9086 23.0406 64.9215 23.2972C64.935 23.5469 65.18 23.7534 65.4398 23.7347C65.7054 23.7153 65.9157 23.4762 65.888 23.2265Z" fill="#E9D0FD"/>
<path d="M111.808 23.2488C111.808 23.5085 112.026 23.7407 112.276 23.7469C112.534 23.7532 112.768 23.5242 112.76 23.2745C112.752 23.026 112.516 22.8082 112.256 22.8095C112.004 22.8095 111.81 23.0022 111.808 23.2488Z" fill="#E9D0FD"/>
<path d="M119.549 23.2395C119.529 23.4892 119.747 23.7232 120.01 23.7358C120.272 23.7489 120.512 23.5342 120.517 23.2839C120.524 23.0292 120.3 22.8164 120.028 22.8177C119.78 22.8208 119.569 23.0054 119.549 23.2395Z" fill="#E9D0FD"/>
<path d="M96.1543 23.2683C96.1492 23.5199 96.38 23.7389 96.643 23.7358C96.8855 23.7327 97.1022 23.5387 97.1208 23.3096C97.142 23.0549 96.9298 22.8309 96.6578 22.8177C96.3878 22.8065 96.1595 23.0099 96.1543 23.2683Z" fill="#E9D0FD"/>
<path d="M104.927 23.2757C104.918 23.0279 104.683 22.8095 104.424 22.8095C104.171 22.8095 103.977 23.0004 103.976 23.2469C103.974 23.5035 104.194 23.7407 104.441 23.7488C104.696 23.7564 104.933 23.5242 104.927 23.2757Z" fill="#E9D0FD"/>
<path d="M127.836 23.7353C128.094 23.7528 128.341 23.5432 128.352 23.2935C128.364 23.04 128.145 22.8222 127.873 22.8191C127.624 22.816 127.411 22.995 127.386 23.2309C127.36 23.4793 127.57 23.7159 127.836 23.7353Z" fill="#E9D0FD"/>
<path d="M88.4135 23.2664C88.4232 23.5261 88.6489 23.7502 88.8978 23.747C89.1556 23.7439 89.3833 23.5048 89.3633 23.257C89.3453 23.0098 89.0997 22.8002 88.8431 22.8096C88.5897 22.8208 88.4052 23.0167 88.4135 23.2664Z" fill="#E9D0FD"/>
<path d="M135.204 23.2501C135.204 23.5086 135.425 23.7439 135.672 23.7489C135.929 23.7552 136.162 23.5242 136.154 23.2727C136.146 23.0242 135.91 22.8083 135.651 22.8095C135.399 22.8114 135.204 23.0023 135.204 23.2501Z" fill="#E9D0FD"/>
<path d="M80.5772 23.2501C80.5772 23.5086 80.7978 23.7439 81.0447 23.7489C81.3019 23.7552 81.5354 23.5242 81.5276 23.2727C81.5193 23.0242 81.2839 22.8083 81.0235 22.8095C80.7714 22.8114 80.5772 23.0023 80.5772 23.2501Z" fill="#E9D0FD"/>
<path d="M143.041 23.2683C143.05 23.5274 143.277 23.7533 143.524 23.749C143.783 23.744 144.01 23.5049 143.992 23.2571C143.972 23.0086 143.729 22.8002 143.47 22.8115C143.217 22.8228 143.032 23.018 143.041 23.2683Z" fill="#E9D0FD"/>
<path d="M58.1329 23.2824C58.1297 23.0339 57.8989 22.8143 57.6391 22.8093C57.3851 22.8061 57.1864 22.9939 57.1812 23.2405C57.1761 23.4952 57.3953 23.7386 57.6403 23.7486C57.8956 23.7599 58.1361 23.5321 58.1329 23.2824Z" fill="#E9D0FD"/>
<path d="M150.779 23.2756C150.781 23.526 151.018 23.7438 151.279 23.7356C151.522 23.7275 151.734 23.5291 151.747 23.3001C151.762 23.0453 151.546 22.8238 151.274 22.8175C151.005 22.8113 150.778 23.0209 150.779 23.2756Z" fill="#E9D0FD"/>
<path d="M73.7257 23.2613C73.7193 23.0278 73.5148 22.8319 73.2679 22.8176C72.9978 22.805 72.7644 23.0084 72.756 23.2631C72.7496 23.5128 72.9766 23.7344 73.2415 23.7344C73.5065 23.7344 73.7341 23.5116 73.7257 23.2613Z" fill="#E9D0FD"/>
<path d="M42.4945 23.2726C42.4926 23.0166 42.2624 22.8082 41.9923 22.8195C41.7222 22.8289 41.5068 23.0517 41.5248 23.3045C41.5428 23.5548 41.7929 23.7582 42.0527 23.7344C42.2932 23.7119 42.4945 23.5016 42.4945 23.2726Z" fill="#E9D0FD"/>
<path d="M73.2359 15.8613C73.3317 15.8225 73.4172 15.7167 73.4583 15.621C73.4718 15.589 73.3169 15.4363 73.2545 15.4464C73.1574 15.4589 73.0751 15.5634 72.9381 15.6654C73.0796 15.7636 73.187 15.88 73.2359 15.8613Z" fill="#E9D0FD"/>
<path d="M65.6246 15.639C65.6413 15.6052 65.4998 15.4419 65.4387 15.4469C65.3397 15.4531 65.249 15.5508 65.1043 15.6402C65.2381 15.7498 65.3352 15.8762 65.3841 15.8599C65.4831 15.8299 65.5783 15.7316 65.6246 15.639Z" fill="#E9D0FD"/>
<path d="M42.0604 15.4479C41.9601 15.4691 41.8527 15.5599 41.8064 15.65C41.7871 15.6869 41.9151 15.8584 41.9762 15.8584C42.0733 15.8584 42.1723 15.7652 42.3221 15.6838C42.1987 15.568 42.1131 15.4366 42.0604 15.4479Z" fill="#E9D0FD"/>
<path d="M150.962 15.6654C151.104 15.7636 151.211 15.88 151.261 15.8613C151.356 15.8225 151.442 15.7167 151.483 15.621C151.494 15.589 151.341 15.4363 151.279 15.4464C151.182 15.4589 151.099 15.5634 150.962 15.6654Z" fill="#E9D0FD"/>
<path d="M120.031 15.874C120.109 15.7939 120.221 15.7238 120.252 15.6275C120.268 15.5761 120.144 15.4816 120.035 15.3471C119.94 15.4898 119.838 15.578 119.831 15.6725C119.826 15.7345 119.959 15.8071 120.031 15.874Z" fill="#E9D0FD"/>
<path d="M127.668 15.6932C127.671 15.7557 127.81 15.8133 127.887 15.874C127.958 15.7858 128.063 15.7057 128.084 15.6081C128.096 15.5555 127.961 15.4735 127.839 15.3502C127.759 15.4992 127.666 15.5968 127.668 15.6932Z" fill="#E9D0FD"/>
<path d="M96.9494 15.6771C96.8227 15.5638 96.734 15.4355 96.6832 15.4481C96.5841 15.4725 96.4787 15.5638 96.433 15.6546C96.4163 15.6915 96.5481 15.8617 96.6086 15.8598C96.7057 15.8567 96.8015 15.7622 96.9494 15.6771Z" fill="#E9D0FD"/>
<path d="M112.248 15.8618C112.33 15.7861 112.443 15.7241 112.482 15.6309C112.498 15.5908 112.368 15.4901 112.273 15.3824C112.181 15.4932 112.071 15.5683 112.072 15.6403C112.074 15.716 112.186 15.788 112.248 15.8618Z" fill="#E9D0FD"/>
<path d="M50.0179 15.6361C50.0359 15.5942 49.9073 15.4934 49.8154 15.3814C49.7196 15.4915 49.6077 15.5654 49.6077 15.6374C49.6077 15.7131 49.7183 15.7882 49.7806 15.8633C49.8649 15.7901 49.9768 15.7275 50.0179 15.6361Z" fill="#E9D0FD"/>
<path d="M135.469 15.6328C135.467 15.7079 135.574 15.7848 135.635 15.8618C135.719 15.7898 135.834 15.7304 135.877 15.6403C135.896 15.599 135.77 15.4945 135.679 15.3812C135.584 15.4882 135.469 15.5589 135.469 15.6328Z" fill="#E9D0FD"/>
<path d="M57.6854 15.384C57.5786 15.4817 57.4584 15.5424 57.4487 15.6162C57.4404 15.6901 57.5394 15.7764 57.5915 15.8584C57.6841 15.7939 57.8044 15.7458 57.8552 15.6594C57.8783 15.6212 57.7645 15.5054 57.6854 15.384Z" fill="#E9D0FD"/>
<path d="M80.8387 15.6403C80.8425 15.716 80.9525 15.788 81.0168 15.8618C81.0991 15.7861 81.211 15.7241 81.2502 15.6309C81.267 15.5908 81.1371 15.4901 81.0412 15.3824C80.9493 15.4932 80.8387 15.5683 80.8387 15.6403Z" fill="#E9D0FD"/>
<path d="M104.64 15.6843C104.614 15.591 104.502 15.5222 104.426 15.444C104.359 15.5128 104.243 15.5785 104.235 15.6549C104.229 15.7275 104.332 15.8107 104.416 15.9277C104.518 15.8201 104.654 15.7319 104.64 15.6843Z" fill="#E9D0FD"/>
<path d="M143.492 15.4563C143.444 15.4388 143.342 15.5602 143.225 15.6484C143.337 15.7417 143.413 15.8518 143.487 15.8506C143.568 15.8487 143.645 15.7429 143.726 15.6822C143.65 15.6021 143.586 15.4901 143.492 15.4563Z" fill="#E9D0FD"/>
<path d="M88.8683 15.4563C88.8195 15.4388 88.7172 15.5589 88.5989 15.6472C88.7108 15.7398 88.7847 15.8518 88.8574 15.8506C88.9397 15.8487 89.0182 15.7448 89.0973 15.6841C89.0233 15.604 88.9609 15.4914 88.8683 15.4563Z" fill="#E9D0FD"/>
<path d="M127.934 8.06383C127.904 8.05131 127.87 8.02253 127.847 8.03004C127.825 8.03504 127.814 8.0801 127.8 8.10701C127.829 8.12015 127.863 8.14893 127.886 8.14268C127.907 8.13579 127.918 8.09136 127.934 8.06383Z" fill="#E9D0FD"/>
<path d="M80.9587 8.08125C80.9606 8.10253 81.0029 8.1213 81.028 8.14258C81.0478 8.11692 81.0837 8.09126 81.0818 8.06686C81.0818 8.04433 81.0395 8.02556 81.0145 8.00428C80.9933 8.02994 80.9574 8.05747 80.9587 8.08125Z" fill="#E9D0FD"/>
<path d="M135.589 8.0624C135.587 8.08618 135.624 8.11372 135.642 8.14062C135.666 8.11997 135.709 8.10058 135.712 8.07992C135.714 8.05427 135.678 8.02673 135.66 8.00108C135.635 8.02235 135.591 8.03987 135.589 8.0624Z" fill="#E9D0FD"/>
<path d="M112.269 8.00608C112.243 8.0236 112.196 8.03675 112.191 8.05927C112.186 8.08118 112.221 8.11372 112.237 8.14062C112.264 8.1231 112.309 8.10996 112.314 8.08806C112.32 8.06365 112.285 8.03362 112.269 8.00608Z" fill="#E9D0FD"/>
<path d="M104.355 8.06866C104.355 8.09244 104.395 8.11685 104.418 8.14062C104.438 8.1181 104.48 8.09557 104.48 8.07179C104.48 8.04801 104.44 8.0236 104.419 7.99982C104.396 8.0236 104.355 8.04613 104.355 8.06866Z" fill="#E9D0FD"/>
<path d="M73.2407 8.14404C73.2651 8.14404 73.2894 8.10712 73.3144 8.08647C73.2894 8.06394 73.267 8.04141 73.2439 8.02076C73.2189 8.04141 73.1945 8.06269 73.1702 8.08334C73.1945 8.10587 73.2176 8.14404 73.2407 8.14404Z" fill="#E9D0FD"/>
<path d="M49.7276 8.06991C49.7296 8.09244 49.7674 8.11685 49.7905 8.14062C49.8116 8.1181 49.8527 8.09557 49.8527 8.07179C49.8527 8.04801 49.8136 8.0236 49.7918 7.99982C49.7687 8.0236 49.7276 8.04613 49.7276 8.06991Z" fill="#E9D0FD"/>
<path d="M57.5637 8.06866C57.5637 8.09244 57.6028 8.11685 57.6246 8.14062C57.6477 8.1181 57.6887 8.09557 57.6887 8.07179C57.6887 8.04801 57.649 8.0236 57.6278 7.99982C57.6047 8.0236 57.5637 8.04613 57.5637 8.06866Z" fill="#E9D0FD"/>
<path d="M88.7959 8.08125C88.7959 8.10253 88.8402 8.1213 88.8645 8.14258C88.8844 8.11692 88.9203 8.09126 88.919 8.06686C88.9171 8.04433 88.8748 8.02556 88.8498 8.00428C88.8305 8.02994 88.794 8.05747 88.7959 8.08125Z" fill="#E9D0FD"/>
<path d="M65.476 8.08655C65.4529 8.0659 65.4298 8.0271 65.4054 8.0271C65.3804 8.02585 65.3573 8.06402 65.333 8.08467C65.3561 8.10595 65.3791 8.146 65.4022 8.146C65.4266 8.146 65.451 8.1072 65.476 8.08655Z" fill="#E9D0FD"/>
<path d="M120.102 8.08014C120.076 8.06074 120.05 8.0257 120.025 8.0257C120.002 8.02695 119.982 8.06887 119.962 8.09265C119.987 8.11205 120.016 8.14585 120.04 8.14397C120.061 8.14397 120.081 8.10267 120.102 8.08014Z" fill="#E9D0FD"/>
<path d="M143.42 8.04653C143.432 8.07719 143.445 8.10598 143.459 8.13477C143.487 8.12162 143.534 8.11411 143.541 8.09284C143.549 8.07031 143.519 8.03527 143.506 8.00648C143.479 8.01962 143.449 8.03401 143.42 8.04653Z" fill="#E9D0FD"/>
<path d="M96.6219 8.14312C96.645 8.1475 96.6777 8.11747 96.7053 8.1012C96.6873 8.07429 96.6713 8.04863 96.6533 8.02297C96.6251 8.03737 96.5975 8.05301 96.5674 8.06928C96.586 8.09494 96.6007 8.13999 96.6219 8.14312Z" fill="#E9D0FD"/>
<path d="M151.257 8.14397C151.282 8.14585 151.309 8.11205 151.335 8.09453C151.316 8.07013 151.296 8.04635 151.274 8.02257C151.249 8.04134 151.223 8.05949 151.196 8.07701C151.216 8.10079 151.236 8.14272 151.257 8.14397Z" fill="#E9D0FD"/>
<path d="M42.0203 8.02257C41.994 8.04134 41.9677 8.05949 41.9414 8.07701C41.9613 8.10079 41.9792 8.14272 42.0023 8.14397C42.0267 8.14585 42.0549 8.11205 42.0812 8.09453C42.0613 8.07013 42.0421 8.04635 42.0203 8.02257Z" fill="#E9D0FD"/>
</g>
<path d="M140.333 2V1H139.333H96H95.56L95.2627 1.32443L41.2627 60.2578L41 60.5445V60.9333V84.9333V85.9333H42H104.467V102V103H105.467H139.333H140.333V102V85.9333H153.733H154.733V84.9333V60.2667V59.2667H153.733H140.333V2ZM77.9394 59.2667L104.467 30.0536V59.2667H77.9394Z" stroke="#222222" stroke-width="2"/>
<defs>
<filter id="filter0_d_327_13696" x="42" y="2" width="115.733" height="104" filterUnits="userSpaceOnUse" color-interpolation-filters="sRGB">
<feFlood flood-opacity="0" result="BackgroundImageFix"/>
<feColorMatrix in="SourceAlpha" type="matrix" values="0 0 0 0 0 0 0 0 0 0 0 0 0 0 0 0 0 0 127 0" result="hardAlpha"/>
<feOffset dx="4" dy="4"/>
<feComposite in2="hardAlpha" operator="out"/>
<feColorMatrix type="matrix" values="0 0 0 0 0.133333 0 0 0 0 0.133333 0 0 0 0 0.133333 0 0 0 1 0"/>
<feBlend mode="normal" in2="BackgroundImageFix" result="effect1_dropShadow_327_13696"/>
<feBlend mode="normal" in="SourceGraphic" in2="effect1_dropShadow_327_13696" result="shape"/>
</filter>
</defs>
</svg>
