<svg width="196" height="106" viewBox="0 0 196 106" fill="none" xmlns="http://www.w3.org/2000/svg">
<g filter="url(#filter0_d_327_12912)">
<path d="M46 40.5417C46.6076 32.5556 49.2986 25.6979 54.0729 19.9687C58.8472 14.1528 65.184 9.72569 73.0833 6.68749C81.0694 3.5625 90.0104 2 99.9063 2C109.368 2 117.615 3.43229 124.646 6.29687C131.677 9.07465 137.146 12.9809 141.052 18.0156C144.958 22.9635 146.911 28.7361 146.911 35.3333C146.911 40.4549 145.436 45.2292 142.484 49.6562C139.533 54.0833 135.019 58.3368 128.943 62.4167C122.866 66.4965 115.054 70.533 105.505 74.526L82.4583 84.1615L82.1979 75.9583H149.385V102H48.8646V79.0833L91.0521 56.5573C97.1285 53.3455 101.773 50.6979 104.984 48.6146C108.196 46.5312 110.41 44.6649 111.625 43.0156C112.927 41.2795 113.578 39.4132 113.578 37.4167C113.578 35.2465 112.97 33.4236 111.755 31.9479C110.627 30.4722 108.934 29.3438 106.677 28.5625C104.42 27.6944 101.729 27.2604 98.6042 27.2604C94.2639 27.2604 90.7049 27.8681 87.9271 29.0833C85.2361 30.2986 83.1962 31.9045 81.8073 33.901C80.4184 35.8976 79.5938 38.1111 79.3333 40.5417H46Z" fill="#531384"/>
</g>
<mask id="mask0_327_12912" style="mask-type:alpha" maskUnits="userSpaceOnUse" x="46" y="2" width="104" height="100">
<path d="M46 40.5417C46.6076 32.5556 49.2986 25.6979 54.0729 19.9687C58.8472 14.1528 65.184 9.72569 73.0833 6.68749C81.0694 3.5625 90.0104 2 99.9063 2C109.368 2 117.615 3.43229 124.646 6.29687C131.677 9.07465 137.146 12.9809 141.052 18.0156C144.958 22.9635 146.911 28.7361 146.911 35.3333C146.911 40.4549 145.436 45.2292 142.484 49.6562C139.533 54.0833 135.019 58.3368 128.943 62.4167C122.866 66.4965 115.054 70.533 105.505 74.526L82.4583 84.1615L82.1979 75.9583H149.385V102H48.8646V79.0833L91.0521 56.5573C97.1285 53.3455 101.773 50.6979 104.984 48.6146C108.196 46.5312 110.41 44.6649 111.625 43.0156C112.927 41.2795 113.578 39.4132 113.578 37.4167C113.578 35.2465 112.97 33.4236 111.755 31.9479C110.627 30.4722 108.934 29.3438 106.677 28.5625C104.42 27.6944 101.729 27.2604 98.6042 27.2604C94.2639 27.2604 90.7049 27.8681 87.9271 29.0833C85.2361 30.2986 83.1962 31.9045 81.8073 33.901C80.4184 35.8976 79.5938 38.1111 79.3333 40.5417H46Z" fill="#531384"/>
</mask>
<g mask="url(#mask0_327_12912)">
<path d="M147.173 100.749C147.165 99.3225 145.97 98.1497 144.499 98.1466C142.911 98.1416 141.816 99.4558 141.894 100.71C141.783 102.151 143.108 103.288 144.455 103.302C145.894 103.318 147.183 102.083 147.173 100.749Z" fill="#E9D0FD"/>
<path d="M139.338 100.742C139.322 99.3144 138.127 98.1466 136.657 98.1466C135.077 98.1466 133.978 99.4508 134.057 100.716C133.948 102.146 135.267 103.29 136.624 103.302C138.063 103.317 139.352 102.072 139.338 100.742Z" fill="#E9D0FD"/>
<path d="M84.7114 100.78C84.7211 99.3367 83.5047 98.137 82.0143 98.1464C80.4204 98.1558 79.4439 99.4775 79.4105 100.676C79.3732 102.158 80.6494 103.369 82.0143 103.281C83.4224 103.381 84.7031 102.095 84.7114 100.78Z" fill="#E9D0FD"/>
<path d="M108.106 100.753C108.099 99.3275 106.908 98.1528 105.436 98.1465C103.845 98.1384 102.75 99.4558 102.826 100.705C102.713 102.154 104.043 103.284 105.382 103.302C106.829 103.321 108.113 102.078 108.106 100.753Z" fill="#E9D0FD"/>
<path d="M92.5464 100.771C92.5477 99.3258 91.3274 98.1324 89.839 98.1468C88.2714 98.1612 87.2538 99.4603 87.2435 100.741C87.2338 102.134 88.4605 103.373 89.857 103.282C91.2586 103.377 92.5425 102.091 92.5464 100.771Z" fill="#E9D0FD"/>
<path d="M53.4798 100.75C53.4682 99.3222 52.2756 98.1513 50.8052 98.1462C49.2492 98.14 48.1775 99.4267 48.1775 100.763C48.1775 102.125 49.3875 103.381 50.8135 103.281C52.1971 103.369 53.4894 102.081 53.4798 100.75Z" fill="#E9D0FD"/>
<path d="M115.942 100.77C115.943 99.3245 114.723 98.1324 113.232 98.1468C111.678 98.1612 110.649 99.4522 110.641 100.742C110.632 102.131 111.856 103.373 113.256 103.282C114.655 103.377 115.94 102.091 115.942 100.77Z" fill="#E9D0FD"/>
<path d="M61.3149 100.726C61.2886 99.297 60.0863 98.1373 58.6172 98.1467C57.0496 98.1549 55.9496 99.4559 56.0339 100.733C55.9316 102.138 57.2361 103.296 58.6172 103.302C60.0452 103.31 61.3394 102.062 61.3149 100.726Z" fill="#E9D0FD"/>
<path d="M123.678 100.783C123.786 99.3846 122.438 98.1317 121.071 98.1429C119.607 98.1555 118.408 99.3157 118.399 100.744C118.388 102.166 119.533 103.226 121.033 103.292C122.496 103.356 123.773 102.057 123.678 100.783Z" fill="#E9D0FD"/>
<path d="M76.8846 100.737C76.9753 99.3912 75.6547 98.137 74.2859 98.1433C72.8026 98.1514 71.5856 99.3467 71.6055 100.792C71.6248 102.215 72.773 103.281 74.2891 103.281C75.786 103.283 76.8911 102.2 76.8846 100.737Z" fill="#E9D0FD"/>
<path d="M131.513 100.753C131.609 99.396 130.29 98.1463 128.93 98.1431C127.448 98.14 126.223 99.3303 126.232 100.775C126.243 102.2 127.39 103.236 128.901 103.292C130.297 103.345 131.617 102.089 131.513 100.753Z" fill="#E9D0FD"/>
<path d="M63.7706 100.791C63.7899 102.215 64.9394 103.24 66.453 103.292C67.8198 103.338 69.1584 102.101 69.0497 100.736C69.1404 99.3904 67.8179 98.1362 66.451 98.1425C64.9658 98.1506 63.7507 99.3459 63.7706 100.791Z" fill="#E9D0FD"/>
<path d="M100.281 100.755C100.378 99.396 99.059 98.1463 97.6986 98.1431C96.2165 98.14 94.9918 99.3284 95.0015 100.775C95.0098 102.198 96.1593 103.236 97.6677 103.292C99.0674 103.345 100.385 102.088 100.281 100.755Z" fill="#E9D0FD"/>
<path d="M139.118 93.2354C139.141 91.9261 138.095 90.8303 136.729 90.8128C135.206 90.7934 134.196 91.9424 134.277 93.1277C134.157 94.472 135.365 95.5709 136.64 95.5515C137.974 95.5309 139.097 94.5039 139.118 93.2354Z" fill="#E9D0FD"/>
<path d="M110.881 93.1567C110.769 94.4496 111.947 95.5598 113.218 95.5517C114.578 95.5423 115.717 94.4997 115.722 93.2068C115.729 91.8832 114.664 90.8387 113.359 90.813C111.811 90.7824 110.793 91.9376 110.881 93.1567Z" fill="#E9D0FD"/>
<path d="M107.894 93.1954C107.874 91.9456 106.892 90.7453 105.456 90.8323C103.969 90.8335 103.092 91.7259 103.034 93.1678C102.983 94.4401 104.104 95.5422 105.395 95.5584C106.722 95.5741 107.913 94.3807 107.894 93.1954Z" fill="#E9D0FD"/>
<path d="M61.0959 93.223C61.1126 91.9301 60.0783 90.7529 58.6921 90.833C57.1953 90.828 56.3076 91.711 56.2433 93.1417C56.1841 94.4565 57.3265 95.578 58.6323 95.5523C59.9651 95.5266 61.0811 94.4934 61.0959 93.223Z" fill="#E9D0FD"/>
<path d="M53.2662 93.1854C53.2418 91.9519 52.2731 90.7422 50.8193 90.8323C49.3373 90.8367 48.4625 91.7341 48.4065 93.1779C48.3589 94.4239 49.4608 95.5472 50.7782 95.5585C52.0987 95.5698 53.2907 94.3795 53.2662 93.1854Z" fill="#E9D0FD"/>
<path d="M84.4989 93.208C84.4841 91.9395 83.4858 90.7492 82.0732 90.8324C80.5828 90.8324 79.7003 91.7198 79.6392 93.1555C79.5832 94.4415 80.7063 95.5598 82.0417 95.5586C83.3295 95.5555 84.5105 94.3858 84.4989 93.208Z" fill="#E9D0FD"/>
<path d="M142.115 93.1196C141.991 94.4801 143.209 95.5697 144.47 95.5515C145.803 95.534 146.929 94.5102 146.955 93.2429C146.982 91.918 145.921 90.8322 144.573 90.8128C143.033 90.7903 142.034 91.9518 142.115 93.1196Z" fill="#E9D0FD"/>
<path d="M87.4634 93.1367C87.4402 94.4665 88.5685 95.5767 89.8562 95.5523C91.1897 95.5286 92.3096 94.4985 92.3276 93.2281C92.3456 91.927 91.3048 90.7542 89.9283 90.8331C88.4231 90.7317 87.4846 91.937 87.4634 93.1367Z" fill="#E9D0FD"/>
<path d="M118.613 93.1836C118.621 94.459 119.721 95.5435 121.031 95.5454C122.323 95.5467 123.545 94.5679 123.459 93.1855C123.599 91.9532 122.305 90.7854 121.045 90.808C119.873 90.8286 118.603 91.6973 118.613 93.1836Z" fill="#E9D0FD"/>
<path d="M74.3029 90.8336C73.0318 90.7229 71.8077 91.7373 71.8193 93.1867C71.8309 94.464 72.9327 95.5485 74.2418 95.5454C75.5887 95.5423 76.6494 94.5166 76.6906 93.2349C76.733 91.9006 75.4639 90.7085 74.3029 90.8336Z" fill="#E9D0FD"/>
<path d="M126.446 93.1433C126.437 94.4206 127.52 95.5258 128.824 95.5452C130.186 95.5639 131.281 94.5326 131.318 93.2234C131.356 91.9129 130.104 90.7063 128.92 90.8334C127.677 90.7257 126.458 91.7145 126.446 93.1433Z" fill="#E9D0FD"/>
<path d="M95.2165 93.1691C95.2177 94.4458 96.3132 95.5372 97.6203 95.5454C98.9299 95.5529 100.145 94.5628 100.063 93.1979C100.206 91.9407 98.8984 90.7917 97.6614 90.8079C96.4663 90.8236 95.2145 91.7035 95.2165 93.1691Z" fill="#E9D0FD"/>
<path d="M66.4531 90.8334C65.2162 90.7258 63.9946 91.7146 63.9844 93.1464C63.9766 94.4237 65.0599 95.527 66.3656 95.5452C67.7158 95.5627 68.8196 94.5408 68.8556 93.2222C68.8904 91.918 67.6451 90.7064 66.4531 90.8334Z" fill="#E9D0FD"/>
<path d="M107.671 85.626C107.673 84.3362 106.741 83.4294 105.413 83.4294C104.132 83.4306 103.16 84.3712 103.174 85.5985C103.185 86.8063 104.195 87.7963 105.415 87.8032C106.546 87.8063 107.749 86.8132 107.671 85.626Z" fill="#E9D0FD"/>
<path d="M134.405 85.5862C134.408 86.7922 135.411 87.7872 136.631 87.8016C137.769 87.816 138.941 86.8166 138.911 85.6388C138.88 84.3477 137.985 83.4347 136.659 83.4309C135.375 83.4265 134.401 84.3571 134.405 85.5862Z" fill="#E9D0FD"/>
<path d="M53.0434 85.6388C53.0505 84.3459 52.1249 83.4347 50.7992 83.4309C49.5146 83.4265 48.5414 84.359 48.5465 85.5862C48.5497 86.7941 49.5526 87.7891 50.7747 87.8016C51.9107 87.8148 53.1181 86.8135 53.0434 85.6388Z" fill="#E9D0FD"/>
<path d="M115.516 85.6407C115.484 84.3477 114.588 83.4359 113.264 83.4309C111.98 83.4265 111.007 84.3559 111.009 85.5843C111.012 86.7909 112.015 87.7872 113.235 87.8016C114.373 87.816 115.545 86.8166 115.516 85.6407Z" fill="#E9D0FD"/>
<path d="M142.241 85.5875C142.246 86.7953 143.249 87.7891 144.47 87.8016C145.605 87.8148 146.777 86.8166 146.748 85.6376C146.715 84.3459 145.818 83.4347 144.494 83.4309C143.209 83.4265 142.236 84.359 142.241 85.5875Z" fill="#E9D0FD"/>
<path d="M92.1208 85.6407C92.0893 84.349 91.1932 83.4359 89.8694 83.4309C88.5849 83.4246 87.6084 84.3559 87.6136 85.5831C87.6168 86.794 88.6164 87.7872 89.8379 87.8016C90.9745 87.816 92.1484 86.8178 92.1208 85.6407Z" fill="#E9D0FD"/>
<path d="M81.995 83.4305C80.7381 83.4405 79.7848 84.3586 79.7764 85.5683C79.7687 86.7936 80.8024 87.8112 82.0407 87.8012C83.1605 87.7949 84.328 86.8061 84.2836 85.6033C84.236 84.3166 83.3252 83.4199 81.995 83.4305Z" fill="#E9D0FD"/>
<path d="M60.8805 85.6179C60.8785 84.3299 59.942 83.4263 58.6143 83.4306C57.3336 83.4344 56.3649 84.3794 56.3816 85.6066C56.3996 86.8163 57.4127 87.8013 58.631 87.8032C59.7593 87.8032 60.9596 86.8101 60.8805 85.6179Z" fill="#E9D0FD"/>
<path d="M126.666 85.557C126.629 86.9745 127.71 87.7755 128.882 87.8C130.097 87.8219 131.151 86.7855 131.159 85.6209C131.168 84.5476 130.166 83.3923 128.866 83.4117C127.826 83.4261 126.592 84.3041 126.666 85.557Z" fill="#E9D0FD"/>
<path d="M99.9283 85.5838C99.9135 84.53 98.9325 83.3747 97.5952 83.4116C96.6284 83.4385 95.3477 84.2684 95.4346 85.5951C95.4153 86.965 96.4573 87.7661 97.6345 87.798C98.8682 87.833 99.945 86.7629 99.9283 85.5838Z" fill="#E9D0FD"/>
<path d="M123.325 85.6178C123.328 84.5458 122.335 83.3905 121.025 83.4118C119.996 83.4275 118.756 84.2973 118.83 85.5615C118.796 86.9827 119.885 87.7806 121.053 87.8C122.266 87.8188 123.32 86.7775 123.325 85.6178Z" fill="#E9D0FD"/>
<path d="M64.2022 85.5897C64.1809 86.9577 65.2153 87.7619 66.3975 87.7988C67.6306 87.837 68.7094 86.7706 68.6978 85.5909C68.6849 84.5339 67.7001 83.3787 66.3712 83.4125C65.3928 83.4381 64.1185 84.2742 64.2022 85.5897Z" fill="#E9D0FD"/>
<path d="M72.0391 85.5792C72.014 86.9447 73.0336 87.7552 74.2242 87.7983C75.4541 87.8447 76.5392 86.7795 76.5328 85.6005C76.5264 84.5366 75.5364 83.3813 74.2159 83.412C73.2195 83.4345 71.9581 84.2831 72.0391 85.5792Z" fill="#E9D0FD"/>
<path d="M115.301 77.9567C115.344 76.941 114.324 75.9315 113.322 76.021C112.09 76.0135 111.217 76.8415 111.224 78.013C111.229 79.1051 112.138 79.98 113.262 79.9756C114.427 79.9687 115.252 79.1088 115.301 77.9567Z" fill="#E9D0FD"/>
<path d="M138.696 77.9104C138.723 76.9729 137.754 75.919 136.671 76.021C135.472 76.0279 134.616 76.8559 134.621 78.0049C134.623 79.1007 135.528 79.9768 136.651 79.9756C137.837 79.9737 138.665 79.0944 138.696 77.9104Z" fill="#E9D0FD"/>
<path d="M142.454 77.976C142.441 79.0699 143.334 79.9611 144.456 79.9755C145.642 79.988 146.489 79.115 146.531 77.939C146.567 76.9534 145.568 75.9252 144.534 76.0209C143.326 76.0197 142.468 76.8257 142.454 77.976Z" fill="#E9D0FD"/>
<path d="M52.8373 77.9116C52.8637 76.9717 51.8943 75.919 50.8124 76.021C49.6134 76.0279 48.7604 76.8528 48.7604 78.003C48.7604 79.0944 49.6674 79.9756 50.7905 79.9756C51.9747 79.9756 52.8064 79.0957 52.8373 77.9116Z" fill="#E9D0FD"/>
<path d="M60.674 77.9073C60.6972 76.9748 59.7323 75.9172 58.6433 76.021C57.445 76.0292 56.592 76.8578 56.5965 78.008C56.5997 79.1007 57.5073 79.9787 58.6317 79.9756C59.8179 79.9718 60.6444 79.0907 60.674 77.9073Z" fill="#E9D0FD"/>
<path d="M79.9915 78.0049C79.9947 79.0976 80.9004 79.9768 82.0235 79.9756C83.1877 79.9737 84.0194 79.112 84.069 77.963C84.1134 76.9473 83.1054 75.9172 82.0415 76.021C80.8431 76.0279 79.9902 76.8546 79.9915 78.0049Z" fill="#E9D0FD"/>
<path d="M107.465 77.9516C107.506 76.9441 106.492 75.9303 105.48 76.021C104.269 76.0147 103.411 76.8127 103.389 77.9629C103.368 79.0781 104.286 79.983 105.433 79.9755C106.597 79.9674 107.417 79.105 107.465 77.9516Z" fill="#E9D0FD"/>
<path d="M91.9046 77.9469C91.9445 76.9468 90.9346 75.928 89.917 76.0206C88.7052 76.0162 87.8471 76.8154 87.8278 77.9675C87.8091 79.0615 88.6968 79.9558 89.8218 79.9733C91.0073 79.9939 91.8583 79.1209 91.9046 77.9469Z" fill="#E9D0FD"/>
<path d="M72.2569 77.9945C72.2556 79.1241 73.1201 79.9783 74.2548 79.9702C75.3695 79.962 76.326 79.0183 76.3176 77.9356C76.308 76.8473 75.4107 76.0563 74.2432 76.0081C73.2372 75.9681 72.1481 76.9262 72.2569 77.9945Z" fill="#E9D0FD"/>
<path d="M119.049 77.977C119.043 79.1116 119.891 79.9671 121.026 79.9702C122.139 79.9733 123.105 79.0396 123.109 77.9545C123.113 76.8668 122.216 76.0626 121.054 76.01C120.011 75.96 118.945 76.9438 119.049 77.977Z" fill="#E9D0FD"/>
<path d="M64.4212 78.0074C64.4244 79.132 65.2986 79.9856 66.432 79.97C67.548 79.9537 68.4981 79.0037 68.482 77.9223C68.4653 76.8315 67.566 76.0511 66.394 76.008C65.4092 75.9729 64.3093 76.9166 64.4212 78.0074Z" fill="#E9D0FD"/>
<path d="M95.6405 77.9387C95.6784 79.084 96.4523 79.9413 97.5902 79.9701C98.7004 79.997 99.6865 79.0796 99.7129 77.9932C99.7412 76.9099 98.8483 76.0369 97.6976 76.0206C96.5841 75.9086 95.6096 76.9743 95.6405 77.9387Z" fill="#E9D0FD"/>
<path d="M128.805 79.968C129.912 80.0068 130.907 79.0982 130.944 78.0105C130.982 76.9291 130.095 76.0429 128.949 76.0204C127.804 75.9021 126.847 76.9854 126.872 77.9191C126.905 79.0712 127.666 79.9299 128.805 79.968Z" fill="#E9D0FD"/>
<path d="M91.7345 70.4186C91.7248 69.4348 90.8803 68.6244 89.8639 68.6213C88.8116 68.6181 88.041 69.3835 88.0448 70.4286C88.0461 71.3849 88.8907 72.2197 89.8575 72.2197C90.8539 72.2197 91.7448 71.3642 91.7345 70.4186Z" fill="#E9D0FD"/>
<path d="M60.5052 70.4218C60.4969 69.4398 59.6542 68.6263 58.6379 68.6213C57.5856 68.6163 56.8117 69.3804 56.815 70.4249C56.8169 71.3849 57.6563 72.2178 58.6231 72.2197C59.6195 72.221 60.5136 71.3686 60.5052 70.4218Z" fill="#E9D0FD"/>
<path d="M142.672 70.4465C142.682 71.3997 143.54 72.2314 144.502 72.2201C145.503 72.207 146.385 71.3452 146.362 70.4015C146.34 69.4146 145.491 68.6166 144.474 68.6217C143.423 68.6279 142.662 69.3983 142.672 70.4465Z" fill="#E9D0FD"/>
<path d="M111.441 70.4154C111.438 71.3736 112.273 72.2115 113.239 72.2197C114.235 72.2272 115.133 71.3786 115.132 70.4317C115.13 69.4511 114.289 68.6306 113.272 68.6212C112.22 68.6131 111.444 69.3722 111.441 70.4154Z" fill="#E9D0FD"/>
<path d="M50.8167 68.6217C49.7643 68.6104 48.9834 69.3695 48.9789 70.4127C48.9738 71.3709 49.8068 72.2088 50.7736 72.2201C51.768 72.2314 52.6673 71.3834 52.6692 70.4353C52.6724 69.4565 51.831 68.6329 50.8167 68.6217Z" fill="#E9D0FD"/>
<path d="M107.295 70.4186C107.284 69.4348 106.44 68.6244 105.423 68.6213C104.372 68.6181 103.602 69.3835 103.604 70.4286C103.606 71.3849 104.451 72.2197 105.417 72.2197C106.413 72.2197 107.306 71.3642 107.295 70.4186Z" fill="#E9D0FD"/>
<path d="M83.901 70.4298C83.8991 69.4492 83.0558 68.6306 82.0401 68.6212C80.9877 68.6131 80.212 69.3741 80.2088 70.4173C80.2068 71.3748 81.0405 72.2097 82.0105 72.2197C83.003 72.2272 83.9023 71.3767 83.901 70.4298Z" fill="#E9D0FD"/>
<path d="M134.836 70.4447C134.846 71.3978 135.704 72.2295 136.665 72.2201C137.665 72.2089 138.549 71.3465 138.528 70.4034C138.504 69.4165 137.657 68.6167 136.639 68.6217C135.59 68.6267 134.826 69.3983 134.836 70.4447Z" fill="#E9D0FD"/>
<path d="M74.2494 68.6192C73.2697 68.6148 72.4065 69.4365 72.4033 70.3752C72.4001 71.3734 73.2318 72.2051 74.2346 72.2095C75.2406 72.2126 76.0923 71.3928 76.1019 70.4102C76.1103 69.4108 75.2966 68.6223 74.2494 68.6192Z" fill="#E9D0FD"/>
<path d="M95.8005 70.3914C95.807 71.3909 96.6451 72.2157 97.646 72.2094C98.6559 72.2013 99.4973 71.3784 99.4986 70.3946C99.4986 69.3964 98.6784 68.616 97.6299 68.6191C96.6535 68.621 95.7935 69.4521 95.8005 70.3914Z" fill="#E9D0FD"/>
<path d="M64.5696 70.368C64.5599 71.363 65.3865 72.1991 66.3912 72.2104C67.3953 72.2204 68.2515 71.4031 68.2663 70.4193C68.2817 69.4211 67.4693 68.6282 66.424 68.62C65.4444 68.6119 64.5799 69.4261 64.5696 70.368Z" fill="#E9D0FD"/>
<path d="M121.028 72.208C122.035 72.2124 122.886 71.3907 122.893 70.4088C122.902 69.4106 122.085 68.6208 121.041 68.6189C120.06 68.6177 119.199 69.4362 119.197 70.3768C119.193 71.3744 120.025 72.2061 121.028 72.208Z" fill="#E9D0FD"/>
<path d="M127.032 70.3733C127.026 71.3702 127.856 72.2032 128.862 72.2094C129.866 72.2145 130.719 71.394 130.73 70.4121C130.74 69.412 129.928 68.626 128.881 68.6191C127.903 68.6129 127.038 69.4333 127.032 70.3733Z" fill="#E9D0FD"/>
<path d="M105.428 61.2147C104.502 61.2053 103.825 61.8574 103.822 62.7511C103.818 63.6961 104.473 64.382 105.39 64.3982C106.276 64.4126 107.094 63.6804 107.087 62.8393C107.081 62.027 106.56 61.226 105.428 61.2147Z" fill="#E9D0FD"/>
<path d="M60.298 62.8251C60.2794 61.9677 59.7184 61.218 58.623 61.2149C57.6974 61.2117 57.031 61.8651 57.0323 62.7656C57.0342 63.7075 57.6961 64.3915 58.6146 64.3984C59.501 64.4047 60.3141 63.6643 60.298 62.8251Z" fill="#E9D0FD"/>
<path d="M146.158 62.7999C146.152 61.8931 145.459 61.2266 144.509 61.2153C143.58 61.2022 142.897 61.843 142.888 62.7373C142.88 63.6854 143.524 64.3744 144.441 64.397C145.351 64.4195 146.167 63.6616 146.158 62.7999Z" fill="#E9D0FD"/>
<path d="M52.4678 62.812C52.4678 61.8845 51.7486 61.2068 50.7735 61.213C49.8517 61.2212 49.1911 61.8764 49.1962 62.7788C49.2027 63.7188 49.8729 64.3984 50.7915 64.3984C51.6779 64.3984 52.4665 63.6518 52.4678 62.812Z" fill="#E9D0FD"/>
<path d="M114.924 62.8313C114.912 61.9933 114.369 61.2211 113.257 61.2148C112.332 61.2086 111.659 61.8619 111.659 62.7593C111.657 63.7031 112.316 64.3871 113.235 64.3983C114.122 64.4077 114.936 63.6705 114.924 62.8313Z" fill="#E9D0FD"/>
<path d="M138.325 62.8151C138.328 61.8895 137.61 61.2086 136.635 61.213C135.712 61.2199 135.049 61.872 135.054 62.7738C135.059 63.7144 135.726 64.3966 136.645 64.3984C137.531 64.3997 138.321 63.6562 138.325 62.8151Z" fill="#E9D0FD"/>
<path d="M83.6987 62.795C83.6871 61.8869 82.9917 61.2235 82.0417 61.2135C81.1148 61.206 80.4349 61.85 80.4284 62.7436C80.4201 63.6893 81.0685 64.3777 81.9857 64.3971C82.8933 64.4177 83.7083 63.6536 83.6987 62.795Z" fill="#E9D0FD"/>
<path d="M91.5279 62.8201C91.5067 61.9534 90.9348 61.2199 89.8497 61.213C88.9228 61.2168 88.2589 61.8682 88.2622 62.7688C88.266 63.7106 88.9311 64.3934 89.8497 64.3984C90.7361 64.4028 91.5478 63.66 91.5279 62.8201Z" fill="#E9D0FD"/>
<path d="M72.6048 62.8074C72.6093 63.6273 73.3915 64.387 74.2361 64.3901C75.1701 64.3933 75.8719 63.7124 75.8815 62.7912C75.8931 61.8894 75.1829 61.2085 74.2361 61.2116C73.2892 61.2129 72.5977 61.8894 72.6048 62.8074Z" fill="#E9D0FD"/>
<path d="M95.9997 62.8024C96.0029 63.6228 96.7819 64.3838 97.6271 64.3901C98.5605 64.3982 99.2655 63.7173 99.2783 62.7961C99.2918 61.8924 98.5856 61.2115 97.6368 61.2115C96.6919 61.2115 95.9984 61.8862 95.9997 62.8024Z" fill="#E9D0FD"/>
<path d="M119.396 62.7973C119.396 63.6197 120.173 64.3819 121.017 64.39C121.951 64.3994 122.658 63.7217 122.674 62.8005C122.689 61.8974 121.984 61.2128 121.037 61.2115C120.091 61.2084 119.396 61.8811 119.396 62.7973Z" fill="#E9D0FD"/>
<path d="M64.769 62.8261C64.7857 63.6466 65.5795 64.3994 66.4209 64.39C67.3561 64.3807 68.0457 63.6929 68.0476 62.7717C68.0495 61.8718 67.331 61.2003 66.381 61.2115C65.4393 61.2209 64.7523 61.9099 64.769 62.8261Z" fill="#E9D0FD"/>
<path d="M127.232 62.8118C127.24 63.6323 128.025 64.3901 128.868 64.3901C129.802 64.3901 130.5 63.7074 130.509 62.7862C130.516 61.8844 129.806 61.2054 128.857 61.2116C127.911 61.2166 127.222 61.8956 127.232 62.8118Z" fill="#E9D0FD"/>
<path d="M52.2598 55.2228C52.2778 54.4406 51.6551 53.8191 50.8466 53.811C50.0116 53.8047 49.3928 54.4118 49.3909 55.2404C49.3896 56.0283 49.9608 56.6103 50.7546 56.6309C51.5535 56.6503 52.2418 56.0057 52.2598 55.2228Z" fill="#E9D0FD"/>
<path d="M83.4895 55.1718C83.4779 54.3895 82.834 53.7937 82.0223 53.8113C81.1925 53.8319 80.5994 54.4583 80.6226 55.2919C80.6457 56.0736 81.2465 56.6424 82.039 56.6312C82.8405 56.6199 83.5011 55.9547 83.4895 55.1718Z" fill="#E9D0FD"/>
<path d="M143.086 55.2264C143.078 56.0368 143.677 56.6345 144.49 56.6313C145.291 56.6282 145.958 55.9661 145.954 55.1832C145.95 54.4235 145.342 53.8258 144.555 53.8114C143.721 53.797 143.095 54.3997 143.086 55.2264Z" fill="#E9D0FD"/>
<path d="M135.249 55.2536C135.255 56.0609 135.87 56.6511 136.683 56.6298C137.462 56.611 138.108 55.9715 138.118 55.2092C138.128 54.4288 137.5 53.8136 136.69 53.8118C135.856 53.8118 135.245 54.4238 135.249 55.2536Z" fill="#E9D0FD"/>
<path d="M111.854 55.2664C111.864 56.0512 112.452 56.6263 113.244 56.6313C114.044 56.6357 114.718 55.9805 114.721 55.1976C114.724 54.4153 114.091 53.807 113.282 53.8114C112.447 53.8177 111.843 54.4328 111.854 55.2664Z" fill="#E9D0FD"/>
<path d="M91.327 55.1926C91.327 54.4109 90.6908 53.8033 89.881 53.8114C89.0673 53.8195 88.4716 54.4109 88.4581 55.2183C88.4465 56.0287 89.0396 56.6295 89.8546 56.6313C90.6535 56.6326 91.325 55.9761 91.327 55.1926Z" fill="#E9D0FD"/>
<path d="M57.2271 55.2233C57.2168 56.0337 57.8131 56.6326 58.6268 56.6313C59.427 56.6295 60.0972 55.9711 60.094 55.1876C60.0921 54.4078 59.4533 53.802 58.6448 53.8114C57.833 53.8227 57.2367 54.4172 57.2271 55.2233Z" fill="#E9D0FD"/>
<path d="M106.887 55.1832C106.882 54.4222 106.273 53.8258 105.487 53.8114C104.652 53.797 104.026 54.4009 104.018 55.2276C104.012 56.0368 104.611 56.6357 105.424 56.6313C106.225 56.6282 106.891 55.9661 106.887 55.1832Z" fill="#E9D0FD"/>
<path d="M99.1146 55.1831C99.0896 54.4346 98.4148 53.81 97.6307 53.8132C96.8305 53.8144 96.2098 54.4346 96.2194 55.2194C96.2278 55.9804 96.8813 56.6231 97.6538 56.6294C98.4309 56.6356 99.1391 55.9341 99.1146 55.1831Z" fill="#E9D0FD"/>
<path d="M64.9884 55.2213C64.9981 55.9823 65.6535 56.6231 66.4254 56.6294C67.1812 56.6344 67.8746 55.971 67.8862 55.2338C67.8959 54.4715 67.2044 53.8082 66.399 53.8132C65.5988 53.8163 64.9781 54.4365 64.9884 55.2213Z" fill="#E9D0FD"/>
<path d="M119.615 55.1991C119.614 55.9619 120.254 56.609 121.031 56.6284C121.782 56.6491 122.486 55.997 122.513 55.2566C122.538 54.4975 121.855 53.8216 121.05 53.8135C120.25 53.8035 119.617 54.4143 119.615 55.1991Z" fill="#E9D0FD"/>
<path d="M74.2589 56.6294C75.0359 56.6356 75.7441 55.9359 75.719 55.1831C75.6965 54.4346 75.0211 53.81 74.237 53.8132C73.4368 53.8144 72.8148 54.4327 72.8245 55.2194C72.8328 55.9791 73.4863 56.6212 74.2589 56.6294Z" fill="#E9D0FD"/>
<path d="M128.86 56.6283C129.614 56.6509 130.317 56.0019 130.347 55.2597C130.375 54.5006 129.693 53.8228 128.888 53.8134C128.086 53.8021 127.454 54.4111 127.45 55.1958C127.449 55.96 128.085 56.6058 128.86 56.6283Z" fill="#E9D0FD"/>
<path d="M137.899 47.5506C137.887 46.881 137.356 46.3953 136.639 46.4003C135.929 46.4035 135.391 46.9429 135.404 47.6388C135.418 48.2553 136.037 48.8273 136.675 48.8147C137.377 48.8003 137.911 48.249 137.899 47.5506Z" fill="#E9D0FD"/>
<path d="M143.241 47.6319C143.251 48.249 143.869 48.8273 144.505 48.8147C145.207 48.8016 145.744 48.2521 145.734 47.555C145.726 46.8853 145.196 46.3972 144.481 46.3985C143.77 46.4003 143.23 46.9385 143.241 47.6319Z" fill="#E9D0FD"/>
<path d="M112.007 47.6237C112.011 48.2395 112.626 48.8221 113.263 48.8159C113.965 48.8077 114.507 48.2614 114.501 47.5649C114.496 46.8934 113.971 46.4015 113.257 46.4002C112.544 46.3971 112.002 46.9272 112.007 47.6237Z" fill="#E9D0FD"/>
<path d="M91.1063 47.5743C91.1075 46.9015 90.5859 46.4065 89.8725 46.4003C89.1566 46.3934 88.613 46.9178 88.613 47.6143C88.6111 48.2283 89.2203 48.8159 89.8596 48.8159C90.5576 48.8159 91.1063 48.2696 91.1063 47.5743Z" fill="#E9D0FD"/>
<path d="M52.0392 47.5805C52.0437 46.9078 51.5272 46.4096 50.8125 46.4003C50.096 46.3902 49.5511 46.9078 49.546 47.6062C49.5408 48.2214 50.1455 48.8128 50.7842 48.8159C51.4828 48.819 52.0341 48.2777 52.0392 47.5805Z" fill="#E9D0FD"/>
<path d="M57.3809 47.6134C57.3809 48.2285 57.9868 48.8149 58.6256 48.8149C59.3254 48.8162 59.8741 48.2717 59.8754 47.5764C59.8773 46.9031 59.3569 46.4068 58.6423 46.4005C57.9257 46.3924 57.3841 46.9143 57.3809 47.6134Z" fill="#E9D0FD"/>
<path d="M104.173 47.6256C104.178 48.2407 104.792 48.8221 105.431 48.8159C106.131 48.8077 106.673 48.2601 106.666 47.5617C106.661 46.8921 106.134 46.4002 105.421 46.3983C104.708 46.3983 104.167 46.9303 104.173 47.6256Z" fill="#E9D0FD"/>
<path d="M83.2719 47.538C83.2533 46.8703 82.7168 46.3909 81.9989 46.4009C81.2927 46.4084 80.7575 46.9585 80.7787 47.65C80.7987 48.269 81.4239 48.8372 82.0613 48.8153C82.7644 48.7909 83.2899 48.2364 83.2719 47.538Z" fill="#E9D0FD"/>
<path d="M122.313 47.5953C122.308 46.9244 121.74 46.3987 121.025 46.405C120.34 46.41 119.836 46.9194 119.832 47.6097C119.828 48.2924 120.326 48.7925 121.031 48.8131C121.679 48.8306 122.318 48.2248 122.313 47.5953Z" fill="#E9D0FD"/>
<path d="M98.9177 47.6277C98.9338 46.9625 98.3709 46.413 97.6608 46.4049C96.9712 46.3974 96.4541 46.8924 96.436 47.5795C96.4161 48.2842 96.9313 48.8068 97.6563 48.8149C98.2783 48.8211 98.901 48.236 98.9177 47.6277Z" fill="#E9D0FD"/>
<path d="M73.0407 47.6453C73.0523 48.3199 73.5746 48.8149 74.2745 48.8149C74.8984 48.8131 75.5159 48.2204 75.5224 47.6146C75.5294 46.9256 74.9312 46.3793 74.1986 46.4049C73.5187 46.4274 73.0291 46.9513 73.0407 47.6453Z" fill="#E9D0FD"/>
<path d="M65.2034 47.6033C65.197 48.3048 65.7302 48.8224 66.45 48.8149C67.0739 48.8067 67.6863 48.2059 67.6863 47.602C67.685 46.9337 67.117 46.4017 66.4037 46.4048C65.7173 46.4067 65.2118 46.9143 65.2034 47.6033Z" fill="#E9D0FD"/>
<path d="M130.147 47.5633C130.12 46.8906 129.54 46.3811 128.826 46.4049C128.148 46.4262 127.657 46.95 127.667 47.6434C127.677 48.3162 128.199 48.8131 128.898 48.8149C129.546 48.8149 130.173 48.1885 130.147 47.5633Z" fill="#E9D0FD"/>
<path d="M51.8203 40.0391C51.8138 39.4414 51.379 39.0027 50.8027 39.0121C50.2032 39.0215 49.7722 39.4477 49.7735 40.0328C49.7735 40.598 50.2327 41.0179 50.8393 41.0066C51.4665 40.9941 51.8273 40.638 51.8203 40.0391Z" fill="#E9D0FD"/>
<path d="M114.283 40.0614C114.289 39.4618 113.865 39.015 113.289 39.0119C112.689 39.0087 112.248 39.4249 112.235 40.0082C112.222 40.5739 112.676 41.0082 113.275 41.0063C113.908 41.0051 114.278 40.6571 114.283 40.0614Z" fill="#E9D0FD"/>
<path d="M106.447 40.0481C106.446 39.4505 106.013 39.0067 105.439 39.0118C104.839 39.0168 104.406 39.4379 104.401 40.0224C104.395 40.5882 104.852 41.0144 105.456 41.0062C106.085 40.9981 106.449 40.6458 106.447 40.0481Z" fill="#E9D0FD"/>
<path d="M83.0531 40.0726C83.0634 39.4718 82.6434 39.02 82.0703 39.0118C81.4688 39.0025 81.0243 39.4136 81.005 39.9969C80.9864 40.5626 81.436 41.0051 82.0342 41.0063C82.6678 41.0095 83.0416 40.6665 83.0531 40.0726Z" fill="#E9D0FD"/>
<path d="M59.6564 40.0676C59.6628 39.4687 59.2415 39.0181 58.6664 39.0119C58.0669 39.0056 57.6243 39.4205 57.6076 40.0038C57.5928 40.5689 58.0444 41.0063 58.6432 41.0063C59.2756 41.0082 59.648 40.6621 59.6564 40.0676Z" fill="#E9D0FD"/>
<path d="M88.8406 40.0402C88.8457 40.6059 89.3082 41.0209 89.9142 41.0065C90.5381 40.9908 90.897 40.6316 90.8874 40.0296C90.8777 39.4332 90.4378 38.9976 89.8601 39.012C89.2606 39.0264 88.8354 39.4557 88.8406 40.0402Z" fill="#E9D0FD"/>
<path d="M137.679 40.0582C137.684 39.4587 137.258 39.0119 136.683 39.0119C136.082 39.01 135.644 39.4268 135.634 40.0113C135.622 40.5801 136.074 41.0095 136.676 41.0063C137.308 41.0032 137.676 40.6552 137.679 40.0582Z" fill="#E9D0FD"/>
<path d="M143.467 40.0279C143.463 40.5936 143.921 41.0161 144.525 41.0067C145.154 40.9973 145.518 40.6431 145.513 40.0442C145.51 39.4465 145.075 39.0041 144.501 39.0122C143.899 39.0203 143.468 39.4434 143.467 40.0279Z" fill="#E9D0FD"/>
<path d="M97.6295 39.0121C97.0763 39.0202 96.653 39.4639 96.6562 40.0296C96.6607 40.6461 97.0235 41.0053 97.641 41.0034C98.2386 41.0015 98.6927 40.601 98.7043 40.0678C98.7191 39.4896 98.2238 39.0039 97.6295 39.0121Z" fill="#E9D0FD"/>
<path d="M128.884 41.0033C129.478 40.9952 129.931 40.5903 129.937 40.0584C129.944 39.4782 129.445 38.9976 128.851 39.012C128.298 39.0264 127.879 39.472 127.887 40.0402C127.897 40.6554 128.264 41.0096 128.884 41.0033Z" fill="#E9D0FD"/>
<path d="M120.053 40.0215C120.053 40.6398 120.412 41.0003 121.029 41.0034C121.626 41.0053 122.084 40.6091 122.102 40.0772C122.121 39.4977 121.633 39.0102 121.035 39.0121C120.48 39.0152 120.052 39.4539 120.053 40.0215Z" fill="#E9D0FD"/>
<path d="M67.4741 40.0546C67.4805 39.4751 66.9801 38.9976 66.3857 39.012C65.8325 39.0283 65.4157 39.4732 65.4254 40.0421C65.4357 40.6573 65.8029 41.0096 66.4237 41.0033C67.018 40.9952 67.4689 40.5903 67.4741 40.0546Z" fill="#E9D0FD"/>
<path d="M75.3109 40.0584C75.3173 39.4782 74.8182 38.9976 74.2238 39.012C73.6706 39.0264 73.2525 39.472 73.2602 40.0402C73.2705 40.6554 73.6359 41.0096 74.2566 41.0033C74.851 40.9952 75.3038 40.5903 75.3109 40.0584Z" fill="#E9D0FD"/>
<path d="M96.8016 32.4348C96.7721 32.8772 97.136 33.2452 97.6132 33.2565C98.0858 33.2696 98.4678 32.9298 98.4826 32.483C98.4954 32.0774 98.0858 31.6481 97.6659 31.6287C97.2563 31.6112 96.828 32.0086 96.8016 32.4348Z" fill="#E9D0FD"/>
<path d="M120.195 32.4811C120.194 32.9217 120.581 33.2696 121.056 33.2565C121.529 33.244 121.891 32.8816 121.879 32.4367C121.866 32.0261 121.431 31.6181 121.015 31.6287C120.602 31.64 120.195 32.0618 120.195 32.4811Z" fill="#E9D0FD"/>
<path d="M65.5667 32.489C65.5699 32.9284 65.9596 33.2726 66.4355 33.2563C66.9081 33.2406 67.2669 32.8752 67.2509 32.4283C67.2341 32.0184 66.793 31.6141 66.3795 31.6285C65.9648 31.6448 65.5616 32.0691 65.5667 32.489Z" fill="#E9D0FD"/>
<path d="M128.852 33.2566C129.324 33.2666 129.702 32.9218 129.714 32.475C129.724 32.0694 129.309 31.6433 128.891 31.6289C128.477 31.6164 128.054 32.0169 128.03 32.4412C128.007 32.8836 128.372 33.2472 128.852 33.2566Z" fill="#E9D0FD"/>
<path d="M73.4041 32.5018C73.4157 32.9424 73.8105 33.2785 74.2851 33.2547C74.7571 33.2321 75.1114 32.8604 75.0863 32.4148C75.0638 32.0049 74.6143 31.6063 74.2028 31.6282C73.7893 31.6526 73.3925 32.085 73.4041 32.5018Z" fill="#E9D0FD"/>
<path d="M51.6579 32.4607C51.663 32.0333 51.2624 31.6453 50.8065 31.6371C50.339 31.629 49.9866 31.9851 49.9885 32.4638C49.9905 32.9075 50.3377 33.2568 50.7801 33.2636C51.218 33.268 51.6515 32.8725 51.6579 32.4607Z" fill="#E9D0FD"/>
<path d="M90.7239 32.4508C90.722 32.0227 90.3188 31.6397 89.8629 31.6366C89.3967 31.6335 89.0481 31.9939 89.0546 32.4733C89.061 32.9151 89.4115 33.2612 89.8545 33.2612C90.2937 33.2631 90.7239 32.8626 90.7239 32.4508Z" fill="#E9D0FD"/>
<path d="M82.8855 32.4248C82.8669 31.9923 82.454 31.625 81.9994 31.6362C81.5338 31.6494 81.1981 32.0211 81.2194 32.4986C81.2393 32.9404 81.5994 33.274 82.0476 33.2609C82.4887 33.2483 82.9035 32.8347 82.8855 32.4248Z" fill="#E9D0FD"/>
<path d="M114.118 32.4247C114.1 31.9923 113.687 31.6249 113.232 31.6362C112.767 31.6493 112.431 32.021 112.45 32.4998C112.47 32.9404 112.833 33.2752 113.278 33.2608C113.722 33.2483 114.134 32.8346 114.118 32.4247Z" fill="#E9D0FD"/>
<path d="M137.514 32.4526C137.514 32.0233 137.111 31.6403 136.655 31.6372C136.187 31.634 135.838 31.9945 135.844 32.472C135.851 32.9145 136.203 33.2618 136.644 33.2637C137.083 33.2649 137.514 32.8631 137.514 32.4526Z" fill="#E9D0FD"/>
<path d="M106.283 32.4545C106.286 32.0283 105.882 31.6422 105.427 31.6372C104.96 31.6328 104.611 31.9914 104.616 32.4701C104.621 32.9126 104.971 33.2605 105.414 33.2637C105.852 33.2649 106.281 32.8663 106.283 32.4545Z" fill="#E9D0FD"/>
<path d="M59.4921 32.4773C59.5101 32.0511 59.1166 31.6556 58.6587 31.6381C58.1899 31.6187 57.8311 31.9667 57.8247 32.4454C57.8176 32.8922 58.1539 33.2446 58.5983 33.2608C59.031 33.2752 59.4773 32.886 59.4921 32.4773Z" fill="#E9D0FD"/>
<path d="M143.682 32.4858C143.696 32.9295 144.053 33.2674 144.497 33.2611C144.937 33.2561 145.36 32.8481 145.35 32.4376C145.34 32.007 144.931 31.6321 144.477 31.6365C144.012 31.6415 143.668 32.0083 143.682 32.4858Z" fill="#E9D0FD"/>
<path d="M112.593 24.8077C112.588 25.1506 112.904 25.4804 113.242 25.4867C113.583 25.4948 113.919 25.1744 113.92 24.8414C113.92 24.4854 113.617 24.2037 113.242 24.2087C112.881 24.2131 112.598 24.4741 112.593 24.8077Z" fill="#E9D0FD"/>
<path d="M50.132 24.7822C50.1127 25.1202 50.4137 25.4631 50.7526 25.4857C51.0921 25.5082 51.4413 25.2003 51.4573 24.8655C51.4753 24.5113 51.184 24.2184 50.8072 24.209C50.4465 24.2008 50.1519 24.4506 50.132 24.7822Z" fill="#E9D0FD"/>
<path d="M136.672 24.2086C136.312 24.1974 136.013 24.4452 135.989 24.7737C135.967 25.1117 136.265 25.4578 136.603 25.4853C136.943 25.5109 137.293 25.2099 137.315 24.8732C137.336 24.5209 137.046 24.223 136.672 24.2086Z" fill="#E9D0FD"/>
<path d="M145.152 24.824C145.142 24.4698 144.834 24.1957 144.457 24.2101C144.097 24.2233 143.823 24.4892 143.826 24.824C143.83 25.1682 144.154 25.4905 144.489 25.4868C144.834 25.4837 145.158 25.157 145.152 24.824Z" fill="#E9D0FD"/>
<path d="M89.1994 24.8058C89.193 25.1488 89.5075 25.4792 89.8451 25.4867C90.1891 25.4936 90.5228 25.1763 90.5248 24.8415C90.526 24.4873 90.2251 24.2038 89.8483 24.2088C89.4875 24.2132 89.2046 24.4729 89.1994 24.8058Z" fill="#E9D0FD"/>
<path d="M81.3644 24.779C81.3425 25.1188 81.6441 25.4611 81.983 25.4855C82.3225 25.5093 82.6711 25.2051 82.6891 24.8685C82.7077 24.5161 82.4158 24.2182 82.0409 24.2088C81.6821 24.1988 81.3856 24.4492 81.3644 24.779Z" fill="#E9D0FD"/>
<path d="M58.5797 25.4851C58.9186 25.512 59.271 25.2129 59.2922 24.8743C59.3154 24.5207 59.0286 24.2229 58.6517 24.2097C58.2929 24.1953 57.9932 24.4419 57.9688 24.7723C57.9424 25.1084 58.2421 25.4563 58.5797 25.4851Z" fill="#E9D0FD"/>
<path d="M106.086 24.8284C106.079 24.473 105.773 24.1976 105.396 24.2089C105.036 24.2195 104.759 24.4855 104.761 24.8191C104.762 25.162 105.083 25.4887 105.419 25.4868C105.761 25.4868 106.091 25.162 106.086 24.8284Z" fill="#E9D0FD"/>
<path d="M67.0882 24.8407C67.0843 24.504 66.7602 24.2011 66.4065 24.203C66.0542 24.2043 65.7892 24.464 65.7809 24.8163C65.7712 25.1962 66.0407 25.4766 66.4143 25.4766C66.7834 25.4766 67.0914 25.1868 67.0882 24.8407Z" fill="#E9D0FD"/>
<path d="M73.6164 24.8015C73.5984 25.1795 73.8621 25.4692 74.2324 25.4774C74.6028 25.4855 74.9154 25.2033 74.9237 24.8559C74.9302 24.5211 74.6144 24.2101 74.2569 24.2038C73.9064 24.1976 73.6331 24.4523 73.6164 24.8015Z" fill="#E9D0FD"/>
<path d="M128.244 24.8015C128.224 25.1795 128.489 25.4692 128.86 25.4774C129.229 25.4855 129.545 25.2033 129.551 24.8559C129.557 24.5211 129.242 24.212 128.884 24.2038C128.534 24.1976 128.262 24.4504 128.244 24.8015Z" fill="#E9D0FD"/>
<path d="M120.406 24.8458C120.412 25.2244 120.696 25.4916 121.071 25.4754C121.44 25.4597 121.734 25.155 121.713 24.8108C121.693 24.4741 121.355 24.1862 121.002 24.2037C120.654 24.2212 120.401 24.4953 120.406 24.8458Z" fill="#E9D0FD"/>
<path d="M97.0106 24.8267C97.0054 25.206 97.2806 25.4832 97.6543 25.4769C98.0247 25.4707 98.3262 25.1759 98.3179 24.8299C98.3095 24.495 97.9803 24.1972 97.6266 24.2034C97.2774 24.2097 97.0138 24.4756 97.0106 24.8267Z" fill="#E9D0FD"/>
<path d="M51.2956 17.2539C51.2763 17.0067 51.0294 16.7989 50.7722 16.8114C50.5201 16.8227 50.3375 17.0211 50.3478 17.2714C50.3574 17.5324 50.5844 17.7552 50.8346 17.7489C51.0931 17.7408 51.3175 17.5017 51.2956 17.2539Z" fill="#E9D0FD"/>
<path d="M66.888 17.2265C66.8616 16.9943 66.6456 16.8147 66.3974 16.8178C66.1253 16.8228 65.9086 17.0406 65.9215 17.2972C65.935 17.5469 66.18 17.7534 66.4398 17.7347C66.7054 17.7153 66.9157 17.4762 66.888 17.2265Z" fill="#E9D0FD"/>
<path d="M112.808 17.2488C112.808 17.5085 113.026 17.7407 113.276 17.7469C113.534 17.7532 113.768 17.5242 113.76 17.2745C113.752 17.026 113.516 16.8082 113.256 16.8095C113.004 16.8095 112.81 17.0022 112.808 17.2488Z" fill="#E9D0FD"/>
<path d="M120.549 17.2395C120.529 17.4892 120.747 17.7232 121.01 17.7358C121.272 17.7489 121.512 17.5342 121.517 17.2839C121.524 17.0292 121.3 16.8164 121.028 16.8177C120.78 16.8208 120.569 17.0054 120.549 17.2395Z" fill="#E9D0FD"/>
<path d="M97.1543 17.2683C97.1492 17.5199 97.38 17.7389 97.643 17.7358C97.8855 17.7327 98.1022 17.5387 98.1208 17.3096C98.142 17.0549 97.9298 16.8309 97.6578 16.8177C97.3877 16.8065 97.1595 17.0099 97.1543 17.2683Z" fill="#E9D0FD"/>
<path d="M105.927 17.2757C105.918 17.0279 105.683 16.8095 105.424 16.8095C105.171 16.8095 104.977 17.0004 104.976 17.2469C104.974 17.5035 105.194 17.7407 105.441 17.7488C105.696 17.7564 105.933 17.5242 105.927 17.2757Z" fill="#E9D0FD"/>
<path d="M128.836 17.7353C129.094 17.7528 129.341 17.5432 129.352 17.2935C129.364 17.04 129.145 16.8222 128.873 16.8191C128.624 16.816 128.411 16.995 128.386 17.2309C128.36 17.4793 128.57 17.7159 128.836 17.7353Z" fill="#E9D0FD"/>
<path d="M89.4135 17.2664C89.4232 17.5261 89.6489 17.7502 89.8978 17.747C90.1556 17.7439 90.3833 17.5048 90.3633 17.257C90.3453 17.0098 90.0997 16.8002 89.8431 16.8096C89.5897 16.8208 89.4052 17.0167 89.4135 17.2664Z" fill="#E9D0FD"/>
<path d="M136.204 17.2501C136.204 17.5086 136.425 17.7439 136.672 17.7489C136.929 17.7552 137.162 17.5242 137.154 17.2727C137.146 17.0242 136.91 16.8083 136.651 16.8095C136.399 16.8114 136.204 17.0023 136.204 17.2501Z" fill="#E9D0FD"/>
<path d="M81.5772 17.2501C81.5772 17.5086 81.7978 17.7439 82.0447 17.7489C82.3019 17.7552 82.5353 17.5242 82.5276 17.2727C82.5193 17.0242 82.2839 16.8083 82.0235 16.8095C81.7714 16.8114 81.5772 17.0023 81.5772 17.2501Z" fill="#E9D0FD"/>
<path d="M144.041 17.2683C144.05 17.5274 144.277 17.7533 144.524 17.749C144.783 17.744 145.01 17.5049 144.992 17.2571C144.972 17.0086 144.729 16.8002 144.47 16.8115C144.217 16.8228 144.032 17.018 144.041 17.2683Z" fill="#E9D0FD"/>
<path d="M59.1329 17.2824C59.1297 17.0339 58.8989 16.8143 58.6391 16.8093C58.3851 16.8061 58.1864 16.9939 58.1812 17.2405C58.1761 17.4952 58.3953 17.7386 58.6403 17.7486C58.8956 17.7599 59.1361 17.5321 59.1329 17.2824Z" fill="#E9D0FD"/>
<path d="M74.7257 17.2613C74.7193 17.0278 74.5148 16.8319 74.2679 16.8176C73.9978 16.805 73.7644 17.0084 73.756 17.2631C73.7496 17.5128 73.9766 17.7344 74.2415 17.7344C74.5065 17.7344 74.7341 17.5116 74.7257 17.2613Z" fill="#E9D0FD"/>
<path d="M74.2358 9.86127C74.3317 9.82247 74.4172 9.71671 74.4583 9.62096C74.4718 9.58904 74.3169 9.43634 74.2545 9.44635C74.1574 9.45887 74.0751 9.56338 73.9381 9.66539C74.0796 9.76364 74.187 9.88005 74.2358 9.86127Z" fill="#E9D0FD"/>
<path d="M66.6246 9.63899C66.6413 9.6052 66.4998 9.44186 66.4387 9.44687C66.3397 9.45312 66.249 9.55075 66.1043 9.64024C66.2381 9.74976 66.3352 9.87618 66.3841 9.85991C66.4831 9.82987 66.5783 9.73161 66.6246 9.63899Z" fill="#E9D0FD"/>
<path d="M121.031 9.87402C121.109 9.79392 121.221 9.72383 121.252 9.62745C121.268 9.57613 121.144 9.48164 121.035 9.34709C120.94 9.48977 120.838 9.57801 120.831 9.67251C120.826 9.73447 120.959 9.80706 121.031 9.87402Z" fill="#E9D0FD"/>
<path d="M128.668 9.69316C128.671 9.75574 128.81 9.81332 128.887 9.87402C128.958 9.78578 129.063 9.70568 129.084 9.60805C129.096 9.55548 128.961 9.4735 128.839 9.35021C128.759 9.49916 128.666 9.59679 128.668 9.69316Z" fill="#E9D0FD"/>
<path d="M97.9494 9.67711C97.8227 9.56384 97.7339 9.43554 97.6831 9.44806C97.5841 9.47247 97.4787 9.56384 97.433 9.65458C97.4163 9.6915 97.5481 9.86173 97.6086 9.85985C97.7057 9.85672 97.8015 9.76222 97.9494 9.67711Z" fill="#E9D0FD"/>
<path d="M113.248 9.86182C113.33 9.78609 113.443 9.72414 113.482 9.63089C113.498 9.59084 113.368 9.49008 113.273 9.38244C113.181 9.49321 113.071 9.56831 113.072 9.64028C113.074 9.716 113.186 9.78797 113.248 9.86182Z" fill="#E9D0FD"/>
<path d="M51.0179 9.63611C51.0359 9.59418 50.9073 9.49342 50.8154 9.3814C50.7196 9.49155 50.6077 9.56539 50.6077 9.63736C50.6077 9.71309 50.7183 9.78818 50.7806 9.86328C50.8649 9.79006 50.9768 9.72748 51.0179 9.63611Z" fill="#E9D0FD"/>
<path d="M136.469 9.63277C136.467 9.70787 136.574 9.78484 136.635 9.86182C136.719 9.78985 136.834 9.73039 136.877 9.64028C136.896 9.59897 136.77 9.49446 136.679 9.38119C136.584 9.4882 136.469 9.55892 136.469 9.63277Z" fill="#E9D0FD"/>
<path d="M58.6854 9.38403C58.5786 9.48166 58.4584 9.54236 58.4487 9.61621C58.4404 9.69005 58.5394 9.77642 58.5915 9.8584C58.6841 9.79394 58.8043 9.74575 58.8551 9.65939C58.8783 9.62121 58.7645 9.50544 58.6854 9.38403Z" fill="#E9D0FD"/>
<path d="M81.8387 9.64028C81.8425 9.716 81.9525 9.78797 82.0168 9.86182C82.0991 9.78609 82.211 9.72414 82.2502 9.63089C82.267 9.59084 82.1371 9.49008 82.0412 9.38244C81.9493 9.49321 81.8387 9.56831 81.8387 9.64028Z" fill="#E9D0FD"/>
<path d="M105.64 9.68429C105.614 9.59104 105.502 9.5222 105.426 9.44398C105.359 9.51282 105.243 9.57853 105.235 9.65488C105.229 9.72747 105.332 9.81071 105.416 9.92773C105.518 9.82009 105.654 9.73185 105.64 9.68429Z" fill="#E9D0FD"/>
<path d="M144.492 9.45631C144.444 9.43879 144.342 9.5602 144.225 9.64844C144.337 9.74168 144.413 9.85183 144.487 9.85058C144.568 9.8487 144.645 9.74293 144.726 9.68223C144.65 9.60213 144.586 9.4901 144.492 9.45631Z" fill="#E9D0FD"/>
<path d="M89.8683 9.45631C89.8195 9.43879 89.7172 9.55894 89.5989 9.64718C89.7108 9.73981 89.7847 9.85183 89.8574 9.85058C89.9397 9.8487 90.0182 9.74481 90.0973 9.68411C90.0233 9.604 89.9609 9.49136 89.8683 9.45631Z" fill="#E9D0FD"/>
<path d="M128.934 2.06383C128.904 2.05131 128.87 2.02253 128.847 2.03004C128.825 2.03504 128.814 2.0801 128.8 2.10701C128.829 2.12015 128.863 2.14893 128.886 2.14268C128.907 2.13579 128.918 2.09136 128.934 2.06383Z" fill="#E9D0FD"/>
<path d="M81.9587 2.08125C81.9606 2.10253 82.003 2.1213 82.028 2.14258C82.0478 2.11692 82.0838 2.09126 82.0818 2.06686C82.0818 2.04433 82.0395 2.02556 82.0145 2.00428C81.9933 2.02994 81.9574 2.05747 81.9587 2.08125Z" fill="#E9D0FD"/>
<path d="M136.589 2.0624C136.587 2.08618 136.624 2.11372 136.642 2.14062C136.666 2.11997 136.709 2.10058 136.712 2.07992C136.714 2.05427 136.678 2.02673 136.66 2.00108C136.635 2.02235 136.591 2.03987 136.589 2.0624Z" fill="#E9D0FD"/>
<path d="M113.269 2.00608C113.243 2.0236 113.196 2.03675 113.191 2.05927C113.186 2.08118 113.221 2.11372 113.237 2.14062C113.264 2.1231 113.309 2.10996 113.314 2.08806C113.32 2.06365 113.285 2.03362 113.269 2.00608Z" fill="#E9D0FD"/>
<path d="M105.355 2.06866C105.355 2.09244 105.395 2.11685 105.418 2.14062C105.438 2.1181 105.48 2.09557 105.48 2.07179C105.48 2.04801 105.44 2.0236 105.419 1.99982C105.396 2.0236 105.355 2.04613 105.355 2.06866Z" fill="#E9D0FD"/>
<path d="M74.2407 2.14404C74.2651 2.14404 74.2894 2.10712 74.3144 2.08647C74.2894 2.06394 74.267 2.04141 74.2439 2.02076C74.2189 2.04141 74.1945 2.06269 74.1702 2.08334C74.1945 2.10587 74.2176 2.14404 74.2407 2.14404Z" fill="#E9D0FD"/>
<path d="M50.7277 2.06991C50.7296 2.09244 50.7674 2.11685 50.7905 2.14062C50.8117 2.1181 50.8527 2.09557 50.8527 2.07179C50.8527 2.04801 50.8136 2.0236 50.7918 1.99982C50.7687 2.0236 50.7277 2.04613 50.7277 2.06991Z" fill="#E9D0FD"/>
<path d="M58.5637 2.06866C58.5637 2.09244 58.6028 2.11685 58.6246 2.14062C58.6477 2.1181 58.6887 2.09557 58.6887 2.07179C58.6887 2.04801 58.649 2.0236 58.6278 1.99982C58.6047 2.0236 58.5637 2.04613 58.5637 2.06866Z" fill="#E9D0FD"/>
<path d="M89.7959 2.08125C89.7959 2.10253 89.8402 2.1213 89.8645 2.14258C89.8844 2.11692 89.9203 2.09126 89.919 2.06686C89.9171 2.04433 89.8748 2.02556 89.8498 2.00428C89.8305 2.02994 89.794 2.05747 89.7959 2.08125Z" fill="#E9D0FD"/>
<path d="M66.476 2.08655C66.4529 2.0659 66.4298 2.0271 66.4054 2.0271C66.3804 2.02585 66.3573 2.06402 66.333 2.08467C66.3561 2.10595 66.3791 2.146 66.4022 2.146C66.4266 2.146 66.451 2.1072 66.476 2.08655Z" fill="#E9D0FD"/>
<path d="M121.102 2.08014C121.076 2.06074 121.05 2.0257 121.025 2.0257C121.002 2.02695 120.982 2.06887 120.962 2.09265C120.987 2.11205 121.016 2.14585 121.04 2.14397C121.061 2.14397 121.081 2.10267 121.102 2.08014Z" fill="#E9D0FD"/>
<path d="M144.42 2.04653C144.432 2.07719 144.445 2.10598 144.459 2.13477C144.487 2.12162 144.534 2.11411 144.541 2.09284C144.549 2.07031 144.519 2.03527 144.506 2.00648C144.479 2.01962 144.449 2.03401 144.42 2.04653Z" fill="#E9D0FD"/>
<path d="M97.6219 2.14312C97.645 2.1475 97.6777 2.11747 97.7053 2.1012C97.6873 2.07429 97.6713 2.04863 97.6533 2.02297C97.6251 2.03737 97.5975 2.05301 97.5674 2.06928C97.586 2.09494 97.6007 2.13999 97.6219 2.14312Z" fill="#E9D0FD"/>
</g>
<path d="M45.0029 40.4658L44.921 41.5417H46H79.3333H80.2319L80.3276 40.6482C80.5703 38.3837 81.3357 36.3301 82.6282 34.4721C83.893 32.654 85.7745 31.1536 88.3334 29.9971C90.9419 28.8571 94.3498 28.2604 98.6042 28.2604C101.641 28.2604 104.204 28.6826 106.318 29.4958L106.334 29.5019L106.35 29.5075C108.474 30.2427 109.981 31.2746 110.961 32.5554L110.972 32.5697L110.983 32.5836C112.031 33.8562 112.578 35.4453 112.578 37.4167C112.578 39.1777 112.009 40.8367 110.825 42.4156L110.82 42.4224C109.714 43.9238 107.623 45.7111 104.44 47.7756C101.266 49.8349 96.652 52.4662 90.5848 55.6732L90.5811 55.6752L48.3936 78.2012L47.8646 78.4837V79.0833V102V103H48.8646H149.385H150.385V102V75.9583V74.9583H149.385H107.054C116.116 71.1085 123.603 67.2063 129.5 63.2469C135.647 59.1197 140.271 54.7796 143.316 50.211C146.373 45.6264 147.911 40.6602 147.911 35.3333C147.911 28.524 145.89 22.5316 141.84 17.3993C137.806 12.2013 132.181 8.1993 125.018 5.36872C117.843 2.44631 109.464 1 99.9063 1C89.9058 1 80.8396 2.57903 72.7217 5.75517C64.6839 8.84706 58.1988 13.3677 53.3024 19.3314C48.3864 25.2317 45.625 32.2898 45.0029 40.4658Z" stroke="#222222" stroke-width="2"/>
<defs>
<filter id="filter0_d_327_12912" x="46" y="2" width="107.385" height="104" filterUnits="userSpaceOnUse" color-interpolation-filters="sRGB">
<feFlood flood-opacity="0" result="BackgroundImageFix"/>
<feColorMatrix in="SourceAlpha" type="matrix" values="0 0 0 0 0 0 0 0 0 0 0 0 0 0 0 0 0 0 127 0" result="hardAlpha"/>
<feOffset dx="4" dy="4"/>
<feComposite in2="hardAlpha" operator="out"/>
<feColorMatrix type="matrix" values="0 0 0 0 0.133333 0 0 0 0 0.133333 0 0 0 0 0.133333 0 0 0 1 0"/>
<feBlend mode="normal" in2="BackgroundImageFix" result="effect1_dropShadow_327_12912"/>
<feBlend mode="normal" in="SourceGraphic" in2="effect1_dropShadow_327_12912" result="shape"/>
</filter>
</defs>
</svg>
