<svg width="196" height="106" viewBox="0 0 196 106" fill="none" xmlns="http://www.w3.org/2000/svg">
<g filter="url(#filter0_d_327_12520)">
<path d="M129.8 2V102H95.9333V14.5333L111 28.5333L67 36.2667V10L104.733 2H129.8Z" fill="#FFF61C"/>
</g>
<mask id="mask0_327_12520" style="mask-type:alpha" maskUnits="userSpaceOnUse" x="67" y="2" width="63" height="100">
<path d="M129.8 2V102H95.9333V14.5333L111 28.5333L67 36.2667V10L104.733 2H129.8Z" fill="#FFF61C"/>
</mask>
<g mask="url(#mask0_327_12520)">
<path d="M128.338 98.7419C128.322 97.3144 127.127 96.1466 125.657 96.1466C124.077 96.1466 122.978 97.4508 123.057 98.7162C122.948 100.146 124.267 101.29 125.624 101.302C127.063 101.317 128.352 100.072 128.338 98.7419Z" fill="#FFA04A"/>
<path d="M73.7114 98.7804C73.7211 97.3367 72.5047 96.137 71.0143 96.1464C69.4204 96.1558 68.4439 97.4775 68.4105 98.6759C68.3732 100.158 69.6494 101.369 71.0143 101.281C72.4224 101.381 73.7031 100.095 73.7114 98.7804Z" fill="#FFA04A"/>
<path d="M97.1064 98.7531C97.0987 97.3275 95.908 96.1528 94.4357 96.1465C92.8449 96.1384 91.7501 97.4558 91.826 98.7049C91.7134 100.154 93.043 101.284 94.3816 101.302C95.8289 101.321 97.1135 100.078 97.1064 98.7531Z" fill="#FFA04A"/>
<path d="M81.5464 98.7708C81.5477 97.3258 80.3275 96.1324 78.839 96.1468C77.2714 96.1612 76.2538 97.4603 76.2435 98.7408C76.2339 100.134 77.4605 101.373 78.857 101.282C80.2587 101.377 81.5426 100.091 81.5464 98.7708Z" fill="#FFA04A"/>
<path d="M104.942 98.7696C104.943 97.3245 103.723 96.1324 102.232 96.1468C100.678 96.1612 99.6491 97.4522 99.6407 98.742C99.6324 100.131 100.856 101.373 102.256 101.282C103.655 101.377 104.94 100.091 104.942 98.7696Z" fill="#FFA04A"/>
<path d="M112.678 98.7833C112.786 97.3846 111.438 96.1317 110.071 96.1429C108.607 96.1555 107.408 97.3157 107.399 98.7445C107.388 100.166 108.533 101.226 110.033 101.292C111.496 101.356 112.773 100.057 112.678 98.7833Z" fill="#FFA04A"/>
<path d="M120.514 98.7528C120.609 97.396 119.29 96.1463 117.93 96.1431C116.448 96.14 115.223 97.3303 115.232 98.7753C115.243 100.2 116.39 101.236 117.901 101.292C119.297 101.345 120.617 100.089 120.514 98.7528Z" fill="#FFA04A"/>
<path d="M89.2806 98.7547C89.3777 97.396 88.059 96.1463 86.6986 96.1431C85.2165 96.14 83.9918 97.3284 84.0015 98.7753C84.0098 100.198 85.1593 101.236 86.6677 101.292C88.0674 101.345 89.3848 100.088 89.2806 98.7547Z" fill="#FFA04A"/>
<path d="M128.118 91.2354C128.141 89.9261 127.095 88.8303 125.729 88.8128C124.206 88.7934 123.196 89.9424 123.277 91.1277C123.157 92.472 124.365 93.5709 125.64 93.5515C126.974 93.5309 128.097 92.5039 128.118 91.2354Z" fill="#FFA04A"/>
<path d="M99.8813 91.1567C99.7687 92.4496 100.947 93.5598 102.218 93.5517C103.578 93.5423 104.717 92.4997 104.722 91.2068C104.729 89.8832 103.664 88.8387 102.359 88.813C100.811 88.7824 99.7925 89.9376 99.8813 91.1567Z" fill="#FFA04A"/>
<path d="M96.8935 91.1954C96.8735 89.9456 95.8919 88.7453 94.4562 88.8323C92.969 88.8335 92.0917 89.7259 92.0338 91.1678C91.983 92.4401 93.1041 93.5422 94.3951 93.5584C95.7221 93.5741 96.9134 92.3807 96.8935 91.1954Z" fill="#FFA04A"/>
<path d="M73.4989 91.208C73.4841 89.9395 72.4857 88.7492 71.0732 88.8324C69.5828 88.8324 68.7003 89.7198 68.6392 91.1555C68.5832 92.4415 69.7063 93.5598 71.0417 93.5586C72.3294 93.5555 73.5104 92.3858 73.4989 91.208Z" fill="#FFA04A"/>
<path d="M76.4634 91.1367C76.4402 92.4665 77.5685 93.5767 78.8562 93.5523C80.1897 93.5286 81.3096 92.4985 81.3276 91.2281C81.3456 89.927 80.3048 88.7542 78.9283 88.8331C77.4231 88.7317 76.4846 89.937 76.4634 91.1367Z" fill="#FFA04A"/>
<path d="M107.613 91.1836C107.621 92.459 108.721 93.5435 110.031 93.5454C111.323 93.5467 112.545 92.5679 112.459 91.1855C112.599 89.9532 111.305 88.7854 110.045 88.808C108.873 88.8286 107.603 89.6973 107.613 91.1836Z" fill="#FFA04A"/>
<path d="M115.446 91.1433C115.437 92.4206 116.52 93.5258 117.824 93.5452C119.186 93.5639 120.281 92.5326 120.318 91.2234C120.356 89.9129 119.104 88.7063 117.92 88.8334C116.677 88.7257 115.458 89.7145 115.446 91.1433Z" fill="#FFA04A"/>
<path d="M84.2164 91.1691C84.2177 92.4458 85.3132 93.5372 86.6202 93.5454C87.9299 93.5529 89.145 92.5628 89.0626 91.1979C89.2061 89.9407 87.8984 88.7917 86.6614 88.8079C85.4663 88.8236 84.2145 89.7035 84.2164 91.1691Z" fill="#FFA04A"/>
<path d="M96.6713 83.626C96.6726 82.3362 95.7405 81.4294 94.4129 81.4294C93.1322 81.4306 92.1602 82.3712 92.1737 83.5985C92.1853 84.8063 93.1946 85.7963 94.4148 85.8032C95.5462 85.8063 96.7485 84.8132 96.6713 83.626Z" fill="#FFA04A"/>
<path d="M123.405 83.5862C123.408 84.7922 124.411 85.7872 125.631 85.8016C126.769 85.816 127.941 84.8166 127.911 83.6388C127.88 82.3477 126.985 81.4347 125.659 81.4309C124.375 81.4265 123.401 82.3571 123.405 83.5862Z" fill="#FFA04A"/>
<path d="M104.516 83.6407C104.484 82.3477 103.588 81.4359 102.264 81.4309C100.98 81.4265 100.007 82.3559 100.009 83.5843C100.012 84.7909 101.015 85.7872 102.235 85.8016C103.373 85.816 104.545 84.8166 104.516 83.6407Z" fill="#FFA04A"/>
<path d="M81.1208 83.6407C81.0893 82.349 80.1933 81.4359 78.8695 81.4309C77.5849 81.4246 76.6085 82.3559 76.6136 83.5831C76.6168 84.794 77.6164 85.7872 78.8379 85.8016C79.9746 85.816 81.1485 84.8178 81.1208 83.6407Z" fill="#FFA04A"/>
<path d="M70.995 81.4305C69.7381 81.4405 68.7848 82.3586 68.7764 83.5683C68.7687 84.7936 69.8024 85.8112 71.0406 85.8012C72.1605 85.7949 73.328 84.8061 73.2836 83.6033C73.236 82.3166 72.3252 81.4199 70.995 81.4305Z" fill="#FFA04A"/>
<path d="M115.666 83.557C115.629 84.9745 116.71 85.7755 117.882 85.8C119.097 85.8219 120.151 84.7855 120.159 83.6209C120.168 82.5476 119.166 81.3923 117.866 81.4117C116.826 81.4261 115.592 82.3041 115.666 83.557Z" fill="#FFA04A"/>
<path d="M88.9282 83.5838C88.9135 82.53 87.9325 81.3747 86.5952 81.4116C85.6284 81.4385 84.3477 82.2684 84.4345 83.5951C84.4153 84.965 85.4573 85.7661 86.6344 85.798C87.8682 85.833 88.945 84.7629 88.9282 83.5838Z" fill="#FFA04A"/>
<path d="M112.325 83.6178C112.328 82.5458 111.335 81.3905 110.025 81.4118C108.996 81.4275 107.756 82.2973 107.83 83.5615C107.796 84.9827 108.885 85.7806 110.053 85.8C111.266 85.8188 112.32 84.7775 112.325 83.6178Z" fill="#FFA04A"/>
<path d="M104.301 75.9567C104.344 74.941 103.324 73.9315 102.322 74.021C101.09 74.0135 100.217 74.8415 100.224 76.013C100.229 77.1051 101.138 77.98 102.262 77.9756C103.427 77.9687 104.252 77.1088 104.301 75.9567Z" fill="#FFA04A"/>
<path d="M127.696 75.9104C127.723 74.9729 126.754 73.919 125.671 74.021C124.472 74.0279 123.616 74.8559 123.621 76.0049C123.623 77.1007 124.528 77.9768 125.651 77.9756C126.837 77.9737 127.665 77.0944 127.696 75.9104Z" fill="#FFA04A"/>
<path d="M68.9915 76.0049C68.9947 77.0976 69.9004 77.9768 71.0235 77.9756C72.1877 77.9737 73.0194 77.112 73.069 75.963C73.1134 74.9473 72.1054 73.9172 71.0415 74.021C69.8431 74.0279 68.9902 74.8546 68.9915 76.0049Z" fill="#FFA04A"/>
<path d="M96.4646 75.9516C96.5058 74.9441 95.492 73.9303 94.4802 74.021C93.269 74.0147 92.4109 74.8127 92.389 75.9629C92.3678 77.0781 93.2864 77.983 94.4333 77.9755C95.5969 77.9674 96.417 77.105 96.4646 75.9516Z" fill="#FFA04A"/>
<path d="M80.9047 75.9469C80.9446 74.9468 79.9347 73.928 78.9171 74.0206C77.7052 74.0162 76.8471 74.8154 76.8278 75.9675C76.8091 77.0615 77.6968 77.9558 78.8219 77.9733C80.0074 77.9939 80.8584 77.1209 80.9047 75.9469Z" fill="#FFA04A"/>
<path d="M108.048 75.977C108.043 77.1116 108.891 77.9671 110.026 77.9702C111.139 77.9733 112.105 77.0396 112.109 75.9545C112.112 74.8668 111.216 74.0626 110.054 74.01C109.011 73.96 107.945 74.9438 108.048 75.977Z" fill="#FFA04A"/>
<path d="M84.6405 75.9387C84.6784 77.084 85.4523 77.9413 86.5902 77.9701C87.7004 77.997 88.6865 77.0796 88.7129 75.9932C88.7412 74.9099 87.8483 74.0369 86.6976 74.0206C85.5841 73.9086 84.6096 74.9743 84.6405 75.9387Z" fill="#FFA04A"/>
<path d="M117.805 77.968C118.912 78.0068 119.907 77.0982 119.944 76.0105C119.982 74.9291 119.095 74.0429 117.949 74.0204C116.804 73.9021 115.847 74.9854 115.872 75.9191C115.905 77.0712 116.666 77.9299 117.805 77.968Z" fill="#FFA04A"/>
<path d="M80.7345 68.4186C80.7248 67.4348 79.8802 66.6244 78.8639 66.6213C77.8116 66.6181 77.041 67.3835 77.0448 68.4286C77.0461 69.3849 77.8907 70.2197 78.8575 70.2197C79.8539 70.2197 80.7448 69.3642 80.7345 68.4186Z" fill="#FFA04A"/>
<path d="M100.441 68.4154C100.438 69.3736 101.273 70.2115 102.239 70.2197C103.235 70.2272 104.133 69.3786 104.132 68.4317C104.13 67.4511 103.289 66.6306 102.272 66.6212C101.22 66.6131 100.444 67.3722 100.441 68.4154Z" fill="#FFA04A"/>
<path d="M96.2947 68.4186C96.2844 67.4348 95.4398 66.6244 94.4235 66.6213C93.3718 66.6181 92.6025 67.3835 92.6038 68.4286C92.6057 69.3849 93.4509 70.2197 94.4171 70.2197C95.4134 70.2197 96.3056 69.3642 96.2947 68.4186Z" fill="#FFA04A"/>
<path d="M72.901 68.4298C72.899 67.4492 72.0557 66.6306 71.0401 66.6212C69.9877 66.6131 69.212 67.3741 69.2087 68.4173C69.2068 69.3748 70.0405 70.2097 71.0105 70.2197C72.003 70.2272 72.9022 69.3767 72.901 68.4298Z" fill="#FFA04A"/>
<path d="M123.836 68.4447C123.846 69.3978 124.704 70.2295 125.665 70.2201C126.665 70.2089 127.549 69.3465 127.528 68.4034C127.504 67.4165 126.657 66.6167 125.639 66.6217C124.59 66.6267 123.826 67.3983 123.836 68.4447Z" fill="#FFA04A"/>
<path d="M84.8005 68.3914C84.807 69.3909 85.6451 70.2157 86.646 70.2094C87.6559 70.2013 88.4972 69.3784 88.4985 68.3946C88.4985 67.3964 87.6784 66.616 86.6299 66.6191C85.6535 66.621 84.7934 67.4521 84.8005 68.3914Z" fill="#FFA04A"/>
<path d="M110.028 70.208C111.035 70.2124 111.886 69.3907 111.893 68.4088C111.902 67.4106 111.085 66.6208 110.041 66.6189C109.06 66.6177 108.199 67.4362 108.197 68.3768C108.193 69.3744 109.025 70.2061 110.028 70.208Z" fill="#FFA04A"/>
<path d="M116.032 68.3733C116.026 69.3702 116.856 70.2032 117.862 70.2094C118.866 70.2145 119.719 69.394 119.73 68.4121C119.74 67.412 118.928 66.626 117.881 66.6191C116.902 66.6129 116.038 67.4333 116.032 68.3733Z" fill="#FFA04A"/>
<path d="M94.4278 59.2147C93.5021 59.2053 92.8254 59.8574 92.8222 60.7511C92.8184 61.6961 93.4725 62.382 94.3898 62.3982C95.2756 62.4126 96.0938 61.6804 96.0873 60.8393C96.0809 60.027 95.5605 59.226 94.4278 59.2147Z" fill="#FFA04A"/>
<path d="M103.924 60.8313C103.912 59.9933 103.369 59.2211 102.257 59.2148C101.332 59.2086 100.659 59.8619 100.659 60.7593C100.657 61.7031 101.316 62.3871 102.235 62.3983C103.122 62.4077 103.936 61.6705 103.924 60.8313Z" fill="#FFA04A"/>
<path d="M127.325 60.8151C127.328 59.8895 126.61 59.2086 125.635 59.213C124.712 59.2199 124.049 59.872 124.054 60.7738C124.059 61.7144 124.726 62.3966 125.645 62.3984C126.531 62.3997 127.321 61.6562 127.325 60.8151Z" fill="#FFA04A"/>
<path d="M72.6987 60.795C72.6871 59.8869 71.9917 59.2235 71.0417 59.2135C70.1148 59.206 69.4349 59.85 69.4284 60.7436C69.4201 61.6893 70.0685 62.3777 70.9857 62.3971C71.8933 62.4177 72.7083 61.6536 72.6987 60.795Z" fill="#FFA04A"/>
<path d="M80.5279 60.8201C80.5067 59.9534 79.9348 59.2199 78.8497 59.213C77.9228 59.2168 77.2589 59.8682 77.2622 60.7688C77.266 61.7106 77.9311 62.3934 78.8497 62.3984C79.7361 62.4028 80.5478 61.66 80.5279 60.8201Z" fill="#FFA04A"/>
<path d="M84.9997 60.8024C85.0029 61.6228 85.7819 62.3838 86.6271 62.3901C87.5604 62.3982 88.2654 61.7173 88.2783 60.7961C88.2918 59.8924 87.5855 59.2115 86.6368 59.2115C85.6918 59.2115 84.9984 59.8862 84.9997 60.8024Z" fill="#FFA04A"/>
<path d="M108.396 60.7973C108.396 61.6197 109.173 62.3819 110.017 62.39C110.951 62.3994 111.658 61.7217 111.674 60.8005C111.689 59.8974 110.984 59.2128 110.037 59.2115C109.091 59.2084 108.396 59.8811 108.396 60.7973Z" fill="#FFA04A"/>
<path d="M116.232 60.8118C116.24 61.6323 117.025 62.3901 117.868 62.3901C118.802 62.3901 119.5 61.7074 119.509 60.7862C119.516 59.8844 118.806 59.2054 117.857 59.2116C116.911 59.2166 116.222 59.8956 116.232 60.8118Z" fill="#FFA04A"/>
<path d="M72.4895 53.1718C72.4779 52.3895 71.834 51.7937 71.0222 51.8113C70.1925 51.8319 69.5994 52.4583 69.6225 53.2919C69.6457 54.0736 70.2465 54.6424 71.039 54.6312C71.8404 54.6199 72.5011 53.9547 72.4895 53.1718Z" fill="#FFA04A"/>
<path d="M124.249 53.2536C124.255 54.0609 124.87 54.6511 125.683 54.6298C126.462 54.611 127.108 53.9715 127.118 53.2092C127.128 52.4288 126.5 51.8136 125.69 51.8118C124.856 51.8118 124.245 52.4238 124.249 53.2536Z" fill="#FFA04A"/>
<path d="M100.854 53.2664C100.864 54.0512 101.452 54.6263 102.244 54.6313C103.044 54.6357 103.718 53.9805 103.721 53.1976C103.724 52.4153 103.091 51.807 102.282 51.8114C101.447 51.8177 100.843 52.4328 100.854 53.2664Z" fill="#FFA04A"/>
<path d="M80.327 53.1926C80.327 52.4109 79.6908 51.8033 78.881 51.8114C78.0673 51.8195 77.4716 52.4109 77.4581 53.2183C77.4465 54.0287 78.0396 54.6295 78.8546 54.6313C79.6535 54.6326 80.325 53.9761 80.327 53.1926Z" fill="#FFA04A"/>
<path d="M95.8869 53.1832C95.8818 52.4222 95.2726 51.8258 94.4872 51.8114C93.6523 51.797 93.0264 52.4009 93.0181 53.2276C93.0116 54.0368 93.6111 54.6357 94.4242 54.6313C95.225 54.6282 95.8914 53.9661 95.8869 53.1832Z" fill="#FFA04A"/>
<path d="M88.1146 53.1831C88.0896 52.4346 87.4148 51.81 86.6307 51.8132C85.8305 51.8144 85.2098 52.4346 85.2194 53.2194C85.2278 53.9804 85.8813 54.6231 86.6538 54.6294C87.4309 54.6356 88.1391 53.9341 88.1146 53.1831Z" fill="#FFA04A"/>
<path d="M108.615 53.1991C108.614 53.9619 109.254 54.609 110.031 54.6284C110.783 54.6491 111.486 53.997 111.513 53.2566C111.538 52.4975 110.855 51.8216 110.05 51.8135C109.25 51.8035 108.617 52.4143 108.615 53.1991Z" fill="#FFA04A"/>
<path d="M117.86 54.6283C118.614 54.6509 119.317 54.0019 119.347 53.2597C119.375 52.5006 118.693 51.8228 117.888 51.8134C117.086 51.8021 116.454 52.4111 116.45 53.1958C116.449 53.96 117.085 54.6058 117.86 54.6283Z" fill="#FFA04A"/>
<path d="M126.9 45.5506C126.887 44.881 126.356 44.3953 125.639 44.4003C124.929 44.4035 124.391 44.9429 124.404 45.6388C124.418 46.2553 125.037 46.8273 125.675 46.8147C126.377 46.8003 126.911 46.249 126.9 45.5506Z" fill="#FFA04A"/>
<path d="M101.007 45.6237C101.011 46.2395 101.626 46.8221 102.263 46.8159C102.965 46.8077 103.507 46.2614 103.501 45.5649C103.496 44.8934 102.971 44.4015 102.257 44.4002C101.544 44.3971 101.002 44.9272 101.007 45.6237Z" fill="#FFA04A"/>
<path d="M80.1063 45.5743C80.1075 44.9015 79.5859 44.4065 78.8725 44.4003C78.1566 44.3934 77.613 44.9178 77.613 45.6143C77.6111 46.2283 78.2203 46.8159 78.8596 46.8159C79.5576 46.8159 80.1063 46.2696 80.1063 45.5743Z" fill="#FFA04A"/>
<path d="M93.1732 45.6256C93.1783 46.2407 93.792 46.8221 94.4313 46.8159C95.1312 46.8077 95.6728 46.2601 95.6657 45.5617C95.6612 44.8921 95.1344 44.4002 94.421 44.3983C93.7083 44.3983 93.1667 44.9303 93.1732 45.6256Z" fill="#FFA04A"/>
<path d="M72.2719 45.538C72.2532 44.8703 71.7168 44.3909 70.9989 44.4009C70.2926 44.4084 69.7575 44.9585 69.7787 45.65C69.7986 46.269 70.4239 46.8372 71.0613 46.8153C71.7644 46.7909 72.2899 46.2364 72.2719 45.538Z" fill="#FFA04A"/>
<path d="M111.313 45.5953C111.308 44.9244 110.74 44.3987 110.025 44.405C109.34 44.41 108.836 44.9194 108.832 45.6097C108.828 46.2924 109.326 46.7925 110.031 46.8131C110.679 46.8306 111.318 46.2248 111.313 45.5953Z" fill="#FFA04A"/>
<path d="M87.9177 45.6277C87.9338 44.9625 87.3709 44.413 86.6608 44.4049C85.9712 44.3974 85.4541 44.8924 85.436 45.5795C85.4161 46.2842 85.9313 46.8068 86.6563 46.8149C87.2783 46.8211 87.901 46.236 87.9177 45.6277Z" fill="#FFA04A"/>
<path d="M119.147 45.5633C119.12 44.8906 118.54 44.3811 117.826 44.4049C117.148 44.4262 116.657 44.95 116.667 45.6434C116.677 46.3162 117.199 46.8131 117.898 46.8149C118.546 46.8149 119.173 46.1885 119.147 45.5633Z" fill="#FFA04A"/>
<path d="M103.283 38.0614C103.289 37.4618 102.865 37.015 102.289 37.0119C101.689 37.0087 101.248 37.4249 101.235 38.0082C101.222 38.5739 101.676 39.0082 102.275 39.0063C102.908 39.0051 103.278 38.6571 103.283 38.0614Z" fill="#FFA04A"/>
<path d="M95.4474 38.0481C95.4461 37.4505 95.0132 37.0067 94.4395 37.0118C93.8387 37.0168 93.4058 37.4379 93.4006 38.0224C93.3955 38.5882 93.8522 39.0144 94.4562 39.0062C95.0853 38.9981 95.4493 38.6458 95.4474 38.0481Z" fill="#FFA04A"/>
<path d="M72.0531 38.0726C72.0634 37.4718 71.6434 37.02 71.0702 37.0118C70.4688 37.0025 70.0243 37.4136 70.005 37.9969C69.9864 38.5626 70.436 39.0051 71.0342 39.0063C71.6678 39.0095 72.0415 38.6665 72.0531 38.0726Z" fill="#FFA04A"/>
<path d="M77.8406 38.0402C77.8457 38.6059 78.3082 39.0209 78.9141 39.0065C79.5381 38.9908 79.897 38.6316 79.8874 38.0296C79.8777 37.4332 79.4377 36.9976 78.8601 37.012C78.2606 37.0264 77.8354 37.4557 77.8406 38.0402Z" fill="#FFA04A"/>
<path d="M126.679 38.0582C126.684 37.4587 126.258 37.0119 125.683 37.0119C125.082 37.01 124.644 37.4268 124.634 38.0113C124.622 38.5801 125.074 39.0095 125.676 39.0063C126.308 39.0032 126.676 38.6552 126.679 38.0582Z" fill="#FFA04A"/>
<path d="M86.6294 37.0121C86.0762 37.0202 85.653 37.4639 85.6562 38.0296C85.6607 38.6461 86.0235 39.0053 86.641 39.0034C87.2386 39.0015 87.6927 38.601 87.7043 38.0678C87.7191 37.4896 87.2238 37.0039 86.6294 37.0121Z" fill="#FFA04A"/>
<path d="M117.884 39.0033C118.478 38.9952 118.931 38.5903 118.937 38.0584C118.944 37.4782 118.445 36.9976 117.851 37.012C117.298 37.0264 116.879 37.472 116.887 38.0402C116.897 38.6554 117.264 39.0096 117.884 39.0033Z" fill="#FFA04A"/>
<path d="M109.053 38.0215C109.053 38.6398 109.412 39.0003 110.029 39.0034C110.626 39.0053 111.084 38.6091 111.102 38.0772C111.121 37.4977 110.633 37.0102 110.035 37.0121C109.48 37.0152 109.052 37.4539 109.053 38.0215Z" fill="#FFA04A"/>
<path d="M85.8017 30.4348C85.7721 30.8772 86.1361 31.2452 86.6132 31.2565C87.0858 31.2696 87.4678 30.9298 87.4826 30.483C87.4955 30.0774 87.0858 29.6481 86.6659 29.6287C86.2563 29.6112 85.828 30.0086 85.8017 30.4348Z" fill="#FFA04A"/>
<path d="M109.195 30.4811C109.194 30.9217 109.581 31.2696 110.056 31.2565C110.529 31.244 110.891 30.8816 110.879 30.4367C110.866 30.0261 110.432 29.6181 110.015 29.6287C109.602 29.64 109.195 30.0618 109.195 30.4811Z" fill="#FFA04A"/>
<path d="M117.852 31.2566C118.324 31.2666 118.702 30.9218 118.714 30.475C118.724 30.0694 118.309 29.6433 117.891 29.6289C117.477 29.6164 117.054 30.0169 117.03 30.4412C117.007 30.8836 117.372 31.2472 117.852 31.2566Z" fill="#FFA04A"/>
<path d="M79.7239 30.4508C79.722 30.0227 79.3188 29.6397 78.8628 29.6366C78.3966 29.6335 78.0481 29.9939 78.0545 30.4733C78.061 30.9151 78.4114 31.2612 78.8545 31.2612C79.2937 31.2631 79.7239 30.8626 79.7239 30.4508Z" fill="#FFA04A"/>
<path d="M71.8855 30.4248C71.8668 29.9923 71.454 29.625 70.9994 29.6362C70.5338 29.6494 70.1981 30.0211 70.2193 30.4986C70.2393 30.9404 70.5994 31.274 71.0476 31.2609C71.4887 31.2483 71.9035 30.8347 71.8855 30.4248Z" fill="#FFA04A"/>
<path d="M103.118 30.4247C103.1 29.9923 102.687 29.6249 102.232 29.6362C101.767 29.6493 101.431 30.021 101.45 30.4998C101.47 30.9404 101.833 31.2752 102.278 31.2608C102.721 31.2483 103.134 30.8346 103.118 30.4247Z" fill="#FFA04A"/>
<path d="M126.514 30.4526C126.514 30.0233 126.111 29.6403 125.655 29.6372C125.187 29.634 124.838 29.9945 124.844 30.472C124.851 30.9145 125.203 31.2618 125.644 31.2637C126.083 31.2649 126.514 30.8631 126.514 30.4526Z" fill="#FFA04A"/>
<path d="M95.2831 30.4545C95.2863 30.0283 94.8819 29.6422 94.4272 29.6372C93.9597 29.6328 93.6112 29.9914 93.6157 30.4701C93.6208 30.9126 93.9713 31.2605 94.4137 31.2637C94.8516 31.2649 95.2812 30.8663 95.2831 30.4545Z" fill="#FFA04A"/>
<path d="M101.593 22.8077C101.588 23.1506 101.904 23.4804 102.242 23.4867C102.583 23.4948 102.919 23.1744 102.92 22.8414C102.92 22.4854 102.617 22.2037 102.242 22.2087C101.881 22.2131 101.598 22.4741 101.593 22.8077Z" fill="#FFA04A"/>
<path d="M125.672 22.2086C125.312 22.1974 125.013 22.4452 124.989 22.7737C124.967 23.1117 125.265 23.4578 125.603 23.4853C125.943 23.5109 126.293 23.2099 126.315 22.8732C126.336 22.5209 126.047 22.223 125.672 22.2086Z" fill="#FFA04A"/>
<path d="M78.1994 22.8058C78.193 23.1488 78.5075 23.4792 78.8451 23.4867C79.1891 23.4936 79.5228 23.1763 79.5248 22.8415C79.526 22.4873 79.2251 22.2038 78.8483 22.2088C78.4875 22.2132 78.2046 22.4729 78.1994 22.8058Z" fill="#FFA04A"/>
<path d="M70.3644 22.779C70.3425 23.1188 70.6441 23.4611 70.983 23.4855C71.3225 23.5093 71.6711 23.2051 71.6891 22.8685C71.7077 22.5161 71.4158 22.2182 71.0409 22.2088C70.6821 22.1988 70.3856 22.4492 70.3644 22.779Z" fill="#FFA04A"/>
<path d="M95.0858 22.8284C95.0794 22.473 94.7733 22.1976 94.3958 22.2089C94.0357 22.2195 93.7592 22.4855 93.7605 22.8191C93.7624 23.162 94.0833 23.4887 94.419 23.4868C94.7611 23.4868 95.091 23.162 95.0858 22.8284Z" fill="#FFA04A"/>
<path d="M117.244 22.8015C117.224 23.1795 117.489 23.4692 117.86 23.4774C118.229 23.4855 118.545 23.2033 118.551 22.8559C118.557 22.5211 118.242 22.212 117.884 22.2038C117.534 22.1976 117.262 22.4504 117.244 22.8015Z" fill="#FFA04A"/>
<path d="M109.406 22.8458C109.412 23.2244 109.696 23.4916 110.071 23.4754C110.44 23.4597 110.734 23.155 110.713 22.8108C110.693 22.4741 110.355 22.1862 110.002 22.2037C109.654 22.2212 109.401 22.4953 109.406 22.8458Z" fill="#FFA04A"/>
<path d="M86.0106 22.8267C86.0054 23.206 86.2806 23.4832 86.6543 23.4769C87.0247 23.4707 87.3262 23.1759 87.3179 22.8299C87.3095 22.495 86.9803 22.1972 86.6266 22.2034C86.2774 22.2097 86.0138 22.4756 86.0106 22.8267Z" fill="#FFA04A"/>
<path d="M101.808 15.2488C101.808 15.5085 102.026 15.7407 102.276 15.7469C102.534 15.7532 102.768 15.5242 102.76 15.2745C102.752 15.026 102.516 14.8082 102.256 14.8095C102.004 14.8095 101.81 15.0022 101.808 15.2488Z" fill="#FFA04A"/>
<path d="M109.549 15.2395C109.529 15.4892 109.747 15.7232 110.01 15.7358C110.272 15.7489 110.512 15.5342 110.517 15.2839C110.524 15.0292 110.3 14.8164 110.028 14.8177C109.78 14.8208 109.569 15.0054 109.549 15.2395Z" fill="#FFA04A"/>
<path d="M86.1543 15.2683C86.1492 15.5199 86.38 15.7389 86.643 15.7358C86.8855 15.7327 87.1022 15.5387 87.1208 15.3096C87.142 15.0549 86.9298 14.8309 86.6578 14.8177C86.3877 14.8065 86.1595 15.0099 86.1543 15.2683Z" fill="#FFA04A"/>
<path d="M94.9267 15.2757C94.9183 15.0279 94.6829 14.8095 94.4244 14.8095C94.1711 14.8095 93.9769 15.0004 93.9756 15.2469C93.9737 15.5035 94.1936 15.7407 94.4405 15.7488C94.6965 15.7564 94.9331 15.5242 94.9267 15.2757Z" fill="#FFA04A"/>
<path d="M117.836 15.7353C118.094 15.7528 118.341 15.5432 118.352 15.2935C118.364 15.04 118.145 14.8222 117.873 14.8191C117.624 14.816 117.411 14.995 117.386 15.2309C117.36 15.4793 117.57 15.7159 117.836 15.7353Z" fill="#FFA04A"/>
<path d="M78.4135 15.2664C78.4232 15.5261 78.6489 15.7502 78.8978 15.747C79.1556 15.7439 79.3833 15.5048 79.3633 15.257C79.3453 15.0098 79.0997 14.8002 78.8431 14.8096C78.5897 14.8208 78.4052 15.0167 78.4135 15.2664Z" fill="#FFA04A"/>
<path d="M125.204 15.2501C125.204 15.5086 125.425 15.7439 125.672 15.7489C125.929 15.7552 126.162 15.5242 126.154 15.2727C126.146 15.0242 125.91 14.8083 125.651 14.8095C125.399 14.8114 125.204 15.0023 125.204 15.2501Z" fill="#FFA04A"/>
<path d="M70.5772 15.2501C70.5772 15.5086 70.7978 15.7439 71.0447 15.7489C71.3019 15.7552 71.5353 15.5242 71.5276 15.2727C71.5193 15.0242 71.2839 14.8083 71.0235 14.8095C70.7714 14.8114 70.5772 15.0023 70.5772 15.2501Z" fill="#FFA04A"/>
<path d="M110.031 7.87402C110.109 7.79392 110.221 7.72383 110.252 7.62745C110.268 7.57613 110.144 7.48164 110.035 7.34709C109.94 7.48977 109.838 7.57801 109.831 7.67251C109.826 7.73447 109.959 7.80706 110.031 7.87402Z" fill="#FFA04A"/>
<path d="M117.668 7.69316C117.671 7.75574 117.81 7.81332 117.887 7.87402C117.958 7.78578 118.063 7.70568 118.084 7.60805C118.096 7.55548 117.961 7.4735 117.839 7.35021C117.759 7.49916 117.666 7.59679 117.668 7.69316Z" fill="#FFA04A"/>
<path d="M86.9494 7.67711C86.8227 7.56384 86.734 7.43554 86.6832 7.44806C86.5841 7.47247 86.4787 7.56384 86.433 7.65458C86.4163 7.6915 86.5481 7.86173 86.6086 7.85985C86.7057 7.85672 86.8015 7.76222 86.9494 7.67711Z" fill="#FFA04A"/>
<path d="M102.248 7.86182C102.33 7.78609 102.443 7.72414 102.482 7.63089C102.498 7.59084 102.368 7.49008 102.273 7.38244C102.181 7.49321 102.071 7.56831 102.072 7.64028C102.074 7.716 102.186 7.78797 102.248 7.86182Z" fill="#FFA04A"/>
<path d="M125.469 7.63277C125.467 7.70787 125.574 7.78484 125.635 7.86182C125.719 7.78985 125.834 7.73039 125.877 7.64028C125.896 7.59897 125.77 7.49446 125.679 7.38119C125.584 7.4882 125.469 7.55892 125.469 7.63277Z" fill="#FFA04A"/>
<path d="M70.8387 7.64028C70.8425 7.716 70.9525 7.78797 71.0168 7.86182C71.0991 7.78609 71.211 7.72414 71.2502 7.63089C71.267 7.59084 71.1371 7.49008 71.0412 7.38244C70.9493 7.49321 70.8387 7.56831 70.8387 7.64028Z" fill="#FFA04A"/>
<path d="M94.6402 7.68429C94.6138 7.59104 94.502 7.5222 94.4261 7.44398C94.3586 7.51282 94.2434 7.57853 94.2351 7.65488C94.2287 7.72747 94.3322 7.81071 94.4164 7.92773C94.518 7.82009 94.6544 7.73185 94.6402 7.68429Z" fill="#FFA04A"/>
<path d="M78.8683 7.45631C78.8194 7.43879 78.7172 7.55894 78.5989 7.64719C78.7108 7.73981 78.7847 7.85183 78.8574 7.85058C78.9397 7.8487 79.0181 7.74481 79.0972 7.68411C79.0233 7.604 78.9609 7.49136 78.8683 7.45631Z" fill="#FFA04A"/>
</g>
<path d="M130.8 2V1H129.8H104.733H104.628L104.526 1.02174L66.7926 9.02175L66 9.18979V10V36.2667V37.5275L67.2277 37.2404L94.9333 30.7609L94.9333 102V103H95.9333H129.8H130.8V102V2Z" stroke="#222222" stroke-width="2"/>
<defs>
<filter id="filter0_d_327_12520" x="67" y="2" width="66.8" height="104" filterUnits="userSpaceOnUse" color-interpolation-filters="sRGB">
<feFlood flood-opacity="0" result="BackgroundImageFix"/>
<feColorMatrix in="SourceAlpha" type="matrix" values="0 0 0 0 0 0 0 0 0 0 0 0 0 0 0 0 0 0 127 0" result="hardAlpha"/>
<feOffset dx="4" dy="4"/>
<feComposite in2="hardAlpha" operator="out"/>
<feColorMatrix type="matrix" values="0 0 0 0 0.133333 0 0 0 0 0.133333 0 0 0 0 0.133333 0 0 0 1 0"/>
<feBlend mode="normal" in2="BackgroundImageFix" result="effect1_dropShadow_327_12520"/>
<feBlend mode="normal" in="SourceGraphic" in2="effect1_dropShadow_327_12520" result="shape"/>
</filter>
</defs>
</svg>
