<svg width="502" height="469" viewBox="0 0 502 469" fill="none" xmlns="http://www.w3.org/2000/svg">
<path fill-rule="evenodd" clip-rule="evenodd" d="M136.924 35.4887C136.983 35.5382 137.043 35.5679 137.122 35.6075C137.092 35.5778 137.082 35.5382 137.043 35.5184C136.993 35.4887 136.934 35.4689 136.884 35.4194C136.884 35.4392 136.914 35.4689 136.924 35.4887Z" fill="#F5E8FF"/>
<path fill-rule="evenodd" clip-rule="evenodd" d="M137.022 12.2777C137.022 12.2777 137.062 12.1892 137.081 12.1597C137.062 12.1793 137.032 12.1892 137.012 12.2088C136.983 12.2383 136.973 12.2777 136.924 12.3072C136.963 12.3072 136.973 12.2777 137.022 12.2777Z" fill="#F5E8FF"/>
<path fill-rule="evenodd" clip-rule="evenodd" d="M137.042 35.518C138.334 36.1688 139.616 36.79 140.879 37.4901C147.673 41.1285 155.967 39.5903 160.73 33.7728C165.346 28.1328 165.385 19.7122 160.799 14.0525C156.056 8.2054 147.871 6.61793 140.977 10.2169C139.666 10.9071 138.334 11.5874 137.032 12.2777C131.796 20.0277 131.914 27.7778 137.052 35.518H137.042Z" fill="#F5E8FF"/>
<path fill-rule="evenodd" clip-rule="evenodd" d="M-9.12025 153.475C-2.43391 151.178 1.70808 144.956 1.12622 137.689C0.909271 135.234 0.218933 132.818 -0.264297 130.383C1.55028 130.984 3.34515 131.684 5.19917 132.177C15.3865 134.918 25.702 126.863 25.1201 116.391C24.9426 113.394 23.7395 110.455 22.9998 107.478C29.9031 110.702 36.6289 111.175 42.9898 106.156C42.2502 107.931 41.4119 109.666 40.8399 111.481C38.8577 117.742 39.9425 123.451 44.6663 128.066C49.3803 132.7 55.1889 133.853 61.3131 131.536C67.4767 129.209 71.2538 124.388 71.2341 117.841C71.2341 113.985 69.3111 110.14 68.2361 106.304C68.9462 106.58 69.7056 106.758 70.3564 107.132C76.9639 110.909 83.3445 110.495 89.2517 105.782C94.7251 101.384 96.0663 94.6495 93.4036 86.8402C93.1472 86.0711 93.1472 85.233 92.9499 83.7935C100.938 87.9446 107.891 87.4022 113.778 81.4073C119.636 75.4616 119.133 68.3623 116.056 61.5095C120.336 62.0321 124.222 63.2942 127.831 62.7617C140.701 60.839 144.804 48.1293 136.944 35.5083C130.819 31.2881 124.409 29.2865 117.772 33.0925V15.364C124.33 18.1051 131.086 17.4543 137.032 12.2383C142.782 5.55315 142.93 -1.74338 138.472 -9.8287C148.433 -5.4705 155.425 -6.36778 160.513 -12.1656C164.951 -17.2435 165.681 -24.7767 162.269 -30.5646C158.295 -37.3385 151.914 -39.3106 141.007 -37.1413C147.299 -53.6768 134.735 -66.5246 117.516 -60.1352C120.524 -67.1556 120.889 -73.7817 115.691 -79.7372C117.111 -79.185 118.551 -78.6624 119.962 -78.0708C127.082 -75.0832 134.715 -76.9566 139.123 -82.8037C143.403 -88.4733 143.324 -96.5093 138.867 -102.09C134.311 -107.848 126.677 -109.525 119.597 -106.36C118.226 -105.748 116.766 -105.236 115.356 -104.674C120.543 -114.051 120.119 -121.633 114.064 -127.174C108.157 -132.588 100.997 -132.627 92.4667 -127.322C93.0584 -128.91 93.5811 -130.547 94.2813 -132.104C97.3089 -139.135 95.4253 -146.855 89.5871 -151.263C84.1236 -155.394 76.2834 -155.453 70.7509 -151.361C64.8436 -146.974 62.891 -139.391 65.8595 -132.262C66.53 -130.675 67.1217 -129.068 67.7529 -127.46C61.7865 -133.455 54.7846 -132.312 48.325 -130.044C48.7097 -134.067 49.755 -137.912 49.2915 -141.55C48.0489 -151.46 35.2285 -160.6 22.0038 -150.296C17.4772 -144.232 15.8993 -137.754 19.4002 -131.089H1.55028C4.57787 -137.468 3.51279 -144.173 -1.26036 -150.296C-14.3569 -160.571 -27.5126 -151.588 -28.7453 -140.772C-29.1004 -137.685 -28.2621 -134.451 -27.9564 -131.059C-34.7216 -134.057 -40.9543 -133.672 -46.7038 -129.176C-46.1022 -130.754 -45.4612 -132.341 -44.8892 -133.938C-42.8379 -139.628 -43.3507 -145.002 -47.1969 -149.754C-51.043 -154.497 -56.1317 -156.232 -62.1671 -155.266C-73.9225 -153.393 -79.8001 -138.563 -70.3032 -128.229C-71.3584 -128.683 -72.4235 -129.117 -73.459 -129.6C-82.5023 -133.781 -89.4253 -132.933 -94.5239 -127.026C-99.8493 -120.854 -99.6225 -113.597 -93.8434 -105.344C-95.7665 -106.182 -97.6994 -107.06 -99.6422 -107.868C-106.2 -110.599 -113.646 -108.775 -118.025 -103.382C-122.561 -97.8108 -122.729 -89.7551 -118.429 -83.9869C-114.277 -78.4652 -106.841 -76.296 -100.214 -78.7512C-98.3996 -79.402 -96.6442 -80.1908 -94.8888 -80.9303C-100.372 -74.9649 -99.4844 -68.1318 -96.8907 -60.9339C-106.654 -64.2863 -113.409 -63.1327 -118.133 -57.4237C-123.488 -50.985 -122.926 -43.9744 -118.646 -36.2441C-128.419 -40.7797 -135.411 -40.0205 -140.569 -34.5481C-145.312 -29.5293 -146.2 -21.6905 -142.719 -15.7251C-138.754 -8.9413 -132.275 -6.92981 -120.924 -9.27654C-124.691 -1.79268 -123.754 4.97137 -118.616 11.1143C-112.62 16.0148 -106.082 17.3558 -99.1294 13.7864V32.0967C-105.569 28.2808 -112.196 30.0457 -118.557 34.4039C-119.021 35.1927 -119.484 36.0111 -119.967 36.7999C-124.267 43.7711 -123.883 50.9591 -118.902 56.5794C-114.218 61.894 -107.078 63.2449 -99.9085 60.1981C-98.9913 59.8234 -98.0446 59.5276 -96.3977 58.9557C-100.707 66.0748 -101.26 72.5726 -96.6639 78.676C-90.8257 86.505 -82.9362 86.5838 -74.2677 82.9553C-78.6069 96.8286 -74.2085 106.817 -62.9265 108.099C-58.6958 108.572 -54.1593 106.235 -49.7708 105.17C-50.402 106.561 -51.0923 107.921 -51.6643 109.351C-54.2481 115.671 -53.3802 121.538 -48.7452 126.517C-44.2679 131.329 -38.5776 132.591 -32.3055 130.708C-26.3686 128.913 -21.6842 123.343 -21.7335 116.943C-21.7533 113.078 -23.4594 109.223 -24.416 105.348C-18.4693 109.381 -12.2366 110.347 -5.88556 106.61C2.05322 101.946 3.33527 94.5016 1.72778 86.7515H15.7612C16.6981 92.2042 17.6547 97.7061 18.6014 103.198C16.5896 102.597 14.6172 101.907 12.5956 101.404C2.2702 98.9386 -7.98615 107.832 -6.68437 118.294C-6.30962 121.292 -5.12621 124.171 -4.31754 127.119C-5.45164 126.409 -6.53644 125.551 -7.72972 125.009C-14.3076 122.13 -21.6843 123.934 -26.0728 129.426C-30.2443 134.662 -30.4613 142.382 -26.6053 147.835C-22.6704 153.367 -15.4811 155.723 -9.0808 153.544L-9.12025 153.475ZM119.222 -30.5252H134.172V-13.9305C130.139 -14.4235 124.685 -15.1039 119.222 -15.7744V-30.5153V-30.5252ZM111.352 -38.3739C106.973 -38.6302 101.934 -38.926 96.7665 -39.212V-52.8683C101.599 -53.174 106.786 -53.5092 111.352 -53.8247V-38.3739ZM110.011 -6.52557V8.31398C105.79 8.04774 100.682 7.72235 95.8 7.4364V-6.52557H110.011ZM114.429 -102.83C109.321 -95.8783 110.543 -88.7494 113.837 -81.581C108.394 -86.2055 102.289 -86.2054 96.2043 -84.1151C95.8986 -90.0213 95.5831 -95.9078 95.2675 -101.804C101.204 -97.732 107.812 -100.246 114.429 -102.83ZM94.804 40.1425C99.9716 39.896 105.494 39.6397 110.425 39.4228V55.2877H94.804V40.1425ZM87.0624 78.5873H71.3229C71.53 74.0122 71.7667 68.6187 72.0132 63.0082H87.0624V78.5873ZM73.1276 30.4401V18.0558C77.4964 17.8389 81.7764 17.6416 86.2143 17.4346V31.1698C81.9835 30.9233 77.4964 30.6866 73.1276 30.4401ZM87.1512 -15.4589C83.3938 -16.0209 79.1926 -16.6716 74.952 -17.3125V-28.5334C79.1138 -28.7898 83.0979 -29.0363 87.1512 -29.2927V-15.4589ZM87.5752 -62.5312H73.7489V-76.5425H87.5752V-62.5312ZM91.1847 -126.06C86.7962 -119.878 86.2538 -113.4 89.5871 -107.395C84.0743 -107.76 78.3643 -108.144 72.0724 -108.578C73.601 -114.051 74.2913 -120.588 69.2026 -126.09C76.5398 -122.215 83.8573 -122.727 91.1847 -126.06ZM64.2914 -99.8815V-85.9984H50.6229C50.3862 -90.682 50.1594 -95.3458 49.9424 -99.8815H64.2914ZM52.4276 -41.184V-51.4583C56.2244 -51.7146 59.6267 -51.9513 63.1376 -52.1978V-40.6121C59.5676 -40.7994 56.1751 -40.9868 52.4276 -41.1938V-41.184ZM61.5498 -4.23801V6.21376H51.5992V-4.23801H61.5498ZM50.1495 41.3948H62.1908C62.4176 45.4276 62.6839 49.9238 62.9305 54.351H49.4099C49.6663 50.052 49.8931 45.9305 50.1495 41.3948ZM47.329 86.0415H64.676C61.2244 92.0562 63.0587 98.3076 66.2046 104.431C59.2421 99.9542 52.1712 100.487 45.0904 104.086C49.2915 98.5738 49.5874 92.4901 47.329 86.0514V86.0415ZM30.6033 -19.2057V-26.9657C32.9998 -27.0741 35.3863 -27.1727 38.1377 -27.291V-18.1507C35.6328 -18.4958 33.2463 -18.8409 30.6033 -19.2057ZM37.8616 19.8405V29.4936H27.98V19.8405H37.8616ZM28.4633 -64.7005C28.2956 -68.2501 28.0984 -71.7998 27.9209 -75.5269H39.8833C39.6663 -72.1646 39.4494 -68.5854 39.193 -64.7005H28.4633ZM41.619 -123.694C41.333 -119.345 40.9681 -114.001 40.6131 -108.834H26.629C26.3824 -113.715 26.126 -118.941 25.8992 -123.694H41.6289H41.619ZM26.1161 64.2506H39.1239C39.3705 68.737 39.6171 73.4403 39.8439 77.897H25.3371C25.5836 73.6769 25.84 69.1906 26.1161 64.2506ZM-98.1925 -15.2124C-102.897 -15.6068 -108.725 -16.0899 -114.701 -16.573V-32.3887C-110.194 -32.014 -104.218 -31.5408 -98.1925 -31.0379V-15.2124ZM-76.457 53.4636C-81.9993 53.8482 -87.8869 54.2721 -92.5022 54.5975V38.0128C-87.6206 38.3185 -82.0585 38.6536 -76.457 39.0086V53.4636ZM-91.8809 7.22935V-8.84268C-87.522 -8.18205 -82.3741 -7.38341 -77.4629 -6.64389V6.26305C-82.3938 6.58842 -87.2656 6.91383 -91.8809 7.22935ZM-76.1019 -40.3064C-80.7567 -40.0698 -85.7962 -39.8331 -90.6975 -39.5965V-55.0178C-86.3977 -54.722 -81.092 -54.3769 -76.1019 -54.0318V-40.3163V-40.3064ZM-75.6384 -85.5744C-81.2104 -87.152 -87.591 -87.576 -93.1432 -82.9023C-89.0801 -90.1397 -89.9677 -97.3869 -93.1432 -104.614C-86.9105 -100.404 -80.4412 -99.5561 -74.5043 -103.125C-74.8594 -97.4362 -75.2341 -91.6877 -75.6384 -85.5645V-85.5744ZM-29.1102 -101.331C-29.3765 -96.7361 -29.6526 -92.0525 -29.9386 -87.152H-43.1239C-43.3902 -91.7469 -43.6663 -96.7953 -43.9129 -101.331H-29.1102ZM-42.5026 -41.7164V-53.3711C-39.1594 -53.2035 -35.4613 -53.0063 -31.5461 -52.7993V-42.4559C-35.264 -42.1897 -38.6368 -41.9728 -42.5026 -41.7164ZM-33.4001 -4.91837V4.8136C-36.3291 4.98123 -39.6624 5.15872 -43.3803 5.37564V-6.31848C-39.8103 -5.82549 -36.8222 -5.4015 -33.4001 -4.91837ZM-43.9326 40.044H-31.8222C-31.5855 44.343 -31.3686 48.4547 -31.1023 53.1382H-44.5736C-44.3862 49.2435 -44.1594 44.7867 -43.9326 40.044ZM-53.0153 77.4337H-68.7845V61.8053H-53.0153V77.4337ZM-66.9501 -63.7342V-77.7356H-53.0548V-63.7342H-66.9501ZM-54.2678 -29.7068V-17.5591H-66.4078V-30.4463C-62.463 -30.2096 -58.3605 -29.9533 -54.2678 -29.7166V-29.7068ZM-54.682 16.3303V29.2964C-59.0311 29.5034 -63.538 29.7302 -67.9166 29.9274V16.3303H-54.682ZM-50.5696 -108.726H-68.9521C-64.7904 -114.613 -67.463 -121.219 -69.9087 -127.865C-62.9166 -122.787 -55.7471 -124.068 -48.5282 -127.283C-53.3901 -121.475 -53.4789 -115.106 -50.5696 -108.726ZM-47.8477 103.129C-44.7906 97.0948 -42.7985 90.9519 -46.4375 84.8781H-28.9919C-31.2601 91.0998 -30.9938 97.2131 -26.911 102.764C-33.9425 99.3133 -40.9444 98.8795 -47.8477 103.129ZM-7.21689 76.7139H-21.5067C-21.2898 72.5332 -21.0531 67.8594 -20.8164 62.9984H-7.21689V76.7139ZM-9.67252 18.9333V28.271H-19.6428V18.4896C-16.201 18.6474 -12.996 18.7854 -9.67252 18.9333ZM-17.8578 -28.2573H-9.55418C-9.7021 -25.4768 -9.83031 -22.9131 -9.97823 -20.1424H-17.4338C-17.562 -22.6765 -17.7001 -25.25 -17.8578 -28.2573ZM-8.14391 -65.5386H-18.6074C-18.8638 -69.3347 -19.1202 -73.0619 -19.3766 -76.7594H-6.73367C-7.14787 -73.407 -7.6015 -69.7488 -8.14391 -65.5386ZM-6.40825 -110.412C-11.0926 -110.195 -15.9446 -109.988 -20.4712 -109.781V-123.664H-4.92897C-5.40233 -119.493 -5.91515 -114.82 -6.40825 -110.412ZM2.59563 53.651C2.99011 50.2788 3.41418 46.5812 3.84811 42.6371H14.6468C14.8638 46.4333 15.1005 50.0027 15.3076 53.651H2.59563ZM12.566 -2.33501C12.8224 0.169464 13.0492 2.38803 13.2957 4.90237H4.73567C5.07097 2.37817 5.37666 0.130051 5.76128 -2.73924C7.94075 -2.61107 10.14 -2.4632 12.5758 -2.33501H12.566ZM5.91907 -42.8109V-51.0639H14.7356V-42.8109H5.91907ZM16.3727 -86.8661H3.80865V-99.6251H17.201C16.9545 -95.8092 16.6784 -91.5496 16.3727 -86.8661Z" fill="#F5E8FF"/>
<path fill-rule="evenodd" clip-rule="evenodd" d="M47.6939 140.184C47.7432 131.467 41.0767 124.782 32.3686 124.812C23.6803 124.821 17.063 131.556 17.1419 140.282C17.211 148.722 23.7395 155.26 32.1714 155.358C40.909 155.467 47.6447 148.861 47.6841 140.184H47.6939Z" fill="#F5E8FF"/>
<path fill-rule="evenodd" clip-rule="evenodd" d="M140.642 93.338C140.523 84.8879 133.916 78.3703 125.435 78.3506C116.717 78.3407 110.031 85.1147 110.149 93.8409C110.267 102.291 116.875 108.809 125.356 108.828C134.074 108.848 140.76 102.084 140.642 93.338Z" fill="#F5E8FF"/>
<path fill-rule="evenodd" clip-rule="evenodd" d="M93.9854 140.282C94.1136 131.99 87.4076 125.098 79.1039 124.989C70.8298 124.881 63.9265 131.586 63.818 139.868C63.7095 148.151 70.3958 155.063 78.6995 155.161C86.9933 155.27 93.877 148.575 93.9756 140.292L93.9854 140.282Z" fill="#F5E8FF"/>
<path fill-rule="evenodd" clip-rule="evenodd" d="M102.2 101.63C93.512 101.601 86.8159 108.395 86.9441 117.081C87.023 125.482 93.6797 132.029 102.102 132.049C110.76 132.069 117.457 125.295 117.358 116.598C117.24 108.187 110.632 101.66 102.19 101.63H102.2Z" fill="#F5E8FF"/>
<path fill-rule="evenodd" clip-rule="evenodd" d="M156.717 0.623277C156.697 9.07343 163.304 15.7389 171.726 15.8178C180.415 15.8868 187.2 9.06359 187.071 0.366934C186.953 -8.05364 180.227 -14.6008 171.756 -14.5515C163.324 -14.4726 156.717 -7.82687 156.717 0.623277Z" fill="#F5E8FF"/>
<path fill-rule="evenodd" clip-rule="evenodd" d="M163.817 70.492C163.886 62.0221 157.338 55.2975 148.926 55.1693C140.464 55.0412 133.65 61.5292 133.453 69.93C133.255 78.6365 139.961 85.5386 148.64 85.5386C157.091 85.5386 163.768 78.9224 163.817 70.492Z" fill="#F5E8FF"/>
<path fill-rule="evenodd" clip-rule="evenodd" d="M186.943 46.956C186.855 38.9002 180.227 32.2249 172.16 32.0671C163.876 31.9094 156.914 38.703 156.825 46.9954C156.746 55.278 163.61 62.1801 171.894 62.1702C180.188 62.1702 187.032 55.2385 186.943 46.956Z" fill="#F5E8FF"/>
<path fill-rule="evenodd" clip-rule="evenodd" d="M9.46938 178.273C17.418 178.096 24.1438 171.253 24.1438 163.315C24.1438 155.151 17.0334 148.17 8.8974 148.367C0.919165 148.535 -5.77704 155.378 -5.77704 163.315C-5.77704 171.253 1.33335 178.461 9.46938 178.273Z" fill="#F5E8FF"/>
<path fill-rule="evenodd" clip-rule="evenodd" d="M163.304 117.052C163.452 109.065 156.727 102.232 148.709 102.183C140.938 102.143 134.311 108.513 133.985 116.342C133.67 124.279 140.247 131.26 148.295 131.507C156.253 131.734 163.166 125.088 163.304 117.052Z" fill="#F5E8FF"/>
<path fill-rule="evenodd" clip-rule="evenodd" d="M209.852 24.0903C210 16.1135 203.205 9.19165 195.208 9.14235C187.21 9.09305 180.346 15.9557 180.405 23.9425C180.454 31.732 186.953 38.3481 194.783 38.5848C202.712 38.8313 209.724 32.1067 209.862 24.0805L209.852 24.0903Z" fill="#F5E8FF"/>
<path fill-rule="evenodd" clip-rule="evenodd" d="M55.9384 178.155C63.9166 177.968 70.6917 170.957 70.4945 163.039C70.3071 155.072 63.2954 148.308 55.3861 148.486C47.398 148.673 40.6427 155.694 40.83 163.611C41.0273 171.588 48.0193 178.332 55.9384 178.165V178.155Z" fill="#F5E8FF"/>
<path fill-rule="evenodd" clip-rule="evenodd" d="M186.342 94.3538C186.766 86.3769 180.78 79.6523 172.772 79.1494C164.784 78.6466 158.038 84.5626 157.446 92.5592C156.835 100.743 163.048 107.724 171.273 108.059C179.231 108.405 185.908 102.321 186.342 94.3538Z" fill="#F5E8FF"/>
<path fill-rule="evenodd" clip-rule="evenodd" d="M139.922 141.179C140.583 133.134 134.389 126.044 126.224 125.522C118.384 125.038 111.549 131.004 110.889 138.961C110.218 147.007 116.411 154.096 124.577 154.619C132.417 155.092 139.251 149.107 139.922 141.17V141.179Z" fill="#F5E8FF"/>
<path fill-rule="evenodd" clip-rule="evenodd" d="M102.171 177.593C110.287 177.583 116.431 171.401 116.421 163.306C116.421 155.191 110.248 149.038 102.131 149.048C94.015 149.058 87.8613 155.23 87.8613 163.345C87.881 171.45 94.0545 177.613 102.171 177.593Z" fill="#F5E8FF"/>
<path fill-rule="evenodd" clip-rule="evenodd" d="M46.6486 186.645C46.688 178.727 40.7808 172.574 32.9307 172.348C24.7651 172.111 18.3549 178.106 18.1971 186.201C18.0295 194.365 24.0748 200.696 32.201 200.794C40.3567 200.903 46.6091 194.779 46.6486 186.655V186.645Z" fill="#F5E8FF"/>
<path fill-rule="evenodd" clip-rule="evenodd" d="M0.159824 185.264C0.0809288 177.356 -5.8855 171.302 -13.775 171.174C-21.9406 171.026 -28.2226 177.1 -28.3113 185.235C-28.3705 193.389 -22.2364 199.621 -14.0807 199.621C-5.92494 199.621 0.209133 193.409 0.159824 185.264Z" fill="#F5E8FF"/>
<path fill-rule="evenodd" clip-rule="evenodd" d="M232.466 0.435648C232.387 -7.42289 226.322 -13.4278 218.442 -13.4573C210.336 -13.4968 204.182 -7.28486 204.28 0.830049C204.369 8.68859 210.424 14.6836 218.284 14.7132C226.41 14.7526 232.564 8.54068 232.466 0.425778V0.435648Z" fill="#F5E8FF"/>
<path fill-rule="evenodd" clip-rule="evenodd" d="M209.32 70.2656C209.27 62.1605 203.038 56.067 194.902 56.1853C187.042 56.2839 181.036 62.2788 180.937 70.1571C180.859 78.2917 186.953 84.5135 195.079 84.5234C203.205 84.5529 209.349 78.3903 209.32 70.2656Z" fill="#F5E8FF"/>
<path fill-rule="evenodd" clip-rule="evenodd" d="M92.9302 186.99C93.1372 179.141 87.2202 172.801 79.4786 172.545C71.4018 172.269 64.9324 178.402 64.8831 186.418C64.8141 194.257 70.8297 200.459 78.6305 200.597C86.4608 200.735 92.7329 194.75 92.9302 187V186.99Z" fill="#F5E8FF"/>
<path fill-rule="evenodd" clip-rule="evenodd" d="M232.298 47.9421C232.732 40.2019 226.765 33.5463 219.073 33.1913C211.558 32.8265 205.03 38.5454 204.458 46.0095C203.876 53.7004 209.744 60.5237 217.416 61.0364C225.128 61.5491 231.874 55.6231 232.298 47.9421Z" fill="#F5E8FF"/>
<path fill-rule="evenodd" clip-rule="evenodd" d="M9.34119 223.66C16.7277 223.551 22.9604 217.32 23.0196 209.925C23.0985 202.313 16.5995 195.844 8.98618 195.943C1.59965 196.051 -4.63303 202.303 -4.6922 209.698C-4.76124 217.29 1.74757 223.768 9.34119 223.66Z" fill="#F5E8FF"/>
<path fill-rule="evenodd" clip-rule="evenodd" d="M162.476 163.138C162.368 155.733 156.017 149.482 148.62 149.502C141.234 149.502 134.892 155.792 134.814 163.197C134.745 170.573 140.977 176.972 148.374 177.14C155.977 177.317 162.585 170.75 162.476 163.148V163.138Z" fill="#F5E8FF"/>
<path fill-rule="evenodd" clip-rule="evenodd" d="M185.75 140.144C185.789 132.769 179.636 126.439 172.249 126.222C164.656 126.005 158.068 132.394 158.028 140.016C158.009 147.372 164.143 153.722 171.539 153.929C179.123 154.146 185.711 147.756 185.76 140.134L185.75 140.144Z" fill="#F5E8FF"/>
<path fill-rule="evenodd" clip-rule="evenodd" d="M55.6229 223.541C62.9897 223.571 69.39 217.191 69.4097 209.836C69.4393 202.48 63.0586 196.091 55.7017 196.051C48.3349 196.032 41.9444 202.391 41.9247 209.757C41.8951 217.122 48.2659 223.522 55.6229 223.541Z" fill="#F5E8FF"/>
<path fill-rule="evenodd" clip-rule="evenodd" d="M208.915 116.825C208.915 109.469 202.633 103.149 195.257 103.05C187.939 102.981 181.509 109.203 181.352 116.559C181.174 123.885 187.328 130.353 194.714 130.619C202.239 130.905 208.925 124.388 208.915 116.825Z" fill="#F5E8FF"/>
<path fill-rule="evenodd" clip-rule="evenodd" d="M231.953 93.486C231.884 86.1106 225.454 79.8593 218.126 80.0171C210.957 80.1748 204.912 86.2585 204.783 93.417C204.665 100.753 210.957 107.142 218.334 107.172C225.7 107.192 232.022 100.842 231.943 93.486H231.953Z" fill="#F5E8FF"/>
<path fill-rule="evenodd" clip-rule="evenodd" d="M125.208 200.251C132.535 200.37 138.975 194.089 139.094 186.743C139.202 179.437 132.92 172.978 125.563 172.87C118.246 172.751 111.806 179.023 111.687 186.398C111.589 193.685 117.861 200.143 125.208 200.251Z" fill="#F5E8FF"/>
<path fill-rule="evenodd" clip-rule="evenodd" d="M241.736 10.3056C234.369 10.2169 228.018 16.5274 228.047 23.9126C228.067 31.2683 234.458 37.5689 241.805 37.4605C249.191 37.3421 255.424 30.8739 255.207 23.5478C254.99 16.3696 248.905 10.3746 241.736 10.3056Z" fill="#F5E8FF"/>
<path fill-rule="evenodd" clip-rule="evenodd" d="M102.043 223.048C109.488 223.098 115.327 217.359 115.396 209.924C115.445 202.48 109.705 196.633 102.269 196.574C94.8139 196.505 88.9855 202.253 88.9165 209.678C88.8376 217.142 94.5871 222.979 102.043 223.048Z" fill="#F5E8FF"/>
<path fill-rule="evenodd" clip-rule="evenodd" d="M241.667 83.468C249.152 83.4483 254.822 77.6604 254.734 70.1568C254.635 62.7124 248.767 57.0921 241.282 57.2498C234.063 57.4076 228.56 63.018 228.511 70.2554C228.472 77.7491 234.182 83.4877 241.667 83.4779V83.468Z" fill="#F5E8FF"/>
<path fill-rule="evenodd" clip-rule="evenodd" d="M32.1714 246.082C39.6565 246.2 45.406 240.599 45.4652 233.135C45.5046 225.651 39.8538 219.982 32.3686 220.002C25.1399 220.011 19.5384 225.464 19.3806 232.652C19.1833 240.136 24.7454 245.983 32.1714 246.082Z" fill="#F5E8FF"/>
<path fill-rule="evenodd" clip-rule="evenodd" d="M218.531 152.913C225.69 152.844 231.292 147.105 231.213 139.917C231.154 132.739 225.424 127.158 218.225 127.227C211.046 127.306 205.464 133.035 205.543 140.223C205.612 147.391 211.332 152.982 218.541 152.903L218.531 152.913Z" fill="#F5E8FF"/>
<path fill-rule="evenodd" clip-rule="evenodd" d="M264.951 34.3053C257.751 34.256 252.002 39.9946 252.051 47.1728C252.081 54.1143 257.564 59.7346 264.497 59.9219C271.686 60.1093 277.574 54.4988 277.682 47.3305C277.801 40.1425 272.13 34.3349 264.951 34.2954V34.3053Z" fill="#F5E8FF"/>
<path fill-rule="evenodd" clip-rule="evenodd" d="M78.9264 245.904C86.1256 245.904 91.7271 240.323 91.7764 233.155C91.8257 225.977 86.3129 220.288 79.1532 220.159C71.9541 220.031 66.2046 225.513 66.0172 232.642C65.8397 240.087 71.5202 245.924 78.9264 245.904Z" fill="#F5E8FF"/>
<path fill-rule="evenodd" clip-rule="evenodd" d="M195.296 176.183C202.466 176.124 208.028 170.494 207.998 163.306C207.998 156.118 202.436 150.507 195.247 150.458C187.851 150.389 182.101 156.207 182.249 163.631C182.387 170.77 188.097 176.272 195.296 176.183Z" fill="#F5E8FF"/>
<path fill-rule="evenodd" clip-rule="evenodd" d="M264.822 13.5498C272.071 13.5498 277.692 8.02815 277.781 0.820374C277.85 -6.4367 272.376 -12.126 265.187 -12.2739C257.929 -12.4218 252.15 -6.98887 251.962 0.169601C251.726 7.65346 257.386 13.5301 264.822 13.5498Z" fill="#F5E8FF"/>
<path fill-rule="evenodd" clip-rule="evenodd" d="M171.874 199.433C179.054 199.443 184.685 193.902 184.774 186.723C184.833 179.545 179.33 173.826 172.2 173.678C165.01 173.54 159.222 178.973 159.024 186.112C158.807 193.537 164.478 199.423 171.884 199.433H171.874Z" fill="#F5E8FF"/>
<path fill-rule="evenodd" clip-rule="evenodd" d="M148.354 222.575C155.484 222.743 161.342 217.053 161.421 209.944C161.49 202.815 155.76 197.018 148.63 197.018C141.5 197.018 136.086 202.5 135.859 209.363C135.642 216.491 141.253 222.417 148.354 222.575Z" fill="#F5E8FF"/>
<path fill-rule="evenodd" clip-rule="evenodd" d="M241.134 129.594C248.235 129.86 254.27 124.121 254.379 117.022C254.477 110.14 248.964 104.342 242.101 104.076C235 103.81 228.965 109.538 228.856 116.648C228.757 123.54 234.27 129.337 241.134 129.594Z" fill="#F5E8FF"/>
<path fill-rule="evenodd" clip-rule="evenodd" d="M9.49896 267.803C16.3135 267.616 21.9742 261.73 21.8756 254.936C21.7671 248.113 15.9683 242.404 9.15379 242.433C2.31953 242.443 -3.42993 248.182 -3.50882 255.005C-3.58772 262.025 2.49705 268.01 9.49896 267.803Z" fill="#F5E8FF"/>
<path fill-rule="evenodd" clip-rule="evenodd" d="M125.119 245.638C131.825 245.815 137.821 240.087 137.999 233.322C138.167 226.608 132.427 220.613 125.681 220.425C118.965 220.258 112.969 225.996 112.782 232.77C112.614 239.475 118.354 245.47 125.119 245.648V245.638Z" fill="#F5E8FF"/>
<path fill-rule="evenodd" clip-rule="evenodd" d="M264.497 106.097C271.154 106.344 277.219 100.575 277.367 93.8311C277.524 87.1361 271.676 81.1509 264.951 81.0918C258.461 81.0326 252.712 86.505 252.357 93.062C252.032 99.7275 257.712 105.841 264.497 106.087V106.097Z" fill="#F5E8FF"/>
<path fill-rule="evenodd" clip-rule="evenodd" d="M55.3763 268.839C62.0331 269.016 68.0487 263.277 68.2164 256.553C68.4038 249.897 62.6544 243.902 55.9384 243.715C49.2817 243.537 43.2758 249.286 43.1082 256.011C42.9208 262.656 48.6702 268.671 55.3763 268.839Z" fill="#F5E8FF"/>
<path fill-rule="evenodd" clip-rule="evenodd" d="M287.929 36.2281C294.467 36.3366 300.157 30.9233 300.463 24.3368C300.759 17.6121 295.069 11.6271 288.284 11.5285C281.745 11.42 276.045 16.8332 275.739 23.4099C275.453 30.1345 281.144 36.1196 287.929 36.2281Z" fill="#F5E8FF"/>
<path fill-rule="evenodd" clip-rule="evenodd" d="M195.346 197.885C188.423 197.777 183.166 202.963 183.196 209.885C183.235 216.768 188.561 221.915 195.494 221.737C202.131 221.56 207.091 216.413 207.042 209.737C207.022 203.062 201.992 197.974 195.336 197.885H195.346Z" fill="#F5E8FF"/>
<path fill-rule="evenodd" clip-rule="evenodd" d="M288.136 58.4233C281.223 58.4233 276.055 63.6887 276.173 70.6203C276.302 77.2759 281.41 82.2652 288.077 82.275C294.99 82.2849 300.157 77.0196 300.029 70.0978C299.911 63.4323 294.793 58.4431 288.126 58.4233H288.136Z" fill="#F5E8FF"/>
<path fill-rule="evenodd" clip-rule="evenodd" d="M265.069 128.361C258.392 128.263 253.235 133.262 253.136 139.878C253.047 146.553 258.037 151.72 264.655 151.809C271.331 151.907 276.499 146.908 276.588 140.292C276.686 133.627 271.676 128.45 265.059 128.361H265.069Z" fill="#F5E8FF"/>
<path fill-rule="evenodd" clip-rule="evenodd" d="M218.906 174.566C212.052 174.31 206.578 179.388 206.391 186.171C206.184 193.024 211.332 198.428 218.146 198.546C225.01 198.664 230.326 193.488 230.385 186.645C230.424 180.028 225.483 174.822 218.915 174.566H218.906Z" fill="#F5E8FF"/>
<path fill-rule="evenodd" clip-rule="evenodd" d="M32.1714 267.705C25.5048 267.814 20.5541 272.901 20.6133 279.606C20.6528 286.272 25.6922 291.291 32.3686 291.33C39.2818 291.35 44.4198 286.084 44.2423 279.133C44.0549 272.497 38.8972 267.606 32.1714 267.705Z" fill="#F5E8FF"/>
<path fill-rule="evenodd" clip-rule="evenodd" d="M101.895 268.356C108.65 268.484 114.084 263.287 114.222 256.543C114.35 249.779 109.163 244.346 102.408 244.208C95.6522 244.06 90.2084 249.266 90.0703 256.021C89.9224 262.775 95.1295 268.218 101.895 268.356Z" fill="#F5E8FF"/>
<path fill-rule="evenodd" clip-rule="evenodd" d="M242.465 151.473C235.759 151.079 230.316 155.674 229.803 162.172C229.241 169.133 233.994 174.743 240.759 175.148C247.712 175.552 253.215 170.671 253.481 163.868C253.738 157.172 249.014 151.858 242.465 151.463V151.473Z" fill="#F5E8FF"/>
<path fill-rule="evenodd" clip-rule="evenodd" d="M172.18 221.234C165.464 221.096 160.277 225.977 160.06 232.603C159.863 239.554 164.961 244.859 171.884 244.859C178.807 244.859 183.63 239.86 183.709 233.195C183.768 226.48 178.847 221.362 172.18 221.234Z" fill="#F5E8FF"/>
<path fill-rule="evenodd" clip-rule="evenodd" d="M311.637 -11.0611C305.039 -11.1892 299.802 -6.20003 299.664 0.347112C299.526 6.93369 304.526 12.1793 311.055 12.3174C317.652 12.4554 322.899 7.46615 323.047 0.909148C323.185 -5.67743 318.195 -10.923 311.637 -11.0611Z" fill="#F5E8FF"/>
<path fill-rule="evenodd" clip-rule="evenodd" d="M288.146 105.249C281.923 105.22 276.696 110.298 276.509 116.5C276.331 122.928 281.647 128.411 288.077 128.43C294.28 128.43 299.536 123.382 299.714 117.16C299.891 110.731 294.605 105.269 288.155 105.249H288.146Z" fill="#F5E8FF"/>
<path fill-rule="evenodd" clip-rule="evenodd" d="M148.808 244.662C142.486 244.563 137.249 249.533 137.023 255.833C136.776 262.37 141.954 267.813 148.482 267.902C154.804 267.981 160.03 263.021 160.257 256.73C160.514 250.193 155.346 244.75 148.808 244.662Z" fill="#F5E8FF"/>
<path fill-rule="evenodd" clip-rule="evenodd" d="M311.153 35.5182C304.94 35.6168 299.812 40.8131 299.763 47.025C299.714 53.4637 305.108 58.8178 311.548 58.7192C317.761 58.6107 322.899 53.4341 322.938 47.2123C323.017 40.7737 317.603 35.4098 311.153 35.5182Z" fill="#F5E8FF"/>
<path fill-rule="evenodd" clip-rule="evenodd" d="M78.7884 267.873C72.4472 267.922 67.4078 272.892 67.25 279.202C67.0922 285.779 72.1809 291.084 78.7292 291.172C85.307 291.261 90.5338 286.114 90.5437 279.547C90.5634 272.97 85.3563 267.804 78.7785 267.873H78.7884Z" fill="#F5E8FF"/>
<path fill-rule="evenodd" clip-rule="evenodd" d="M311.568 82.3833C305.621 82.2551 300.355 87.2345 300.128 93.2294C299.891 99.4216 305.197 104.855 311.41 104.815C317.416 104.766 322.504 99.6681 322.564 93.6731C322.613 87.688 317.583 82.5115 311.568 82.3833Z" fill="#F5E8FF"/>
<path fill-rule="evenodd" clip-rule="evenodd" d="M125.82 268.148C119.784 267.882 114.222 273.118 114.025 279.241C113.857 285.305 119.163 290.797 125.257 290.896C131.125 290.975 136.411 286.015 136.746 280.089C137.121 274.055 131.954 268.444 125.82 268.158V268.148Z" fill="#F5E8FF"/>
<path fill-rule="evenodd" clip-rule="evenodd" d="M9.27213 290.235C3.19723 290.166 -2.21694 295.53 -2.19721 301.624C-2.17749 307.727 3.26625 313.072 9.35101 312.963C15.4555 312.845 20.7316 307.323 20.5442 301.269C20.3371 295.363 15.1695 290.295 9.27213 290.226V290.235Z" fill="#F5E8FF"/>
<path fill-rule="evenodd" clip-rule="evenodd" d="M56.0271 291.557C50.0706 291.34 44.7748 296.221 44.4691 302.265C44.1239 308.418 49.3704 313.929 55.5932 313.979C61.5793 314.018 66.7371 308.98 66.885 302.985C67.0034 297.039 62.0231 291.774 56.0271 291.557Z" fill="#F5E8FF"/>
<path fill-rule="evenodd" clip-rule="evenodd" d="M265.01 175.542C258.895 175.463 253.925 180.275 253.856 186.408C253.777 192.531 258.59 197.491 264.724 197.57C270.848 197.668 275.799 192.827 275.887 186.714C275.956 180.581 271.144 175.621 265.01 175.542Z" fill="#F5E8FF"/>
<path fill-rule="evenodd" clip-rule="evenodd" d="M218.225 222.023C212.101 222.092 207.269 227.071 207.367 233.194C207.436 239.327 212.407 244.149 218.541 244.06C224.655 243.972 229.477 239.022 229.398 232.899C229.329 226.766 224.349 221.944 218.225 222.023Z" fill="#F5E8FF"/>
<path fill-rule="evenodd" clip-rule="evenodd" d="M241.479 198.674C235.385 198.763 230.414 203.87 230.513 209.934C230.592 216.028 235.7 220.997 241.765 220.919C247.84 220.82 252.83 215.732 252.742 209.658C252.663 203.565 247.534 198.585 241.479 198.674Z" fill="#F5E8FF"/>
<path fill-rule="evenodd" clip-rule="evenodd" d="M102.348 292.01C96.3029 291.912 91.6284 296.309 91.4114 302.285C91.1846 308.329 95.4449 313.131 101.392 313.476C107.683 313.86 112.674 309.414 112.92 303.231C113.157 296.96 108.581 292.099 102.358 292L102.348 292.01Z" fill="#F5E8FF"/>
<path fill-rule="evenodd" clip-rule="evenodd" d="M195.296 245.46C188.995 245.382 184.241 250.134 184.31 256.415C184.379 262.666 189.271 267.32 195.543 267.094C201.559 266.896 206.016 262.213 205.957 256.149C205.898 250.114 201.322 245.539 195.296 245.46Z" fill="#F5E8FF"/>
<path fill-rule="evenodd" clip-rule="evenodd" d="M334.25 12.9777C328.264 13.1552 323.737 17.7894 323.698 23.7844C323.658 30.0259 328.421 34.8081 334.664 34.7588C340.887 34.7292 345.601 29.9076 345.492 23.6562C345.384 17.4443 340.492 12.7805 334.25 12.9679V12.9777Z" fill="#F5E8FF"/>
<path fill-rule="evenodd" clip-rule="evenodd" d="M287.87 152.568C281.864 152.686 277.376 157.252 277.347 163.276C277.347 169.518 282.081 174.191 288.353 174.063C294.359 173.945 298.826 169.38 298.846 163.345C298.865 157.114 294.112 152.43 287.86 152.558L287.87 152.568Z" fill="#F5E8FF"/>
<path fill-rule="evenodd" clip-rule="evenodd" d="M334.851 59.7249C328.786 59.6066 324.092 64.093 323.974 70.1077C323.846 76.1717 328.323 80.8552 334.358 80.9736C340.404 81.0919 345.108 76.6253 345.226 70.6007C345.335 64.5367 340.867 59.8531 334.851 59.7249Z" fill="#F5E8FF"/>
<path fill-rule="evenodd" clip-rule="evenodd" d="M172.052 268.938C166.066 268.859 161.391 273.375 161.293 279.34C161.224 285.335 165.721 289.999 171.707 290.097C177.703 290.176 182.367 285.66 182.456 279.695C182.525 273.71 178.018 269.036 172.042 268.938H172.052Z" fill="#F5E8FF"/>
<path fill-rule="evenodd" clip-rule="evenodd" d="M78.6601 315.665C73.1079 315.813 68.4136 320.713 68.5616 326.245C68.7095 331.806 73.6207 336.49 79.1532 336.352C84.7153 336.204 89.3996 331.283 89.2517 325.752C89.1038 320.201 84.2025 315.507 78.6601 315.665Z" fill="#F5E8FF"/>
<path fill-rule="evenodd" clip-rule="evenodd" d="M148.65 292.385C143.097 292.365 138.344 297.039 138.265 302.6C138.166 308.161 142.772 312.973 148.334 313.15C154.113 313.328 159.103 308.417 159.034 302.639C158.945 297.068 154.222 292.395 148.65 292.385Z" fill="#F5E8FF"/>
<path fill-rule="evenodd" clip-rule="evenodd" d="M32.4771 315.547C26.6093 315.517 21.8263 320.368 21.9545 326.235C22.0827 331.875 26.7177 336.43 32.3587 336.47C38.2265 336.509 42.9997 331.648 42.8813 325.781C42.763 320.141 38.1279 315.576 32.4771 315.547Z" fill="#F5E8FF"/>
<path fill-rule="evenodd" clip-rule="evenodd" d="M310.996 129.554C305.276 129.732 300.858 134.267 300.818 140.016C300.779 145.981 305.463 150.655 311.429 150.616C317.396 150.576 322.001 145.843 321.893 139.878C321.775 133.922 316.982 129.377 310.996 129.554Z" fill="#F5E8FF"/>
<path fill-rule="evenodd" clip-rule="evenodd" d="M357.583 -9.71044C352.001 -9.55268 347.336 -4.62259 347.504 0.899095C347.672 6.47008 352.603 11.1438 358.125 10.9663C363.697 10.8085 368.372 5.87845 368.194 0.356769C368.036 -5.21422 363.106 -9.88792 357.583 -9.71044Z" fill="#F5E8FF"/>
<path fill-rule="evenodd" clip-rule="evenodd" d="M358.086 36.879C352.8 36.7311 347.948 41.2372 347.622 46.5716C347.297 52.0637 352.031 57.1811 357.603 57.3388C362.898 57.4867 367.731 53.0004 368.066 47.6463C368.392 42.1542 363.658 37.0368 358.086 36.879Z" fill="#F5E8FF"/>
<path fill-rule="evenodd" clip-rule="evenodd" d="M334.861 106.56C329.348 106.383 324.398 111.165 324.309 116.716C324.25 122.031 328.698 126.784 334.053 127.099C339.536 127.444 344.654 122.8 344.891 117.239C345.157 111.737 340.433 106.708 334.861 106.56Z" fill="#F5E8FF"/>
<path fill-rule="evenodd" clip-rule="evenodd" d="M241.972 246.2C236.469 245.983 231.489 250.824 231.558 256.366C231.608 261.7 236.223 266.315 241.568 266.344C246.884 266.384 251.578 261.809 251.696 256.484C251.834 251.179 247.327 246.417 241.982 246.2H241.972Z" fill="#F5E8FF"/>
<path fill-rule="evenodd" clip-rule="evenodd" d="M264.822 222.969C259.487 222.979 254.842 227.594 254.783 232.938C254.714 238.252 259.27 242.956 264.605 243.114C270.138 243.281 275.039 238.4 274.931 232.859C274.822 227.525 270.138 222.95 264.812 222.979L264.822 222.969Z" fill="#F5E8FF"/>
<path fill-rule="evenodd" clip-rule="evenodd" d="M218.126 269.667C212.87 269.795 208.62 274.055 208.511 279.33C208.403 284.822 212.821 289.348 218.324 289.368C223.827 289.397 228.294 284.921 228.225 279.419C228.176 273.917 223.619 269.519 218.117 269.657L218.126 269.667Z" fill="#F5E8FF"/>
<path fill-rule="evenodd" clip-rule="evenodd" d="M288.55 199.818C283.175 199.561 278.402 203.949 278.136 209.362C277.879 214.736 282.258 219.518 287.672 219.775C293.057 220.031 297.83 215.643 298.076 210.23C298.343 204.866 293.954 200.084 288.55 199.818Z" fill="#F5E8FF"/>
<path fill-rule="evenodd" clip-rule="evenodd" d="M125.948 316.158C120.464 315.852 115.77 320.102 115.534 325.594C115.307 331.076 119.636 335.71 125.129 335.858C130.622 335.996 135.188 331.618 135.257 326.116C135.316 320.841 131.234 316.463 125.948 316.158Z" fill="#F5E8FF"/>
<path fill-rule="evenodd" clip-rule="evenodd" d="M358.135 83.961C352.711 83.8131 348.411 87.7769 348.204 93.1507C347.987 98.8104 352.189 103.218 357.839 103.238C363.263 103.238 367.405 99.1654 367.474 93.7522C367.553 88.3094 363.549 84.1089 358.135 83.961Z" fill="#F5E8FF"/>
<path fill-rule="evenodd" clip-rule="evenodd" d="M195.158 293.263C189.714 293.253 185.651 297.305 185.642 302.728C185.612 308.161 189.665 312.253 195.099 312.263C200.543 312.263 204.616 308.221 204.626 302.797C204.626 297.365 200.602 293.292 195.158 293.263Z" fill="#F5E8FF"/>
<path fill-rule="evenodd" clip-rule="evenodd" d="M311.321 176.824C305.976 176.824 301.745 180.945 301.607 186.289C301.479 191.88 305.789 196.307 311.36 196.288C316.725 196.268 320.946 192.156 321.074 186.832C321.222 181.251 316.903 176.814 311.321 176.824Z" fill="#F5E8FF"/>
<path fill-rule="evenodd" clip-rule="evenodd" d="M9.25239 338.353C3.89741 338.313 -0.372767 342.395 -0.570004 347.73C-0.757379 353.311 3.52266 357.787 9.10447 357.827C14.4496 357.866 18.7296 353.784 18.9072 348.45C19.1044 342.869 14.8342 338.392 9.25239 338.353Z" fill="#F5E8FF"/>
<path fill-rule="evenodd" clip-rule="evenodd" d="M55.6425 339.665C50.2284 339.684 46.1653 343.727 46.0864 349.12C46.0272 354.534 50.0114 358.685 55.396 358.803C61.0666 358.931 65.3072 354.721 65.2382 349.071C65.1593 343.687 61.037 339.665 55.6425 339.665Z" fill="#F5E8FF"/>
<path fill-rule="evenodd" clip-rule="evenodd" d="M335.078 153.879C329.605 153.653 325.325 157.587 325.167 162.98C325.009 168.443 328.984 172.663 334.408 172.752C339.871 172.841 344.013 168.788 344.033 163.345C344.053 158.129 340.236 154.096 335.078 153.87V153.879Z" fill="#F5E8FF"/>
<path fill-rule="evenodd" clip-rule="evenodd" d="M381.311 14.4962C375.926 14.3779 371.754 18.4402 371.705 23.7943C371.666 29.1878 375.758 33.2995 381.143 33.2601C386.537 33.2305 390.561 29.0498 390.462 23.676C390.364 18.5487 386.429 14.6046 381.301 14.506L381.311 14.4962Z" fill="#F5E8FF"/>
<path fill-rule="evenodd" clip-rule="evenodd" d="M357.691 130.856C352.721 130.954 348.549 135.283 348.638 140.233C348.717 145.212 353.056 149.383 358.007 149.294C362.977 149.205 367.149 144.877 367.06 139.917C366.971 134.938 362.642 130.767 357.691 130.846V130.856Z" fill="#F5E8FF"/>
<path fill-rule="evenodd" clip-rule="evenodd" d="M102.23 339.93C96.9046 339.891 92.6541 344.259 92.8513 349.593C93.0387 354.691 97.2497 358.655 102.348 358.537C107.457 358.438 111.49 354.277 111.451 349.169C111.411 344.062 107.338 339.99 102.22 339.93H102.23Z" fill="#F5E8FF"/>
<path fill-rule="evenodd" clip-rule="evenodd" d="M171.924 316.739C166.934 316.729 162.723 320.821 162.634 325.82C162.525 330.82 166.549 335.089 171.569 335.276C176.776 335.464 181.214 331.145 181.164 325.899C181.095 320.89 176.933 316.779 171.934 316.749L171.924 316.739Z" fill="#F5E8FF"/>
<path fill-rule="evenodd" clip-rule="evenodd" d="M380.857 61.1445C375.886 61.2825 371.735 65.6407 371.873 70.5905C372.011 75.5502 376.38 79.7013 381.32 79.5731C386.281 79.4351 390.443 75.0769 390.314 70.1369C390.176 65.1674 385.808 61.0163 380.857 61.1445Z" fill="#F5E8FF"/>
<path fill-rule="evenodd" clip-rule="evenodd" d="M288.224 247.334C283.56 247.274 279.319 251.327 279.152 256.03C278.994 260.901 283.372 265.338 288.274 265.23C292.958 265.131 297.061 260.941 297.051 256.277C297.031 251.583 292.909 247.422 288.224 247.344V247.334Z" fill="#F5E8FF"/>
<path fill-rule="evenodd" clip-rule="evenodd" d="M32.2996 363.536C27.6152 363.615 23.4831 367.786 23.4733 372.469C23.4733 377.37 27.9703 381.698 32.8223 381.432C37.5166 381.176 41.5303 376.867 41.3627 372.223C41.195 367.529 36.9643 363.477 32.2996 363.536Z" fill="#F5E8FF"/>
<path fill-rule="evenodd" clip-rule="evenodd" d="M311.212 224.222C306.439 224.3 302.435 228.442 302.524 233.194C302.623 237.957 306.755 241.97 311.508 241.871C316.281 241.792 320.266 237.651 320.187 232.898C320.098 228.126 315.946 224.123 311.212 224.222Z" fill="#F5E8FF"/>
<path fill-rule="evenodd" clip-rule="evenodd" d="M265.02 270.702C260.256 270.604 256.124 274.617 256.025 279.379C255.937 284.122 259.941 288.253 264.704 288.352C269.467 288.451 273.589 284.438 273.688 279.665C273.787 274.932 269.783 270.781 265.01 270.702H265.02Z" fill="#F5E8FF"/>
<path fill-rule="evenodd" clip-rule="evenodd" d="M148.778 340.414C144.024 340.335 139.882 344.338 139.813 349.11C139.725 353.863 143.748 357.994 148.502 358.083C153.245 358.162 157.387 354.159 157.476 349.387C157.545 344.634 153.541 340.512 148.778 340.414Z" fill="#F5E8FF"/>
<path fill-rule="evenodd" clip-rule="evenodd" d="M79.1433 363.92C74.3801 363.802 70.6128 367.253 70.3466 371.956C70.0803 376.946 73.7095 380.919 78.6601 381.038C83.4333 381.156 87.2005 377.715 87.4667 373.002C87.733 368.022 84.094 364.049 79.1433 363.92Z" fill="#F5E8FF"/>
<path fill-rule="evenodd" clip-rule="evenodd" d="M381.024 108.276C376.271 108.306 372.642 111.856 372.524 116.598C372.395 121.578 376.163 125.423 381.143 125.394C386.103 125.374 389.821 121.469 389.644 116.49C389.466 111.767 385.778 108.257 381.015 108.276H381.024Z" fill="#F5E8FF"/>
<path fill-rule="evenodd" clip-rule="evenodd" d="M334.615 201.238C329.861 201.238 326.193 204.778 326.045 209.501C325.897 214.48 329.634 218.345 334.595 218.345C339.555 218.345 343.007 214.815 343.155 210.082C343.313 205.103 339.575 201.238 334.615 201.238Z" fill="#F5E8FF"/>
<path fill-rule="evenodd" clip-rule="evenodd" d="M404.851 -7.91591C399.871 -8.19199 395.886 -4.56347 395.768 0.415902C395.65 5.1685 399.091 8.92522 403.805 9.2013C408.786 9.46753 412.76 5.84884 412.888 0.869461C413.006 -3.88313 409.565 -7.62998 404.851 -7.90607V-7.91591Z" fill="#F5E8FF"/>
<path fill-rule="evenodd" clip-rule="evenodd" d="M241.44 294.199C236.677 294.308 233.126 297.907 233.067 302.659C233.018 307.639 236.824 311.415 241.815 311.326C246.785 311.218 250.434 307.274 250.177 302.285C249.941 297.562 246.193 294.091 241.44 294.19V294.199Z" fill="#F5E8FF"/>
<path fill-rule="evenodd" clip-rule="evenodd" d="M358.135 178.313C353.332 178.165 349.595 181.764 349.595 186.556C349.595 191.348 353.007 194.641 357.553 194.789C362.356 194.947 366.094 191.338 366.094 186.556C366.074 181.991 362.682 178.451 358.135 178.313Z" fill="#F5E8FF"/>
<path fill-rule="evenodd" clip-rule="evenodd" d="M217.979 317.696C213.413 317.883 210.099 321.354 210.069 325.959C210.069 330.79 213.649 334.35 218.482 334.3C223.304 334.241 226.805 330.593 226.677 325.752C226.558 320.95 222.821 317.489 217.979 317.696Z" fill="#F5E8FF"/>
<path fill-rule="evenodd" clip-rule="evenodd" d="M404.289 38.8115C399.683 38.8411 396.222 42.1541 396.024 46.7292C395.817 51.5607 399.289 55.2977 404.072 55.4259C408.924 55.554 412.573 52.0438 412.632 47.2321C412.681 42.3809 409.121 38.8115 404.289 38.8213V38.8115Z" fill="#F5E8FF"/>
<path fill-rule="evenodd" clip-rule="evenodd" d="M125.208 364.295C120.741 364.394 117.279 367.894 117.21 372.37C117.141 377.084 120.859 380.761 125.563 380.663C130.257 380.584 133.827 376.739 133.571 372.025C133.344 367.598 129.705 364.226 125.208 364.295Z" fill="#F5E8FF"/>
<path fill-rule="evenodd" clip-rule="evenodd" d="M194.852 341.153C190.484 341.301 186.894 345.176 187.032 349.525C187.19 353.883 191.056 357.492 195.415 357.334C199.774 357.176 203.383 353.301 203.225 348.963C203.067 344.605 199.202 340.996 194.852 341.153Z" fill="#F5E8FF"/>
<path fill-rule="evenodd" clip-rule="evenodd" d="M404.407 85.5978C399.703 85.7753 396.902 88.4671 396.34 93.0915C395.827 97.3709 399.624 101.423 403.973 101.64C408.283 101.857 412.247 98.1695 412.375 93.8212C412.504 89.4827 408.746 85.4302 404.407 85.5978Z" fill="#F5E8FF"/>
<path fill-rule="evenodd" clip-rule="evenodd" d="M55.8102 387.822C51.6978 387.743 47.9306 391.302 47.7629 395.444C47.5854 399.762 51.4809 403.706 55.8102 403.618C59.9423 403.539 63.5616 399.841 63.5616 395.729C63.5616 391.618 59.9226 387.92 55.8102 387.831V387.822Z" fill="#F5E8FF"/>
<path fill-rule="evenodd" clip-rule="evenodd" d="M381.153 155.338C376.833 155.299 372.967 159.243 373.115 163.542C373.244 167.654 376.932 171.253 381.025 171.292C385.334 171.332 389.22 167.378 389.062 163.079C388.924 158.977 385.226 155.368 381.153 155.329V155.338Z" fill="#F5E8FF"/>
<path fill-rule="evenodd" clip-rule="evenodd" d="M9.2919 386.569C4.5878 386.717 1.76731 389.399 1.18546 394.014C0.643059 398.283 4.40043 402.355 8.76923 402.612C13.069 402.839 17.063 399.171 17.2011 394.832C17.3589 390.503 13.641 386.431 9.2919 386.569Z" fill="#F5E8FF"/>
<path fill-rule="evenodd" clip-rule="evenodd" d="M427.306 31.3771C431.586 31.7024 435.137 28.1331 435.127 23.8538C435.107 19.7914 431.912 16.4784 427.839 16.3403C423.559 16.1727 419.89 19.6238 420.077 23.8932C420.275 28.4092 422.819 31.032 427.316 31.3771H427.306Z" fill="#F5E8FF"/>
<path fill-rule="evenodd" clip-rule="evenodd" d="M171.934 364.976C167.417 365.143 164.764 367.638 164.379 372.144C164.014 376.413 167.525 379.993 172.091 380.012C176.312 379.667 179.004 377.32 179.379 372.804C179.724 368.535 176.204 364.828 171.924 364.966L171.934 364.976Z" fill="#F5E8FF"/>
<path fill-rule="evenodd" clip-rule="evenodd" d="M404.062 147.273C408.608 147.431 411.36 144.926 411.547 140.351C411.715 135.786 409.121 133.321 404.634 132.759C400.117 133.005 397.277 135.194 397.129 139.799C396.981 144.344 399.476 147.125 404.062 147.273Z" fill="#F5E8FF"/>
<path fill-rule="evenodd" clip-rule="evenodd" d="M334.891 249.07C330.335 248.912 327.563 251.426 327.396 255.991C327.208 260.566 329.812 263.031 334.309 263.593C338.806 263.357 341.676 261.178 341.804 256.573C341.962 252.018 339.457 249.237 334.891 249.07Z" fill="#F5E8FF"/>
<path fill-rule="evenodd" clip-rule="evenodd" d="M311.439 272.172C307.09 271.984 303.668 275.514 304.013 279.872C304.349 284.438 307.08 286.666 311.548 286.942C316.055 286.429 318.727 284.024 318.668 279.458C318.629 274.913 315.976 272.369 311.439 272.172Z" fill="#F5E8FF"/>
<path fill-rule="evenodd" clip-rule="evenodd" d="M295.463 303.113C295.503 298.567 293.077 296.013 288.925 295.412C284.447 295.146 280.946 298.045 280.789 302.146C280.591 306.643 282.791 309.473 287.347 310.074C291.696 310.636 295.424 307.431 295.463 303.113Z" fill="#F5E8FF"/>
<path fill-rule="evenodd" clip-rule="evenodd" d="M102.486 388.413C97.9696 388.226 95.228 390.711 94.804 395.246C94.3799 399.585 97.7527 403.184 102.092 403.085C106.668 402.977 109.074 400.403 109.587 395.907C109.301 391.44 107.052 388.591 102.496 388.413H102.486Z" fill="#F5E8FF"/>
<path fill-rule="evenodd" clip-rule="evenodd" d="M248.54 349.367C248.629 344.989 245.957 342.76 241.755 342.179C237.505 342.603 234.763 344.742 234.704 349.12C234.665 353.449 237.17 356.072 241.499 356.131C245.828 356.21 248.422 353.685 248.54 349.367Z" fill="#F5E8FF"/>
<path fill-rule="evenodd" clip-rule="evenodd" d="M427.513 77.4633C432.148 77.5225 434.446 74.7814 434.86 69.9204C434.21 65.8974 432.03 63.0774 427.356 63.2253C423.046 63.3732 420.531 65.858 420.452 70.157C420.383 74.7321 422.918 77.414 427.513 77.4633Z" fill="#F5E8FF"/>
<path fill-rule="evenodd" clip-rule="evenodd" d="M272.1 326.55C271.943 321.985 269.822 319.096 265.187 318.889C260.917 318.701 258.156 320.949 257.771 325.258C257.367 329.784 259.635 332.732 264.25 333.107C268.826 333.501 271.371 330.977 272.1 326.56V326.55Z" fill="#F5E8FF"/>
<path fill-rule="evenodd" clip-rule="evenodd" d="M357.899 225.967C353.707 225.859 350.522 229.103 350.778 233.283C351.035 237.592 353.48 239.959 357.79 240.116C361.962 240.254 365.078 236.981 364.91 232.041C364.447 228.609 362.257 226.095 357.899 225.967Z" fill="#F5E8FF"/>
<path fill-rule="evenodd" clip-rule="evenodd" d="M148.768 388.876C144.429 388.837 141.796 391.42 141.796 395.739C141.796 400.097 144.567 402.257 149.123 402.75C152.88 401.951 155.691 399.831 155.504 395.414C155.297 391.401 152.782 388.906 148.768 388.876Z" fill="#F5E8FF"/>
<path fill-rule="evenodd" clip-rule="evenodd" d="M31.7867 411.94C28.0688 412.807 25.268 414.967 25.5639 419.384C25.8301 423.367 28.3548 425.852 32.3982 425.813C36.7177 425.773 39.3212 423.141 39.2719 418.832C39.2127 414.474 36.3823 412.344 31.7966 411.93L31.7867 411.94Z" fill="#F5E8FF"/>
<path fill-rule="evenodd" clip-rule="evenodd" d="M78.7193 412.56C74.8831 412.057 72.2401 415.104 72.3387 419.107C72.4275 423.091 75.1789 426.079 79.0152 425.388C81.7666 424.895 84.0743 421.977 86.5891 420.153C86.5595 419.255 86.5497 418.358 86.5102 417.461C83.9461 415.735 81.5102 412.915 78.7292 412.56H78.7193Z" fill="#F5E8FF"/>
<path fill-rule="evenodd" clip-rule="evenodd" d="M219.872 364.887C218.965 364.887 218.067 364.847 217.19 364.837C215.365 367.342 212.456 369.659 211.953 372.4C211.282 376.226 214.241 378.977 218.245 379.066C222.259 379.154 225.296 376.492 224.793 372.656C224.418 369.906 221.598 367.47 219.872 364.887Z" fill="#F5E8FF"/>
<path fill-rule="evenodd" clip-rule="evenodd" d="M427.543 110.317C423.677 109.706 421.162 112.703 420.847 116.687C420.541 120.355 424.417 124.466 427.809 123.411C430.61 122.534 432.858 119.862 435.354 117.969C435.354 117.101 435.314 116.214 435.294 115.326C432.72 113.571 430.324 110.741 427.553 110.307L427.543 110.317Z" fill="#F5E8FF"/>
<path fill-rule="evenodd" clip-rule="evenodd" d="M381.153 202.943C377.09 202.884 374.506 205.33 374.249 209.313C373.973 213.632 376.439 216.403 380.748 216.639C385.107 216.896 387.386 214.214 388.086 210.013C387.662 205.773 385.522 203.022 381.153 202.943Z" fill="#F5E8FF"/>
<path fill-rule="evenodd" clip-rule="evenodd" d="M404.368 192.659C406.784 192.176 410.196 188.912 410.314 186.743C410.462 184.327 407.365 181.724 405.679 179.2C404.782 179.23 403.894 179.259 403.007 179.279C401.33 181.646 398.608 183.835 398.174 186.408C397.533 190.303 400.541 193.428 404.368 192.659Z" fill="#F5E8FF"/>
<path fill-rule="evenodd" clip-rule="evenodd" d="M450.639 -5.49996C448.42 -5.38164 445.107 -1.98972 444.565 0.465454C443.736 4.24189 446.843 7.45629 450.699 6.92384C453.43 6.53929 455.817 3.67986 458.322 1.94448C458.322 1.01762 458.312 0.110479 458.312 -0.806515C455.758 -2.52218 453.115 -5.638 450.649 -5.49996H450.639Z" fill="#F5E8FF"/>
<path fill-rule="evenodd" clip-rule="evenodd" d="M189.527 395.709C189.971 397.967 192.92 400.925 195.079 401.241C197.131 401.537 199.596 398.776 201.894 397.356C201.933 396.459 201.953 395.542 202.002 394.654C199.852 393.047 197.86 390.513 195.474 390.05C191.726 389.31 188.758 391.982 189.517 395.709H189.527Z" fill="#F5E8FF"/>
<path fill-rule="evenodd" clip-rule="evenodd" d="M450.659 41.1579C446.892 40.5959 444.614 43.3666 444.683 47.2515C444.762 51.1562 447.198 53.7888 450.896 53.0789C453.46 52.5957 455.639 49.9926 457.967 48.3361C457.947 47.4093 457.937 46.512 457.908 45.5753C455.511 44.047 453.243 41.5326 450.659 41.1579Z" fill="#F5E8FF"/>
<path fill-rule="evenodd" clip-rule="evenodd" d="M125.543 413.044C121.618 412.955 119.005 415.262 119.636 419.068C120.031 421.504 122.378 423.614 123.877 425.852C124.774 425.872 125.672 425.891 126.579 425.911C128.167 423.732 130.662 421.75 131.155 419.354C131.934 415.617 129.508 413.122 125.543 413.034V413.044Z" fill="#F5E8FF"/>
<path fill-rule="evenodd" clip-rule="evenodd" d="M428.657 170.119C430.245 167.92 433.204 165.603 433.026 163.562C432.829 161.413 429.732 157.991 427.789 157.932C425.847 157.853 422.494 161.028 422.148 163.148C421.823 165.169 424.594 167.694 426.004 169.991C426.892 170.03 427.789 170.08 428.667 170.119H428.657Z" fill="#F5E8FF"/>
<path fill-rule="evenodd" clip-rule="evenodd" d="M352.494 279.084C352.79 281.332 355.551 284.536 357.662 284.891C359.664 285.216 362.179 282.397 364.466 280.957C364.486 280.07 364.496 279.182 364.506 278.305C362.267 276.786 359.989 274.055 357.829 274.124C355.857 274.183 352.307 277.555 352.494 279.074V279.084Z" fill="#F5E8FF"/>
<path fill-rule="evenodd" clip-rule="evenodd" d="M329.21 302.541C329.122 304.483 332.287 307.846 334.437 308.201C336.439 308.536 338.974 305.765 341.271 304.375C341.311 303.468 341.36 302.58 341.4 301.693C339.191 300.115 336.903 297.147 334.851 297.315C332.702 297.502 329.279 300.618 329.21 302.541Z" fill="#F5E8FF"/>
<path fill-rule="evenodd" clip-rule="evenodd" d="M450.935 87.777C448.953 89.6701 445.699 91.3759 445.373 93.5353C445.077 95.5468 447.898 98.0315 449.318 100.299C450.215 100.329 451.123 100.349 452.02 100.378C453.559 98.1499 456.468 95.7834 456.251 93.7423C456.044 91.583 452.848 89.749 450.935 87.7671V87.777Z" fill="#F5E8FF"/>
<path fill-rule="evenodd" clip-rule="evenodd" d="M3.82845 440.662C4.12431 442.9 6.91522 446.075 9.04538 446.41C11.0276 446.736 13.5424 443.876 15.7909 442.417C15.8106 441.539 15.8205 440.652 15.8303 439.774C13.5818 438.286 11.2742 435.574 9.08484 435.663C7.12233 435.742 3.61149 439.134 3.82845 440.662Z" fill="#F5E8FF"/>
<path fill-rule="evenodd" clip-rule="evenodd" d="M306.006 325.574C306.292 327.812 309.063 331.007 311.173 331.372C313.165 331.697 315.68 328.877 317.958 327.428C317.988 326.54 317.998 325.663 318.007 324.775C315.769 323.257 313.491 320.526 311.311 320.614C309.359 320.674 305.808 324.036 305.996 325.564L306.006 325.574Z" fill="#F5E8FF"/>
<path fill-rule="evenodd" clip-rule="evenodd" d="M380.936 250.706C379.121 252.609 376.064 254.404 375.877 256.464C375.709 258.407 378.589 260.606 381.311 264.293C383.825 260.468 386.567 258.111 386.281 256.188C386.005 254.137 382.839 252.52 380.936 250.716V250.706Z" fill="#F5E8FF"/>
<path fill-rule="evenodd" clip-rule="evenodd" d="M282.436 349.179C284.447 351.092 286.272 354.159 288.54 354.533C290.276 354.819 292.574 351.704 296.144 348.903C292.367 346.428 290.029 343.697 288.067 343.934C285.996 344.19 284.299 347.306 282.436 349.179Z" fill="#F5E8FF"/>
<path fill-rule="evenodd" clip-rule="evenodd" d="M50.4453 442.298C50.7412 444.34 53.9463 447.416 55.8102 447.376C57.6544 447.317 60.682 444.083 60.8693 442.022C61.037 440.09 58.1672 437.871 55.4354 434.184C52.9305 438.009 50.1791 440.366 50.4453 442.298Z" fill="#F5E8FF"/>
<path fill-rule="evenodd" clip-rule="evenodd" d="M259.645 371.996C261.381 373.909 262.84 376.857 264.901 377.38C266.459 377.764 268.807 375.053 272.238 372.765C268.984 370.221 267.041 367.51 265.227 367.598C263.313 367.677 261.509 370.418 259.645 371.996Z" fill="#F5E8FF"/>
<path fill-rule="evenodd" clip-rule="evenodd" d="M171.362 413.763C169.803 415.627 167.062 417.451 166.993 419.364C166.934 421.188 169.646 423.101 172.219 426.345C174.478 422.884 177.18 420.517 176.766 418.96C176.233 416.899 173.285 415.469 171.352 413.763H171.362Z" fill="#F5E8FF"/>
<path fill-rule="evenodd" clip-rule="evenodd" d="M473.844 28.5273C475.807 28.1822 478.499 25.7073 478.726 23.8536C478.963 22.1281 476.389 20.0377 473.884 16.4092C471.546 20.1462 469.278 22.207 469.377 24.1198C469.466 25.8059 472.552 28.7738 473.834 28.5273H473.844Z" fill="#F5E8FF"/>
<path fill-rule="evenodd" clip-rule="evenodd" d="M455.344 140.686C455.097 138.714 452.631 137.028 451.103 135.214C449.387 136.831 446.744 138.231 446.29 140.134C445.916 141.613 448.332 143.753 450.413 146.997C452.868 144.009 455.551 142.155 455.353 140.676L455.344 140.686Z" fill="#F5E8FF"/>
<path fill-rule="evenodd" clip-rule="evenodd" d="M399.673 233.194C399.417 234.476 402.336 237.592 404.012 237.72C405.916 237.868 408.016 235.62 411.784 233.342C408.214 230.788 406.162 228.185 404.427 228.392C402.583 228.59 400.058 231.242 399.673 233.204V233.194Z" fill="#F5E8FF"/>
<path fill-rule="evenodd" clip-rule="evenodd" d="M97.6047 441.924C97.9795 443.847 100.346 446.253 102.289 446.736C103.453 447.012 106.599 444.034 106.687 442.417C106.796 440.554 104.508 438.552 102.24 435.052C99.8335 438.414 97.3286 440.445 97.6047 441.924Z" fill="#F5E8FF"/>
<path fill-rule="evenodd" clip-rule="evenodd" d="M237.278 395.561C237.653 397.386 239.97 399.87 241.696 400.068C243.323 400.245 245.227 397.839 248.6 395.463C245.039 393.333 243.106 391.233 241.292 391.361C239.773 391.46 237.041 394.388 237.278 395.561Z" fill="#F5E8FF"/>
<path fill-rule="evenodd" clip-rule="evenodd" d="M423.105 209.944C424.644 211.394 426.103 213.839 427.75 213.977C429.308 214.095 431.064 211.798 434.032 209.599C430.926 207.588 429.032 205.409 427.454 205.635C425.837 205.862 424.545 208.426 423.105 209.944Z" fill="#F5E8FF"/>
<path fill-rule="evenodd" clip-rule="evenodd" d="M469.732 69.9695C470.018 71.8133 472.207 74.4263 473.943 74.7024C475.541 74.9784 477.582 72.6514 481.034 70.4329C477.631 68.1453 475.777 65.9564 473.992 66.0057C472.434 66.0353 469.554 68.8159 469.742 69.9794L469.732 69.9695Z" fill="#F5E8FF"/>
<path fill-rule="evenodd" clip-rule="evenodd" d="M144.626 441.973C144.961 443.679 147.062 446.016 148.66 446.223C150.139 446.41 151.934 444.172 154.951 442.042C151.815 440.06 150.06 438.098 148.393 438.167C146.983 438.226 144.399 440.908 144.626 441.973Z" fill="#F5E8FF"/>
<path fill-rule="evenodd" clip-rule="evenodd" d="M470.698 116.569C470.61 117.772 472.513 119.97 473.825 120.217C475.067 120.463 476.685 118.738 479.278 117.239C476.961 115.346 475.639 113.394 474.367 113.433C473.026 113.473 470.807 115.346 470.708 116.559L470.698 116.569Z" fill="#F5E8FF"/>
<path fill-rule="evenodd" clip-rule="evenodd" d="M377.701 302.531C378.894 303.734 379.93 305.568 381.34 305.923C382.267 306.16 383.746 304.266 385.798 302.679C383.697 301.17 382.376 299.504 381.192 299.593C379.969 299.691 378.875 301.486 377.711 302.531H377.701Z" fill="#F5E8FF"/>
<path fill-rule="evenodd" clip-rule="evenodd" d="M334.97 345.866C333.727 347.02 331.853 347.966 331.419 349.376C331.143 350.284 332.968 351.841 334.457 353.971C336.074 351.92 337.8 350.668 337.77 349.495C337.731 348.252 335.966 347.069 334.97 345.866Z" fill="#F5E8FF"/>
<path fill-rule="evenodd" clip-rule="evenodd" d="M218.166 415.183C216.973 416.406 214.833 417.638 214.833 418.891C214.833 420.399 216.627 421.888 218.412 424.531C220.247 421.839 222.209 420.192 221.913 419.107C221.529 417.589 219.497 416.465 218.166 415.183Z" fill="#F5E8FF"/>
<path fill-rule="evenodd" clip-rule="evenodd" d="M354.674 325.85C354.753 327.083 356.538 328.207 357.573 329.39C358.786 328.207 360.64 327.211 361.005 325.801C361.261 324.874 359.378 323.376 357.839 321.285C356.291 323.385 354.615 324.677 354.674 325.85Z" fill="#F5E8FF"/>
<path fill-rule="evenodd" clip-rule="evenodd" d="M447.553 186.467C447.927 187.868 449.673 189.711 450.945 189.82C452.168 189.909 453.558 188.025 455.915 186.191C453.312 184.702 451.823 183.214 450.422 183.283C449.347 183.342 447.336 185.639 447.553 186.467Z" fill="#F5E8FF"/>
<path fill-rule="evenodd" clip-rule="evenodd" d="M494.15 0.238495C494.12 1.46115 495.817 2.73311 496.773 3.99521C498.095 2.91059 499.998 2.04291 500.491 0.672344C500.807 -0.24465 499.071 -1.87159 497.7 -4.06055C495.984 -2.1181 494.17 -0.964453 494.15 0.228625V0.238495Z" fill="#F5E8FF"/>
<path fill-rule="evenodd" clip-rule="evenodd" d="M32.9406 461.9C31.3824 462.127 29.4396 463.813 28.8775 465.332C28.5816 466.13 30.7315 468.852 31.9544 468.98C33.4435 469.148 35.1299 467.491 37.9208 466.002C35.4849 463.892 34.0648 461.753 32.9504 461.891L32.9406 461.9Z" fill="#F5E8FF"/>
<path fill-rule="evenodd" clip-rule="evenodd" d="M75.6424 465.086C75.9185 466.525 77.4964 468.487 78.7784 468.704C79.9816 468.902 81.5102 467.117 84.025 465.49C81.5398 463.804 80.1788 462.187 78.7883 462.167C77.6739 462.157 75.4747 464.287 75.6325 465.086H75.6424Z" fill="#F5E8FF"/>
</svg>
