<svg width="425" height="356" viewBox="0 0 425 356" fill="none" xmlns="http://www.w3.org/2000/svg">
<path fill-rule="evenodd" clip-rule="evenodd" d="M405.749 275.536C405.781 275.489 405.805 275.441 405.844 275.385C405.813 275.409 405.789 275.417 405.757 275.441C405.741 275.481 405.725 275.528 405.709 275.56C405.709 275.552 405.741 275.552 405.749 275.536Z" fill="#F5E8FF"/>
<path fill-rule="evenodd" clip-rule="evenodd" d="M386.981 275.441C386.981 275.441 386.933 275.417 386.893 275.385C386.925 275.441 386.965 275.489 386.989 275.536C386.989 275.552 387.021 275.552 387.029 275.56C387.013 275.528 386.997 275.481 386.981 275.441Z" fill="#F5E8FF"/>
<path fill-rule="evenodd" clip-rule="evenodd" d="M405.756 275.44C406.091 274.653 406.385 273.834 406.807 273.086C410.228 267.162 409.36 260.689 404.539 256.547C399.925 252.587 392.813 252.587 388.206 256.547C383.385 260.689 382.51 267.154 385.931 273.086C386.36 273.826 386.647 274.645 386.989 275.44C393.242 279.567 399.503 279.567 405.764 275.44H405.756Z" fill="#F5E8FF"/>
<path fill-rule="evenodd" clip-rule="evenodd" d="M296.286 340.192C296.31 333.17 290.94 327.739 283.923 327.699C276.89 327.668 271.448 333.043 271.425 340.056C271.393 347.086 276.771 352.517 283.788 352.549C290.844 352.564 296.246 347.229 296.286 340.192Z" fill="#F5E8FF"/>
<path fill-rule="evenodd" clip-rule="evenodd" d="M421.509 266.359C421.628 273.174 426.942 278.398 433.792 278.438C440.857 278.47 446.235 273.087 446.227 266.049C446.203 259.012 440.777 253.668 433.705 253.74C426.696 253.812 421.389 259.298 421.509 266.359Z" fill="#F5E8FF"/>
<path fill-rule="evenodd" clip-rule="evenodd" d="M380.672 520.545C386.066 518.692 389.407 513.675 388.938 507.814C388.763 505.834 388.206 503.886 387.816 501.922C389.28 502.407 390.728 502.972 392.224 503.369C400.442 505.58 408.764 499.083 408.294 490.638C408.151 488.221 407.181 485.852 406.584 483.45C412.153 486.05 417.579 486.432 422.71 482.385C422.113 483.816 421.437 485.215 420.976 486.678C419.377 491.728 420.252 496.332 424.063 500.053C427.865 503.791 432.551 504.721 437.492 502.852C442.464 500.976 445.511 497.087 445.495 491.807C445.495 488.698 443.944 485.597 443.077 482.504C443.649 482.726 444.262 482.87 444.787 483.172C450.117 486.217 455.265 485.883 460.03 482.082C464.446 478.536 465.528 473.105 463.38 466.807C463.173 466.187 463.173 465.511 463.014 464.35C469.458 467.698 475.066 467.26 479.816 462.426C484.542 457.631 484.136 451.906 481.654 446.379C485.107 446.801 488.241 447.818 491.153 447.389C501.535 445.838 504.845 435.589 498.504 425.41C493.563 422.007 488.392 420.393 483.038 423.462V409.165C488.329 411.376 493.778 410.851 498.576 406.644C503.214 401.253 503.333 395.369 499.737 388.848C507.772 392.363 513.413 391.639 517.518 386.964C521.098 382.869 521.687 376.793 518.934 372.126C515.728 366.663 510.581 365.073 501.782 366.822C506.857 353.487 496.722 343.126 482.831 348.279C485.258 342.617 485.552 337.273 481.359 332.47C482.505 332.916 483.667 333.337 484.804 333.814C490.548 336.224 496.706 334.713 500.262 329.997C503.715 325.425 503.651 318.945 500.055 314.444C496.38 309.8 490.222 308.448 484.51 311.001C483.404 311.494 482.227 311.907 481.089 312.361C485.274 304.798 484.932 298.684 480.047 294.215C475.281 289.849 469.505 289.817 462.624 294.095C463.101 292.815 463.523 291.495 464.088 290.239C466.53 284.569 465.01 278.343 460.301 274.789C455.893 271.457 449.568 271.409 445.105 274.709C440.34 278.248 438.765 284.362 441.159 290.112C441.7 291.392 442.178 292.688 442.687 293.984C437.874 289.149 432.225 290.072 427.014 291.901C427.324 288.656 428.168 285.555 427.794 282.621C426.791 274.63 416.449 267.258 405.78 275.568C402.129 280.458 400.856 285.682 403.68 291.058H389.28C391.723 285.913 390.863 280.506 387.013 275.568C376.448 267.282 365.835 274.526 364.84 283.249C364.554 285.738 365.23 288.346 365.477 291.082C360.019 288.664 354.991 288.974 350.353 292.6C350.838 291.328 351.355 290.048 351.817 288.76C353.472 284.172 353.058 279.838 349.955 276.005C346.852 272.18 342.747 270.781 337.878 271.56C328.395 273.071 323.654 285.03 331.315 293.364C330.464 292.998 329.605 292.648 328.769 292.259C321.474 288.887 315.889 289.571 311.776 294.334C307.48 299.312 307.663 305.164 312.325 311.82C310.773 311.144 309.214 310.436 307.647 309.784C302.356 307.582 296.35 309.053 292.817 313.402C289.158 317.895 289.023 324.392 292.491 329.043C295.841 333.496 301.839 335.246 307.185 333.266C308.649 332.741 310.065 332.105 311.481 331.508C307.058 336.319 307.774 341.83 309.866 347.634C301.99 344.931 296.541 345.861 292.73 350.465C288.41 355.658 288.863 361.311 292.316 367.546C284.432 363.888 278.791 364.5 274.631 368.913C270.804 372.961 270.088 379.282 272.896 384.093C276.094 389.564 281.321 391.186 290.478 389.294C287.439 395.329 288.195 400.784 292.34 405.738C297.177 409.69 302.452 410.771 308.06 407.893V422.659C302.865 419.582 297.519 421.005 292.388 424.52C292.014 425.156 291.64 425.816 291.25 426.452C287.781 432.074 288.092 437.871 292.109 442.403C295.888 446.689 301.648 447.779 307.432 445.322C308.172 445.019 308.936 444.781 310.264 444.32C306.788 450.061 306.342 455.301 310.049 460.223C314.759 466.537 321.124 466.6 328.117 463.674C324.616 474.862 328.165 482.917 337.266 483.951C340.679 484.333 344.338 482.448 347.879 481.589C347.37 482.711 346.813 483.808 346.351 484.961C344.267 490.058 344.967 494.789 348.706 498.805C352.318 502.685 356.908 503.703 361.968 502.184C366.758 500.737 370.537 496.244 370.497 491.084C370.481 487.967 369.105 484.858 368.333 481.733C373.13 484.985 378.158 485.764 383.282 482.75C389.686 478.989 390.72 472.986 389.423 466.736H400.744C401.5 471.133 402.272 475.57 403.036 479.999C401.413 479.514 399.822 478.957 398.191 478.552C389.861 476.564 381.587 483.736 382.637 492.173C382.94 494.59 383.894 496.912 384.547 499.29C383.632 498.717 382.757 498.026 381.794 497.588C376.487 495.266 370.537 496.722 366.996 501.151C363.631 505.373 363.456 511.599 366.567 515.997C369.741 520.457 375.541 522.358 380.704 520.601L380.672 520.545ZM484.208 372.158H496.268V385.54C493.014 385.143 488.615 384.594 484.208 384.053V372.166V372.158ZM477.859 365.828C474.327 365.621 470.261 365.383 466.092 365.152V354.139C469.991 353.892 474.175 353.622 477.859 353.368V365.828ZM476.777 391.512V403.479C473.372 403.265 469.251 403.002 465.313 402.772V391.512H476.777ZM480.341 313.848C476.22 319.453 477.207 325.203 479.864 330.983C475.472 327.254 470.548 327.254 465.639 328.94C465.392 324.177 465.138 319.43 464.883 314.674C469.673 317.959 475.003 315.931 480.341 313.848ZM464.509 429.148C468.678 428.949 473.133 428.742 477.111 428.567V441.362H464.509V429.148ZM458.264 460.151H445.567C445.734 456.462 445.925 452.112 446.124 447.588H458.264V460.151ZM447.023 421.323V411.336C450.547 411.161 454 411.002 457.58 410.835V421.912C454.167 421.713 450.547 421.522 447.023 421.323ZM458.336 384.308C455.305 383.855 451.915 383.33 448.494 382.813V373.764C451.852 373.557 455.066 373.358 458.336 373.152V384.308ZM458.678 346.346H447.524V335.047H458.678V346.346ZM461.59 295.113C458.049 300.099 457.612 305.323 460.301 310.166C455.853 309.872 451.247 309.562 446.171 309.212C447.405 304.798 447.961 299.526 443.856 295.089C449.775 298.214 455.678 297.801 461.59 295.113ZM439.894 316.225V327.421H428.868C428.677 323.644 428.494 319.883 428.319 316.225H439.894ZM430.324 363.562V355.276C433.387 355.069 436.131 354.878 438.964 354.68V364.023C436.084 363.872 433.347 363.721 430.324 363.554V363.562ZM437.683 393.357V401.786H429.655V393.357H437.683ZM428.486 430.158H438.2C438.383 433.41 438.598 437.036 438.796 440.606H427.889C428.096 437.139 428.279 433.815 428.486 430.158ZM426.211 466.163H440.205C437.42 471.014 438.9 476.055 441.438 480.993C435.821 477.383 430.117 477.812 424.405 480.715C427.794 476.27 428.032 471.363 426.211 466.171V466.163ZM412.718 381.286V375.028C414.651 374.941 416.576 374.861 418.796 374.766V382.137C416.775 381.859 414.85 381.58 412.718 381.286ZM418.573 412.775V420.56H410.601V412.775H418.573ZM410.991 344.597C410.856 341.734 410.697 338.872 410.554 335.866H420.204C420.029 338.577 419.854 341.464 419.647 344.597H410.991ZM421.604 297.022C421.373 300.528 421.079 304.838 420.793 309.005H409.512C409.313 305.069 409.106 300.854 408.923 297.022H421.612H421.604ZM409.098 448.59H419.591C419.79 452.208 419.989 456.001 420.172 459.595H408.469C408.668 456.192 408.875 452.574 409.098 448.59ZM308.816 384.507C305.021 384.189 300.32 383.799 295.498 383.409V370.655C299.134 370.957 303.955 371.339 308.816 371.744V384.507ZM326.351 439.89C321.88 440.201 317.13 440.542 313.407 440.805V427.43C317.345 427.677 321.832 427.947 326.351 428.233V439.89ZM313.908 402.605V389.643C317.424 390.176 321.577 390.82 325.539 391.417V401.826C321.561 402.088 317.631 402.35 313.908 402.605ZM326.637 364.269C322.882 364.46 318.817 364.651 314.863 364.842V352.405C318.331 352.644 322.611 352.922 326.637 353.201V364.262V364.269ZM327.011 327.763C322.516 326.491 317.369 326.149 312.89 329.918C316.167 324.081 315.451 318.237 312.89 312.408C317.918 315.804 323.137 316.487 327.926 313.609C327.639 318.197 327.337 322.833 327.011 327.771V327.763ZM364.546 315.056C364.331 318.762 364.108 322.539 363.878 326.491H353.241C353.026 322.785 352.803 318.714 352.604 315.056H364.546ZM353.742 363.132V353.733C356.439 353.869 359.422 354.028 362.581 354.195V362.536C359.582 362.751 356.861 362.926 353.742 363.132ZM361.085 392.808V400.657C358.722 400.792 356.033 400.935 353.034 401.11V391.679C355.914 392.077 358.325 392.419 361.085 392.808ZM352.589 429.068H362.358C362.549 432.535 362.724 435.851 362.939 439.628H352.071C352.223 436.487 352.406 432.893 352.589 429.068ZM345.261 459.221H332.54V446.618H345.261V459.221ZM334.02 345.376V334.085H345.23V345.376H334.02ZM344.251 372.818V382.614H334.457V372.221C337.64 372.412 340.949 372.619 344.251 372.81V372.818ZM343.917 409.944V420.401C340.408 420.568 336.773 420.751 333.24 420.91V409.944H343.917ZM347.234 309.092H332.405C335.762 304.345 333.606 299.018 331.633 293.658C337.274 297.753 343.058 296.719 348.881 294.127C344.959 298.811 344.887 303.948 347.234 309.092ZM349.43 479.943C351.896 475.077 353.503 470.123 350.568 465.225H364.641C362.812 470.242 363.026 475.172 366.32 479.649C360.648 476.866 354.999 476.516 349.43 479.943ZM382.208 458.641H370.68C370.855 455.269 371.046 451.5 371.237 447.58H382.208V458.641ZM380.227 412.043V419.574H372.183V411.686C374.96 411.813 377.546 411.924 380.227 412.043ZM373.623 373.986H380.322C380.203 376.229 380.099 378.296 379.98 380.531H373.965C373.862 378.487 373.751 376.412 373.623 373.986ZM381.46 343.921H373.019C372.812 340.86 372.605 337.854 372.398 334.872H382.597C382.263 337.576 381.897 340.526 381.46 343.921ZM382.86 307.733C379.081 307.908 375.167 308.075 371.515 308.242V297.045H384.053C383.671 300.409 383.258 304.178 382.86 307.733ZM390.124 440.042C390.442 437.322 390.784 434.34 391.134 431.159H399.845C400.02 434.221 400.211 437.099 400.378 440.042H390.124ZM398.167 394.892C398.374 396.911 398.557 398.7 398.755 400.728H391.85C392.12 398.693 392.367 396.88 392.677 394.566C394.435 394.669 396.21 394.788 398.175 394.892H398.167ZM392.805 362.25V355.594H399.917V362.25H392.805ZM401.238 326.721H391.102V316.432H401.906C401.707 319.509 401.484 322.944 401.238 326.721Z" fill="#F5E8FF"/>
<path fill-rule="evenodd" clip-rule="evenodd" d="M346.534 265.174C346.542 271.997 351.737 277.333 358.531 277.468C365.596 277.611 371.093 272.339 371.181 265.365C371.276 258.328 365.962 252.881 358.961 252.825C351.92 252.786 346.518 258.153 346.534 265.174Z" fill="#F5E8FF"/>
<path fill-rule="evenodd" clip-rule="evenodd" d="M290.431 284.123C290.558 290.795 296.151 296.178 302.834 296.051C309.508 295.932 314.902 290.342 314.775 283.67C314.656 276.975 309.071 271.599 302.38 271.719C295.697 271.854 290.311 277.428 290.431 284.123Z" fill="#F5E8FF"/>
<path fill-rule="evenodd" clip-rule="evenodd" d="M277.296 359.482C277.614 352.532 272.268 346.807 265.362 346.664C258.608 346.529 253.087 351.777 252.888 358.488C252.705 365.239 257.892 370.813 264.607 371.06C271.361 371.306 277.001 366.161 277.296 359.482Z" fill="#F5E8FF"/>
<path fill-rule="evenodd" clip-rule="evenodd" d="M415.232 235.205C408.549 235.141 402.964 240.667 402.964 247.355C402.964 254.042 408.557 259.553 415.248 259.481C421.93 259.418 427.404 253.788 427.261 247.1C427.125 240.604 421.747 235.268 415.232 235.205Z" fill="#F5E8FF"/>
<path fill-rule="evenodd" clip-rule="evenodd" d="M296.008 302.643C296.008 295.963 290.439 290.437 283.756 290.493C277.24 290.556 271.854 295.876 271.703 302.388C271.568 309.068 277.033 314.69 283.732 314.777C290.415 314.849 295.992 309.346 296.008 302.643Z" fill="#F5E8FF"/>
<path fill-rule="evenodd" clip-rule="evenodd" d="M365.469 247.188C365.381 253.867 370.879 259.457 377.561 259.481C384.252 259.505 389.797 253.963 389.766 247.267C389.718 240.763 384.395 235.363 377.888 235.204C371.213 235.037 365.564 240.5 365.469 247.188Z" fill="#F5E8FF"/>
<path fill-rule="evenodd" clip-rule="evenodd" d="M309.23 264.936C309.119 271.56 314.624 277.205 321.267 277.261C327.727 277.317 333.224 272.061 333.479 265.588C333.749 258.988 328.332 253.223 321.697 253.032C315.077 252.833 309.373 258.296 309.23 264.936Z" fill="#F5E8FF"/>
<path fill-rule="evenodd" clip-rule="evenodd" d="M265.084 333.408C271.496 333.432 277.057 327.946 277.145 321.513C277.224 315.119 271.798 309.513 265.362 309.339C258.799 309.172 252.999 314.897 253.063 321.473C253.134 327.898 258.672 333.393 265.092 333.408H265.084Z" fill="#F5E8FF"/>
<path fill-rule="evenodd" clip-rule="evenodd" d="M340.154 234.489C333.749 234.465 328.212 239.952 328.18 246.369C328.157 252.762 333.646 258.296 340.058 258.328C346.463 258.352 352.016 252.865 352.032 246.44C352.063 240.055 346.566 234.505 340.154 234.489Z" fill="#F5E8FF"/>
<path fill-rule="evenodd" clip-rule="evenodd" d="M234.661 339.889C234.526 346.489 239.864 351.88 246.467 351.816C252.904 351.745 258.043 346.544 258.043 340.119C258.043 333.694 252.896 328.502 246.467 328.43C240.039 328.374 234.789 333.464 234.661 339.889Z" fill="#F5E8FF"/>
<path fill-rule="evenodd" clip-rule="evenodd" d="M396.408 216.907C389.797 216.883 384.499 222.307 384.674 228.906C384.849 235.347 390.123 240.405 396.56 240.293C402.98 240.19 408.095 234.958 408.056 228.533C408.016 222.1 402.837 216.947 396.408 216.915V216.907Z" fill="#F5E8FF"/>
<path fill-rule="evenodd" clip-rule="evenodd" d="M347.346 227.873C347.441 234.385 352.525 239.276 359.072 239.18C365.596 239.085 370.481 234.011 370.385 227.467C370.29 220.955 365.206 216.056 358.659 216.16C352.135 216.263 347.242 221.336 347.346 227.881V227.873Z" fill="#F5E8FF"/>
<path fill-rule="evenodd" clip-rule="evenodd" d="M422.352 228.811C422.455 235.324 427.531 240.214 434.079 240.11C440.594 240.015 445.487 234.942 445.392 228.398C445.296 221.885 440.213 216.979 433.665 217.09C427.149 217.186 422.257 222.251 422.352 228.811Z" fill="#F5E8FF"/>
<path fill-rule="evenodd" clip-rule="evenodd" d="M235.035 302.818C235.123 309.1 240.103 313.975 246.428 313.943C252.729 313.911 257.653 308.981 257.677 302.675C257.701 296.362 252.816 291.4 246.523 291.32C240.015 291.249 234.956 296.314 235.035 302.818Z" fill="#F5E8FF"/>
<path fill-rule="evenodd" clip-rule="evenodd" d="M291.226 246.289C291.186 252.849 296.175 257.827 302.738 257.772C309.079 257.724 313.924 252.865 313.972 246.512C314.027 239.968 309.039 234.99 302.484 235.03C296.143 235.093 291.274 239.944 291.218 246.281L291.226 246.289Z" fill="#F5E8FF"/>
<path fill-rule="evenodd" clip-rule="evenodd" d="M253.691 284.116C253.787 290.477 258.703 295.296 265.092 295.296C271.663 295.296 276.604 290.262 276.5 283.678C276.405 277.325 271.504 272.506 265.116 272.49C258.544 272.49 253.604 277.524 253.691 284.116Z" fill="#F5E8FF"/>
<path fill-rule="evenodd" clip-rule="evenodd" d="M216.276 359.053C216.363 365.334 221.359 370.201 227.668 370.177C233.969 370.145 238.894 365.223 238.918 358.917C238.933 352.604 234.057 347.626 227.772 347.562C221.256 347.491 216.196 352.556 216.276 359.06V359.053Z" fill="#F5E8FF"/>
<path fill-rule="evenodd" clip-rule="evenodd" d="M283.819 253.708C277.455 253.732 272.554 258.519 272.419 264.84C272.276 271.409 277.145 276.49 283.668 276.585C290.232 276.673 295.26 271.758 295.292 265.222C295.323 258.662 290.367 253.7 283.819 253.708Z" fill="#F5E8FF"/>
<path fill-rule="evenodd" clip-rule="evenodd" d="M415.017 198.619C408.971 198.666 403.998 203.565 403.871 209.616C403.736 215.858 408.756 221.043 414.977 221.106C421.222 221.186 426.362 216.128 426.37 209.886C426.37 203.644 421.254 198.571 415.017 198.627V198.619Z" fill="#F5E8FF"/>
<path fill-rule="evenodd" clip-rule="evenodd" d="M377.625 198.619C371.38 198.619 366.304 203.724 366.36 209.982C366.423 216.216 371.595 221.225 377.84 221.098C384.069 220.987 389.042 215.755 388.859 209.513C388.684 203.477 383.671 198.619 377.617 198.619H377.625Z" fill="#F5E8FF"/>
<path fill-rule="evenodd" clip-rule="evenodd" d="M310.081 227.579C310.041 233.837 315.022 238.878 321.267 238.926C327.528 238.966 332.588 234.012 332.636 227.754C332.675 221.488 327.711 216.446 321.45 216.399C315.189 216.359 310.137 221.329 310.081 227.579Z" fill="#F5E8FF"/>
<path fill-rule="evenodd" clip-rule="evenodd" d="M216.427 321.337C216.403 327.476 221.678 332.677 227.795 332.557C233.746 332.438 238.758 327.373 238.79 321.425C238.806 315.286 233.532 310.086 227.414 310.197C221.455 310.308 216.443 315.382 216.427 321.337Z" fill="#F5E8FF"/>
<path fill-rule="evenodd" clip-rule="evenodd" d="M339.883 197.839C333.924 197.99 328.873 203.246 329.024 209.154C329.183 215.102 334.434 220.16 340.337 220.009C346.296 219.857 351.339 214.593 351.196 208.693C351.037 202.729 345.794 197.68 339.883 197.839Z" fill="#F5E8FF"/>
<path fill-rule="evenodd" clip-rule="evenodd" d="M265.076 235.467C259.133 235.475 254.057 240.644 254.153 246.552C254.24 252.325 259.125 257.223 264.909 257.35C270.82 257.493 275.999 252.452 276.071 246.496C276.118 240.556 271.035 235.435 265.084 235.459L265.076 235.467Z" fill="#F5E8FF"/>
<path fill-rule="evenodd" clip-rule="evenodd" d="M246.523 254.249C240.517 254.138 235.409 259.211 235.465 265.214C235.505 271.051 240.334 275.933 246.197 276.045C252.188 276.148 257.303 271.091 257.255 265.079C257.216 259.235 252.371 254.36 246.523 254.249Z" fill="#F5E8FF"/>
<path fill-rule="evenodd" clip-rule="evenodd" d="M284.026 216.836C277.996 216.733 272.984 221.695 273.016 227.722C273.047 233.574 277.821 238.385 283.676 238.497C289.691 238.6 294.727 233.63 294.687 227.611C294.655 221.742 289.882 216.939 284.026 216.836Z" fill="#F5E8FF"/>
<path fill-rule="evenodd" clip-rule="evenodd" d="M208.503 350.949C214.494 351.164 219.609 346.266 219.689 340.238C219.744 334.394 215.058 329.504 209.187 329.297C203.196 329.082 198.081 333.988 198.001 340.016C197.946 345.86 202.632 350.751 208.503 350.957V350.949Z" fill="#F5E8FF"/>
<path fill-rule="evenodd" clip-rule="evenodd" d="M396.663 180.29C390.657 180.107 385.581 185.037 385.533 191.056C385.509 196.901 390.211 201.775 396.082 201.942C402.089 202.133 407.173 197.195 407.204 191.176C407.236 185.331 402.534 180.457 396.663 180.29Z" fill="#F5E8FF"/>
<path fill-rule="evenodd" clip-rule="evenodd" d="M433.967 180.504C427.961 180.449 423.307 185.029 423.251 191.017C423.195 197.028 427.77 201.68 433.776 201.736C439.799 201.775 444.445 197.203 444.501 191.207C444.54 185.196 439.966 180.544 433.967 180.504Z" fill="#F5E8FF"/>
<path fill-rule="evenodd" clip-rule="evenodd" d="M358.945 179.566C352.931 179.526 348.292 184.091 348.253 190.094C348.205 196.114 352.779 200.758 358.786 200.797C364.808 200.845 369.447 196.265 369.486 190.261C369.534 184.258 364.952 179.614 358.945 179.574V179.566Z" fill="#F5E8FF"/>
<path fill-rule="evenodd" clip-rule="evenodd" d="M227.501 273.213C221.495 273.261 216.872 277.976 216.92 283.98C216.968 289.984 221.678 294.619 227.692 294.556C233.699 294.516 238.337 289.809 238.281 283.781C238.233 277.786 233.524 273.158 227.501 273.205V273.213Z" fill="#F5E8FF"/>
<path fill-rule="evenodd" clip-rule="evenodd" d="M303.025 198.356C296.978 198.149 292.189 202.626 292.03 208.622C291.879 214.665 296.421 219.404 302.42 219.492C308.458 219.587 313.136 215.023 313.184 208.987C313.216 203.151 308.832 198.547 303.025 198.356Z" fill="#F5E8FF"/>
<path fill-rule="evenodd" clip-rule="evenodd" d="M321.275 179.829C315.483 179.868 310.956 184.464 310.996 190.269C311.036 196.05 315.626 200.575 321.434 200.543C327.226 200.495 331.753 195.891 331.713 190.094C331.681 184.305 327.075 179.781 321.275 179.821V179.829Z" fill="#F5E8FF"/>
<path fill-rule="evenodd" clip-rule="evenodd" d="M190.356 348.493C184.54 348.366 179.886 352.755 179.711 358.496C179.528 364.5 184.111 369.247 190.078 369.247C195.885 369.255 200.42 364.786 200.484 358.997C200.547 353.208 196.1 348.604 190.348 348.493H190.356Z" fill="#F5E8FF"/>
<path fill-rule="evenodd" clip-rule="evenodd" d="M208.964 292.195C202.926 292.139 198.351 296.711 198.399 302.755C198.447 308.567 202.91 313.02 208.726 313.076C214.772 313.124 219.347 308.56 219.291 302.532C219.259 296.719 214.78 292.251 208.964 292.195Z" fill="#F5E8FF"/>
<path fill-rule="evenodd" clip-rule="evenodd" d="M377.84 162.08C372.112 161.953 367.315 166.637 367.315 172.37C367.315 177.936 371.825 182.532 377.378 182.659C383.115 182.786 387.904 178.103 387.904 172.37C387.904 166.637 383.393 162.207 377.84 162.08Z" fill="#F5E8FF"/>
<path fill-rule="evenodd" clip-rule="evenodd" d="M415.263 162.08C409.527 162.009 404.77 166.724 404.826 172.457C404.865 178.008 409.424 182.572 414.969 182.659C420.705 182.739 425.455 178.016 425.407 172.282C425.367 166.732 420.809 162.168 415.263 162.08Z" fill="#F5E8FF"/>
<path fill-rule="evenodd" clip-rule="evenodd" d="M339.987 161.269C334.537 161.349 329.859 166.143 329.947 171.567C330.026 177.013 334.815 181.689 340.233 181.594C345.691 181.522 350.361 176.719 350.281 171.312C350.194 165.865 345.405 161.19 339.987 161.269Z" fill="#F5E8FF"/>
<path fill-rule="evenodd" clip-rule="evenodd" d="M264.964 198.73C259.499 198.817 254.893 203.485 254.901 208.948C254.901 214.41 259.531 219.062 265.012 219.126C270.438 219.182 275.18 214.593 275.307 209.131C275.442 203.54 270.581 198.642 264.964 198.73Z" fill="#F5E8FF"/>
<path fill-rule="evenodd" clip-rule="evenodd" d="M227.66 236.206C222.219 236.174 217.501 240.77 217.397 246.241C217.286 251.839 222.179 256.714 227.788 256.602C233.245 256.499 237.844 251.776 237.804 246.329C237.764 240.866 233.126 236.23 227.66 236.198V236.206Z" fill="#F5E8FF"/>
<path fill-rule="evenodd" clip-rule="evenodd" d="M246.181 217.424C240.668 217.536 236.077 222.243 236.125 227.73C236.149 233.232 240.795 237.86 246.3 237.9C251.973 237.932 256.786 233.01 256.595 227.364C256.404 221.877 251.647 217.329 246.181 217.424Z" fill="#F5E8FF"/>
<path fill-rule="evenodd" clip-rule="evenodd" d="M189.648 331.627C195.304 331.898 200.237 327.278 200.372 321.592C200.492 316.106 196.068 311.374 190.555 311.112C184.89 310.866 179.974 315.462 179.846 321.147C179.719 326.642 184.143 331.373 189.656 331.62L189.648 331.627Z" fill="#F5E8FF"/>
<path fill-rule="evenodd" clip-rule="evenodd" d="M209.012 255.02C203.634 254.925 198.829 259.576 198.717 264.991C198.622 270.367 203.276 275.17 208.694 275.281C214.08 275.384 218.877 270.733 218.989 265.31C219.092 259.926 214.438 255.123 209.012 255.02Z" fill="#F5E8FF"/>
<path fill-rule="evenodd" clip-rule="evenodd" d="M283.859 180.146C278.569 180.146 273.986 184.615 273.819 189.935C273.66 195.374 278.362 200.201 283.835 200.201C289.134 200.209 293.732 195.74 293.883 190.42C294.035 184.989 289.333 180.154 283.851 180.146H283.859Z" fill="#F5E8FF"/>
<path fill-rule="evenodd" clip-rule="evenodd" d="M171.222 330.3C165.805 330.379 161.445 334.824 161.517 340.239C161.588 345.662 166.051 350.004 171.461 349.94C176.879 349.861 181.239 345.416 181.167 339.985C181.096 334.57 176.632 330.228 171.222 330.292V330.3Z" fill="#F5E8FF"/>
<path fill-rule="evenodd" clip-rule="evenodd" d="M189.982 274.08C184.564 274.144 180.197 278.597 180.268 284.004C180.332 289.427 184.795 293.784 190.205 293.713C195.631 293.649 199.982 289.196 199.919 283.781C199.847 278.358 195.392 274.008 189.982 274.08Z" fill="#F5E8FF"/>
<path fill-rule="evenodd" clip-rule="evenodd" d="M171.541 312.121C176.879 312.034 180.865 307.923 180.833 302.555C180.801 297.204 176.744 293.172 171.382 293.148C166.004 293.133 161.914 297.124 161.859 302.484C161.771 308.034 165.972 312.217 171.541 312.129V312.121Z" fill="#F5E8FF"/>
<path fill-rule="evenodd" clip-rule="evenodd" d="M434.063 144.022C428.669 143.919 424.452 147.871 424.261 153.206C424.047 158.788 428.144 163.154 433.673 163.249C439.075 163.337 443.291 159.393 443.49 154.057C443.705 148.475 439.608 144.102 434.063 144.022Z" fill="#F5E8FF"/>
<path fill-rule="evenodd" clip-rule="evenodd" d="M358.937 162.311C364.315 162.279 368.412 158.216 368.492 152.856C368.572 147.266 364.387 143.044 358.794 143.067C353.424 143.099 349.319 147.163 349.247 152.522C349.176 158.112 353.368 162.342 358.945 162.311H358.937Z" fill="#F5E8FF"/>
<path fill-rule="evenodd" clip-rule="evenodd" d="M396.281 143.902C390.824 143.942 386.575 148.268 386.623 153.731C386.671 159.178 390.999 163.424 396.448 163.376C401.906 163.336 406.154 159.003 406.107 153.548C406.067 148.101 401.731 143.855 396.281 143.91V143.902Z" fill="#F5E8FF"/>
<path fill-rule="evenodd" clip-rule="evenodd" d="M302.46 181.117C307.989 181.196 312.269 176.99 312.293 171.463C312.293 165.953 308.06 161.731 302.515 161.778C297.185 161.81 293.048 165.865 292.937 171.177C292.793 176.696 296.954 181.037 302.46 181.117Z" fill="#F5E8FF"/>
<path fill-rule="evenodd" clip-rule="evenodd" d="M246.316 199.557C251.416 199.557 255.593 195.525 255.728 190.444C255.863 185.18 251.655 180.815 246.38 180.807C241.296 180.783 237.112 184.83 236.968 189.911C236.833 195.176 241.058 199.533 246.316 199.557Z" fill="#F5E8FF"/>
<path fill-rule="evenodd" clip-rule="evenodd" d="M227.501 218.331C232.808 218.37 237.008 214.204 237 208.9C237 203.795 233.022 199.692 227.931 199.533C222.616 199.366 218.312 203.445 218.185 208.725C218.074 214.029 222.203 218.275 227.493 218.339L227.501 218.331Z" fill="#F5E8FF"/>
<path fill-rule="evenodd" clip-rule="evenodd" d="M152.145 368.261C157.451 368.484 161.827 364.452 161.986 359.188C162.161 353.884 158.072 349.574 152.805 349.471C147.499 349.36 143.242 353.487 143.187 358.767C143.147 363.887 147.069 368.046 152.145 368.269V368.261Z" fill="#F5E8FF"/>
<path fill-rule="evenodd" clip-rule="evenodd" d="M321.323 162.096C326.621 162.12 330.798 157.93 330.766 152.626C330.718 147.338 326.47 143.211 321.164 143.306C315.881 143.402 311.8 147.704 311.959 153.007C312.102 158.112 316.199 162.08 321.323 162.104V162.096Z" fill="#F5E8FF"/>
<path fill-rule="evenodd" clip-rule="evenodd" d="M190.197 255.72C195.217 255.664 199.417 251.418 199.417 246.416C199.417 241.423 195.241 237.161 190.237 237.089C185.049 237.009 180.642 241.454 180.769 246.631C180.897 251.633 185.209 255.791 190.197 255.72Z" fill="#F5E8FF"/>
<path fill-rule="evenodd" clip-rule="evenodd" d="M208.614 237.065C213.913 237.184 218.193 233.081 218.241 227.785C218.312 222.482 214.151 218.267 208.845 218.267C203.539 218.267 199.624 222.219 199.449 227.308C199.266 232.612 203.332 236.946 208.614 237.065Z" fill="#F5E8FF"/>
<path fill-rule="evenodd" clip-rule="evenodd" d="M152.813 330.634C157.769 330.49 161.986 326.077 161.851 321.155C161.7 316.193 157.284 311.995 152.368 312.122C147.411 312.265 143.203 316.678 143.338 321.592C143.465 326.546 147.88 330.761 152.813 330.634Z" fill="#F5E8FF"/>
<path fill-rule="evenodd" clip-rule="evenodd" d="M414.77 144.173C419.862 144.396 424.405 140.014 424.413 134.885C424.413 129.955 420.196 125.661 415.248 125.598C410.307 125.518 405.971 129.685 405.828 134.647C405.677 139.561 409.814 143.95 414.77 144.165V144.173Z" fill="#F5E8FF"/>
<path fill-rule="evenodd" clip-rule="evenodd" d="M377.394 144.173C382.51 144.308 386.989 139.871 386.909 134.758C386.822 129.804 382.534 125.59 377.601 125.606C372.653 125.606 368.381 129.836 368.309 134.782C368.253 139.72 372.438 144.054 377.386 144.173H377.394Z" fill="#F5E8FF"/>
<path fill-rule="evenodd" clip-rule="evenodd" d="M264.805 180.719C269.905 180.91 274.424 176.513 274.392 171.392C274.376 166.446 270.112 162.192 265.163 162.144C260.231 162.104 255.919 166.295 255.815 171.249C255.696 176.179 259.841 180.552 264.805 180.727V180.719Z" fill="#F5E8FF"/>
<path fill-rule="evenodd" clip-rule="evenodd" d="M339.923 143.068C344.848 143.187 349.255 138.845 349.223 133.899C349.199 129.128 345.07 124.961 340.289 124.842C335.364 124.739 330.973 129.065 330.997 134.01C331.029 138.782 335.134 142.948 339.923 143.068Z" fill="#F5E8FF"/>
<path fill-rule="evenodd" clip-rule="evenodd" d="M283.477 161.73C288.442 161.993 292.873 157.755 292.905 152.729C292.921 147.902 288.863 143.744 284.018 143.648C279.213 143.553 274.981 147.592 274.814 152.427C274.639 157.238 278.608 161.492 283.477 161.73Z" fill="#F5E8FF"/>
<path fill-rule="evenodd" clip-rule="evenodd" d="M171.334 274.319C176.258 274.319 180.586 269.953 180.515 265.039C180.435 260.117 176.012 255.831 171.119 255.974C166.362 256.117 162.248 260.276 162.169 265.015C162.089 269.929 166.401 274.311 171.334 274.319Z" fill="#F5E8FF"/>
<path fill-rule="evenodd" clip-rule="evenodd" d="M396.615 124.755C401.468 124.643 405.04 120.898 404.969 116.008C404.921 111.133 401.23 107.523 396.353 107.539C391.468 107.539 387.8 111.173 387.737 116.047C387.697 121.105 391.532 124.882 396.607 124.755H396.615Z" fill="#F5E8FF"/>
<path fill-rule="evenodd" clip-rule="evenodd" d="M152.654 292.687C157.698 292.647 161.485 288.735 161.381 283.718C161.286 278.875 157.602 275.193 152.757 275.114C147.721 275.026 143.823 278.827 143.807 283.853C143.775 288.87 147.634 292.727 152.654 292.695V292.687Z" fill="#F5E8FF"/>
<path fill-rule="evenodd" clip-rule="evenodd" d="M302.643 142.574C307.527 142.551 311.187 138.909 311.227 134.042C311.259 129.16 307.663 125.43 302.81 125.335C297.917 125.248 294.138 128.802 293.995 133.645C293.828 138.718 297.583 142.582 302.635 142.574H302.643Z" fill="#F5E8FF"/>
<path fill-rule="evenodd" clip-rule="evenodd" d="M133.878 348.787C138.739 348.787 142.431 345.161 142.518 340.326C142.622 335.269 138.843 331.436 133.807 331.46C128.946 331.468 125.254 335.094 125.167 339.929C125.072 344.978 128.827 348.819 133.878 348.787Z" fill="#F5E8FF"/>
<path fill-rule="evenodd" clip-rule="evenodd" d="M189.958 217.448C194.787 217.512 198.566 213.87 198.622 209.059C198.701 204.216 195.05 200.463 190.229 200.399C185.384 200.328 181.629 203.97 181.565 208.789C181.509 213.615 185.137 217.384 189.958 217.448Z" fill="#F5E8FF"/>
<path fill-rule="evenodd" clip-rule="evenodd" d="M227.565 179.964C232.402 179.988 236.117 176.314 236.133 171.479C236.149 166.637 232.481 162.923 227.652 162.907C222.799 162.891 219.084 166.565 219.076 171.392C219.06 176.226 222.728 179.948 227.573 179.964H227.565Z" fill="#F5E8FF"/>
<path fill-rule="evenodd" clip-rule="evenodd" d="M208.71 198.746C213.595 198.817 217.35 195.175 217.421 190.325C217.485 185.434 213.857 181.689 208.988 181.61C204.103 181.554 200.348 185.172 200.285 190.046C200.205 194.937 203.849 198.682 208.71 198.753V198.746Z" fill="#F5E8FF"/>
<path fill-rule="evenodd" clip-rule="evenodd" d="M171.079 236.135C175.892 236.27 179.799 232.493 179.815 227.698C179.831 223.07 176.219 219.341 171.62 219.198C166.799 219.078 162.893 222.832 162.877 227.626C162.877 232.254 166.473 235.992 171.079 236.135Z" fill="#F5E8FF"/>
<path fill-rule="evenodd" clip-rule="evenodd" d="M358.77 123.705C363.424 123.745 367.147 120.246 367.362 115.658C367.577 110.823 363.973 106.879 359.192 106.72C354.363 106.553 350.472 110.211 350.361 115.006C350.258 119.817 353.965 123.665 358.77 123.713V123.705Z" fill="#F5E8FF"/>
<path fill-rule="evenodd" clip-rule="evenodd" d="M134.141 311.103C138.747 310.944 142.343 307.183 142.304 302.555C142.272 297.951 138.612 294.246 134.006 294.174C129.185 294.095 125.334 297.903 125.374 302.706C125.414 307.501 129.344 311.254 134.141 311.095V311.103Z" fill="#F5E8FF"/>
<path fill-rule="evenodd" clip-rule="evenodd" d="M246.245 161.126C250.787 161.182 254.614 157.572 254.805 153.039C254.988 148.316 251.193 144.308 246.475 144.261C241.917 144.197 238.106 147.815 237.915 152.348C237.724 157.071 241.519 161.063 246.245 161.118V161.126Z" fill="#F5E8FF"/>
<path fill-rule="evenodd" clip-rule="evenodd" d="M152.399 254.75C156.855 254.869 160.824 251.092 160.944 246.607C161.063 242.146 157.276 238.179 152.781 238.067C148.334 237.948 144.364 241.725 144.245 246.202C144.133 250.663 147.912 254.623 152.399 254.75Z" fill="#F5E8FF"/>
<path fill-rule="evenodd" clip-rule="evenodd" d="M320.941 123.586C325.587 123.832 329.692 119.952 329.74 115.284C329.78 110.799 326.048 106.943 321.553 106.839C317.066 106.728 313.152 110.418 312.985 114.902C312.81 119.379 316.454 123.339 320.949 123.586H320.941Z" fill="#F5E8FF"/>
<path fill-rule="evenodd" clip-rule="evenodd" d="M114.793 367.156C119.248 367.347 123.297 363.522 123.401 359.045C123.496 354.576 119.63 350.608 115.143 350.576C110.847 350.545 107.036 354.147 106.789 358.457C106.551 362.894 110.322 366.997 114.793 367.156Z" fill="#F5E8FF"/>
<path fill-rule="evenodd" clip-rule="evenodd" d="M265.044 142.248C269.515 142.288 273.453 138.368 273.405 133.899C273.374 129.605 269.706 125.836 265.394 125.661C260.963 125.478 256.913 129.287 256.81 133.772C256.691 138.233 260.557 142.217 265.044 142.248Z" fill="#F5E8FF"/>
<path fill-rule="evenodd" clip-rule="evenodd" d="M377.498 105.456C381.865 105.52 385.597 101.894 385.66 97.5361C385.74 93.1706 382.112 89.4333 377.736 89.3697C373.377 89.2981 369.646 92.9241 369.566 97.2976C369.502 101.655 373.138 105.384 377.498 105.464V105.456Z" fill="#F5E8FF"/>
<path fill-rule="evenodd" clip-rule="evenodd" d="M414.993 105.456C419.353 105.52 423.092 101.91 423.171 97.5361C423.243 93.1786 419.623 89.4492 415.256 89.3697C410.896 89.2981 407.149 92.9162 407.085 97.2896C406.998 101.639 410.625 105.384 414.993 105.464V105.456Z" fill="#F5E8FF"/>
<path fill-rule="evenodd" clip-rule="evenodd" d="M133.711 273.19C138.071 273.262 141.818 269.636 141.89 265.278C141.961 260.912 138.342 257.175 133.958 257.104C129.606 257.032 125.867 260.658 125.788 265.039C125.716 269.389 129.336 273.126 133.711 273.198V273.19Z" fill="#F5E8FF"/>
<path fill-rule="evenodd" clip-rule="evenodd" d="M114.968 329.425C119.327 329.504 123.059 325.87 123.138 321.497C123.21 317.147 119.59 313.41 115.222 313.338C110.847 313.259 107.123 316.885 107.036 321.25C106.964 325.616 110.592 329.345 114.968 329.425Z" fill="#F5E8FF"/>
<path fill-rule="evenodd" clip-rule="evenodd" d="M339.796 104.239C344.362 104.398 347.895 100.987 347.887 96.4305C347.863 92.065 344.561 88.7412 340.201 88.7014C335.81 88.6696 332.437 91.9219 332.341 96.2794C332.246 100.669 335.452 104.088 339.796 104.239Z" fill="#F5E8FF"/>
<path fill-rule="evenodd" clip-rule="evenodd" d="M171.541 197.839C175.908 197.744 179.099 194.372 179.003 189.983C178.908 185.625 175.534 182.429 171.135 182.524C166.775 182.619 163.585 185.991 163.681 190.372C163.776 194.73 167.149 197.935 171.541 197.831V197.839Z" fill="#F5E8FF"/>
<path fill-rule="evenodd" clip-rule="evenodd" d="M189.879 179.089C194.286 179.184 197.651 175.988 197.755 171.638C197.858 167.257 194.66 163.869 190.292 163.782C185.909 163.686 182.536 166.875 182.424 171.241C182.329 175.63 185.535 179.001 189.879 179.097V179.089Z" fill="#F5E8FF"/>
<path fill-rule="evenodd" clip-rule="evenodd" d="M283.756 123.053C288.068 123.109 291.552 119.841 291.704 115.539C291.887 111.038 288.458 107.42 283.947 107.364C279.643 107.309 276.158 110.577 276.007 114.879C275.816 119.38 279.253 122.998 283.756 123.053Z" fill="#F5E8FF"/>
<path fill-rule="evenodd" clip-rule="evenodd" d="M227.262 141.477C231.606 141.66 235.083 138.368 235.131 134.05C235.194 129.9 232.06 126.584 227.939 126.425C223.595 126.242 220.118 129.542 220.07 133.852C220.031 138.002 223.149 141.31 227.27 141.477H227.262Z" fill="#F5E8FF"/>
<path fill-rule="evenodd" clip-rule="evenodd" d="M114.936 291.503C119.335 291.575 122.685 288.315 122.701 283.925C122.717 279.719 119.646 276.466 115.477 276.284C111.069 276.093 107.609 279.273 107.473 283.631C107.346 288.036 110.568 291.424 114.936 291.503Z" fill="#F5E8FF"/>
<path fill-rule="evenodd" clip-rule="evenodd" d="M96.6299 347.618C100.735 347.459 103.941 344.056 103.838 339.945C103.742 335.826 100.393 332.59 96.2798 332.613C92.1508 332.645 88.8651 335.945 88.8333 340.056C88.8015 344.358 92.3259 347.777 96.6299 347.61V347.618Z" fill="#F5E8FF"/>
<path fill-rule="evenodd" clip-rule="evenodd" d="M302.905 103.961C307.018 103.818 310.209 100.399 310.121 96.2955C310.01 92.1685 306.66 88.9401 302.547 88.964C298.426 89.0117 295.132 92.3037 295.117 96.4148C295.085 100.709 298.601 104.136 302.913 103.961H302.905Z" fill="#F5E8FF"/>
<path fill-rule="evenodd" clip-rule="evenodd" d="M208.805 160.299C213.205 160.323 216.498 157.015 216.467 152.626C216.427 148.236 213.062 144.992 208.646 145.088C204.461 145.183 201.311 148.348 201.223 152.538C201.152 156.936 204.414 160.283 208.805 160.299Z" fill="#F5E8FF"/>
<path fill-rule="evenodd" clip-rule="evenodd" d="M152.431 216.494C156.783 216.573 160.148 213.305 160.172 208.979C160.188 204.821 157.125 201.56 152.988 201.362C148.644 201.155 145.16 204.343 145.024 208.645C144.873 212.987 148.111 216.406 152.423 216.502L152.431 216.494Z" fill="#F5E8FF"/>
<path fill-rule="evenodd" clip-rule="evenodd" d="M133.616 235.101C137.602 235.228 141.15 231.897 141.277 227.881C141.405 223.897 138.063 220.367 134.061 220.239C130.068 220.104 126.535 223.428 126.408 227.444C126.281 231.443 129.606 234.974 133.616 235.101Z" fill="#F5E8FF"/>
<path fill-rule="evenodd" clip-rule="evenodd" d="M396.44 86.0936C400.45 86.0538 403.839 82.5869 403.799 78.5872C403.752 74.5874 400.283 71.192 396.281 71.2398C392.272 71.2795 388.874 74.7465 388.93 78.7462C388.97 82.7539 392.439 86.1413 396.44 86.1016V86.0936Z" fill="#F5E8FF"/>
<path fill-rule="evenodd" clip-rule="evenodd" d="M358.699 85.0677C362.454 85.1631 365.954 81.9188 366.209 78.1258C366.455 74.2056 363.018 70.4922 359.041 70.3808C355.278 70.2775 351.777 73.5138 351.53 77.3068C351.284 81.227 354.721 84.9564 358.699 85.0677Z" fill="#F5E8FF"/>
<path fill-rule="evenodd" clip-rule="evenodd" d="M246.189 122.6C250.159 122.703 253.723 119.228 253.755 115.261C253.787 111.301 250.254 107.778 246.285 107.826C242.498 107.865 239.124 111.142 238.957 114.935C238.79 118.887 242.219 122.513 246.189 122.608V122.6Z" fill="#F5E8FF"/>
<path fill-rule="evenodd" clip-rule="evenodd" d="M115.397 253.613C119.192 253.422 122.414 249.955 122.303 246.21C122.184 242.417 118.771 239.149 114.992 239.204C111.213 239.244 107.887 242.6 107.863 246.385C107.855 250.329 111.491 253.82 115.397 253.613Z" fill="#F5E8FF"/>
<path fill-rule="evenodd" clip-rule="evenodd" d="M96.5344 309.911C100.337 309.792 103.663 306.341 103.623 302.556C103.575 298.763 100.162 295.383 96.3753 295.36C92.5963 295.336 89.1436 298.683 89.0561 302.484C88.9526 306.436 92.5884 310.046 96.5344 309.911Z" fill="#F5E8FF"/>
<path fill-rule="evenodd" clip-rule="evenodd" d="M321.084 84.7415C324.998 84.8926 328.292 81.8073 328.371 77.8871C328.475 73.9669 325.332 70.7385 321.41 70.7067C317.472 70.6828 314.306 73.8715 314.345 77.7996C314.369 81.5369 317.345 84.5984 321.084 84.7415Z" fill="#F5E8FF"/>
<path fill-rule="evenodd" clip-rule="evenodd" d="M265.291 103.365C269.3 103.269 272.22 100.065 271.997 96.0412C271.79 92.2402 268.759 89.4651 264.909 89.5605C261.082 89.6639 258.218 92.5901 258.202 96.4228C258.17 100.431 261.265 103.46 265.291 103.365Z" fill="#F5E8FF"/>
<path fill-rule="evenodd" clip-rule="evenodd" d="M77.6874 352.047C73.805 351.983 70.8773 354.774 70.7659 358.631C70.6466 362.71 73.6379 365.756 77.7112 365.684C81.5777 365.621 84.4099 362.742 84.4099 358.846C84.402 354.973 81.5618 352.095 77.6794 352.047H77.6874Z" fill="#F5E8FF"/>
<path fill-rule="evenodd" clip-rule="evenodd" d="M152.582 178.087C156.266 178.087 159.13 175.344 159.249 171.67C159.376 167.806 156.457 164.792 152.598 164.792C148.915 164.792 146.059 167.535 145.947 171.201C145.82 175.074 148.716 178.087 152.582 178.087Z" fill="#F5E8FF"/>
<path fill-rule="evenodd" clip-rule="evenodd" d="M189.839 140.547C193.634 140.682 196.689 137.772 196.705 133.979C196.705 130.361 193.944 127.482 190.364 127.355C186.561 127.212 183.514 130.13 183.49 133.931C183.49 137.533 186.251 140.42 189.839 140.547Z" fill="#F5E8FF"/>
<path fill-rule="evenodd" clip-rule="evenodd" d="M414.842 66.5324C418.637 66.6675 421.7 63.7572 421.724 59.9722C421.747 56.3621 418.995 53.4597 415.391 53.3166C411.588 53.1735 408.541 56.0838 408.509 59.8768C408.485 63.5028 411.238 66.3892 414.842 66.5324Z" fill="#F5E8FF"/>
<path fill-rule="evenodd" clip-rule="evenodd" d="M377.8 66.532C381.412 66.4286 384.189 63.5898 384.212 59.9718C384.244 56.1788 381.237 53.2208 377.426 53.3162C373.814 53.4116 371.03 56.2663 371.006 59.8764C370.99 63.6694 373.997 66.6274 377.792 66.532H377.8Z" fill="#F5E8FF"/>
<path fill-rule="evenodd" clip-rule="evenodd" d="M96.3196 271.846C100.218 271.846 103.082 268.96 103.034 265.047C102.986 261.159 100.019 258.344 96.1207 258.455C92.2543 258.559 89.4618 261.572 89.6368 265.485C89.788 269.166 92.5963 271.838 96.3196 271.854V271.846Z" fill="#F5E8FF"/>
<path fill-rule="evenodd" clip-rule="evenodd" d="M171.525 159.345C175.2 159.257 177.961 156.427 178.001 152.745C178.025 148.88 175.033 145.954 171.151 146.05C167.483 146.145 164.707 148.968 164.683 152.65C164.667 156.522 167.65 159.448 171.525 159.345Z" fill="#F5E8FF"/>
<path fill-rule="evenodd" clip-rule="evenodd" d="M77.3453 327.977C80.981 328.096 83.9485 325.417 84.1713 321.846C84.4179 318.045 81.5857 314.904 77.8147 314.785C74.1869 314.666 71.2194 317.33 70.9887 320.916C70.7421 324.701 73.5743 327.858 77.3453 327.977Z" fill="#F5E8FF"/>
<path fill-rule="evenodd" clip-rule="evenodd" d="M134.125 196.75C137.681 196.598 140.49 193.577 140.394 190.022C140.323 186.46 137.355 183.597 133.783 183.621C130.219 183.637 127.299 186.547 127.267 190.11C127.235 193.855 130.378 196.901 134.125 196.75Z" fill="#F5E8FF"/>
<path fill-rule="evenodd" clip-rule="evenodd" d="M208.805 121.741C212.322 121.757 215.353 118.783 215.377 115.26C215.408 111.746 212.433 108.716 208.893 108.684C205.376 108.668 202.345 111.642 202.321 115.165C202.297 118.679 205.273 121.709 208.805 121.741Z" fill="#F5E8FF"/>
<path fill-rule="evenodd" clip-rule="evenodd" d="M283.636 84.2884C287.185 84.4077 290.232 81.6087 290.423 78.0702C290.606 74.5157 287.845 71.4066 284.313 71.1681C280.574 70.9136 277.344 73.8796 277.288 77.6169C277.224 81.1793 280.072 84.1692 283.636 84.2884Z" fill="#F5E8FF"/>
<path fill-rule="evenodd" clip-rule="evenodd" d="M339.867 65.435C343.328 65.7452 346.518 62.6201 346.598 59.1214C346.685 55.6226 343.654 52.5055 340.138 52.4976C336.629 52.4976 333.439 55.5908 333.67 59.0895C333.916 62.8666 336.112 65.0931 339.867 65.443V65.435Z" fill="#F5E8FF"/>
<path fill-rule="evenodd" clip-rule="evenodd" d="M77.1782 290.255C80.6469 290.501 83.9167 287.448 83.9644 283.949C83.9883 280.625 81.0924 277.635 77.7669 277.524C74.4653 277.428 71.3944 280.291 71.2114 283.607C71.0444 286.891 73.8607 290.008 77.1782 290.255Z" fill="#F5E8FF"/>
<path fill-rule="evenodd" clip-rule="evenodd" d="M115.119 215.357C118.413 215.349 121.404 212.438 121.523 209.123C121.651 205.664 118.54 202.475 115.063 202.483C111.762 202.499 108.77 205.409 108.651 208.717C108.532 212.176 111.634 215.381 115.119 215.357Z" fill="#F5E8FF"/>
<path fill-rule="evenodd" clip-rule="evenodd" d="M227.772 102.84C231.097 102.744 234.001 99.7386 233.969 96.4307C233.945 93.0989 231.01 90.1409 227.676 90.1011C224.184 90.0534 221.065 93.2739 221.224 96.7408C221.383 100.065 224.47 102.927 227.772 102.84Z" fill="#F5E8FF"/>
<path fill-rule="evenodd" clip-rule="evenodd" d="M96.2003 233.709C99.6451 233.932 102.461 231.022 102.414 227.404C102.072 223.96 100.13 221.845 96.4708 221.615C93.0339 221.4 90.0983 224.302 90.2812 227.745C90.496 231.387 92.5645 233.479 96.2082 233.701L96.2003 233.709Z" fill="#F5E8FF"/>
<path fill-rule="evenodd" clip-rule="evenodd" d="M246.579 83.5331C250.27 83.4059 252.283 81.1635 252.164 77.4977C252.052 73.7842 249.745 72.019 246.109 71.8281C242.498 72.2814 240.397 74.2693 240.533 77.951C240.668 81.6485 242.911 83.6683 246.579 83.541V83.5331Z" fill="#F5E8FF"/>
<path fill-rule="evenodd" clip-rule="evenodd" d="M58.8006 346.043C62.3011 346.187 65.0537 343.316 64.7514 339.809C64.4491 336.143 62.2454 334.346 58.6414 334.14C55.0057 334.569 52.8576 336.541 52.9292 340.207C52.9849 343.873 55.1409 345.908 58.8006 346.051V346.043Z" fill="#F5E8FF"/>
<path fill-rule="evenodd" clip-rule="evenodd" d="M301.958 64.9102C305.562 65.1408 308.395 62.7871 308.522 59.4791C308.665 55.8532 306.899 53.5631 303.223 53.086C299.723 52.6327 296.708 55.2091 296.676 58.7158C296.644 62.3656 298.601 64.4331 301.958 64.9102Z" fill="#F5E8FF"/>
<path fill-rule="evenodd" clip-rule="evenodd" d="M395.868 46.8992C399.559 47.2173 401.619 45.1816 402.2 41.6113C402.073 37.9217 400.378 35.5998 396.623 35.4249C393.179 35.2817 390.959 37.0947 390.657 40.5696C390.33 44.2195 392.16 46.5811 395.868 46.8992Z" fill="#F5E8FF"/>
<path fill-rule="evenodd" clip-rule="evenodd" d="M77.6158 251.975C81.1083 251.967 83.1609 249.859 83.1609 246.377C83.1609 242.894 80.9651 241.105 77.3055 240.683C74.2346 241.224 71.9434 242.862 72.015 246.432C72.0627 249.923 74.1232 251.998 77.6158 251.975Z" fill="#F5E8FF"/>
<path fill-rule="evenodd" clip-rule="evenodd" d="M58.7051 308.202C62.2215 308.313 64.0274 306.166 64.5287 302.802C64.2104 299.359 62.4999 297.133 58.9835 297.053C55.491 296.99 53.3509 299.009 53.2713 302.484C53.1838 305.975 55.2125 308.09 58.713 308.194L58.7051 308.202Z" fill="#F5E8FF"/>
<path fill-rule="evenodd" clip-rule="evenodd" d="M358.993 46.8276C362.525 46.6606 364.26 44.5693 364.602 41.15C364.228 37.7467 362.477 35.5918 358.953 35.544C355.468 35.5043 353.456 37.4843 353.217 40.9671C352.994 44.2989 355.659 46.9945 358.993 46.8196V46.8276Z" fill="#F5E8FF"/>
<path fill-rule="evenodd" clip-rule="evenodd" d="M320.44 46.5098C321.148 46.486 321.856 46.478 322.572 46.4541C323.988 44.3867 326.271 42.4544 326.637 40.2041C327.122 37.1029 324.712 35.0673 321.482 34.8049C318.522 34.5663 315.213 37.6913 316.056 40.4188C316.764 42.693 318.936 44.498 320.448 46.5178L320.44 46.5098Z" fill="#F5E8FF"/>
<path fill-rule="evenodd" clip-rule="evenodd" d="M133.91 158.152C137.156 158.152 139.225 156.092 139.296 152.856C139.384 149.349 137.172 147.552 132.327 146.908C131.237 148.435 128.882 150.335 128.516 152.562C127.967 155.91 130.442 158.16 133.91 158.144V158.152Z" fill="#F5E8FF"/>
<path fill-rule="evenodd" clip-rule="evenodd" d="M114.968 176.743C117.251 176.187 119.192 174.127 121.301 172.728C121.316 172.02 121.34 171.312 121.372 170.612C119.383 169.062 117.577 166.66 115.35 166.183C112.271 165.499 110.139 167.829 109.653 171.01C109.224 173.92 112.151 177.411 114.96 176.751L114.968 176.743Z" fill="#F5E8FF"/>
<path fill-rule="evenodd" clip-rule="evenodd" d="M147.069 133.788C146.997 137.279 149.058 139.426 152.543 139.466C156.075 139.505 157.825 137.279 158.271 133.589C157.642 130.56 155.956 128.286 152.399 128.421C149.153 128.54 147.117 130.544 147.061 133.788H147.069Z" fill="#F5E8FF"/>
<path fill-rule="evenodd" clip-rule="evenodd" d="M264.901 64.4329C268.409 64.5521 270.231 62.3416 270.899 57.5148C269.388 56.4096 267.494 54.0399 265.267 53.6503C261.933 53.0778 259.666 55.5349 259.634 59.0177C259.618 62.2541 261.663 64.3374 264.901 64.4329Z" fill="#F5E8FF"/>
<path fill-rule="evenodd" clip-rule="evenodd" d="M170.976 120.676C174.476 120.906 176.354 118.727 177.181 113.932C175.702 112.779 173.888 110.338 171.676 109.893C168.343 109.209 166.027 111.611 165.884 115.07C165.757 118.322 167.778 120.453 170.976 120.668V120.676Z" fill="#F5E8FF"/>
<path fill-rule="evenodd" clip-rule="evenodd" d="M190.181 101.639C192.385 101.249 194.254 98.8957 196.275 97.4167C196.275 96.701 196.243 95.9774 196.235 95.2538C194.151 93.8623 192.178 91.5801 189.958 91.2939C186.855 90.8883 184.715 93.3454 184.795 96.5738C184.874 99.7863 187.086 102.188 190.189 101.639H190.181Z" fill="#F5E8FF"/>
<path fill-rule="evenodd" clip-rule="evenodd" d="M39.8501 363.681C41.7913 363.832 43.9473 361.367 45.9919 360.055V357.908C44.1064 356.508 42.38 354.274 40.3115 353.908C37.169 353.336 34.5993 355.697 35.1642 358.806C35.5222 360.755 38.1078 363.562 39.8501 363.689V363.681Z" fill="#F5E8FF"/>
<path fill-rule="evenodd" clip-rule="evenodd" d="M96.2003 195.096C98.1733 194.754 101.013 192.217 101.157 190.468C101.332 188.52 98.8893 186.349 97.5925 184.282C96.8765 184.282 96.1685 184.266 95.4525 184.266C94.0204 186.134 91.769 187.836 91.3712 189.888C90.7586 193.013 93.0896 195.629 96.2003 195.096Z" fill="#F5E8FF"/>
<path fill-rule="evenodd" clip-rule="evenodd" d="M58.5937 270.104C60.7974 269.778 62.7227 267.623 64.7514 266.271C64.7514 265.564 64.7275 264.84 64.7196 264.124C62.8261 262.749 61.0759 260.546 58.9994 260.18C55.8569 259.64 53.7646 261.906 53.7407 265.182C53.7169 268.22 55.6899 270.541 58.5937 270.104Z" fill="#F5E8FF"/>
<path fill-rule="evenodd" clip-rule="evenodd" d="M376.766 27.9822C377.498 27.9504 378.222 27.9106 378.938 27.8788C380.091 26.034 382.311 24.0222 382.072 22.3841C381.81 20.6427 379.415 18.2651 377.601 17.8994C374.578 17.295 372.438 19.6965 373.035 22.7261C373.417 24.6424 375.461 26.2407 376.766 27.9822Z" fill="#F5E8FF"/>
<path fill-rule="evenodd" clip-rule="evenodd" d="M415.136 26.8846C416.783 27.1073 418.756 24.8649 420.594 23.696C420.618 22.9644 420.634 22.2328 420.657 21.5092C418.891 20.237 417.276 18.2093 415.351 17.8435C412.304 17.2789 409.949 19.4656 410.586 22.4714C410.983 24.2764 413.386 26.6461 415.136 26.8767V26.8846Z" fill="#F5E8FF"/>
<path fill-rule="evenodd" clip-rule="evenodd" d="M283.979 44.8957C285.936 44.5617 287.622 42.6374 289.428 41.4367C289.428 40.7052 289.444 39.9815 289.46 39.25C287.702 37.9777 286.079 35.9898 284.138 35.5922C281.115 34.9879 279.118 36.9678 279.078 40.1565C279.038 43.3372 280.916 45.4046 283.979 44.8878V44.8957Z" fill="#F5E8FF"/>
<path fill-rule="evenodd" clip-rule="evenodd" d="M77.5283 213.456C80.5355 214.1 82.7313 211.747 82.1664 208.701C81.8164 206.777 79.7877 205.147 78.5227 203.381C77.7988 203.405 77.0589 203.429 76.327 203.453C75.1654 205.274 72.914 207.254 73.1367 208.892C73.3595 210.641 75.7223 213.067 77.5283 213.456Z" fill="#F5E8FF"/>
<path fill-rule="evenodd" clip-rule="evenodd" d="M207.596 83.3578C208.368 83.3658 209.139 83.3737 209.927 83.3896C211.2 81.4812 213.515 79.541 213.451 77.6962C213.372 76.0104 210.945 73.5215 209.1 73.0444C206.18 72.2811 203.729 74.4121 204.143 77.5053C204.406 79.5728 206.371 81.4176 207.596 83.3578Z" fill="#F5E8FF"/>
<path fill-rule="evenodd" clip-rule="evenodd" d="M39.8899 326.148C43.0483 326.251 45.1963 324.446 44.7349 321.361C44.4405 319.397 42.5709 317.671 41.4014 315.835C40.6775 315.811 39.9615 315.787 39.2375 315.747C37.9169 317.473 35.8722 319.055 35.4426 320.987C34.7744 323.977 36.6758 326.037 39.8899 326.148Z" fill="#F5E8FF"/>
<path fill-rule="evenodd" clip-rule="evenodd" d="M227.382 63.304C229.188 63.0098 231.694 60.7038 231.932 58.9862C232.147 57.372 229.8 55.4238 228.583 53.6108C227.867 53.6267 227.159 53.6426 226.443 53.6506C225.289 55.4875 223.133 57.3879 223.253 59.1452C223.356 60.7197 226.165 63.4948 227.382 63.304Z" fill="#F5E8FF"/>
<path fill-rule="evenodd" clip-rule="evenodd" d="M39.9615 288.385C41.489 286.93 44.0427 285.618 44.2814 283.972C44.4962 282.421 42.2845 280.537 40.2558 277.428C38.0601 280.41 35.7529 282.183 35.8722 283.749C36.0154 285.403 38.4976 286.843 39.9615 288.393V288.385Z" fill="#F5E8FF"/>
<path fill-rule="evenodd" clip-rule="evenodd" d="M340.209 25.7638C341.594 26.0899 343.599 23.6964 346.614 21.6289C343.686 19.4343 341.936 17.1124 340.337 17.2157C338.658 17.3191 337.123 19.7523 335.532 21.1598C337.059 22.7979 338.396 25.3504 340.202 25.7638H340.209Z" fill="#F5E8FF"/>
<path fill-rule="evenodd" clip-rule="evenodd" d="M58.721 231.737C60.4235 231.427 62.7386 229.193 62.9216 227.571C63.0728 226.06 60.7974 224.271 59.5961 222.617C58.9517 222.641 58.3153 222.672 57.6629 222.688C56.6048 224.454 54.6079 226.282 54.7431 227.944C54.8545 229.415 57.5754 231.96 58.721 231.745V231.737Z" fill="#F5E8FF"/>
<path fill-rule="evenodd" clip-rule="evenodd" d="M115.294 137.613C116.487 137.859 118.134 135.847 120.863 133.931C118.055 132.086 116.455 130.226 114.944 130.289C113.639 130.353 111.213 132.881 111.451 133.812C111.817 135.37 113.735 137.295 115.302 137.605L115.294 137.613Z" fill="#F5E8FF"/>
<path fill-rule="evenodd" clip-rule="evenodd" d="M246.467 43.8857C247.398 44.1163 249.944 41.7149 250.008 40.4108C250.087 38.9 248.242 37.2858 246.42 34.4629C244.479 37.1824 242.45 38.8204 242.681 40.0212C242.991 41.5717 244.908 43.504 246.467 43.8937V43.8857Z" fill="#F5E8FF"/>
<path fill-rule="evenodd" clip-rule="evenodd" d="M302.531 25.2629C303.924 25.4776 305.658 23.4499 308.633 21.4938C305.666 19.5456 304.051 17.669 302.507 17.7167C301.155 17.7644 298.689 20.1897 298.864 21.2234C299.11 22.8058 301.044 25.0244 302.539 25.2629H302.531Z" fill="#F5E8FF"/>
<path fill-rule="evenodd" clip-rule="evenodd" d="M133.703 119.125C135.056 117.789 137.156 116.62 137.498 115.062C137.761 113.869 135.78 112.199 133.918 109.424C132.017 112.207 130.139 113.773 130.187 115.292C130.219 116.596 132.446 117.853 133.703 119.125Z" fill="#F5E8FF"/>
<path fill-rule="evenodd" clip-rule="evenodd" d="M39.9615 249.859C41.4014 249.891 42.8733 248.126 45.4509 246.369C42.9449 244.619 41.3696 242.719 40.2558 242.957C38.792 243.252 37.0019 245.088 36.6439 246.575C36.4371 247.426 38.7442 249.828 39.9615 249.859Z" fill="#F5E8FF"/>
<path fill-rule="evenodd" clip-rule="evenodd" d="M359.001 7.0534C360.25 7.15677 361.674 5.30402 364.069 3.52283C361.563 1.90067 360.019 0.135388 358.778 0.32623C357.465 0.525023 356.423 2.56862 355.254 3.80909C356.495 4.97004 357.68 6.94207 359.001 7.0534Z" fill="#F5E8FF"/>
<path fill-rule="evenodd" clip-rule="evenodd" d="M17.9958 302.531C17.964 303.732 19.937 305.808 21.2576 305.998C22.4908 306.189 24.0103 304.424 26.5482 302.794C24.1455 301.021 22.7135 299.168 21.4724 299.279C20.1279 299.391 18.0276 301.331 17.9958 302.531Z" fill="#F5E8FF"/>
<path fill-rule="evenodd" clip-rule="evenodd" d="M21.3531 336.287C20.0643 337.551 17.9321 338.728 17.7571 340.128C17.5821 341.456 19.4676 343.062 21.2974 345.781C23.159 343.078 25.0764 341.496 24.9252 340.168C24.7502 338.76 22.634 337.583 21.361 336.287H21.3531Z" fill="#F5E8FF"/>
<path fill-rule="evenodd" clip-rule="evenodd" d="M96.431 156.196C97.7278 156.339 99.2712 154.383 101.96 152.451C99.0962 150.741 97.513 149.063 96.065 149.175C94.8319 149.262 92.6361 151.624 92.835 152.578C93.1453 154.049 95.0308 156.045 96.431 156.196Z" fill="#F5E8FF"/>
<path fill-rule="evenodd" clip-rule="evenodd" d="M156.425 96.5659C155.168 95.2538 154.062 93.0989 152.654 92.8763C151.325 92.6854 149.702 94.5541 146.926 96.3273C149.607 98.2357 151.142 100.176 152.471 100.041C153.879 99.9056 155.12 97.8064 156.425 96.5659Z" fill="#F5E8FF"/>
<path fill-rule="evenodd" clip-rule="evenodd" d="M174.803 78.1178C174.58 76.6229 172.861 74.7303 171.39 74.285C170.538 74.0226 168 76.1855 167.905 77.3862C167.786 78.8255 169.48 80.4079 171.071 83.0638C172.973 80.6862 174.978 79.239 174.803 78.1178Z" fill="#F5E8FF"/>
<path fill-rule="evenodd" clip-rule="evenodd" d="M77.4964 174.803C78.7614 174.986 80.2809 173.221 82.8029 171.591C80.3844 169.825 78.9842 167.965 77.7272 168.076C76.3986 168.179 75.2291 170.159 73.9959 171.312C75.1495 172.553 76.1838 174.604 77.4964 174.803Z" fill="#F5E8FF"/>
<path fill-rule="evenodd" clip-rule="evenodd" d="M399.821 3.82478C399.503 2.35371 397.49 1.25637 396.21 0C395.032 1.20071 392.932 2.40142 392.924 3.62599C392.9 5.0573 394.69 6.52042 396.464 9.06498C398.191 6.52837 400.068 4.93803 399.821 3.82478Z" fill="#F5E8FF"/>
<path fill-rule="evenodd" clip-rule="evenodd" d="M190.038 62.0555C191.167 62.2225 192.56 60.6003 194.867 59.1054C192.663 57.4912 191.366 55.8054 190.213 55.9088C188.996 56.0042 187.937 57.8172 186.8 58.8907C187.866 60.0278 188.828 61.8965 190.038 62.0635V62.0555Z" fill="#F5E8FF"/>
<path fill-rule="evenodd" clip-rule="evenodd" d="M268.187 21.4937C268.035 20.2771 266.174 19.291 265.076 18.2017C263.986 19.307 262.156 20.3486 262.029 21.5573C261.909 22.7023 263.572 24.0303 265.147 26.2647C266.683 23.9985 268.33 22.6228 268.187 21.4937Z" fill="#F5E8FF"/>
<path fill-rule="evenodd" clip-rule="evenodd" d="M209.02 42.7883C209.768 42.995 210.977 41.4842 212.656 40.2358C210.969 38.9953 209.927 37.6276 208.972 37.6833C207.978 37.7549 207.063 39.1862 206.124 40.0211C207.071 40.9992 207.89 42.4941 209.028 42.7883H209.02Z" fill="#F5E8FF"/>
<path fill-rule="evenodd" clip-rule="evenodd" d="M21.5281 267.695C22.276 267.894 23.4613 266.359 25.132 265.079C23.4216 263.862 22.3635 262.51 21.4088 262.582C20.4143 262.669 19.5312 264.109 18.6004 264.959C19.5631 265.929 20.3905 267.401 21.5281 267.687V267.695Z" fill="#F5E8FF"/>
<path fill-rule="evenodd" clip-rule="evenodd" d="M58.9119 192.877C59.8905 192.854 61.4737 191.152 61.5612 190.086C61.6487 189.061 60.1451 187.908 58.713 185.959C57.4003 187.987 55.9604 189.228 56.1036 190.23C56.2627 191.303 57.9493 192.917 58.9199 192.877H58.9119Z" fill="#F5E8FF"/>
<path fill-rule="evenodd" clip-rule="evenodd" d="M321.458 5.48661C322.468 5.56613 323.63 4.0712 325.579 2.61603C323.558 1.29605 322.317 -0.119364 321.299 0.0158159C320.225 0.166899 319.381 1.82881 318.427 2.83868C319.429 3.76903 320.376 5.38324 321.45 5.48661H321.458Z" fill="#F5E8FF"/>
</svg>
