<svg width="40" height="40" viewBox="0 0 40 40" fill="none" xmlns="http://www.w3.org/2000/svg">
<path d="M32.6483 11.1435C30.9839 10.7875 29.4767 9.90908 28.3464 8.63642C27.2162 7.36376 26.522 5.76335 26.365 4.0685V3.3335H20.6233V26.1202C20.6198 27.129 20.3002 28.1113 19.7096 28.9291C19.119 29.7469 18.2869 30.3591 17.3304 30.6797C16.3739 31.0002 15.341 31.013 14.3768 30.7163C13.4127 30.4195 12.5657 29.8281 11.955 29.0252C11.3348 28.2088 10.9908 27.2161 10.9728 26.191C10.9548 25.166 11.2638 24.1618 11.8549 23.3242C12.4461 22.4865 13.2887 21.859 14.2606 21.5325C15.2324 21.2061 16.283 21.1976 17.26 21.5085V15.6752C15.0814 15.374 12.8632 15.7613 10.9156 16.7829C8.96797 17.8046 7.3884 19.4094 6.3978 21.373C5.4072 23.3365 5.05512 25.5606 5.39081 27.7342C5.72649 29.9077 6.73316 31.9219 8.27 33.4952C9.7356 34.9948 11.6148 36.0236 13.6678 36.4504C15.7207 36.8771 17.8543 36.6825 19.7961 35.8912C21.7379 35.1 23.3999 33.748 24.5699 32.008C25.7399 30.2679 26.3649 28.2187 26.365 26.1218V14.4785C28.6854 16.1374 31.4676 17.0269 34.32 17.0218V11.3168C33.7583 11.3175 33.198 11.2594 32.6483 11.1435Z" fill="white"/>
</svg>
