<svg width="40" height="40" viewBox="0 0 40 40" fill="none" xmlns="http://www.w3.org/2000/svg">
<path d="M27.35 2.5H22.35C17.35 2.5 12.2625 6.25 12.2625 14.525C12.158 16.443 12.586 18.3526 13.4994 20.0425C14.4127 21.7324 15.7757 23.1366 17.4375 24.1L11.25 35.1625C11.1082 35.403 11.0334 35.6771 11.0334 35.9562C11.0334 36.2354 11.1082 36.5095 11.25 36.75C11.3783 36.9702 11.5602 37.1544 11.7787 37.2855C11.9972 37.4166 12.2453 37.4904 12.5 37.5H15.6125C15.9283 37.5154 16.2412 37.4338 16.5094 37.2662C16.7775 37.0987 16.9879 36.8531 17.1125 36.5625L22.85 25.3125H23.275V36.0875C23.2764 36.2801 23.3169 36.4703 23.3939 36.6468C23.4709 36.8233 23.5829 36.9824 23.723 37.1144C23.8632 37.2464 24.0287 37.3487 24.2095 37.4149C24.3903 37.4812 24.5827 37.5101 24.775 37.5H27.5C27.8672 37.5136 28.2251 37.3823 28.4964 37.1345C28.7676 36.8866 28.9306 36.542 28.95 36.175V4.025C28.955 3.82964 28.9214 3.63522 28.8513 3.45283C28.7811 3.27045 28.6756 3.10368 28.541 2.96206C28.4063 2.82044 28.2451 2.70674 28.0665 2.62746C27.8878 2.54817 27.6954 2.50486 27.5 2.5H27.35ZM23.375 20.35H22.6375C19.7625 20.35 18.0625 18.0125 18.0625 14.1C18.0625 9.225 20.225 7.4875 22.2375 7.4875H23.4125L23.375 20.35Z" fill="#D61E3B"/>
</svg>
